{"asset":{"generator":"Khronos glTF Blender I/O v5.2.40","version":"2.0"},"extensionsUsed":["KHR_materials_specular"],"scene":0,"scenes":[{"name":"Scene","nodes":[0,1,2,3,4,5,6,7,8,9,10,11,12,13,14,15,16,17,18,19,20,21,22,23,24,25,26,27,28,29,30,31,32,33,34,35,36,37,38,39,40,41,42,43,44,45,46,47,48,49,50,51,52]}],"nodes":[{"mesh":0,"name":"Drip course","rotation":[0.7071068286895752,0,0,0.7071068286895752]},{"mesh":1,"name":"Individual ashlar","rotation":[0.7071068286895752,0,0,0.7071068286895752]},{"mesh":2,"name":"Individual ashlar.001","rotation":[0.7071068286895752,0,0,0.7071068286895752]},{"mesh":3,"name":"Individual ashlar.002","rotation":[0.7071068286895752,0,0,0.7071068286895752]},{"mesh":4,"name":"Individual ashlar.003","rotation":[0.7071068286895752,0,0,0.7071068286895752]},{"mesh":5,"name":"Individual ashlar.004","rotation":[0.7071068286895752,0,0,0.7071068286895752]},{"mesh":6,"name":"Individual ashlar.005","rotation":[0.7071068286895752,0,0,0.7071068286895752]},{"mesh":7,"name":"Individual ashlar.006","rotation":[0.7071068286895752,0,0,0.7071068286895752]},{"mesh":8,"name":"Individual ashlar.007","rotation":[0.7071068286895752,0,0,0.7071068286895752]},{"mesh":9,"name":"Individual ashlar.008","rotation":[0.7071068286895752,0,0,0.7071068286895752]},{"mesh":10,"name":"Individual ashlar.009","rotation":[0.7071068286895752,0,0,0.7071068286895752]},{"mesh":11,"name":"Individual ashlar.010","rotation":[0.7071068286895752,0,0,0.7071068286895752]},{"mesh":12,"name":"Individual ashlar.011","rotation":[0.7071068286895752,0,0,0.7071068286895752]},{"mesh":13,"name":"Individual ashlar.012","rotation":[0.7071068286895752,0,0,0.7071068286895752]},{"mesh":14,"name":"Individual ashlar.013","rotation":[0.7071068286895752,0,0,0.7071068286895752]},{"mesh":15,"name":"Individual ashlar.014","rotation":[0.7071068286895752,0,0,0.7071068286895752]},{"mesh":16,"name":"Individual ashlar.015","rotation":[0.7071068286895752,0,0,0.7071068286895752]},{"mesh":17,"name":"Individual ashlar.016","rotation":[0.7071068286895752,0,0,0.7071068286895752]},{"mesh":18,"name":"Individual ashlar.017","rotation":[0.7071068286895752,0,0,0.7071068286895752]},{"mesh":19,"name":"Individual ashlar.018","rotation":[0.7071068286895752,0,0,0.7071068286895752]},{"mesh":20,"name":"Individual ashlar.019","rotation":[0.7071068286895752,0,0,0.7071068286895752]},{"mesh":21,"name":"Individual ashlar.020","rotation":[0.7071068286895752,0,0,0.7071068286895752]},{"mesh":22,"name":"Individual ashlar.021","rotation":[0.7071068286895752,0,0,0.7071068286895752]},{"mesh":23,"name":"Individual ashlar.022","rotation":[0.7071068286895752,0,0,0.7071068286895752]},{"mesh":24,"name":"Individual ashlar.023","rotation":[0.7071068286895752,0,0,0.7071068286895752]},{"mesh":25,"name":"Individual ashlar.024","rotation":[0.7071068286895752,0,0,0.7071068286895752]},{"mesh":26,"name":"Individual ashlar.025","rotation":[0.7071068286895752,0,0,0.7071068286895752]},{"mesh":27,"name":"Individual ashlar.026","rotation":[0.7071068286895752,0,0,0.7071068286895752]},{"mesh":28,"name":"Individual ashlar.027","rotation":[0.7071068286895752,0,0,0.7071068286895752]},{"mesh":29,"name":"Individual ashlar.028","rotation":[0.7071068286895752,0,0,0.7071068286895752]},{"mesh":30,"name":"Individual ashlar.029","rotation":[0.7071068286895752,0,0,0.7071068286895752]},{"mesh":31,"name":"Individual ashlar.030","rotation":[0.7071068286895752,0,0,0.7071068286895752]},{"mesh":32,"name":"Individual ashlar.031","rotation":[0.7071068286895752,0,0,0.7071068286895752]},{"mesh":33,"name":"Individual ashlar.032","rotation":[0.7071068286895752,0,0,0.7071068286895752]},{"mesh":34,"name":"Individual ashlar.033","rotation":[0.7071068286895752,0,0,0.7071068286895752]},{"mesh":35,"name":"Individual ashlar.034","rotation":[0.7071068286895752,0,0,0.7071068286895752]},{"mesh":36,"name":"Individual ashlar.035","rotation":[0.7071068286895752,0,0,0.7071068286895752]},{"mesh":37,"name":"Individual ashlar.036","rotation":[0.7071068286895752,0,0,0.7071068286895752]},{"mesh":38,"name":"Individual ashlar.037","rotation":[0.7071068286895752,0,0,0.7071068286895752]},{"mesh":39,"name":"Individual ashlar.038","rotation":[0.7071068286895752,0,0,0.7071068286895752]},{"mesh":40,"name":"Individual ashlar.039","rotation":[0.7071068286895752,0,0,0.7071068286895752]},{"mesh":41,"name":"Individual ashlar.040","rotation":[0.7071068286895752,0,0,0.7071068286895752]},{"mesh":42,"name":"Individual ashlar.041","rotation":[0.7071068286895752,0,0,0.7071068286895752]},{"mesh":43,"name":"Individual ashlar.042","rotation":[0.7071068286895752,0,0,0.7071068286895752]},{"mesh":44,"name":"Individual ashlar.043","rotation":[0.7071068286895752,0,0,0.7071068286895752]},{"mesh":45,"name":"Individual ashlar.044","rotation":[0.7071068286895752,0,0,0.7071068286895752]},{"mesh":46,"name":"Individual ashlar.045","rotation":[0.7071068286895752,0,0,0.7071068286895752]},{"mesh":47,"name":"Individual ashlar.046","rotation":[0.7071068286895752,0,0,0.7071068286895752]},{"mesh":48,"name":"Individual ashlar.047","rotation":[0.7071068286895752,0,0,0.7071068286895752]},{"mesh":49,"name":"Individual ashlar.048","rotation":[0.7071068286895752,0,0,0.7071068286895752]},{"mesh":50,"name":"Individual ashlar.049","rotation":[0.7071068286895752,0,0,0.7071068286895752]},{"mesh":51,"name":"Mortar backing","rotation":[0.7071068286895752,0,0,0.7071068286895752]},{"mesh":52,"name":"Wall coping","rotation":[0.7071068286895752,0,0,0.7071068286895752]}],"materials":[{"doubleSided":true,"extensions":{"KHR_materials_specular":{"specularFactor":0.5}},"name":"Cut limestone trim.002","normalTexture":{"index":0,"scale":0.11999999731779099},"pbrMetallicRoughness":{"baseColorTexture":{"index":1},"metallicFactor":0,"metallicRoughnessTexture":{"index":2}}},{"doubleSided":true,"extensions":{"KHR_materials_specular":{"specularFactor":0.5}},"name":"Weathered limestone.002","normalTexture":{"index":3,"scale":0.2800000011920929},"pbrMetallicRoughness":{"baseColorTexture":{"index":4},"metallicFactor":0,"metallicRoughnessTexture":{"index":5}}},{"doubleSided":true,"extensions":{"KHR_materials_specular":{"specularFactor":0.5}},"name":"Weathered limestone.002_soot","normalTexture":{"index":6,"scale":0.2800000011920929},"pbrMetallicRoughness":{"baseColorTexture":{"index":7},"metallicFactor":0,"roughnessFactor":0.9700000286102295}},{"doubleSided":true,"name":"Stone joints.002","pbrMetallicRoughness":{"baseColorFactor":[0.012000000104308128,0.014000000432133675,0.012000000104308128,1],"metallicFactor":0,"roughnessFactor":0.9599999785423279}},{"doubleSided":true,"extensions":{"KHR_materials_specular":{"specularFactor":0.5}},"name":"Cut limestone trim.002_soot","normalTexture":{"index":8,"scale":0.11999999731779099},"pbrMetallicRoughness":{"baseColorTexture":{"index":9},"metallicFactor":0,"roughnessFactor":0.9700000286102295}}],"meshes":[{"name":"Drip course.002","primitives":[{"attributes":{"POSITION":0,"NORMAL":1,"TEXCOORD_0":2},"indices":3,"material":0}]},{"name":"Individual ashlar.100","primitives":[{"attributes":{"POSITION":4,"NORMAL":5,"TEXCOORD_0":6},"indices":7,"material":1}]},{"name":"Individual ashlar.101","primitives":[{"attributes":{"POSITION":8,"NORMAL":9,"TEXCOORD_0":10},"indices":11,"material":1}]},{"name":"Individual ashlar.102","primitives":[{"attributes":{"POSITION":12,"NORMAL":13,"TEXCOORD_0":14},"indices":15,"material":1}]},{"name":"Individual ashlar.103","primitives":[{"attributes":{"POSITION":16,"NORMAL":17,"TEXCOORD_0":18},"indices":19,"material":1}]},{"name":"Individual ashlar.104","primitives":[{"attributes":{"POSITION":20,"NORMAL":21,"TEXCOORD_0":22},"indices":23,"material":1}]},{"name":"Individual ashlar.105","primitives":[{"attributes":{"POSITION":24,"NORMAL":25,"TEXCOORD_0":26},"indices":27,"material":2}]},{"name":"Individual ashlar.106","primitives":[{"attributes":{"POSITION":28,"NORMAL":29,"TEXCOORD_0":30},"indices":31,"material":2}]},{"name":"Individual ashlar.107","primitives":[{"attributes":{"POSITION":32,"NORMAL":33,"TEXCOORD_0":34},"indices":35,"material":1}]},{"name":"Individual ashlar.108","primitives":[{"attributes":{"POSITION":36,"NORMAL":37,"TEXCOORD_0":38},"indices":39,"material":1}]},{"name":"Individual ashlar.109","primitives":[{"attributes":{"POSITION":40,"NORMAL":41,"TEXCOORD_0":42},"indices":43,"material":2}]},{"name":"Individual ashlar.110","primitives":[{"attributes":{"POSITION":44,"NORMAL":45,"TEXCOORD_0":46},"indices":47,"material":1}]},{"name":"Individual ashlar.111","primitives":[{"attributes":{"POSITION":48,"NORMAL":49,"TEXCOORD_0":50},"indices":51,"material":1}]},{"name":"Individual ashlar.112","primitives":[{"attributes":{"POSITION":52,"NORMAL":53,"TEXCOORD_0":54},"indices":55,"material":1}]},{"name":"Individual ashlar.113","primitives":[{"attributes":{"POSITION":56,"NORMAL":57,"TEXCOORD_0":58},"indices":59,"material":1}]},{"name":"Individual ashlar.114","primitives":[{"attributes":{"POSITION":60,"NORMAL":61,"TEXCOORD_0":62},"indices":63,"material":1}]},{"name":"Individual ashlar.115","primitives":[{"attributes":{"POSITION":64,"NORMAL":65,"TEXCOORD_0":66},"indices":67,"material":1}]},{"name":"Individual ashlar.116","primitives":[{"attributes":{"POSITION":68,"NORMAL":69,"TEXCOORD_0":70},"indices":71,"material":1}]},{"name":"Individual ashlar.117","primitives":[{"attributes":{"POSITION":72,"NORMAL":73,"TEXCOORD_0":74},"indices":75,"material":1}]},{"name":"Individual ashlar.118","primitives":[{"attributes":{"POSITION":76,"NORMAL":77,"TEXCOORD_0":78},"indices":79,"material":1}]},{"name":"Individual ashlar.119","primitives":[{"attributes":{"POSITION":80,"NORMAL":81,"TEXCOORD_0":82},"indices":83,"material":1}]},{"name":"Individual ashlar.120","primitives":[{"attributes":{"POSITION":84,"NORMAL":85,"TEXCOORD_0":86},"indices":87,"material":2}]},{"name":"Individual ashlar.121","primitives":[{"attributes":{"POSITION":88,"NORMAL":89,"TEXCOORD_0":90},"indices":91,"material":1}]},{"name":"Individual ashlar.122","primitives":[{"attributes":{"POSITION":92,"NORMAL":93,"TEXCOORD_0":94},"indices":95,"material":1}]},{"name":"Individual ashlar.123","primitives":[{"attributes":{"POSITION":96,"NORMAL":97,"TEXCOORD_0":98},"indices":99,"material":1}]},{"name":"Individual ashlar.124","primitives":[{"attributes":{"POSITION":100,"NORMAL":101,"TEXCOORD_0":102},"indices":103,"material":1}]},{"name":"Individual ashlar.125","primitives":[{"attributes":{"POSITION":104,"NORMAL":105,"TEXCOORD_0":106},"indices":107,"material":1}]},{"name":"Individual ashlar.126","primitives":[{"attributes":{"POSITION":108,"NORMAL":109,"TEXCOORD_0":110},"indices":111,"material":1}]},{"name":"Individual ashlar.127","primitives":[{"attributes":{"POSITION":112,"NORMAL":113,"TEXCOORD_0":114},"indices":115,"material":1}]},{"name":"Individual ashlar.128","primitives":[{"attributes":{"POSITION":116,"NORMAL":117,"TEXCOORD_0":118},"indices":119,"material":1}]},{"name":"Individual ashlar.129","primitives":[{"attributes":{"POSITION":120,"NORMAL":121,"TEXCOORD_0":122},"indices":123,"material":1}]},{"name":"Individual ashlar.130","primitives":[{"attributes":{"POSITION":124,"NORMAL":125,"TEXCOORD_0":126},"indices":127,"material":1}]},{"name":"Individual ashlar.131","primitives":[{"attributes":{"POSITION":128,"NORMAL":129,"TEXCOORD_0":130},"indices":131,"material":1}]},{"name":"Individual ashlar.132","primitives":[{"attributes":{"POSITION":132,"NORMAL":133,"TEXCOORD_0":134},"indices":135,"material":1}]},{"name":"Individual ashlar.133","primitives":[{"attributes":{"POSITION":136,"NORMAL":137,"TEXCOORD_0":138},"indices":139,"material":1}]},{"name":"Individual ashlar.134","primitives":[{"attributes":{"POSITION":140,"NORMAL":141,"TEXCOORD_0":142},"indices":143,"material":1}]},{"name":"Individual ashlar.135","primitives":[{"attributes":{"POSITION":144,"NORMAL":145,"TEXCOORD_0":146},"indices":147,"material":1}]},{"name":"Individual ashlar.136","primitives":[{"attributes":{"POSITION":148,"NORMAL":149,"TEXCOORD_0":150},"indices":151,"material":1}]},{"name":"Individual ashlar.137","primitives":[{"attributes":{"POSITION":152,"NORMAL":153,"TEXCOORD_0":154},"indices":155,"material":1}]},{"name":"Individual ashlar.138","primitives":[{"attributes":{"POSITION":156,"NORMAL":157,"TEXCOORD_0":158},"indices":159,"material":1}]},{"name":"Individual ashlar.139","primitives":[{"attributes":{"POSITION":160,"NORMAL":161,"TEXCOORD_0":162},"indices":163,"material":1}]},{"name":"Individual ashlar.140","primitives":[{"attributes":{"POSITION":164,"NORMAL":165,"TEXCOORD_0":166},"indices":167,"material":1}]},{"name":"Individual ashlar.141","primitives":[{"attributes":{"POSITION":168,"NORMAL":169,"TEXCOORD_0":170},"indices":171,"material":1}]},{"name":"Individual ashlar.142","primitives":[{"attributes":{"POSITION":172,"NORMAL":173,"TEXCOORD_0":174},"indices":175,"material":1}]},{"name":"Individual ashlar.143","primitives":[{"attributes":{"POSITION":176,"NORMAL":177,"TEXCOORD_0":178},"indices":179,"material":1}]},{"name":"Individual ashlar.144","primitives":[{"attributes":{"POSITION":180,"NORMAL":181,"TEXCOORD_0":182},"indices":183,"material":1}]},{"name":"Individual ashlar.145","primitives":[{"attributes":{"POSITION":184,"NORMAL":185,"TEXCOORD_0":186},"indices":187,"material":1}]},{"name":"Individual ashlar.146","primitives":[{"attributes":{"POSITION":188,"NORMAL":189,"TEXCOORD_0":190},"indices":191,"material":2}]},{"name":"Individual ashlar.147","primitives":[{"attributes":{"POSITION":192,"NORMAL":193,"TEXCOORD_0":194},"indices":195,"material":1}]},{"name":"Individual ashlar.148","primitives":[{"attributes":{"POSITION":196,"NORMAL":197,"TEXCOORD_0":198},"indices":199,"material":2}]},{"name":"Individual ashlar.149","primitives":[{"attributes":{"POSITION":200,"NORMAL":201,"TEXCOORD_0":202},"indices":203,"material":1}]},{"name":"Mortar backing.002","primitives":[{"attributes":{"POSITION":204,"NORMAL":205,"TEXCOORD_0":206},"indices":207,"material":3}]},{"name":"Wall coping.002","primitives":[{"attributes":{"POSITION":208,"NORMAL":209,"TEXCOORD_0":210},"indices":211,"material":4}]}],"textures":[{"sampler":0,"source":0},{"sampler":0,"source":1},{"sampler":0,"source":2},{"sampler":0,"source":0},{"sampler":0,"source":3},{"sampler":0,"source":2},{"sampler":0,"source":0},{"sampler":0,"source":3},{"sampler":0,"source":0},{"sampler":0,"source":1}],"images":[{"name":"normal","uri":"../textures/111ec8bb85fd34402ad7.png"},{"name":"trim-charcoal","uri":"../textures/6d303909ef65238e168a.png"},{"name":"roughness","uri":"../textures/c9d4f48b4bf1f93fb137.png"},{"name":"wall-charcoal","uri":"../textures/ebd4ceb7053513a9ca36.png"}],"accessors":[{"bufferView":0,"componentType":5126,"count":268,"max":[2.075000047683716,0.3050000071525574,-0.10000000894069672],"min":[-2.075000047683716,-0.3050000071525574,-0.25999999046325684],"type":"VEC3"},{"bufferView":1,"componentType":5126,"count":268,"type":"VEC3"},{"bufferView":2,"componentType":5126,"count":268,"type":"VEC2"},{"bufferView":3,"componentType":5123,"count":564,"type":"SCALAR"},{"bufferView":4,"componentType":5126,"count":283,"max":[-1.2115000486373901,0.24268750846385956,-0.011500000953674316],"min":[-1.9884999990463257,-0.24268750846385956,-0.38850000500679016],"type":"VEC3"},{"bufferView":5,"componentType":5126,"count":283,"type":"VEC3"},{"bufferView":6,"componentType":5126,"count":283,"type":"VEC2"},{"bufferView":7,"componentType":5123,"count":564,"type":"SCALAR"},{"bufferView":8,"componentType":5126,"count":270,"max":[-0.4115000069141388,0.2292264699935913,-0.011500000953674316],"min":[-1.1885000467300415,-0.2292264699935913,-0.38850000500679016],"type":"VEC3"},{"bufferView":9,"componentType":5126,"count":270,"type":"VEC3"},{"bufferView":10,"componentType":5126,"count":270,"type":"VEC2"},{"bufferView":11,"componentType":5123,"count":564,"type":"SCALAR"},{"bufferView":12,"componentType":5126,"count":285,"max":[0.38850000500679016,0.2326410561800003,-0.011500000953674316],"min":[-0.38850000500679016,-0.2326410561800003,-0.38850000500679016],"type":"VEC3"},{"bufferView":13,"componentType":5126,"count":285,"type":"VEC3"},{"bufferView":14,"componentType":5126,"count":285,"type":"VEC2"},{"bufferView":15,"componentType":5123,"count":564,"type":"SCALAR"},{"bufferView":16,"componentType":5126,"count":259,"max":[1.1885000467300415,0.24432702362537384,-0.011500000953674316],"min":[0.4115000069141388,-0.24432702362537384,-0.38850000500679016],"type":"VEC3"},{"bufferView":17,"componentType":5126,"count":259,"type":"VEC3"},{"bufferView":18,"componentType":5126,"count":259,"type":"VEC2"},{"bufferView":19,"componentType":5123,"count":564,"type":"SCALAR"},{"bufferView":20,"componentType":5126,"count":292,"max":[1.9884999990463257,0.23888708651065826,-0.011500000953674316],"min":[1.2115000486373901,-0.23888708651065826,-0.38850000500679016],"type":"VEC3"},{"bufferView":21,"componentType":5126,"count":292,"type":"VEC3"},{"bufferView":22,"componentType":5126,"count":292,"type":"VEC2"},{"bufferView":23,"componentType":5123,"count":564,"type":"SCALAR"},{"bufferView":24,"componentType":5126,"count":292,"max":[-1.2115000486373901,0.23290619254112244,-0.4115000367164612],"min":[-1.9884999990463257,-0.23290619254112244,-0.7885000109672546],"type":"VEC3"},{"bufferView":25,"componentType":5126,"count":292,"type":"VEC3"},{"bufferView":26,"componentType":5126,"count":292,"type":"VEC2"},{"bufferView":27,"componentType":5123,"count":564,"type":"SCALAR"},{"bufferView":28,"componentType":5126,"count":266,"max":[-0.4115000069141388,0.22999776899814606,-0.4115000367164612],"min":[-1.1885000467300415,-0.22999776899814606,-0.7885000109672546],"type":"VEC3"},{"bufferView":29,"componentType":5126,"count":266,"type":"VEC3"},{"bufferView":30,"componentType":5126,"count":266,"type":"VEC2"},{"bufferView":31,"componentType":5123,"count":564,"type":"SCALAR"},{"bufferView":32,"componentType":5126,"count":289,"max":[0.38850000500679016,0.23360083997249603,-0.4115000367164612],"min":[-0.38850000500679016,-0.23360083997249603,-0.7885000109672546],"type":"VEC3"},{"bufferView":33,"componentType":5126,"count":289,"type":"VEC3"},{"bufferView":34,"componentType":5126,"count":289,"type":"VEC2"},{"bufferView":35,"componentType":5123,"count":564,"type":"SCALAR"},{"bufferView":36,"componentType":5126,"count":274,"max":[1.1885000467300415,0.2302314192056656,-0.4115000367164612],"min":[0.4115000069141388,-0.2302314192056656,-0.7885000109672546],"type":"VEC3"},{"bufferView":37,"componentType":5126,"count":274,"type":"VEC3"},{"bufferView":38,"componentType":5126,"count":274,"type":"VEC2"},{"bufferView":39,"componentType":5123,"count":564,"type":"SCALAR"},{"bufferView":40,"componentType":5126,"count":285,"max":[1.9884999990463257,0.2506409287452698,-0.4115000367164612],"min":[1.2115000486373901,-0.2506409287452698,-0.7885000109672546],"type":"VEC3"},{"bufferView":41,"componentType":5126,"count":285,"type":"VEC3"},{"bufferView":42,"componentType":5126,"count":285,"type":"VEC2"},{"bufferView":43,"componentType":5123,"count":564,"type":"SCALAR"},{"bufferView":44,"componentType":5126,"count":269,"max":[-1.2115000486373901,0.24700026214122772,-0.8115000128746033],"min":[-1.9884999990463257,-0.24700026214122772,-1.1885000467300415],"type":"VEC3"},{"bufferView":45,"componentType":5126,"count":269,"type":"VEC3"},{"bufferView":46,"componentType":5126,"count":269,"type":"VEC2"},{"bufferView":47,"componentType":5123,"count":564,"type":"SCALAR"},{"bufferView":48,"componentType":5126,"count":257,"max":[-0.4115000069141388,0.24136018753051758,-0.8115000128746033],"min":[-1.1885000467300415,-0.24136018753051758,-1.1885000467300415],"type":"VEC3"},{"bufferView":49,"componentType":5126,"count":257,"type":"VEC3"},{"bufferView":50,"componentType":5126,"count":257,"type":"VEC2"},{"bufferView":51,"componentType":5123,"count":564,"type":"SCALAR"},{"bufferView":52,"componentType":5126,"count":265,"max":[0.38850000500679016,0.23020504415035248,-0.8115000128746033],"min":[-0.38850000500679016,-0.23020504415035248,-1.1885000467300415],"type":"VEC3"},{"bufferView":53,"componentType":5126,"count":265,"type":"VEC3"},{"bufferView":54,"componentType":5126,"count":265,"type":"VEC2"},{"bufferView":55,"componentType":5123,"count":564,"type":"SCALAR"},{"bufferView":56,"componentType":5126,"count":306,"max":[1.1885000467300415,0.2430763840675354,-0.8115000128746033],"min":[0.4115000069141388,-0.2430763840675354,-1.1885000467300415],"type":"VEC3"},{"bufferView":57,"componentType":5126,"count":306,"type":"VEC3"},{"bufferView":58,"componentType":5126,"count":306,"type":"VEC2"},{"bufferView":59,"componentType":5123,"count":564,"type":"SCALAR"},{"bufferView":60,"componentType":5126,"count":264,"max":[1.9884999990463257,0.22952991724014282,-0.8115000128746033],"min":[1.2115000486373901,-0.22952991724014282,-1.1885000467300415],"type":"VEC3"},{"bufferView":61,"componentType":5126,"count":264,"type":"VEC3"},{"bufferView":62,"componentType":5126,"count":264,"type":"VEC2"},{"bufferView":63,"componentType":5123,"count":564,"type":"SCALAR"},{"bufferView":64,"componentType":5126,"count":270,"max":[-1.2115000486373901,0.24133063852787018,-1.2114999294281006],"min":[-1.9884999990463257,-0.24133063852787018,-1.5885000228881836],"type":"VEC3"},{"bufferView":65,"componentType":5126,"count":270,"type":"VEC3"},{"bufferView":66,"componentType":5126,"count":270,"type":"VEC2"},{"bufferView":67,"componentType":5123,"count":564,"type":"SCALAR"},{"bufferView":68,"componentType":5126,"count":284,"max":[-0.4115000069141388,0.2474450021982193,-1.2114999294281006],"min":[-1.1885000467300415,-0.2474450021982193,-1.5885000228881836],"type":"VEC3"},{"bufferView":69,"componentType":5126,"count":284,"type":"VEC3"},{"bufferView":70,"componentType":5126,"count":284,"type":"VEC2"},{"bufferView":71,"componentType":5123,"count":564,"type":"SCALAR"},{"bufferView":72,"componentType":5126,"count":288,"max":[0.38850000500679016,0.23322777450084686,-1.2114999294281006],"min":[-0.38850000500679016,-0.23322777450084686,-1.5885000228881836],"type":"VEC3"},{"bufferView":73,"componentType":5126,"count":288,"type":"VEC3"},{"bufferView":74,"componentType":5126,"count":288,"type":"VEC2"},{"bufferView":75,"componentType":5123,"count":564,"type":"SCALAR"},{"bufferView":76,"componentType":5126,"count":287,"max":[1.1885000467300415,0.25053223967552185,-1.2114999294281006],"min":[0.4115000069141388,-0.25053223967552185,-1.5885000228881836],"type":"VEC3"},{"bufferView":77,"componentType":5126,"count":287,"type":"VEC3"},{"bufferView":78,"componentType":5126,"count":287,"type":"VEC2"},{"bufferView":79,"componentType":5123,"count":564,"type":"SCALAR"},{"bufferView":80,"componentType":5126,"count":286,"max":[1.9884999990463257,0.23250697553157806,-1.2114999294281006],"min":[1.2115000486373901,-0.23250697553157806,-1.5885000228881836],"type":"VEC3"},{"bufferView":81,"componentType":5126,"count":286,"type":"VEC3"},{"bufferView":82,"componentType":5126,"count":286,"type":"VEC2"},{"bufferView":83,"componentType":5123,"count":564,"type":"SCALAR"},{"bufferView":84,"componentType":5126,"count":279,"max":[-1.2115000486373901,0.23295490443706512,-1.6114999055862427],"min":[-1.9884999990463257,-0.23295490443706512,-1.9884999990463257],"type":"VEC3"},{"bufferView":85,"componentType":5126,"count":279,"type":"VEC3"},{"bufferView":86,"componentType":5126,"count":279,"type":"VEC2"},{"bufferView":87,"componentType":5123,"count":564,"type":"SCALAR"},{"bufferView":88,"componentType":5126,"count":275,"max":[-0.4115000069141388,0.23711347579956055,-1.6114999055862427],"min":[-1.1885000467300415,-0.23711347579956055,-1.9884999990463257],"type":"VEC3"},{"bufferView":89,"componentType":5126,"count":275,"type":"VEC3"},{"bufferView":90,"componentType":5126,"count":275,"type":"VEC2"},{"bufferView":91,"componentType":5123,"count":564,"type":"SCALAR"},{"bufferView":92,"componentType":5126,"count":282,"max":[0.38850000500679016,0.2454652637243271,-1.6114999055862427],"min":[-0.38850000500679016,-0.2454652637243271,-1.9884999990463257],"type":"VEC3"},{"bufferView":93,"componentType":5126,"count":282,"type":"VEC3"},{"bufferView":94,"componentType":5126,"count":282,"type":"VEC2"},{"bufferView":95,"componentType":5123,"count":564,"type":"SCALAR"},{"bufferView":96,"componentType":5126,"count":282,"max":[1.1885000467300415,0.23881451785564423,-1.6114999055862427],"min":[0.4115000069141388,-0.23881451785564423,-1.9884999990463257],"type":"VEC3"},{"bufferView":97,"componentType":5126,"count":282,"type":"VEC3"},{"bufferView":98,"componentType":5126,"count":282,"type":"VEC2"},{"bufferView":99,"componentType":5123,"count":564,"type":"SCALAR"},{"bufferView":100,"componentType":5126,"count":272,"max":[1.9884999990463257,0.2301996350288391,-1.6114999055862427],"min":[1.2115000486373901,-0.2301996350288391,-1.9884999990463257],"type":"VEC3"},{"bufferView":101,"componentType":5126,"count":272,"type":"VEC3"},{"bufferView":102,"componentType":5126,"count":272,"type":"VEC2"},{"bufferView":103,"componentType":5123,"count":564,"type":"SCALAR"},{"bufferView":104,"componentType":5126,"count":278,"max":[-1.2115000486373901,0.24020519852638245,-2.011500120162964],"min":[-1.9884999990463257,-0.24020519852638245,-2.3884999752044678],"type":"VEC3"},{"bufferView":105,"componentType":5126,"count":278,"type":"VEC3"},{"bufferView":106,"componentType":5126,"count":278,"type":"VEC2"},{"bufferView":107,"componentType":5123,"count":564,"type":"SCALAR"},{"bufferView":108,"componentType":5126,"count":279,"max":[-0.4115000069141388,0.22928951680660248,-2.011500120162964],"min":[-1.1885000467300415,-0.22928951680660248,-2.3884999752044678],"type":"VEC3"},{"bufferView":109,"componentType":5126,"count":279,"type":"VEC3"},{"bufferView":110,"componentType":5126,"count":279,"type":"VEC2"},{"bufferView":111,"componentType":5123,"count":564,"type":"SCALAR"},{"bufferView":112,"componentType":5126,"count":270,"max":[0.38850000500679016,0.24117587506771088,-2.011500120162964],"min":[-0.38850000500679016,-0.24117587506771088,-2.3884999752044678],"type":"VEC3"},{"bufferView":113,"componentType":5126,"count":270,"type":"VEC3"},{"bufferView":114,"componentType":5126,"count":270,"type":"VEC2"},{"bufferView":115,"componentType":5123,"count":564,"type":"SCALAR"},{"bufferView":116,"componentType":5126,"count":301,"max":[1.1885000467300415,0.24630306661128998,-2.011500120162964],"min":[0.4115000069141388,-0.24630306661128998,-2.3884999752044678],"type":"VEC3"},{"bufferView":117,"componentType":5126,"count":301,"type":"VEC3"},{"bufferView":118,"componentType":5126,"count":301,"type":"VEC2"},{"bufferView":119,"componentType":5123,"count":564,"type":"SCALAR"},{"bufferView":120,"componentType":5126,"count":296,"max":[1.9884999990463257,0.23956041038036346,-2.011500120162964],"min":[1.2115000486373901,-0.23956041038036346,-2.3884999752044678],"type":"VEC3"},{"bufferView":121,"componentType":5126,"count":296,"type":"VEC3"},{"bufferView":122,"componentType":5126,"count":296,"type":"VEC2"},{"bufferView":123,"componentType":5123,"count":564,"type":"SCALAR"},{"bufferView":124,"componentType":5126,"count":301,"max":[-1.2115000486373901,0.23648379743099213,-2.4114999771118164],"min":[-1.9884999990463257,-0.23648379743099213,-2.7884998321533203],"type":"VEC3"},{"bufferView":125,"componentType":5126,"count":301,"type":"VEC3"},{"bufferView":126,"componentType":5126,"count":301,"type":"VEC2"},{"bufferView":127,"componentType":5123,"count":564,"type":"SCALAR"},{"bufferView":128,"componentType":5126,"count":290,"max":[-0.4115000069141388,0.2425055205821991,-2.4114999771118164],"min":[-1.1885000467300415,-0.2425055205821991,-2.7884998321533203],"type":"VEC3"},{"bufferView":129,"componentType":5126,"count":290,"type":"VEC3"},{"bufferView":130,"componentType":5126,"count":290,"type":"VEC2"},{"bufferView":131,"componentType":5123,"count":564,"type":"SCALAR"},{"bufferView":132,"componentType":5126,"count":280,"max":[0.38850000500679016,0.23358425498008728,-2.4114999771118164],"min":[-0.38850000500679016,-0.23358425498008728,-2.7884998321533203],"type":"VEC3"},{"bufferView":133,"componentType":5126,"count":280,"type":"VEC3"},{"bufferView":134,"componentType":5126,"count":280,"type":"VEC2"},{"bufferView":135,"componentType":5123,"count":564,"type":"SCALAR"},{"bufferView":136,"componentType":5126,"count":290,"max":[1.1885000467300415,0.24721024930477142,-2.4114999771118164],"min":[0.4115000069141388,-0.24721024930477142,-2.7884998321533203],"type":"VEC3"},{"bufferView":137,"componentType":5126,"count":290,"type":"VEC3"},{"bufferView":138,"componentType":5126,"count":290,"type":"VEC2"},{"bufferView":139,"componentType":5123,"count":564,"type":"SCALAR"},{"bufferView":140,"componentType":5126,"count":282,"max":[1.9884999990463257,0.2406018227338791,-2.4114999771118164],"min":[1.2115000486373901,-0.2406018227338791,-2.7884998321533203],"type":"VEC3"},{"bufferView":141,"componentType":5126,"count":282,"type":"VEC3"},{"bufferView":142,"componentType":5126,"count":282,"type":"VEC2"},{"bufferView":143,"componentType":5123,"count":564,"type":"SCALAR"},{"bufferView":144,"componentType":5126,"count":270,"max":[-1.2115000486373901,0.24368171393871307,-2.811500072479248],"min":[-1.9884999990463257,-0.24368171393871307,-3.188499927520752],"type":"VEC3"},{"bufferView":145,"componentType":5126,"count":270,"type":"VEC3"},{"bufferView":146,"componentType":5126,"count":270,"type":"VEC2"},{"bufferView":147,"componentType":5123,"count":564,"type":"SCALAR"},{"bufferView":148,"componentType":5126,"count":285,"max":[-0.4115000069141388,0.23074685037136078,-2.811500072479248],"min":[-1.1885000467300415,-0.23074685037136078,-3.188499927520752],"type":"VEC3"},{"bufferView":149,"componentType":5126,"count":285,"type":"VEC3"},{"bufferView":150,"componentType":5126,"count":285,"type":"VEC2"},{"bufferView":151,"componentType":5123,"count":564,"type":"SCALAR"},{"bufferView":152,"componentType":5126,"count":287,"max":[0.38850000500679016,0.24912531673908234,-2.811500072479248],"min":[-0.38850000500679016,-0.24912531673908234,-3.188499927520752],"type":"VEC3"},{"bufferView":153,"componentType":5126,"count":287,"type":"VEC3"},{"bufferView":154,"componentType":5126,"count":287,"type":"VEC2"},{"bufferView":155,"componentType":5123,"count":564,"type":"SCALAR"},{"bufferView":156,"componentType":5126,"count":294,"max":[1.1885000467300415,0.24273031949996948,-2.811500072479248],"min":[0.4115000069141388,-0.24273031949996948,-3.188499927520752],"type":"VEC3"},{"bufferView":157,"componentType":5126,"count":294,"type":"VEC3"},{"bufferView":158,"componentType":5126,"count":294,"type":"VEC2"},{"bufferView":159,"componentType":5123,"count":564,"type":"SCALAR"},{"bufferView":160,"componentType":5126,"count":267,"max":[1.9884999990463257,0.23774023354053497,-2.811500072479248],"min":[1.2115000486373901,-0.23774023354053497,-3.188499927520752],"type":"VEC3"},{"bufferView":161,"componentType":5126,"count":267,"type":"VEC3"},{"bufferView":162,"componentType":5126,"count":267,"type":"VEC2"},{"bufferView":163,"componentType":5123,"count":564,"type":"SCALAR"},{"bufferView":164,"componentType":5126,"count":294,"max":[-1.2115000486373901,0.23061791062355042,-3.2115001678466797],"min":[-1.9884999990463257,-0.23061791062355042,-3.5885000228881836],"type":"VEC3"},{"bufferView":165,"componentType":5126,"count":294,"type":"VEC3"},{"bufferView":166,"componentType":5126,"count":294,"type":"VEC2"},{"bufferView":167,"componentType":5123,"count":564,"type":"SCALAR"},{"bufferView":168,"componentType":5126,"count":282,"max":[-0.4115000069141388,0.23734457790851593,-3.2115001678466797],"min":[-1.1885000467300415,-0.23734457790851593,-3.5885000228881836],"type":"VEC3"},{"bufferView":169,"componentType":5126,"count":282,"type":"VEC3"},{"bufferView":170,"componentType":5126,"count":282,"type":"VEC2"},{"bufferView":171,"componentType":5123,"count":564,"type":"SCALAR"},{"bufferView":172,"componentType":5126,"count":293,"max":[0.38850000500679016,0.23323370516300201,-3.2115001678466797],"min":[-0.38850000500679016,-0.23323370516300201,-3.5885000228881836],"type":"VEC3"},{"bufferView":173,"componentType":5126,"count":293,"type":"VEC3"},{"bufferView":174,"componentType":5126,"count":293,"type":"VEC2"},{"bufferView":175,"componentType":5123,"count":564,"type":"SCALAR"},{"bufferView":176,"componentType":5126,"count":277,"max":[1.1885000467300415,0.24214403331279755,-3.2115001678466797],"min":[0.4115000069141388,-0.24214403331279755,-3.5885000228881836],"type":"VEC3"},{"bufferView":177,"componentType":5126,"count":277,"type":"VEC3"},{"bufferView":178,"componentType":5126,"count":277,"type":"VEC2"},{"bufferView":179,"componentType":5123,"count":564,"type":"SCALAR"},{"bufferView":180,"componentType":5126,"count":295,"max":[1.9884999990463257,0.24694238603115082,-3.2115001678466797],"min":[1.2115000486373901,-0.24694238603115082,-3.5885000228881836],"type":"VEC3"},{"bufferView":181,"componentType":5126,"count":295,"type":"VEC3"},{"bufferView":182,"componentType":5126,"count":295,"type":"VEC2"},{"bufferView":183,"componentType":5123,"count":564,"type":"SCALAR"},{"bufferView":184,"componentType":5126,"count":288,"max":[-1.2115000486373901,0.2301999181509018,-3.6115000247955322],"min":[-1.9884999990463257,-0.2301999181509018,-3.988499879837036],"type":"VEC3"},{"bufferView":185,"componentType":5126,"count":288,"type":"VEC3"},{"bufferView":186,"componentType":5126,"count":288,"type":"VEC2"},{"bufferView":187,"componentType":5123,"count":564,"type":"SCALAR"},{"bufferView":188,"componentType":5126,"count":277,"max":[-0.4115000069141388,0.2496601641178131,-3.6115000247955322],"min":[-1.1885000467300415,-0.2496601641178131,-3.988499879837036],"type":"VEC3"},{"bufferView":189,"componentType":5126,"count":277,"type":"VEC3"},{"bufferView":190,"componentType":5126,"count":277,"type":"VEC2"},{"bufferView":191,"componentType":5123,"count":564,"type":"SCALAR"},{"bufferView":192,"componentType":5126,"count":312,"max":[0.38850000500679016,0.23971132934093475,-3.6115000247955322],"min":[-0.38850000500679016,-0.23971132934093475,-3.988499879837036],"type":"VEC3"},{"bufferView":193,"componentType":5126,"count":312,"type":"VEC3"},{"bufferView":194,"componentType":5126,"count":312,"type":"VEC2"},{"bufferView":195,"componentType":5123,"count":564,"type":"SCALAR"},{"bufferView":196,"componentType":5126,"count":273,"max":[1.1885000467300415,0.2315969318151474,-3.6115000247955322],"min":[0.4115000069141388,-0.2315969318151474,-3.988499879837036],"type":"VEC3"},{"bufferView":197,"componentType":5126,"count":273,"type":"VEC3"},{"bufferView":198,"componentType":5126,"count":273,"type":"VEC2"},{"bufferView":199,"componentType":5123,"count":564,"type":"SCALAR"},{"bufferView":200,"componentType":5126,"count":271,"max":[1.9884999990463257,0.24418054521083832,-3.6115000247955322],"min":[1.2115000486373901,-0.24418054521083832,-3.988499879837036],"type":"VEC3"},{"bufferView":201,"componentType":5126,"count":271,"type":"VEC3"},{"bufferView":202,"componentType":5126,"count":271,"type":"VEC2"},{"bufferView":203,"componentType":5123,"count":564,"type":"SCALAR"},{"bufferView":204,"componentType":5126,"count":293,"max":[2,0.13199999928474426,0],"min":[-2,-0.13199999928474426,-4],"type":"VEC3"},{"bufferView":205,"componentType":5126,"count":293,"type":"VEC3"},{"bufferView":206,"componentType":5126,"count":293,"type":"VEC2"},{"bufferView":207,"componentType":5123,"count":564,"type":"SCALAR"},{"bufferView":208,"componentType":5126,"count":294,"max":[2.0799999237060547,0.3100000023841858,-3.81000018119812],"min":[-2.0799999237060547,-0.3100000023841858,-4.010000228881836],"type":"VEC3"},{"bufferView":209,"componentType":5126,"count":294,"type":"VEC3"},{"bufferView":210,"componentType":5126,"count":294,"type":"VEC2"},{"bufferView":211,"componentType":5123,"count":564,"type":"SCALAR"}],"bufferViews":[{"buffer":0,"byteLength":3216,"byteOffset":0,"target":34962},{"buffer":0,"byteLength":3216,"byteOffset":3216,"target":34962},{"buffer":0,"byteLength":2144,"byteOffset":6432,"target":34962},{"buffer":0,"byteLength":1128,"byteOffset":8576,"target":34963},{"buffer":0,"byteLength":3396,"byteOffset":9704,"target":34962},{"buffer":0,"byteLength":3396,"byteOffset":13100,"target":34962},{"buffer":0,"byteLength":2264,"byteOffset":16496,"target":34962},{"buffer":0,"byteLength":1128,"byteOffset":18760,"target":34963},{"buffer":0,"byteLength":3240,"byteOffset":19888,"target":34962},{"buffer":0,"byteLength":3240,"byteOffset":23128,"target":34962},{"buffer":0,"byteLength":2160,"byteOffset":26368,"target":34962},{"buffer":0,"byteLength":1128,"byteOffset":28528,"target":34963},{"buffer":0,"byteLength":3420,"byteOffset":29656,"target":34962},{"buffer":0,"byteLength":3420,"byteOffset":33076,"target":34962},{"buffer":0,"byteLength":2280,"byteOffset":36496,"target":34962},{"buffer":0,"byteLength":1128,"byteOffset":38776,"target":34963},{"buffer":0,"byteLength":3108,"byteOffset":39904,"target":34962},{"buffer":0,"byteLength":3108,"byteOffset":43012,"target":34962},{"buffer":0,"byteLength":2072,"byteOffset":46120,"target":34962},{"buffer":0,"byteLength":1128,"byteOffset":48192,"target":34963},{"buffer":0,"byteLength":3504,"byteOffset":49320,"target":34962},{"buffer":0,"byteLength":3504,"byteOffset":52824,"target":34962},{"buffer":0,"byteLength":2336,"byteOffset":56328,"target":34962},{"buffer":0,"byteLength":1128,"byteOffset":58664,"target":34963},{"buffer":0,"byteLength":3504,"byteOffset":59792,"target":34962},{"buffer":0,"byteLength":3504,"byteOffset":63296,"target":34962},{"buffer":0,"byteLength":2336,"byteOffset":66800,"target":34962},{"buffer":0,"byteLength":1128,"byteOffset":69136,"target":34963},{"buffer":0,"byteLength":3192,"byteOffset":70264,"target":34962},{"buffer":0,"byteLength":3192,"byteOffset":73456,"target":34962},{"buffer":0,"byteLength":2128,"byteOffset":76648,"target":34962},{"buffer":0,"byteLength":1128,"byteOffset":78776,"target":34963},{"buffer":0,"byteLength":3468,"byteOffset":79904,"target":34962},{"buffer":0,"byteLength":3468,"byteOffset":83372,"target":34962},{"buffer":0,"byteLength":2312,"byteOffset":86840,"target":34962},{"buffer":0,"byteLength":1128,"byteOffset":89152,"target":34963},{"buffer":0,"byteLength":3288,"byteOffset":90280,"target":34962},{"buffer":0,"byteLength":3288,"byteOffset":93568,"target":34962},{"buffer":0,"byteLength":2192,"byteOffset":96856,"target":34962},{"buffer":0,"byteLength":1128,"byteOffset":99048,"target":34963},{"buffer":0,"byteLength":3420,"byteOffset":100176,"target":34962},{"buffer":0,"byteLength":3420,"byteOffset":103596,"target":34962},{"buffer":0,"byteLength":2280,"byteOffset":107016,"target":34962},{"buffer":0,"byteLength":1128,"byteOffset":109296,"target":34963},{"buffer":0,"byteLength":3228,"byteOffset":110424,"target":34962},{"buffer":0,"byteLength":3228,"byteOffset":113652,"target":34962},{"buffer":0,"byteLength":2152,"byteOffset":116880,"target":34962},{"buffer":0,"byteLength":1128,"byteOffset":119032,"target":34963},{"buffer":0,"byteLength":3084,"byteOffset":120160,"target":34962},{"buffer":0,"byteLength":3084,"byteOffset":123244,"target":34962},{"buffer":0,"byteLength":2056,"byteOffset":126328,"target":34962},{"buffer":0,"byteLength":1128,"byteOffset":128384,"target":34963},{"buffer":0,"byteLength":3180,"byteOffset":129512,"target":34962},{"buffer":0,"byteLength":3180,"byteOffset":132692,"target":34962},{"buffer":0,"byteLength":2120,"byteOffset":135872,"target":34962},{"buffer":0,"byteLength":1128,"byteOffset":137992,"target":34963},{"buffer":0,"byteLength":3672,"byteOffset":139120,"target":34962},{"buffer":0,"byteLength":3672,"byteOffset":142792,"target":34962},{"buffer":0,"byteLength":2448,"byteOffset":146464,"target":34962},{"buffer":0,"byteLength":1128,"byteOffset":148912,"target":34963},{"buffer":0,"byteLength":3168,"byteOffset":150040,"target":34962},{"buffer":0,"byteLength":3168,"byteOffset":153208,"target":34962},{"buffer":0,"byteLength":2112,"byteOffset":156376,"target":34962},{"buffer":0,"byteLength":1128,"byteOffset":158488,"target":34963},{"buffer":0,"byteLength":3240,"byteOffset":159616,"target":34962},{"buffer":0,"byteLength":3240,"byteOffset":162856,"target":34962},{"buffer":0,"byteLength":2160,"byteOffset":166096,"target":34962},{"buffer":0,"byteLength":1128,"byteOffset":168256,"target":34963},{"buffer":0,"byteLength":3408,"byteOffset":169384,"target":34962},{"buffer":0,"byteLength":3408,"byteOffset":172792,"target":34962},{"buffer":0,"byteLength":2272,"byteOffset":176200,"target":34962},{"buffer":0,"byteLength":1128,"byteOffset":178472,"target":34963},{"buffer":0,"byteLength":3456,"byteOffset":179600,"target":34962},{"buffer":0,"byteLength":3456,"byteOffset":183056,"target":34962},{"buffer":0,"byteLength":2304,"byteOffset":186512,"target":34962},{"buffer":0,"byteLength":1128,"byteOffset":188816,"target":34963},{"buffer":0,"byteLength":3444,"byteOffset":189944,"target":34962},{"buffer":0,"byteLength":3444,"byteOffset":193388,"target":34962},{"buffer":0,"byteLength":2296,"byteOffset":196832,"target":34962},{"buffer":0,"byteLength":1128,"byteOffset":199128,"target":34963},{"buffer":0,"byteLength":3432,"byteOffset":200256,"target":34962},{"buffer":0,"byteLength":3432,"byteOffset":203688,"target":34962},{"buffer":0,"byteLength":2288,"byteOffset":207120,"target":34962},{"buffer":0,"byteLength":1128,"byteOffset":209408,"target":34963},{"buffer":0,"byteLength":3348,"byteOffset":210536,"target":34962},{"buffer":0,"byteLength":3348,"byteOffset":213884,"target":34962},{"buffer":0,"byteLength":2232,"byteOffset":217232,"target":34962},{"buffer":0,"byteLength":1128,"byteOffset":219464,"target":34963},{"buffer":0,"byteLength":3300,"byteOffset":220592,"target":34962},{"buffer":0,"byteLength":3300,"byteOffset":223892,"target":34962},{"buffer":0,"byteLength":2200,"byteOffset":227192,"target":34962},{"buffer":0,"byteLength":1128,"byteOffset":229392,"target":34963},{"buffer":0,"byteLength":3384,"byteOffset":230520,"target":34962},{"buffer":0,"byteLength":3384,"byteOffset":233904,"target":34962},{"buffer":0,"byteLength":2256,"byteOffset":237288,"target":34962},{"buffer":0,"byteLength":1128,"byteOffset":239544,"target":34963},{"buffer":0,"byteLength":3384,"byteOffset":240672,"target":34962},{"buffer":0,"byteLength":3384,"byteOffset":244056,"target":34962},{"buffer":0,"byteLength":2256,"byteOffset":247440,"target":34962},{"buffer":0,"byteLength":1128,"byteOffset":249696,"target":34963},{"buffer":0,"byteLength":3264,"byteOffset":250824,"target":34962},{"buffer":0,"byteLength":3264,"byteOffset":254088,"target":34962},{"buffer":0,"byteLength":2176,"byteOffset":257352,"target":34962},{"buffer":0,"byteLength":1128,"byteOffset":259528,"target":34963},{"buffer":0,"byteLength":3336,"byteOffset":260656,"target":34962},{"buffer":0,"byteLength":3336,"byteOffset":263992,"target":34962},{"buffer":0,"byteLength":2224,"byteOffset":267328,"target":34962},{"buffer":0,"byteLength":1128,"byteOffset":269552,"target":34963},{"buffer":0,"byteLength":3348,"byteOffset":270680,"target":34962},{"buffer":0,"byteLength":3348,"byteOffset":274028,"target":34962},{"buffer":0,"byteLength":2232,"byteOffset":277376,"target":34962},{"buffer":0,"byteLength":1128,"byteOffset":279608,"target":34963},{"buffer":0,"byteLength":3240,"byteOffset":280736,"target":34962},{"buffer":0,"byteLength":3240,"byteOffset":283976,"target":34962},{"buffer":0,"byteLength":2160,"byteOffset":287216,"target":34962},{"buffer":0,"byteLength":1128,"byteOffset":289376,"target":34963},{"buffer":0,"byteLength":3612,"byteOffset":290504,"target":34962},{"buffer":0,"byteLength":3612,"byteOffset":294116,"target":34962},{"buffer":0,"byteLength":2408,"byteOffset":297728,"target":34962},{"buffer":0,"byteLength":1128,"byteOffset":300136,"target":34963},{"buffer":0,"byteLength":3552,"byteOffset":301264,"target":34962},{"buffer":0,"byteLength":3552,"byteOffset":304816,"target":34962},{"buffer":0,"byteLength":2368,"byteOffset":308368,"target":34962},{"buffer":0,"byteLength":1128,"byteOffset":310736,"target":34963},{"buffer":0,"byteLength":3612,"byteOffset":311864,"target":34962},{"buffer":0,"byteLength":3612,"byteOffset":315476,"target":34962},{"buffer":0,"byteLength":2408,"byteOffset":319088,"target":34962},{"buffer":0,"byteLength":1128,"byteOffset":321496,"target":34963},{"buffer":0,"byteLength":3480,"byteOffset":322624,"target":34962},{"buffer":0,"byteLength":3480,"byteOffset":326104,"target":34962},{"buffer":0,"byteLength":2320,"byteOffset":329584,"target":34962},{"buffer":0,"byteLength":1128,"byteOffset":331904,"target":34963},{"buffer":0,"byteLength":3360,"byteOffset":333032,"target":34962},{"buffer":0,"byteLength":3360,"byteOffset":336392,"target":34962},{"buffer":0,"byteLength":2240,"byteOffset":339752,"target":34962},{"buffer":0,"byteLength":1128,"byteOffset":341992,"target":34963},{"buffer":0,"byteLength":3480,"byteOffset":343120,"target":34962},{"buffer":0,"byteLength":3480,"byteOffset":346600,"target":34962},{"buffer":0,"byteLength":2320,"byteOffset":350080,"target":34962},{"buffer":0,"byteLength":1128,"byteOffset":352400,"target":34963},{"buffer":0,"byteLength":3384,"byteOffset":353528,"target":34962},{"buffer":0,"byteLength":3384,"byteOffset":356912,"target":34962},{"buffer":0,"byteLength":2256,"byteOffset":360296,"target":34962},{"buffer":0,"byteLength":1128,"byteOffset":362552,"target":34963},{"buffer":0,"byteLength":3240,"byteOffset":363680,"target":34962},{"buffer":0,"byteLength":3240,"byteOffset":366920,"target":34962},{"buffer":0,"byteLength":2160,"byteOffset":370160,"target":34962},{"buffer":0,"byteLength":1128,"byteOffset":372320,"target":34963},{"buffer":0,"byteLength":3420,"byteOffset":373448,"target":34962},{"buffer":0,"byteLength":3420,"byteOffset":376868,"target":34962},{"buffer":0,"byteLength":2280,"byteOffset":380288,"target":34962},{"buffer":0,"byteLength":1128,"byteOffset":382568,"target":34963},{"buffer":0,"byteLength":3444,"byteOffset":383696,"target":34962},{"buffer":0,"byteLength":3444,"byteOffset":387140,"target":34962},{"buffer":0,"byteLength":2296,"byteOffset":390584,"target":34962},{"buffer":0,"byteLength":1128,"byteOffset":392880,"target":34963},{"buffer":0,"byteLength":3528,"byteOffset":394008,"target":34962},{"buffer":0,"byteLength":3528,"byteOffset":397536,"target":34962},{"buffer":0,"byteLength":2352,"byteOffset":401064,"target":34962},{"buffer":0,"byteLength":1128,"byteOffset":403416,"target":34963},{"buffer":0,"byteLength":3204,"byteOffset":404544,"target":34962},{"buffer":0,"byteLength":3204,"byteOffset":407748,"target":34962},{"buffer":0,"byteLength":2136,"byteOffset":410952,"target":34962},{"buffer":0,"byteLength":1128,"byteOffset":413088,"target":34963},{"buffer":0,"byteLength":3528,"byteOffset":414216,"target":34962},{"buffer":0,"byteLength":3528,"byteOffset":417744,"target":34962},{"buffer":0,"byteLength":2352,"byteOffset":421272,"target":34962},{"buffer":0,"byteLength":1128,"byteOffset":423624,"target":34963},{"buffer":0,"byteLength":3384,"byteOffset":424752,"target":34962},{"buffer":0,"byteLength":3384,"byteOffset":428136,"target":34962},{"buffer":0,"byteLength":2256,"byteOffset":431520,"target":34962},{"buffer":0,"byteLength":1128,"byteOffset":433776,"target":34963},{"buffer":0,"byteLength":3516,"byteOffset":434904,"target":34962},{"buffer":0,"byteLength":3516,"byteOffset":438420,"target":34962},{"buffer":0,"byteLength":2344,"byteOffset":441936,"target":34962},{"buffer":0,"byteLength":1128,"byteOffset":444280,"target":34963},{"buffer":0,"byteLength":3324,"byteOffset":445408,"target":34962},{"buffer":0,"byteLength":3324,"byteOffset":448732,"target":34962},{"buffer":0,"byteLength":2216,"byteOffset":452056,"target":34962},{"buffer":0,"byteLength":1128,"byteOffset":454272,"target":34963},{"buffer":0,"byteLength":3540,"byteOffset":455400,"target":34962},{"buffer":0,"byteLength":3540,"byteOffset":458940,"target":34962},{"buffer":0,"byteLength":2360,"byteOffset":462480,"target":34962},{"buffer":0,"byteLength":1128,"byteOffset":464840,"target":34963},{"buffer":0,"byteLength":3456,"byteOffset":465968,"target":34962},{"buffer":0,"byteLength":3456,"byteOffset":469424,"target":34962},{"buffer":0,"byteLength":2304,"byteOffset":472880,"target":34962},{"buffer":0,"byteLength":1128,"byteOffset":475184,"target":34963},{"buffer":0,"byteLength":3324,"byteOffset":476312,"target":34962},{"buffer":0,"byteLength":3324,"byteOffset":479636,"target":34962},{"buffer":0,"byteLength":2216,"byteOffset":482960,"target":34962},{"buffer":0,"byteLength":1128,"byteOffset":485176,"target":34963},{"buffer":0,"byteLength":3744,"byteOffset":486304,"target":34962},{"buffer":0,"byteLength":3744,"byteOffset":490048,"target":34962},{"buffer":0,"byteLength":2496,"byteOffset":493792,"target":34962},{"buffer":0,"byteLength":1128,"byteOffset":496288,"target":34963},{"buffer":0,"byteLength":3276,"byteOffset":497416,"target":34962},{"buffer":0,"byteLength":3276,"byteOffset":500692,"target":34962},{"buffer":0,"byteLength":2184,"byteOffset":503968,"target":34962},{"buffer":0,"byteLength":1128,"byteOffset":506152,"target":34963},{"buffer":0,"byteLength":3252,"byteOffset":507280,"target":34962},{"buffer":0,"byteLength":3252,"byteOffset":510532,"target":34962},{"buffer":0,"byteLength":2168,"byteOffset":513784,"target":34962},{"buffer":0,"byteLength":1128,"byteOffset":515952,"target":34963},{"buffer":0,"byteLength":3516,"byteOffset":517080,"target":34962},{"buffer":0,"byteLength":3516,"byteOffset":520596,"target":34962},{"buffer":0,"byteLength":2344,"byteOffset":524112,"target":34962},{"buffer":0,"byteLength":1128,"byteOffset":526456,"target":34963},{"buffer":0,"byteLength":3528,"byteOffset":527584,"target":34962},{"buffer":0,"byteLength":3528,"byteOffset":531112,"target":34962},{"buffer":0,"byteLength":2352,"byteOffset":534640,"target":34962},{"buffer":0,"byteLength":1128,"byteOffset":536992,"target":34963}],"samplers":[{"magFilter":9729,"minFilter":9987}],"buffers":[{"uri":"C01_ashlar_wall.bin","byteLength":538120}]}