{"asset":{"generator":"Khronos glTF Blender I/O v5.2.40","version":"2.0"},"extensionsUsed":["KHR_materials_specular"],"scene":0,"scenes":[{"name":"Scene","nodes":[0,1,2,3,4,5,6,7,8,9,10,11,12,13,14,15,16,17,18,19,20,21,22,23,24,25,26,27,28,29,30,31,32,33,34,35,36,37]}],"nodes":[{"mesh":0,"name":"Arch pier block","rotation":[0.7071068286895752,0,0,0.7071068286895752]},{"mesh":1,"name":"Arch pier block.001","rotation":[0.7071068286895752,0,0,0.7071068286895752]},{"mesh":2,"name":"Arch pier block.002","rotation":[0.7071068286895752,0,0,0.7071068286895752]},{"mesh":3,"name":"Arch pier block.003","rotation":[0.7071068286895752,0,0,0.7071068286895752]},{"mesh":4,"name":"Arch pier block.004","rotation":[0.7071068286895752,0,0,0.7071068286895752]},{"mesh":5,"name":"Arch pier block.005","rotation":[0.7071068286895752,0,0,0.7071068286895752]},{"mesh":6,"name":"Arch pier block.006","rotation":[0.7071068286895752,0,0,0.7071068286895752]},{"mesh":7,"name":"Arch pier block.007","rotation":[0.7071068286895752,0,0,0.7071068286895752]},{"mesh":8,"name":"Arch pier block.008","rotation":[0.7071068286895752,0,0,0.7071068286895752]},{"mesh":9,"name":"Arch pier block.009","rotation":[0.7071068286895752,0,0,0.7071068286895752]},{"mesh":10,"name":"Arch pier block.010","rotation":[0.7071068286895752,0,0,0.7071068286895752]},{"mesh":11,"name":"Arch pier block.011","rotation":[0.7071068286895752,0,0,0.7071068286895752]},{"mesh":12,"name":"Cut voussoir","rotation":[0.7071068286895752,0,0,0.7071068286895752]},{"mesh":13,"name":"Cut voussoir.001","rotation":[0.7071068286895752,0,0,0.7071068286895752]},{"mesh":14,"name":"Cut voussoir.002","rotation":[0.7071068286895752,0,0,0.7071068286895752]},{"mesh":15,"name":"Cut voussoir.003","rotation":[0.7071068286895752,0,0,0.7071068286895752]},{"mesh":16,"name":"Cut voussoir.004","rotation":[0.7071068286895752,0,0,0.7071068286895752]},{"mesh":17,"name":"Cut voussoir.005","rotation":[0.7071068286895752,0,0,0.7071068286895752]},{"mesh":18,"name":"Cut voussoir.006","rotation":[0.7071068286895752,0,0,0.7071068286895752]},{"mesh":19,"name":"Cut voussoir.007","rotation":[0.7071068286895752,0,0,0.7071068286895752]},{"mesh":20,"name":"Cut voussoir.008","rotation":[0.7071068286895752,0,0,0.7071068286895752]},{"mesh":21,"name":"Cut voussoir.009","rotation":[0.7071068286895752,0,0,0.7071068286895752]},{"mesh":22,"name":"Cut voussoir.010","rotation":[0.7071068286895752,0,0,0.7071068286895752]},{"mesh":23,"name":"Cut voussoir.011","rotation":[0.7071068286895752,0,0,0.7071068286895752]},{"mesh":24,"name":"Cut voussoir.012","rotation":[0.7071068286895752,0,0,0.7071068286895752]},{"mesh":25,"name":"Cut voussoir.013","rotation":[0.7071068286895752,0,0,0.7071068286895752]},{"mesh":26,"name":"Cut voussoir.014","rotation":[0.7071068286895752,0,0,0.7071068286895752]},{"mesh":27,"name":"Cut voussoir.015","rotation":[0.7071068286895752,0,0,0.7071068286895752]},{"mesh":28,"name":"Cut voussoir.016","rotation":[0.7071068286895752,0,0,0.7071068286895752]},{"mesh":29,"name":"Cut voussoir.017","rotation":[0.7071068286895752,0,0,0.7071068286895752]},{"mesh":30,"name":"Cut voussoir.018","rotation":[0.7071068286895752,0,0,0.7071068286895752]},{"mesh":31,"name":"Cut voussoir.019","rotation":[0.7071068286895752,0,0,0.7071068286895752]},{"mesh":32,"name":"Cut voussoir.020","rotation":[0.7071068286895752,0,0,0.7071068286895752]},{"mesh":33,"name":"Cut voussoir.021","rotation":[0.7071068286895752,0,0,0.7071068286895752]},{"mesh":34,"name":"Impost","rotation":[0.7071068286895752,0,0,0.7071068286895752]},{"mesh":35,"name":"Impost.001","rotation":[0.7071068286895752,0,0,0.7071068286895752]},{"mesh":36,"name":"Pier plinth","rotation":[0.7071068286895752,0,0,0.7071068286895752]},{"mesh":37,"name":"Pier plinth.001","rotation":[0.7071068286895752,0,0,0.7071068286895752]}],"materials":[{"doubleSided":true,"extensions":{"KHR_materials_specular":{"specularFactor":0.5}},"name":"Weathered limestone.002","normalTexture":{"index":0,"scale":0.2800000011920929},"pbrMetallicRoughness":{"baseColorTexture":{"index":1},"metallicFactor":0,"metallicRoughnessTexture":{"index":2}}},{"doubleSided":true,"extensions":{"KHR_materials_specular":{"specularFactor":0.5}},"name":"Weathered limestone.002_soot","normalTexture":{"index":3,"scale":0.2800000011920929},"pbrMetallicRoughness":{"baseColorTexture":{"index":4},"metallicFactor":0,"roughnessFactor":0.9700000286102295}},{"doubleSided":true,"extensions":{"KHR_materials_specular":{"specularFactor":0.5}},"name":"Cut limestone trim.002","normalTexture":{"index":5,"scale":0.11999999731779099},"pbrMetallicRoughness":{"baseColorTexture":{"index":6},"metallicFactor":0,"metallicRoughnessTexture":{"index":7}}},{"doubleSided":true,"extensions":{"KHR_materials_specular":{"specularFactor":0.5}},"name":"Cut limestone trim.002_soot","normalTexture":{"index":8,"scale":0.11999999731779099},"pbrMetallicRoughness":{"baseColorTexture":{"index":9},"metallicFactor":0,"roughnessFactor":0.9700000286102295}}],"meshes":[{"name":"Arch pier block.048","primitives":[{"attributes":{"POSITION":0,"NORMAL":1,"TEXCOORD_0":2},"indices":3,"material":0}]},{"name":"Arch pier block.049","primitives":[{"attributes":{"POSITION":4,"NORMAL":5,"TEXCOORD_0":6},"indices":7,"material":0}]},{"name":"Arch pier block.050","primitives":[{"attributes":{"POSITION":8,"NORMAL":9,"TEXCOORD_0":10},"indices":11,"material":1}]},{"name":"Arch pier block.051","primitives":[{"attributes":{"POSITION":12,"NORMAL":13,"TEXCOORD_0":14},"indices":15,"material":0}]},{"name":"Arch pier block.052","primitives":[{"attributes":{"POSITION":16,"NORMAL":17,"TEXCOORD_0":18},"indices":19,"material":0}]},{"name":"Arch pier block.053","primitives":[{"attributes":{"POSITION":20,"NORMAL":21,"TEXCOORD_0":22},"indices":23,"material":0}]},{"name":"Arch pier block.054","primitives":[{"attributes":{"POSITION":24,"NORMAL":25,"TEXCOORD_0":26},"indices":27,"material":0}]},{"name":"Arch pier block.055","primitives":[{"attributes":{"POSITION":28,"NORMAL":29,"TEXCOORD_0":30},"indices":31,"material":1}]},{"name":"Arch pier block.056","primitives":[{"attributes":{"POSITION":32,"NORMAL":33,"TEXCOORD_0":34},"indices":35,"material":0}]},{"name":"Arch pier block.057","primitives":[{"attributes":{"POSITION":36,"NORMAL":37,"TEXCOORD_0":38},"indices":39,"material":0}]},{"name":"Arch pier block.058","primitives":[{"attributes":{"POSITION":40,"NORMAL":41,"TEXCOORD_0":42},"indices":43,"material":0}]},{"name":"Arch pier block.059","primitives":[{"attributes":{"POSITION":44,"NORMAL":45,"TEXCOORD_0":46},"indices":47,"material":0}]},{"name":"Cut voussoir.088","primitives":[{"attributes":{"POSITION":48,"NORMAL":49,"TEXCOORD_0":50},"indices":51,"material":2}]},{"name":"Cut voussoir.089","primitives":[{"attributes":{"POSITION":52,"NORMAL":53,"TEXCOORD_0":54},"indices":55,"material":2}]},{"name":"Cut voussoir.090","primitives":[{"attributes":{"POSITION":56,"NORMAL":57,"TEXCOORD_0":58},"indices":59,"material":2}]},{"name":"Cut voussoir.091","primitives":[{"attributes":{"POSITION":60,"NORMAL":61,"TEXCOORD_0":62},"indices":63,"material":2}]},{"name":"Cut voussoir.092","primitives":[{"attributes":{"POSITION":64,"NORMAL":65,"TEXCOORD_0":66},"indices":67,"material":3}]},{"name":"Cut voussoir.093","primitives":[{"attributes":{"POSITION":68,"NORMAL":69,"TEXCOORD_0":70},"indices":71,"material":3}]},{"name":"Cut voussoir.094","primitives":[{"attributes":{"POSITION":72,"NORMAL":73,"TEXCOORD_0":74},"indices":75,"material":3}]},{"name":"Cut voussoir.095","primitives":[{"attributes":{"POSITION":76,"NORMAL":77,"TEXCOORD_0":78},"indices":79,"material":2}]},{"name":"Cut voussoir.096","primitives":[{"attributes":{"POSITION":80,"NORMAL":81,"TEXCOORD_0":82},"indices":83,"material":2}]},{"name":"Cut voussoir.097","primitives":[{"attributes":{"POSITION":84,"NORMAL":85,"TEXCOORD_0":86},"indices":87,"material":3}]},{"name":"Cut voussoir.098","primitives":[{"attributes":{"POSITION":88,"NORMAL":89,"TEXCOORD_0":90},"indices":91,"material":2}]},{"name":"Cut voussoir.099","primitives":[{"attributes":{"POSITION":92,"NORMAL":93,"TEXCOORD_0":94},"indices":95,"material":3}]},{"name":"Cut voussoir.100","primitives":[{"attributes":{"POSITION":96,"NORMAL":97,"TEXCOORD_0":98},"indices":99,"material":2}]},{"name":"Cut voussoir.101","primitives":[{"attributes":{"POSITION":100,"NORMAL":101,"TEXCOORD_0":102},"indices":103,"material":3}]},{"name":"Cut voussoir.102","primitives":[{"attributes":{"POSITION":104,"NORMAL":105,"TEXCOORD_0":106},"indices":107,"material":2}]},{"name":"Cut voussoir.103","primitives":[{"attributes":{"POSITION":108,"NORMAL":109,"TEXCOORD_0":110},"indices":111,"material":2}]},{"name":"Cut voussoir.104","primitives":[{"attributes":{"POSITION":112,"NORMAL":113,"TEXCOORD_0":114},"indices":115,"material":2}]},{"name":"Cut voussoir.105","primitives":[{"attributes":{"POSITION":116,"NORMAL":117,"TEXCOORD_0":118},"indices":119,"material":2}]},{"name":"Cut voussoir.106","primitives":[{"attributes":{"POSITION":120,"NORMAL":121,"TEXCOORD_0":122},"indices":123,"material":2}]},{"name":"Cut voussoir.107","primitives":[{"attributes":{"POSITION":124,"NORMAL":125,"TEXCOORD_0":126},"indices":127,"material":2}]},{"name":"Cut voussoir.108","primitives":[{"attributes":{"POSITION":128,"NORMAL":129,"TEXCOORD_0":130},"indices":131,"material":2}]},{"name":"Cut voussoir.109","primitives":[{"attributes":{"POSITION":132,"NORMAL":133,"TEXCOORD_0":134},"indices":135,"material":2}]},{"name":"Impost.008","primitives":[{"attributes":{"POSITION":136,"NORMAL":137,"TEXCOORD_0":138},"indices":139,"material":2}]},{"name":"Impost.009","primitives":[{"attributes":{"POSITION":140,"NORMAL":141,"TEXCOORD_0":142},"indices":143,"material":2}]},{"name":"Pier plinth.008","primitives":[{"attributes":{"POSITION":144,"NORMAL":145,"TEXCOORD_0":146},"indices":147,"material":2}]},{"name":"Pier plinth.009","primitives":[{"attributes":{"POSITION":148,"NORMAL":149,"TEXCOORD_0":150},"indices":151,"material":2}]}],"textures":[{"sampler":0,"source":0},{"sampler":0,"source":1},{"sampler":0,"source":2},{"sampler":0,"source":0},{"sampler":0,"source":1},{"sampler":0,"source":0},{"sampler":0,"source":3},{"sampler":0,"source":2},{"sampler":0,"source":0},{"sampler":0,"source":3}],"images":[{"name":"normal","uri":"../textures/111ec8bb85fd34402ad7.png"},{"name":"wall-charcoal","uri":"../textures/ebd4ceb7053513a9ca36.png"},{"name":"roughness","uri":"../textures/c9d4f48b4bf1f93fb137.png"},{"name":"trim-charcoal","uri":"../textures/6d303909ef65238e168a.png"}],"accessors":[{"bufferView":0,"componentType":5126,"count":273,"max":[-1.7949999570846558,0.30000001192092896,-0.009000003337860107],"min":[-2.244999885559082,-0.30000001192092896,-0.4243333339691162],"type":"VEC3"},{"bufferView":1,"componentType":5126,"count":273,"type":"VEC3"},{"bufferView":2,"componentType":5126,"count":273,"type":"VEC2"},{"bufferView":3,"componentType":5123,"count":564,"type":"SCALAR"},{"bufferView":4,"componentType":5126,"count":281,"max":[-1.7949999570846558,0.30000001192092896,-0.44233331084251404],"min":[-2.244999885559082,-0.30000001192092896,-0.8576666116714478],"type":"VEC3"},{"bufferView":5,"componentType":5126,"count":281,"type":"VEC3"},{"bufferView":6,"componentType":5126,"count":281,"type":"VEC2"},{"bufferView":7,"componentType":5123,"count":564,"type":"SCALAR"},{"bufferView":8,"componentType":5126,"count":261,"max":[-1.7949999570846558,0.30000001192092896,-0.8756667375564575],"min":[-2.244999885559082,-0.30000001192092896,-1.2910000085830688],"type":"VEC3"},{"bufferView":9,"componentType":5126,"count":261,"type":"VEC3"},{"bufferView":10,"componentType":5126,"count":261,"type":"VEC2"},{"bufferView":11,"componentType":5123,"count":564,"type":"SCALAR"},{"bufferView":12,"componentType":5126,"count":272,"max":[-1.7949999570846558,0.30000001192092896,-1.309000015258789],"min":[-2.244999885559082,-0.30000001192092896,-1.7243332862854004],"type":"VEC3"},{"bufferView":13,"componentType":5126,"count":272,"type":"VEC3"},{"bufferView":14,"componentType":5126,"count":272,"type":"VEC2"},{"bufferView":15,"componentType":5123,"count":564,"type":"SCALAR"},{"bufferView":16,"componentType":5126,"count":263,"max":[-1.7949999570846558,0.30000001192092896,-1.7423334121704102],"min":[-2.244999885559082,-0.30000001192092896,-2.1576666831970215],"type":"VEC3"},{"bufferView":17,"componentType":5126,"count":263,"type":"VEC3"},{"bufferView":18,"componentType":5126,"count":263,"type":"VEC2"},{"bufferView":19,"componentType":5123,"count":564,"type":"SCALAR"},{"bufferView":20,"componentType":5126,"count":272,"max":[-1.7949999570846558,0.30000001192092896,-2.1756668090820312],"min":[-2.244999885559082,-0.30000001192092896,-2.5910000801086426],"type":"VEC3"},{"bufferView":21,"componentType":5126,"count":272,"type":"VEC3"},{"bufferView":22,"componentType":5126,"count":272,"type":"VEC2"},{"bufferView":23,"componentType":5123,"count":564,"type":"SCALAR"},{"bufferView":24,"componentType":5126,"count":271,"max":[2.244999885559082,0.30000001192092896,-0.009000003337860107],"min":[1.7949999570846558,-0.30000001192092896,-0.4243333339691162],"type":"VEC3"},{"bufferView":25,"componentType":5126,"count":271,"type":"VEC3"},{"bufferView":26,"componentType":5126,"count":271,"type":"VEC2"},{"bufferView":27,"componentType":5123,"count":564,"type":"SCALAR"},{"bufferView":28,"componentType":5126,"count":283,"max":[2.244999885559082,0.30000001192092896,-0.44233331084251404],"min":[1.7949999570846558,-0.30000001192092896,-0.8576666116714478],"type":"VEC3"},{"bufferView":29,"componentType":5126,"count":283,"type":"VEC3"},{"bufferView":30,"componentType":5126,"count":283,"type":"VEC2"},{"bufferView":31,"componentType":5123,"count":564,"type":"SCALAR"},{"bufferView":32,"componentType":5126,"count":259,"max":[2.244999885559082,0.30000001192092896,-0.8756667375564575],"min":[1.7949999570846558,-0.30000001192092896,-1.2910000085830688],"type":"VEC3"},{"bufferView":33,"componentType":5126,"count":259,"type":"VEC3"},{"bufferView":34,"componentType":5126,"count":259,"type":"VEC2"},{"bufferView":35,"componentType":5123,"count":564,"type":"SCALAR"},{"bufferView":36,"componentType":5126,"count":269,"max":[2.244999885559082,0.30000001192092896,-1.309000015258789],"min":[1.7949999570846558,-0.30000001192092896,-1.7243332862854004],"type":"VEC3"},{"bufferView":37,"componentType":5126,"count":269,"type":"VEC3"},{"bufferView":38,"componentType":5126,"count":269,"type":"VEC2"},{"bufferView":39,"componentType":5123,"count":564,"type":"SCALAR"},{"bufferView":40,"componentType":5126,"count":257,"max":[2.244999885559082,0.30000001192092896,-1.7423334121704102],"min":[1.7949999570846558,-0.30000001192092896,-2.1576666831970215],"type":"VEC3"},{"bufferView":41,"componentType":5126,"count":257,"type":"VEC3"},{"bufferView":42,"componentType":5126,"count":257,"type":"VEC2"},{"bufferView":43,"componentType":5123,"count":564,"type":"SCALAR"},{"bufferView":44,"componentType":5126,"count":276,"max":[2.244999885559082,0.30000001192092896,-2.1756668090820312],"min":[1.7949999570846558,-0.30000001192092896,-2.5910000801086426],"type":"VEC3"},{"bufferView":45,"componentType":5126,"count":276,"type":"VEC3"},{"bufferView":46,"componentType":5126,"count":276,"type":"VEC2"},{"bufferView":47,"componentType":5123,"count":564,"type":"SCALAR"},{"bufferView":48,"componentType":5126,"count":161,"max":[-1.781678557395935,0.30000001192092896,-2.6049134731292725],"min":[-1.7999999523162842,-0.30000001192092896,-3.2281033992767334],"type":"VEC3"},{"bufferView":49,"componentType":5126,"count":161,"type":"VEC3"},{"bufferView":50,"componentType":5126,"count":161,"type":"VEC2"},{"bufferView":51,"componentType":5123,"count":372,"type":"SCALAR"},{"bufferView":52,"componentType":5126,"count":154,"max":[-1.727087378501892,0.30000001192092896,-2.940340757369995],"min":[-1.781678557395935,-0.30000001192092896,-3.5519299507141113],"type":"VEC3"},{"bufferView":53,"componentType":5126,"count":154,"type":"VEC3"},{"bufferView":54,"componentType":5126,"count":154,"type":"VEC2"},{"bufferView":55,"componentType":5123,"count":372,"type":"SCALAR"},{"bufferView":56,"componentType":5126,"count":166,"max":[-1.637337565422058,0.30000001192092896,-3.2666101455688477],"min":[-1.727087378501892,-0.30000001192092896,-3.864715099334717],"type":"VEC3"},{"bufferView":57,"componentType":5126,"count":166,"type":"VEC3"},{"bufferView":58,"componentType":5126,"count":166,"type":"VEC2"},{"bufferView":59,"componentType":5123,"count":372,"type":"SCALAR"},{"bufferView":60,"componentType":5126,"count":172,"max":[-1.5142563581466675,0.30000001192092896,-3.5793139934539795],"min":[-1.637337565422058,-0.30000001192092896,-4.157856464385986],"type":"VEC3"},{"bufferView":61,"componentType":5126,"count":172,"type":"VEC3"},{"bufferView":62,"componentType":5126,"count":172,"type":"VEC2"},{"bufferView":63,"componentType":5123,"count":372,"type":"SCALAR"},{"bufferView":64,"componentType":5126,"count":168,"max":[-1.360349178314209,0.30000001192092896,-3.872086524963379],"min":[-1.5142563581466675,-0.30000001192092896,-4.425386905670166],"type":"VEC3"},{"bufferView":65,"componentType":5126,"count":168,"type":"VEC3"},{"bufferView":66,"componentType":5126,"count":168,"type":"VEC2"},{"bufferView":67,"componentType":5123,"count":372,"type":"SCALAR"},{"bufferView":68,"componentType":5126,"count":246,"max":[-1.1787493228912354,0.30000001192092896,-4.1389617919921875],"min":[-1.360349178314209,-0.30000001192092896,-4.661867141723633],"type":"VEC3"},{"bufferView":69,"componentType":5126,"count":246,"type":"VEC3"},{"bufferView":70,"componentType":5126,"count":246,"type":"VEC2"},{"bufferView":71,"componentType":5123,"count":564,"type":"SCALAR"},{"bufferView":72,"componentType":5126,"count":253,"max":[-0.9731534719467163,0.30000001192092896,-4.372774124145508],"min":[-1.1787493228912354,-0.30000001192092896,-4.864212989807129],"type":"VEC3"},{"bufferView":73,"componentType":5126,"count":253,"type":"VEC3"},{"bufferView":74,"componentType":5126,"count":253,"type":"VEC2"},{"bufferView":75,"componentType":5123,"count":564,"type":"SCALAR"},{"bufferView":76,"componentType":5126,"count":245,"max":[-0.747747004032135,0.30000001192092896,-4.572830677032471],"min":[-0.9731534719467163,-0.30000001192092896,-5.024242401123047],"type":"VEC3"},{"bufferView":77,"componentType":5126,"count":245,"type":"VEC3"},{"bufferView":78,"componentType":5126,"count":245,"type":"VEC2"},{"bufferView":79,"componentType":5123,"count":564,"type":"SCALAR"},{"bufferView":80,"componentType":5126,"count":276,"max":[-0.5071185827255249,0.30000001192092896,-4.732412815093994],"min":[-0.747747004032135,-0.30000001192092896,-5.1413397789001465],"type":"VEC3"},{"bufferView":81,"componentType":5126,"count":276,"type":"VEC3"},{"bufferView":82,"componentType":5126,"count":276,"type":"VEC2"},{"bufferView":83,"componentType":5123,"count":564,"type":"SCALAR"},{"bufferView":84,"componentType":5126,"count":243,"max":[-0.2561666965484619,0.30000001192092896,-4.848342418670654],"min":[-0.5071185827255249,-0.30000001192092896,-5.213053226470947],"type":"VEC3"},{"bufferView":85,"componentType":5126,"count":243,"type":"VEC3"},{"bufferView":86,"componentType":5126,"count":243,"type":"VEC2"},{"bufferView":87,"componentType":5123,"count":564,"type":"SCALAR"},{"bufferView":88,"componentType":5126,"count":237,"max":[-1.1021821011522021e-16,0.30000001192092896,-4.917293071746826],"min":[-0.2561666965484619,-0.30000001192092896,-5.238888740539551],"type":"VEC3"},{"bufferView":89,"componentType":5126,"count":237,"type":"VEC3"},{"bufferView":90,"componentType":5126,"count":237,"type":"VEC2"},{"bufferView":91,"componentType":5123,"count":564,"type":"SCALAR"},{"bufferView":92,"componentType":5126,"count":237,"max":[0.2561666965484619,0.30000001192092896,-4.917293071746826],"min":[-1.1021821011522021e-16,-0.30000001192092896,-5.238888740539551],"type":"VEC3"},{"bufferView":93,"componentType":5126,"count":237,"type":"VEC3"},{"bufferView":94,"componentType":5126,"count":237,"type":"VEC2"},{"bufferView":95,"componentType":5123,"count":564,"type":"SCALAR"},{"bufferView":96,"componentType":5126,"count":242,"max":[0.5071185827255249,0.30000001192092896,-4.848342418670654],"min":[0.2561666965484619,-0.30000001192092896,-5.213053226470947],"type":"VEC3"},{"bufferView":97,"componentType":5126,"count":242,"type":"VEC3"},{"bufferView":98,"componentType":5126,"count":242,"type":"VEC2"},{"bufferView":99,"componentType":5123,"count":564,"type":"SCALAR"},{"bufferView":100,"componentType":5126,"count":290,"max":[0.747747004032135,0.30000001192092896,-4.732412815093994],"min":[0.5071185827255249,-0.30000001192092896,-5.1413397789001465],"type":"VEC3"},{"bufferView":101,"componentType":5126,"count":290,"type":"VEC3"},{"bufferView":102,"componentType":5126,"count":290,"type":"VEC2"},{"bufferView":103,"componentType":5123,"count":564,"type":"SCALAR"},{"bufferView":104,"componentType":5126,"count":248,"max":[0.9731534719467163,0.30000001192092896,-4.572830677032471],"min":[0.747747004032135,-0.30000001192092896,-5.024242401123047],"type":"VEC3"},{"bufferView":105,"componentType":5126,"count":248,"type":"VEC3"},{"bufferView":106,"componentType":5126,"count":248,"type":"VEC2"},{"bufferView":107,"componentType":5123,"count":564,"type":"SCALAR"},{"bufferView":108,"componentType":5126,"count":259,"max":[1.1787493228912354,0.30000001192092896,-4.372774124145508],"min":[0.9731534719467163,-0.30000001192092896,-4.864212989807129],"type":"VEC3"},{"bufferView":109,"componentType":5126,"count":259,"type":"VEC3"},{"bufferView":110,"componentType":5126,"count":259,"type":"VEC2"},{"bufferView":111,"componentType":5123,"count":564,"type":"SCALAR"},{"bufferView":112,"componentType":5126,"count":245,"max":[1.360349178314209,0.30000001192092896,-4.1389617919921875],"min":[1.1787493228912354,-0.30000001192092896,-4.661867141723633],"type":"VEC3"},{"bufferView":113,"componentType":5126,"count":245,"type":"VEC3"},{"bufferView":114,"componentType":5126,"count":245,"type":"VEC2"},{"bufferView":115,"componentType":5123,"count":564,"type":"SCALAR"},{"bufferView":116,"componentType":5126,"count":171,"max":[1.5142563581466675,0.30000001192092896,-3.872086524963379],"min":[1.360349178314209,-0.30000001192092896,-4.425386905670166],"type":"VEC3"},{"bufferView":117,"componentType":5126,"count":171,"type":"VEC3"},{"bufferView":118,"componentType":5126,"count":171,"type":"VEC2"},{"bufferView":119,"componentType":5123,"count":372,"type":"SCALAR"},{"bufferView":120,"componentType":5126,"count":170,"max":[1.637337565422058,0.30000001192092896,-3.5793139934539795],"min":[1.5142563581466675,-0.30000001192092896,-4.157856464385986],"type":"VEC3"},{"bufferView":121,"componentType":5126,"count":170,"type":"VEC3"},{"bufferView":122,"componentType":5126,"count":170,"type":"VEC2"},{"bufferView":123,"componentType":5123,"count":372,"type":"SCALAR"},{"bufferView":124,"componentType":5126,"count":164,"max":[1.727087378501892,0.30000001192092896,-3.2666101455688477],"min":[1.637337565422058,-0.30000001192092896,-3.864715099334717],"type":"VEC3"},{"bufferView":125,"componentType":5126,"count":164,"type":"VEC3"},{"bufferView":126,"componentType":5126,"count":164,"type":"VEC2"},{"bufferView":127,"componentType":5123,"count":372,"type":"SCALAR"},{"bufferView":128,"componentType":5126,"count":151,"max":[1.781678557395935,0.30000001192092896,-2.940340757369995],"min":[1.727087378501892,-0.30000001192092896,-3.5519299507141113],"type":"VEC3"},{"bufferView":129,"componentType":5126,"count":151,"type":"VEC3"},{"bufferView":130,"componentType":5126,"count":151,"type":"VEC2"},{"bufferView":131,"componentType":5123,"count":372,"type":"SCALAR"},{"bufferView":132,"componentType":5126,"count":160,"max":[1.7999999523162842,0.30000001192092896,-2.6049134731292725],"min":[1.781678557395935,-0.30000001192092896,-3.2281033992767334],"type":"VEC3"},{"bufferView":133,"componentType":5126,"count":160,"type":"VEC3"},{"bufferView":134,"componentType":5126,"count":160,"type":"VEC2"},{"bufferView":135,"componentType":5123,"count":372,"type":"SCALAR"},{"bufferView":136,"componentType":5126,"count":265,"max":[-1.7300000190734863,0.375,-2.509999990463257],"min":[-2.309999942779541,-0.375,-2.68999981880188],"type":"VEC3"},{"bufferView":137,"componentType":5126,"count":265,"type":"VEC3"},{"bufferView":138,"componentType":5126,"count":265,"type":"VEC2"},{"bufferView":139,"componentType":5123,"count":564,"type":"SCALAR"},{"bufferView":140,"componentType":5126,"count":266,"max":[2.309999942779541,0.375,-2.509999990463257],"min":[1.7300000190734863,-0.375,-2.68999981880188],"type":"VEC3"},{"bufferView":141,"componentType":5126,"count":266,"type":"VEC3"},{"bufferView":142,"componentType":5126,"count":266,"type":"VEC2"},{"bufferView":143,"componentType":5123,"count":564,"type":"SCALAR"},{"bufferView":144,"componentType":5126,"count":507,"max":[-1.6214779615402222,0.39798426628112793,0],"min":[-2.4185221195220947,-0.39798426628112793,-0.2800000011920929],"type":"VEC3"},{"bufferView":145,"componentType":5126,"count":507,"type":"VEC3"},{"bufferView":146,"componentType":5126,"count":507,"type":"VEC2"},{"bufferView":147,"componentType":5123,"count":1908,"type":"SCALAR"},{"bufferView":148,"componentType":5126,"count":507,"max":[2.4185221195220947,0.39798426628112793,0],"min":[1.6214779615402222,-0.39798426628112793,-0.2800000011920929],"type":"VEC3"},{"bufferView":149,"componentType":5126,"count":507,"type":"VEC3"},{"bufferView":150,"componentType":5126,"count":507,"type":"VEC2"},{"bufferView":151,"componentType":5123,"count":1908,"type":"SCALAR"}],"bufferViews":[{"buffer":0,"byteLength":3276,"byteOffset":0,"target":34962},{"buffer":0,"byteLength":3276,"byteOffset":3276,"target":34962},{"buffer":0,"byteLength":2184,"byteOffset":6552,"target":34962},{"buffer":0,"byteLength":1128,"byteOffset":8736,"target":34963},{"buffer":0,"byteLength":3372,"byteOffset":9864,"target":34962},{"buffer":0,"byteLength":3372,"byteOffset":13236,"target":34962},{"buffer":0,"byteLength":2248,"byteOffset":16608,"target":34962},{"buffer":0,"byteLength":1128,"byteOffset":18856,"target":34963},{"buffer":0,"byteLength":3132,"byteOffset":19984,"target":34962},{"buffer":0,"byteLength":3132,"byteOffset":23116,"target":34962},{"buffer":0,"byteLength":2088,"byteOffset":26248,"target":34962},{"buffer":0,"byteLength":1128,"byteOffset":28336,"target":34963},{"buffer":0,"byteLength":3264,"byteOffset":29464,"target":34962},{"buffer":0,"byteLength":3264,"byteOffset":32728,"target":34962},{"buffer":0,"byteLength":2176,"byteOffset":35992,"target":34962},{"buffer":0,"byteLength":1128,"byteOffset":38168,"target":34963},{"buffer":0,"byteLength":3156,"byteOffset":39296,"target":34962},{"buffer":0,"byteLength":3156,"byteOffset":42452,"target":34962},{"buffer":0,"byteLength":2104,"byteOffset":45608,"target":34962},{"buffer":0,"byteLength":1128,"byteOffset":47712,"target":34963},{"buffer":0,"byteLength":3264,"byteOffset":48840,"target":34962},{"buffer":0,"byteLength":3264,"byteOffset":52104,"target":34962},{"buffer":0,"byteLength":2176,"byteOffset":55368,"target":34962},{"buffer":0,"byteLength":1128,"byteOffset":57544,"target":34963},{"buffer":0,"byteLength":3252,"byteOffset":58672,"target":34962},{"buffer":0,"byteLength":3252,"byteOffset":61924,"target":34962},{"buffer":0,"byteLength":2168,"byteOffset":65176,"target":34962},{"buffer":0,"byteLength":1128,"byteOffset":67344,"target":34963},{"buffer":0,"byteLength":3396,"byteOffset":68472,"target":34962},{"buffer":0,"byteLength":3396,"byteOffset":71868,"target":34962},{"buffer":0,"byteLength":2264,"byteOffset":75264,"target":34962},{"buffer":0,"byteLength":1128,"byteOffset":77528,"target":34963},{"buffer":0,"byteLength":3108,"byteOffset":78656,"target":34962},{"buffer":0,"byteLength":3108,"byteOffset":81764,"target":34962},{"buffer":0,"byteLength":2072,"byteOffset":84872,"target":34962},{"buffer":0,"byteLength":1128,"byteOffset":86944,"target":34963},{"buffer":0,"byteLength":3228,"byteOffset":88072,"target":34962},{"buffer":0,"byteLength":3228,"byteOffset":91300,"target":34962},{"buffer":0,"byteLength":2152,"byteOffset":94528,"target":34962},{"buffer":0,"byteLength":1128,"byteOffset":96680,"target":34963},{"buffer":0,"byteLength":3084,"byteOffset":97808,"target":34962},{"buffer":0,"byteLength":3084,"byteOffset":100892,"target":34962},{"buffer":0,"byteLength":2056,"byteOffset":103976,"target":34962},{"buffer":0,"byteLength":1128,"byteOffset":106032,"target":34963},{"buffer":0,"byteLength":3312,"byteOffset":107160,"target":34962},{"buffer":0,"byteLength":3312,"byteOffset":110472,"target":34962},{"buffer":0,"byteLength":2208,"byteOffset":113784,"target":34962},{"buffer":0,"byteLength":1128,"byteOffset":115992,"target":34963},{"buffer":0,"byteLength":1932,"byteOffset":117120,"target":34962},{"buffer":0,"byteLength":1932,"byteOffset":119052,"target":34962},{"buffer":0,"byteLength":1288,"byteOffset":120984,"target":34962},{"buffer":0,"byteLength":744,"byteOffset":122272,"target":34963},{"buffer":0,"byteLength":1848,"byteOffset":123016,"target":34962},{"buffer":0,"byteLength":1848,"byteOffset":124864,"target":34962},{"buffer":0,"byteLength":1232,"byteOffset":126712,"target":34962},{"buffer":0,"byteLength":744,"byteOffset":127944,"target":34963},{"buffer":0,"byteLength":1992,"byteOffset":128688,"target":34962},{"buffer":0,"byteLength":1992,"byteOffset":130680,"target":34962},{"buffer":0,"byteLength":1328,"byteOffset":132672,"target":34962},{"buffer":0,"byteLength":744,"byteOffset":134000,"target":34963},{"buffer":0,"byteLength":2064,"byteOffset":134744,"target":34962},{"buffer":0,"byteLength":2064,"byteOffset":136808,"target":34962},{"buffer":0,"byteLength":1376,"byteOffset":138872,"target":34962},{"buffer":0,"byteLength":744,"byteOffset":140248,"target":34963},{"buffer":0,"byteLength":2016,"byteOffset":140992,"target":34962},{"buffer":0,"byteLength":2016,"byteOffset":143008,"target":34962},{"buffer":0,"byteLength":1344,"byteOffset":145024,"target":34962},{"buffer":0,"byteLength":744,"byteOffset":146368,"target":34963},{"buffer":0,"byteLength":2952,"byteOffset":147112,"target":34962},{"buffer":0,"byteLength":2952,"byteOffset":150064,"target":34962},{"buffer":0,"byteLength":1968,"byteOffset":153016,"target":34962},{"buffer":0,"byteLength":1128,"byteOffset":154984,"target":34963},{"buffer":0,"byteLength":3036,"byteOffset":156112,"target":34962},{"buffer":0,"byteLength":3036,"byteOffset":159148,"target":34962},{"buffer":0,"byteLength":2024,"byteOffset":162184,"target":34962},{"buffer":0,"byteLength":1128,"byteOffset":164208,"target":34963},{"buffer":0,"byteLength":2940,"byteOffset":165336,"target":34962},{"buffer":0,"byteLength":2940,"byteOffset":168276,"target":34962},{"buffer":0,"byteLength":1960,"byteOffset":171216,"target":34962},{"buffer":0,"byteLength":1128,"byteOffset":173176,"target":34963},{"buffer":0,"byteLength":3312,"byteOffset":174304,"target":34962},{"buffer":0,"byteLength":3312,"byteOffset":177616,"target":34962},{"buffer":0,"byteLength":2208,"byteOffset":180928,"target":34962},{"buffer":0,"byteLength":1128,"byteOffset":183136,"target":34963},{"buffer":0,"byteLength":2916,"byteOffset":184264,"target":34962},{"buffer":0,"byteLength":2916,"byteOffset":187180,"target":34962},{"buffer":0,"byteLength":1944,"byteOffset":190096,"target":34962},{"buffer":0,"byteLength":1128,"byteOffset":192040,"target":34963},{"buffer":0,"byteLength":2844,"byteOffset":193168,"target":34962},{"buffer":0,"byteLength":2844,"byteOffset":196012,"target":34962},{"buffer":0,"byteLength":1896,"byteOffset":198856,"target":34962},{"buffer":0,"byteLength":1128,"byteOffset":200752,"target":34963},{"buffer":0,"byteLength":2844,"byteOffset":201880,"target":34962},{"buffer":0,"byteLength":2844,"byteOffset":204724,"target":34962},{"buffer":0,"byteLength":1896,"byteOffset":207568,"target":34962},{"buffer":0,"byteLength":1128,"byteOffset":209464,"target":34963},{"buffer":0,"byteLength":2904,"byteOffset":210592,"target":34962},{"buffer":0,"byteLength":2904,"byteOffset":213496,"target":34962},{"buffer":0,"byteLength":1936,"byteOffset":216400,"target":34962},{"buffer":0,"byteLength":1128,"byteOffset":218336,"target":34963},{"buffer":0,"byteLength":3480,"byteOffset":219464,"target":34962},{"buffer":0,"byteLength":3480,"byteOffset":222944,"target":34962},{"buffer":0,"byteLength":2320,"byteOffset":226424,"target":34962},{"buffer":0,"byteLength":1128,"byteOffset":228744,"target":34963},{"buffer":0,"byteLength":2976,"byteOffset":229872,"target":34962},{"buffer":0,"byteLength":2976,"byteOffset":232848,"target":34962},{"buffer":0,"byteLength":1984,"byteOffset":235824,"target":34962},{"buffer":0,"byteLength":1128,"byteOffset":237808,"target":34963},{"buffer":0,"byteLength":3108,"byteOffset":238936,"target":34962},{"buffer":0,"byteLength":3108,"byteOffset":242044,"target":34962},{"buffer":0,"byteLength":2072,"byteOffset":245152,"target":34962},{"buffer":0,"byteLength":1128,"byteOffset":247224,"target":34963},{"buffer":0,"byteLength":2940,"byteOffset":248352,"target":34962},{"buffer":0,"byteLength":2940,"byteOffset":251292,"target":34962},{"buffer":0,"byteLength":1960,"byteOffset":254232,"target":34962},{"buffer":0,"byteLength":1128,"byteOffset":256192,"target":34963},{"buffer":0,"byteLength":2052,"byteOffset":257320,"target":34962},{"buffer":0,"byteLength":2052,"byteOffset":259372,"target":34962},{"buffer":0,"byteLength":1368,"byteOffset":261424,"target":34962},{"buffer":0,"byteLength":744,"byteOffset":262792,"target":34963},{"buffer":0,"byteLength":2040,"byteOffset":263536,"target":34962},{"buffer":0,"byteLength":2040,"byteOffset":265576,"target":34962},{"buffer":0,"byteLength":1360,"byteOffset":267616,"target":34962},{"buffer":0,"byteLength":744,"byteOffset":268976,"target":34963},{"buffer":0,"byteLength":1968,"byteOffset":269720,"target":34962},{"buffer":0,"byteLength":1968,"byteOffset":271688,"target":34962},{"buffer":0,"byteLength":1312,"byteOffset":273656,"target":34962},{"buffer":0,"byteLength":744,"byteOffset":274968,"target":34963},{"buffer":0,"byteLength":1812,"byteOffset":275712,"target":34962},{"buffer":0,"byteLength":1812,"byteOffset":277524,"target":34962},{"buffer":0,"byteLength":1208,"byteOffset":279336,"target":34962},{"buffer":0,"byteLength":744,"byteOffset":280544,"target":34963},{"buffer":0,"byteLength":1920,"byteOffset":281288,"target":34962},{"buffer":0,"byteLength":1920,"byteOffset":283208,"target":34962},{"buffer":0,"byteLength":1280,"byteOffset":285128,"target":34962},{"buffer":0,"byteLength":744,"byteOffset":286408,"target":34963},{"buffer":0,"byteLength":3180,"byteOffset":287152,"target":34962},{"buffer":0,"byteLength":3180,"byteOffset":290332,"target":34962},{"buffer":0,"byteLength":2120,"byteOffset":293512,"target":34962},{"buffer":0,"byteLength":1128,"byteOffset":295632,"target":34963},{"buffer":0,"byteLength":3192,"byteOffset":296760,"target":34962},{"buffer":0,"byteLength":3192,"byteOffset":299952,"target":34962},{"buffer":0,"byteLength":2128,"byteOffset":303144,"target":34962},{"buffer":0,"byteLength":1128,"byteOffset":305272,"target":34963},{"buffer":0,"byteLength":6084,"byteOffset":306400,"target":34962},{"buffer":0,"byteLength":6084,"byteOffset":312484,"target":34962},{"buffer":0,"byteLength":4056,"byteOffset":318568,"target":34962},{"buffer":0,"byteLength":3816,"byteOffset":322624,"target":34963},{"buffer":0,"byteLength":6084,"byteOffset":326440,"target":34962},{"buffer":0,"byteLength":6084,"byteOffset":332524,"target":34962},{"buffer":0,"byteLength":4056,"byteOffset":338608,"target":34962},{"buffer":0,"byteLength":3816,"byteOffset":342664,"target":34963}],"samplers":[{"magFilter":9729,"minFilter":9987}],"buffers":[{"uri":"C02_pointed_arch.bin","byteLength":346480}]}