{"asset":{"generator":"Khronos glTF Blender I/O v5.2.40","version":"2.0"},"extensionsUsed":["KHR_materials_specular"],"scene":0,"scenes":[{"name":"Scene","nodes":[0,1,2,3,4,5,6,7,8,9,10,11,12,13,14,15,16,17,18,19,20,21,22,23,24,25]}],"nodes":[{"mesh":0,"name":"Flagstone","rotation":[0.7071068286895752,0,0,0.7071068286895752]},{"mesh":1,"name":"Flagstone.001","rotation":[0.7071068286895752,0,0,0.7071068286895752]},{"mesh":2,"name":"Flagstone.002","rotation":[0.7071068286895752,0,0,0.7071068286895752]},{"mesh":3,"name":"Flagstone.003","rotation":[0.7071068286895752,0,0,0.7071068286895752]},{"mesh":4,"name":"Flagstone.004","rotation":[0.7071068286895752,0,0,0.7071068286895752]},{"mesh":5,"name":"Flagstone.005","rotation":[0.7071068286895752,0,0,0.7071068286895752]},{"mesh":6,"name":"Flagstone.006","rotation":[0.7071068286895752,0,0,0.7071068286895752]},{"mesh":7,"name":"Flagstone.007","rotation":[0.7071068286895752,0,0,0.7071068286895752]},{"mesh":8,"name":"Flagstone.008","rotation":[0.7071068286895752,0,0,0.7071068286895752]},{"mesh":9,"name":"Flagstone.009","rotation":[0.7071068286895752,0,0,0.7071068286895752]},{"mesh":10,"name":"Flagstone.010","rotation":[0.7071068286895752,0,0,0.7071068286895752]},{"mesh":11,"name":"Flagstone.011","rotation":[0.7071068286895752,0,0,0.7071068286895752]},{"mesh":12,"name":"Flagstone.012","rotation":[0.7071068286895752,0,0,0.7071068286895752]},{"mesh":13,"name":"Flagstone.013","rotation":[0.7071068286895752,0,0,0.7071068286895752]},{"mesh":14,"name":"Flagstone.014","rotation":[0.7071068286895752,0,0,0.7071068286895752]},{"mesh":15,"name":"Flagstone.015","rotation":[0.7071068286895752,0,0,0.7071068286895752]},{"mesh":16,"name":"Flagstone.016","rotation":[0.7071068286895752,0,0,0.7071068286895752]},{"mesh":17,"name":"Flagstone.017","rotation":[0.7071068286895752,0,0,0.7071068286895752]},{"mesh":18,"name":"Flagstone.018","rotation":[0.7071068286895752,0,0,0.7071068286895752]},{"mesh":19,"name":"Flagstone.019","rotation":[0.7071068286895752,0,0,0.7071068286895752]},{"mesh":20,"name":"Flagstone.020","rotation":[0.7071068286895752,0,0,0.7071068286895752]},{"mesh":21,"name":"Flagstone.021","rotation":[0.7071068286895752,0,0,0.7071068286895752]},{"mesh":22,"name":"Flagstone.022","rotation":[0.7071068286895752,0,0,0.7071068286895752]},{"mesh":23,"name":"Flagstone.023","rotation":[0.7071068286895752,0,0,0.7071068286895752]},{"mesh":24,"name":"Flagstone.024","rotation":[0.7071068286895752,0,0,0.7071068286895752]},{"mesh":25,"name":"Paving base","rotation":[0.7071068286895752,0,0,0.7071068286895752]}],"materials":[{"doubleSided":true,"extensions":{"KHR_materials_specular":{"specularFactor":0.5}},"name":"Worn flagstone.002_soot","normalTexture":{"index":0,"scale":0.11999999731779099},"pbrMetallicRoughness":{"baseColorTexture":{"index":1},"metallicFactor":0,"roughnessFactor":0.9700000286102295}},{"doubleSided":true,"extensions":{"KHR_materials_specular":{"specularFactor":0.5}},"name":"Worn flagstone.002","normalTexture":{"index":2,"scale":0.11999999731779099},"pbrMetallicRoughness":{"baseColorTexture":{"index":3},"metallicFactor":0,"metallicRoughnessTexture":{"index":4}}},{"doubleSided":true,"name":"Stone joints.002","pbrMetallicRoughness":{"baseColorFactor":[0.012000000104308128,0.014000000432133675,0.012000000104308128,1],"metallicFactor":0,"roughnessFactor":0.9599999785423279}}],"meshes":[{"name":"Flagstone.050","primitives":[{"attributes":{"POSITION":0,"NORMAL":1,"TEXCOORD_0":2},"indices":3,"material":0}]},{"name":"Flagstone.051","primitives":[{"attributes":{"POSITION":4,"NORMAL":5,"TEXCOORD_0":6},"indices":7,"material":1}]},{"name":"Flagstone.052","primitives":[{"attributes":{"POSITION":8,"NORMAL":9,"TEXCOORD_0":10},"indices":11,"material":1}]},{"name":"Flagstone.053","primitives":[{"attributes":{"POSITION":12,"NORMAL":13,"TEXCOORD_0":14},"indices":15,"material":1}]},{"name":"Flagstone.054","primitives":[{"attributes":{"POSITION":16,"NORMAL":17,"TEXCOORD_0":18},"indices":19,"material":1}]},{"name":"Flagstone.055","primitives":[{"attributes":{"POSITION":20,"NORMAL":21,"TEXCOORD_0":22},"indices":23,"material":0}]},{"name":"Flagstone.056","primitives":[{"attributes":{"POSITION":24,"NORMAL":25,"TEXCOORD_0":26},"indices":27,"material":1}]},{"name":"Flagstone.057","primitives":[{"attributes":{"POSITION":28,"NORMAL":29,"TEXCOORD_0":30},"indices":31,"material":1}]},{"name":"Flagstone.058","primitives":[{"attributes":{"POSITION":32,"NORMAL":33,"TEXCOORD_0":34},"indices":35,"material":1}]},{"name":"Flagstone.059","primitives":[{"attributes":{"POSITION":36,"NORMAL":37,"TEXCOORD_0":38},"indices":39,"material":1}]},{"name":"Flagstone.060","primitives":[{"attributes":{"POSITION":40,"NORMAL":41,"TEXCOORD_0":42},"indices":43,"material":0}]},{"name":"Flagstone.061","primitives":[{"attributes":{"POSITION":44,"NORMAL":45,"TEXCOORD_0":46},"indices":47,"material":1}]},{"name":"Flagstone.062","primitives":[{"attributes":{"POSITION":48,"NORMAL":49,"TEXCOORD_0":50},"indices":51,"material":1}]},{"name":"Flagstone.063","primitives":[{"attributes":{"POSITION":52,"NORMAL":53,"TEXCOORD_0":54},"indices":55,"material":1}]},{"name":"Flagstone.064","primitives":[{"attributes":{"POSITION":56,"NORMAL":57,"TEXCOORD_0":58},"indices":59,"material":1}]},{"name":"Flagstone.065","primitives":[{"attributes":{"POSITION":60,"NORMAL":61,"TEXCOORD_0":62},"indices":63,"material":1}]},{"name":"Flagstone.066","primitives":[{"attributes":{"POSITION":64,"NORMAL":65,"TEXCOORD_0":66},"indices":67,"material":1}]},{"name":"Flagstone.067","primitives":[{"attributes":{"POSITION":68,"NORMAL":69,"TEXCOORD_0":70},"indices":71,"material":1}]},{"name":"Flagstone.068","primitives":[{"attributes":{"POSITION":72,"NORMAL":73,"TEXCOORD_0":74},"indices":75,"material":1}]},{"name":"Flagstone.069","primitives":[{"attributes":{"POSITION":76,"NORMAL":77,"TEXCOORD_0":78},"indices":79,"material":1}]},{"name":"Flagstone.070","primitives":[{"attributes":{"POSITION":80,"NORMAL":81,"TEXCOORD_0":82},"indices":83,"material":1}]},{"name":"Flagstone.071","primitives":[{"attributes":{"POSITION":84,"NORMAL":85,"TEXCOORD_0":86},"indices":87,"material":1}]},{"name":"Flagstone.072","primitives":[{"attributes":{"POSITION":88,"NORMAL":89,"TEXCOORD_0":90},"indices":91,"material":0}]},{"name":"Flagstone.073","primitives":[{"attributes":{"POSITION":92,"NORMAL":93,"TEXCOORD_0":94},"indices":95,"material":1}]},{"name":"Flagstone.074","primitives":[{"attributes":{"POSITION":96,"NORMAL":97,"TEXCOORD_0":98},"indices":99,"material":1}]},{"name":"Paving base.002","primitives":[{"attributes":{"POSITION":100,"NORMAL":101,"TEXCOORD_0":102},"indices":103,"material":2}]}],"textures":[{"sampler":0,"source":0},{"sampler":0,"source":1},{"sampler":0,"source":0},{"sampler":0,"source":1},{"sampler":0,"source":2}],"images":[{"name":"normal","uri":"../textures/111ec8bb85fd34402ad7.png"},{"name":"floor-charcoal","uri":"../textures/54d18595aea1d80718fd.png"},{"name":"roughness","uri":"../textures/c9d4f48b4bf1f93fb137.png"}],"accessors":[{"bufferView":0,"componentType":5126,"count":298,"max":[-1.2100000381469727,-1.2100000381469727,0.0650726705789566],"min":[-1.9900000095367432,-1.9900000095367432,-0.013072673231363297],"type":"VEC3"},{"bufferView":1,"componentType":5126,"count":298,"type":"VEC3"},{"bufferView":2,"componentType":5126,"count":298,"type":"VEC2"},{"bufferView":3,"componentType":5123,"count":564,"type":"SCALAR"},{"bufferView":4,"componentType":5126,"count":287,"max":[-0.4100000262260437,-1.2100000381469727,0.0646824985742569],"min":[-1.190000057220459,-1.9900000095367432,-0.01268250122666359],"type":"VEC3"},{"bufferView":5,"componentType":5126,"count":287,"type":"VEC3"},{"bufferView":6,"componentType":5126,"count":287,"type":"VEC2"},{"bufferView":7,"componentType":5123,"count":564,"type":"SCALAR"},{"bufferView":8,"componentType":5126,"count":329,"max":[0.38999998569488525,-1.2100000381469727,0.06351664662361145],"min":[-0.38999998569488525,-1.9900000095367432,-0.011516649276018143],"type":"VEC3"},{"bufferView":9,"componentType":5126,"count":329,"type":"VEC3"},{"bufferView":10,"componentType":5126,"count":329,"type":"VEC2"},{"bufferView":11,"componentType":5123,"count":564,"type":"SCALAR"},{"bufferView":12,"componentType":5126,"count":314,"max":[1.190000057220459,-1.2100000381469727,0.06482815742492676],"min":[0.4100000262260437,-1.9900000095367432,-0.01282816007733345],"type":"VEC3"},{"bufferView":13,"componentType":5126,"count":314,"type":"VEC3"},{"bufferView":14,"componentType":5126,"count":314,"type":"VEC2"},{"bufferView":15,"componentType":5123,"count":564,"type":"SCALAR"},{"bufferView":16,"componentType":5126,"count":295,"max":[1.9900000095367432,-1.2100000381469727,0.0642613023519516],"min":[1.2100000381469727,-1.9900000095367432,-0.012261305004358292],"type":"VEC3"},{"bufferView":17,"componentType":5126,"count":295,"type":"VEC3"},{"bufferView":18,"componentType":5126,"count":295,"type":"VEC2"},{"bufferView":19,"componentType":5123,"count":564,"type":"SCALAR"},{"bufferView":20,"componentType":5126,"count":294,"max":[-1.2100000381469727,-0.4100000262260437,0.0661693811416626],"min":[-1.9900000095367432,-1.190000057220459,-0.014169380068778992],"type":"VEC3"},{"bufferView":21,"componentType":5126,"count":294,"type":"VEC3"},{"bufferView":22,"componentType":5126,"count":294,"type":"VEC2"},{"bufferView":23,"componentType":5123,"count":564,"type":"SCALAR"},{"bufferView":24,"componentType":5126,"count":300,"max":[-0.4100000262260437,-0.4100000262260437,0.06482815742492676],"min":[-1.190000057220459,-1.190000057220459,-0.01282816007733345],"type":"VEC3"},{"bufferView":25,"componentType":5126,"count":300,"type":"VEC3"},{"bufferView":26,"componentType":5126,"count":300,"type":"VEC2"},{"bufferView":27,"componentType":5123,"count":564,"type":"SCALAR"},{"bufferView":28,"componentType":5126,"count":273,"max":[0.38999998569488525,-0.4100000262260437,0.06707030534744263],"min":[-0.38999998569488525,-1.190000057220459,-0.015070300549268723],"type":"VEC3"},{"bufferView":29,"componentType":5126,"count":273,"type":"VEC3"},{"bufferView":30,"componentType":5126,"count":273,"type":"VEC2"},{"bufferView":31,"componentType":5123,"count":564,"type":"SCALAR"},{"bufferView":32,"componentType":5126,"count":301,"max":[1.190000057220459,-0.4100000262260437,0.06572532653808594],"min":[0.4100000262260437,-1.190000057220459,-0.01372532919049263],"type":"VEC3"},{"bufferView":33,"componentType":5126,"count":301,"type":"VEC3"},{"bufferView":34,"componentType":5126,"count":301,"type":"VEC2"},{"bufferView":35,"componentType":5123,"count":564,"type":"SCALAR"},{"bufferView":36,"componentType":5126,"count":285,"max":[1.9900000095367432,-0.4100000262260437,0.06453973054885864],"min":[1.2100000381469727,-1.190000057220459,-0.012539733201265335],"type":"VEC3"},{"bufferView":37,"componentType":5126,"count":285,"type":"VEC3"},{"bufferView":38,"componentType":5126,"count":285,"type":"VEC2"},{"bufferView":39,"componentType":5123,"count":564,"type":"SCALAR"},{"bufferView":40,"componentType":5126,"count":275,"max":[-1.2100000381469727,0.38999998569488525,0.06380884349346161],"min":[-1.9900000095367432,-0.38999998569488525,-0.011808838695287704],"type":"VEC3"},{"bufferView":41,"componentType":5126,"count":275,"type":"VEC3"},{"bufferView":42,"componentType":5126,"count":275,"type":"VEC2"},{"bufferView":43,"componentType":5123,"count":564,"type":"SCALAR"},{"bufferView":44,"componentType":5126,"count":289,"max":[-0.4100000262260437,0.38999998569488525,0.06604300439357758],"min":[-1.190000057220459,-0.38999998569488525,-0.01404300332069397],"type":"VEC3"},{"bufferView":45,"componentType":5126,"count":289,"type":"VEC3"},{"bufferView":46,"componentType":5126,"count":289,"type":"VEC2"},{"bufferView":47,"componentType":5123,"count":564,"type":"SCALAR"},{"bufferView":48,"componentType":5126,"count":320,"max":[0.38999998569488525,0.38999998569488525,0.06518912315368652],"min":[-0.38999998569488525,-0.38999998569488525,-0.013189122080802917],"type":"VEC3"},{"bufferView":49,"componentType":5126,"count":320,"type":"VEC3"},{"bufferView":50,"componentType":5126,"count":320,"type":"VEC2"},{"bufferView":51,"componentType":5123,"count":564,"type":"SCALAR"},{"bufferView":52,"componentType":5126,"count":301,"max":[1.190000057220459,0.38999998569488525,0.06727390736341476],"min":[0.4100000262260437,-0.38999998569488525,-0.015273906290531158],"type":"VEC3"},{"bufferView":53,"componentType":5126,"count":301,"type":"VEC3"},{"bufferView":54,"componentType":5126,"count":301,"type":"VEC2"},{"bufferView":55,"componentType":5123,"count":564,"type":"SCALAR"},{"bufferView":56,"componentType":5126,"count":307,"max":[1.9900000095367432,0.38999998569488525,0.0672636404633522],"min":[1.2100000381469727,-0.38999998569488525,-0.015263639390468597],"type":"VEC3"},{"bufferView":57,"componentType":5126,"count":307,"type":"VEC3"},{"bufferView":58,"componentType":5126,"count":307,"type":"VEC2"},{"bufferView":59,"componentType":5123,"count":564,"type":"SCALAR"},{"bufferView":60,"componentType":5126,"count":302,"max":[-1.2100000381469727,1.190000057220459,0.066095732152462],"min":[-1.9900000095367432,0.4100000262260437,-0.0140957310795784],"type":"VEC3"},{"bufferView":61,"componentType":5126,"count":302,"type":"VEC3"},{"bufferView":62,"componentType":5126,"count":302,"type":"VEC2"},{"bufferView":63,"componentType":5123,"count":564,"type":"SCALAR"},{"bufferView":64,"componentType":5126,"count":319,"max":[-0.4100000262260437,1.190000057220459,0.06576400250196457],"min":[-1.190000057220459,0.4100000262260437,-0.013764001429080963],"type":"VEC3"},{"bufferView":65,"componentType":5126,"count":319,"type":"VEC3"},{"bufferView":66,"componentType":5126,"count":319,"type":"VEC2"},{"bufferView":67,"componentType":5123,"count":564,"type":"SCALAR"},{"bufferView":68,"componentType":5126,"count":264,"max":[0.38999998569488525,1.190000057220459,0.06541836261749268],"min":[-0.38999998569488525,0.4100000262260437,-0.01341836154460907],"type":"VEC3"},{"bufferView":69,"componentType":5126,"count":264,"type":"VEC3"},{"bufferView":70,"componentType":5126,"count":264,"type":"VEC2"},{"bufferView":71,"componentType":5123,"count":564,"type":"SCALAR"},{"bufferView":72,"componentType":5126,"count":312,"max":[1.190000057220459,1.190000057220459,0.06465068459510803],"min":[0.4100000262260437,0.4100000262260437,-0.012650683522224426],"type":"VEC3"},{"bufferView":73,"componentType":5126,"count":312,"type":"VEC3"},{"bufferView":74,"componentType":5126,"count":312,"type":"VEC2"},{"bufferView":75,"componentType":5123,"count":564,"type":"SCALAR"},{"bufferView":76,"componentType":5126,"count":309,"max":[1.9900000095367432,1.190000057220459,0.0658140555024147],"min":[1.2100000381469727,0.4100000262260437,-0.013814054429531097],"type":"VEC3"},{"bufferView":77,"componentType":5126,"count":309,"type":"VEC3"},{"bufferView":78,"componentType":5126,"count":309,"type":"VEC2"},{"bufferView":79,"componentType":5123,"count":564,"type":"SCALAR"},{"bufferView":80,"componentType":5126,"count":318,"max":[-1.2100000381469727,1.9900000095367432,0.06622623652219772],"min":[-1.9900000095367432,1.2100000381469727,-0.014226235449314117],"type":"VEC3"},{"bufferView":81,"componentType":5126,"count":318,"type":"VEC3"},{"bufferView":82,"componentType":5126,"count":318,"type":"VEC2"},{"bufferView":83,"componentType":5123,"count":564,"type":"SCALAR"},{"bufferView":84,"componentType":5126,"count":325,"max":[-0.4100000262260437,1.9900000095367432,0.0650278776884079],"min":[-1.190000057220459,1.2100000381469727,-0.013027876615524292],"type":"VEC3"},{"bufferView":85,"componentType":5126,"count":325,"type":"VEC3"},{"bufferView":86,"componentType":5126,"count":325,"type":"VEC2"},{"bufferView":87,"componentType":5123,"count":564,"type":"SCALAR"},{"bufferView":88,"componentType":5126,"count":322,"max":[0.38999998569488525,1.9900000095367432,0.06566821783781052],"min":[-0.38999998569488525,1.2100000381469727,-0.01366821676492691],"type":"VEC3"},{"bufferView":89,"componentType":5126,"count":322,"type":"VEC3"},{"bufferView":90,"componentType":5126,"count":322,"type":"VEC2"},{"bufferView":91,"componentType":5123,"count":564,"type":"SCALAR"},{"bufferView":92,"componentType":5126,"count":304,"max":[1.190000057220459,1.9900000095367432,0.06666970252990723],"min":[0.4100000262260437,1.2100000381469727,-0.014669697731733322],"type":"VEC3"},{"bufferView":93,"componentType":5126,"count":304,"type":"VEC3"},{"bufferView":94,"componentType":5126,"count":304,"type":"VEC2"},{"bufferView":95,"componentType":5123,"count":564,"type":"SCALAR"},{"bufferView":96,"componentType":5126,"count":321,"max":[1.9900000095367432,1.9900000095367432,0.0665052980184555],"min":[1.2100000381469727,1.2100000381469727,-0.0145052969455719],"type":"VEC3"},{"bufferView":97,"componentType":5126,"count":321,"type":"VEC3"},{"bufferView":98,"componentType":5126,"count":321,"type":"VEC2"},{"bufferView":99,"componentType":5123,"count":564,"type":"SCALAR"},{"bufferView":100,"componentType":5126,"count":268,"max":[2,2,0.36000001430511475],"min":[-2,-2,0.019999995827674866],"type":"VEC3"},{"bufferView":101,"componentType":5126,"count":268,"type":"VEC3"},{"bufferView":102,"componentType":5126,"count":268,"type":"VEC2"},{"bufferView":103,"componentType":5123,"count":564,"type":"SCALAR"}],"bufferViews":[{"buffer":0,"byteLength":3576,"byteOffset":0,"target":34962},{"buffer":0,"byteLength":3576,"byteOffset":3576,"target":34962},{"buffer":0,"byteLength":2384,"byteOffset":7152,"target":34962},{"buffer":0,"byteLength":1128,"byteOffset":9536,"target":34963},{"buffer":0,"byteLength":3444,"byteOffset":10664,"target":34962},{"buffer":0,"byteLength":3444,"byteOffset":14108,"target":34962},{"buffer":0,"byteLength":2296,"byteOffset":17552,"target":34962},{"buffer":0,"byteLength":1128,"byteOffset":19848,"target":34963},{"buffer":0,"byteLength":3948,"byteOffset":20976,"target":34962},{"buffer":0,"byteLength":3948,"byteOffset":24924,"target":34962},{"buffer":0,"byteLength":2632,"byteOffset":28872,"target":34962},{"buffer":0,"byteLength":1128,"byteOffset":31504,"target":34963},{"buffer":0,"byteLength":3768,"byteOffset":32632,"target":34962},{"buffer":0,"byteLength":3768,"byteOffset":36400,"target":34962},{"buffer":0,"byteLength":2512,"byteOffset":40168,"target":34962},{"buffer":0,"byteLength":1128,"byteOffset":42680,"target":34963},{"buffer":0,"byteLength":3540,"byteOffset":43808,"target":34962},{"buffer":0,"byteLength":3540,"byteOffset":47348,"target":34962},{"buffer":0,"byteLength":2360,"byteOffset":50888,"target":34962},{"buffer":0,"byteLength":1128,"byteOffset":53248,"target":34963},{"buffer":0,"byteLength":3528,"byteOffset":54376,"target":34962},{"buffer":0,"byteLength":3528,"byteOffset":57904,"target":34962},{"buffer":0,"byteLength":2352,"byteOffset":61432,"target":34962},{"buffer":0,"byteLength":1128,"byteOffset":63784,"target":34963},{"buffer":0,"byteLength":3600,"byteOffset":64912,"target":34962},{"buffer":0,"byteLength":3600,"byteOffset":68512,"target":34962},{"buffer":0,"byteLength":2400,"byteOffset":72112,"target":34962},{"buffer":0,"byteLength":1128,"byteOffset":74512,"target":34963},{"buffer":0,"byteLength":3276,"byteOffset":75640,"target":34962},{"buffer":0,"byteLength":3276,"byteOffset":78916,"target":34962},{"buffer":0,"byteLength":2184,"byteOffset":82192,"target":34962},{"buffer":0,"byteLength":1128,"byteOffset":84376,"target":34963},{"buffer":0,"byteLength":3612,"byteOffset":85504,"target":34962},{"buffer":0,"byteLength":3612,"byteOffset":89116,"target":34962},{"buffer":0,"byteLength":2408,"byteOffset":92728,"target":34962},{"buffer":0,"byteLength":1128,"byteOffset":95136,"target":34963},{"buffer":0,"byteLength":3420,"byteOffset":96264,"target":34962},{"buffer":0,"byteLength":3420,"byteOffset":99684,"target":34962},{"buffer":0,"byteLength":2280,"byteOffset":103104,"target":34962},{"buffer":0,"byteLength":1128,"byteOffset":105384,"target":34963},{"buffer":0,"byteLength":3300,"byteOffset":106512,"target":34962},{"buffer":0,"byteLength":3300,"byteOffset":109812,"target":34962},{"buffer":0,"byteLength":2200,"byteOffset":113112,"target":34962},{"buffer":0,"byteLength":1128,"byteOffset":115312,"target":34963},{"buffer":0,"byteLength":3468,"byteOffset":116440,"target":34962},{"buffer":0,"byteLength":3468,"byteOffset":119908,"target":34962},{"buffer":0,"byteLength":2312,"byteOffset":123376,"target":34962},{"buffer":0,"byteLength":1128,"byteOffset":125688,"target":34963},{"buffer":0,"byteLength":3840,"byteOffset":126816,"target":34962},{"buffer":0,"byteLength":3840,"byteOffset":130656,"target":34962},{"buffer":0,"byteLength":2560,"byteOffset":134496,"target":34962},{"buffer":0,"byteLength":1128,"byteOffset":137056,"target":34963},{"buffer":0,"byteLength":3612,"byteOffset":138184,"target":34962},{"buffer":0,"byteLength":3612,"byteOffset":141796,"target":34962},{"buffer":0,"byteLength":2408,"byteOffset":145408,"target":34962},{"buffer":0,"byteLength":1128,"byteOffset":147816,"target":34963},{"buffer":0,"byteLength":3684,"byteOffset":148944,"target":34962},{"buffer":0,"byteLength":3684,"byteOffset":152628,"target":34962},{"buffer":0,"byteLength":2456,"byteOffset":156312,"target":34962},{"buffer":0,"byteLength":1128,"byteOffset":158768,"target":34963},{"buffer":0,"byteLength":3624,"byteOffset":159896,"target":34962},{"buffer":0,"byteLength":3624,"byteOffset":163520,"target":34962},{"buffer":0,"byteLength":2416,"byteOffset":167144,"target":34962},{"buffer":0,"byteLength":1128,"byteOffset":169560,"target":34963},{"buffer":0,"byteLength":3828,"byteOffset":170688,"target":34962},{"buffer":0,"byteLength":3828,"byteOffset":174516,"target":34962},{"buffer":0,"byteLength":2552,"byteOffset":178344,"target":34962},{"buffer":0,"byteLength":1128,"byteOffset":180896,"target":34963},{"buffer":0,"byteLength":3168,"byteOffset":182024,"target":34962},{"buffer":0,"byteLength":3168,"byteOffset":185192,"target":34962},{"buffer":0,"byteLength":2112,"byteOffset":188360,"target":34962},{"buffer":0,"byteLength":1128,"byteOffset":190472,"target":34963},{"buffer":0,"byteLength":3744,"byteOffset":191600,"target":34962},{"buffer":0,"byteLength":3744,"byteOffset":195344,"target":34962},{"buffer":0,"byteLength":2496,"byteOffset":199088,"target":34962},{"buffer":0,"byteLength":1128,"byteOffset":201584,"target":34963},{"buffer":0,"byteLength":3708,"byteOffset":202712,"target":34962},{"buffer":0,"byteLength":3708,"byteOffset":206420,"target":34962},{"buffer":0,"byteLength":2472,"byteOffset":210128,"target":34962},{"buffer":0,"byteLength":1128,"byteOffset":212600,"target":34963},{"buffer":0,"byteLength":3816,"byteOffset":213728,"target":34962},{"buffer":0,"byteLength":3816,"byteOffset":217544,"target":34962},{"buffer":0,"byteLength":2544,"byteOffset":221360,"target":34962},{"buffer":0,"byteLength":1128,"byteOffset":223904,"target":34963},{"buffer":0,"byteLength":3900,"byteOffset":225032,"target":34962},{"buffer":0,"byteLength":3900,"byteOffset":228932,"target":34962},{"buffer":0,"byteLength":2600,"byteOffset":232832,"target":34962},{"buffer":0,"byteLength":1128,"byteOffset":235432,"target":34963},{"buffer":0,"byteLength":3864,"byteOffset":236560,"target":34962},{"buffer":0,"byteLength":3864,"byteOffset":240424,"target":34962},{"buffer":0,"byteLength":2576,"byteOffset":244288,"target":34962},{"buffer":0,"byteLength":1128,"byteOffset":246864,"target":34963},{"buffer":0,"byteLength":3648,"byteOffset":247992,"target":34962},{"buffer":0,"byteLength":3648,"byteOffset":251640,"target":34962},{"buffer":0,"byteLength":2432,"byteOffset":255288,"target":34962},{"buffer":0,"byteLength":1128,"byteOffset":257720,"target":34963},{"buffer":0,"byteLength":3852,"byteOffset":258848,"target":34962},{"buffer":0,"byteLength":3852,"byteOffset":262700,"target":34962},{"buffer":0,"byteLength":2568,"byteOffset":266552,"target":34962},{"buffer":0,"byteLength":1128,"byteOffset":269120,"target":34963},{"buffer":0,"byteLength":3216,"byteOffset":270248,"target":34962},{"buffer":0,"byteLength":3216,"byteOffset":273464,"target":34962},{"buffer":0,"byteLength":2144,"byteOffset":276680,"target":34962},{"buffer":0,"byteLength":1128,"byteOffset":278824,"target":34963}],"samplers":[{"magFilter":9729,"minFilter":9987}],"buffers":[{"uri":"C03_flagstone.bin","byteLength":279952}]}