{"asset":{"generator":"Khronos glTF Blender I/O v5.2.40","version":"2.0"},"extensionsUsed":["KHR_materials_specular"],"scene":0,"scenes":[{"name":"Scene","nodes":[0,1,2,3,4,5,6,7,8]}],"nodes":[{"mesh":0,"name":"Buttress pinnacle","rotation":[0.7071068286895752,0,0,0.7071068286895752]},{"mesh":1,"name":"Continuous buttress stage","rotation":[0.7071068286895752,0,0,0.7071068286895752]},{"mesh":2,"name":"Continuous buttress stage.001","rotation":[0.7071068286895752,0,0,0.7071068286895752]},{"mesh":3,"name":"Continuous buttress stage.002","rotation":[0.7071068286895752,0,0,0.7071068286895752]},{"mesh":4,"name":"Continuous buttress stage.003","rotation":[0.7071068286895752,0,0,0.7071068286895752]},{"mesh":5,"name":"Dressed buttress cap","rotation":[0.7071068286895752,0,0,0.7071068286895752]},{"mesh":6,"name":"Dressed buttress cap.001","rotation":[0.7071068286895752,0,0,0.7071068286895752]},{"mesh":7,"name":"Dressed buttress cap.002","rotation":[0.7071068286895752,0,0,0.7071068286895752]},{"mesh":8,"name":"Dressed buttress cap.003","rotation":[0.7071068286895752,0,0,0.7071068286895752]}],"materials":[{"doubleSided":true,"extensions":{"KHR_materials_specular":{"specularFactor":0.5}},"name":"Cut limestone trim_soot","normalTexture":{"index":0,"scale":0.11999999731779099},"pbrMetallicRoughness":{"baseColorTexture":{"index":1},"metallicFactor":0,"roughnessFactor":0.9700000286102295}},{"doubleSided":true,"extensions":{"KHR_materials_specular":{"specularFactor":0.5}},"name":"Weathered limestone","normalTexture":{"index":2,"scale":0.2800000011920929},"pbrMetallicRoughness":{"baseColorTexture":{"index":3},"metallicFactor":0,"metallicRoughnessTexture":{"index":4}}},{"doubleSided":true,"extensions":{"KHR_materials_specular":{"specularFactor":0.5}},"name":"Weathered limestone_soot","normalTexture":{"index":5,"scale":0.2800000011920929},"pbrMetallicRoughness":{"baseColorTexture":{"index":6},"metallicFactor":0,"roughnessFactor":0.9700000286102295}},{"doubleSided":true,"extensions":{"KHR_materials_specular":{"specularFactor":0.5}},"name":"Cut limestone trim","normalTexture":{"index":7,"scale":0.11999999731779099},"pbrMetallicRoughness":{"baseColorTexture":{"index":8},"metallicFactor":0,"metallicRoughnessTexture":{"index":9}}}],"meshes":[{"name":"Buttress pinnacle","primitives":[{"attributes":{"POSITION":0,"NORMAL":1,"TEXCOORD_0":2},"indices":3,"material":0}]},{"name":"Continuous buttress stage","primitives":[{"attributes":{"POSITION":4,"NORMAL":5,"TEXCOORD_0":6},"indices":7,"material":1}]},{"name":"Continuous buttress stage.001","primitives":[{"attributes":{"POSITION":8,"NORMAL":9,"TEXCOORD_0":10},"indices":11,"material":2}]},{"name":"Continuous buttress stage.002","primitives":[{"attributes":{"POSITION":12,"NORMAL":13,"TEXCOORD_0":14},"indices":15,"material":1}]},{"name":"Continuous buttress stage.003","primitives":[{"attributes":{"POSITION":16,"NORMAL":17,"TEXCOORD_0":18},"indices":19,"material":1}]},{"name":"Dressed buttress cap","primitives":[{"attributes":{"POSITION":20,"NORMAL":21,"TEXCOORD_0":22},"indices":23,"material":3}]},{"name":"Dressed buttress cap.001","primitives":[{"attributes":{"POSITION":24,"NORMAL":25,"TEXCOORD_0":26},"indices":27,"material":3}]},{"name":"Dressed buttress cap.002","primitives":[{"attributes":{"POSITION":28,"NORMAL":29,"TEXCOORD_0":30},"indices":31,"material":0}]},{"name":"Dressed buttress cap.003","primitives":[{"attributes":{"POSITION":32,"NORMAL":33,"TEXCOORD_0":34},"indices":35,"material":3}]}],"textures":[{"sampler":0,"source":0},{"sampler":0,"source":1},{"sampler":0,"source":0},{"sampler":0,"source":2},{"sampler":0,"source":3},{"sampler":0,"source":0},{"sampler":0,"source":2},{"sampler":0,"source":0},{"sampler":0,"source":1},{"sampler":0,"source":3}],"images":[{"name":"normal","uri":"../textures/111ec8bb85fd34402ad7.png"},{"name":"trim-charcoal","uri":"../textures/6d303909ef65238e168a.png"},{"name":"wall-charcoal","uri":"../textures/ebd4ceb7053513a9ca36.png"},{"name":"roughness","uri":"../textures/c9d4f48b4bf1f93fb137.png"}],"accessors":[{"bufferView":0,"componentType":5126,"count":587,"max":[0.3961647152900696,0.3961647152900696,-4.199999809265137],"min":[-0.3961646854877472,-0.3961647152900696,-5.340000152587891],"type":"VEC3"},{"bufferView":1,"componentType":5126,"count":587,"type":"VEC3"},{"bufferView":2,"componentType":5126,"count":587,"type":"VEC2"},{"bufferView":3,"componentType":5123,"count":2100,"type":"SCALAR"},{"bufferView":4,"componentType":5126,"count":276,"max":[0.550000011920929,0.8799999952316284,0],"min":[-0.550000011920929,-0.8799999952316284,-0.3499999940395355],"type":"VEC3"},{"bufferView":5,"componentType":5126,"count":276,"type":"VEC3"},{"bufferView":6,"componentType":5126,"count":276,"type":"VEC2"},{"bufferView":7,"componentType":5123,"count":564,"type":"SCALAR"},{"bufferView":8,"componentType":5126,"count":212,"max":[0.44999998807907104,0.7200000286102295,-0.3500000238418579],"min":[-0.44999998807907104,-0.7200000286102295,-1.100000023841858],"type":"VEC3"},{"bufferView":9,"componentType":5126,"count":212,"type":"VEC3"},{"bufferView":10,"componentType":5126,"count":212,"type":"VEC2"},{"bufferView":11,"componentType":5123,"count":564,"type":"SCALAR"},{"bufferView":12,"componentType":5126,"count":264,"max":[0.36500000953674316,0.5839999914169312,-1.100000023841858],"min":[-0.36500000953674316,-0.5839999914169312,-2.6500000953674316],"type":"VEC3"},{"bufferView":13,"componentType":5126,"count":264,"type":"VEC3"},{"bufferView":14,"componentType":5126,"count":264,"type":"VEC2"},{"bufferView":15,"componentType":5123,"count":564,"type":"SCALAR"},{"bufferView":16,"componentType":5126,"count":243,"max":[0.28999999165534973,0.46399998664855957,-2.6500000953674316],"min":[-0.28999999165534973,-0.46399998664855957,-4.199999809265137],"type":"VEC3"},{"bufferView":17,"componentType":5126,"count":243,"type":"VEC3"},{"bufferView":18,"componentType":5126,"count":243,"type":"VEC2"},{"bufferView":19,"componentType":5123,"count":564,"type":"SCALAR"},{"bufferView":20,"componentType":5126,"count":274,"max":[0.6000000238418579,0.925000011920929,-0.22999998927116394],"min":[-0.6000000238418579,-0.925000011920929,-0.3499999940395355],"type":"VEC3"},{"bufferView":21,"componentType":5126,"count":274,"type":"VEC3"},{"bufferView":22,"componentType":5126,"count":274,"type":"VEC2"},{"bufferView":23,"componentType":5123,"count":564,"type":"SCALAR"},{"bufferView":24,"componentType":5126,"count":287,"max":[0.5,0.7649999856948853,-0.9799999594688416],"min":[-0.5,-0.7649999856948853,-1.0999999046325684],"type":"VEC3"},{"bufferView":25,"componentType":5126,"count":287,"type":"VEC3"},{"bufferView":26,"componentType":5126,"count":287,"type":"VEC2"},{"bufferView":27,"componentType":5123,"count":564,"type":"SCALAR"},{"bufferView":28,"componentType":5126,"count":285,"max":[0.41499999165534973,0.6290000081062317,-2.5299999713897705],"min":[-0.41499999165534973,-0.6290000081062317,-2.6499998569488525],"type":"VEC3"},{"bufferView":29,"componentType":5126,"count":285,"type":"VEC3"},{"bufferView":30,"componentType":5126,"count":285,"type":"VEC2"},{"bufferView":31,"componentType":5123,"count":564,"type":"SCALAR"},{"bufferView":32,"componentType":5126,"count":300,"max":[0.3400000035762787,0.5090000033378601,-4.079999923706055],"min":[-0.3400000035762787,-0.5090000033378601,-4.199999809265137],"type":"VEC3"},{"bufferView":33,"componentType":5126,"count":300,"type":"VEC3"},{"bufferView":34,"componentType":5126,"count":300,"type":"VEC2"},{"bufferView":35,"componentType":5123,"count":564,"type":"SCALAR"}],"bufferViews":[{"buffer":0,"byteLength":7044,"byteOffset":0,"target":34962},{"buffer":0,"byteLength":7044,"byteOffset":7044,"target":34962},{"buffer":0,"byteLength":4696,"byteOffset":14088,"target":34962},{"buffer":0,"byteLength":4200,"byteOffset":18784,"target":34963},{"buffer":0,"byteLength":3312,"byteOffset":22984,"target":34962},{"buffer":0,"byteLength":3312,"byteOffset":26296,"target":34962},{"buffer":0,"byteLength":2208,"byteOffset":29608,"target":34962},{"buffer":0,"byteLength":1128,"byteOffset":31816,"target":34963},{"buffer":0,"byteLength":2544,"byteOffset":32944,"target":34962},{"buffer":0,"byteLength":2544,"byteOffset":35488,"target":34962},{"buffer":0,"byteLength":1696,"byteOffset":38032,"target":34962},{"buffer":0,"byteLength":1128,"byteOffset":39728,"target":34963},{"buffer":0,"byteLength":3168,"byteOffset":40856,"target":34962},{"buffer":0,"byteLength":3168,"byteOffset":44024,"target":34962},{"buffer":0,"byteLength":2112,"byteOffset":47192,"target":34962},{"buffer":0,"byteLength":1128,"byteOffset":49304,"target":34963},{"buffer":0,"byteLength":2916,"byteOffset":50432,"target":34962},{"buffer":0,"byteLength":2916,"byteOffset":53348,"target":34962},{"buffer":0,"byteLength":1944,"byteOffset":56264,"target":34962},{"buffer":0,"byteLength":1128,"byteOffset":58208,"target":34963},{"buffer":0,"byteLength":3288,"byteOffset":59336,"target":34962},{"buffer":0,"byteLength":3288,"byteOffset":62624,"target":34962},{"buffer":0,"byteLength":2192,"byteOffset":65912,"target":34962},{"buffer":0,"byteLength":1128,"byteOffset":68104,"target":34963},{"buffer":0,"byteLength":3444,"byteOffset":69232,"target":34962},{"buffer":0,"byteLength":3444,"byteOffset":72676,"target":34962},{"buffer":0,"byteLength":2296,"byteOffset":76120,"target":34962},{"buffer":0,"byteLength":1128,"byteOffset":78416,"target":34963},{"buffer":0,"byteLength":3420,"byteOffset":79544,"target":34962},{"buffer":0,"byteLength":3420,"byteOffset":82964,"target":34962},{"buffer":0,"byteLength":2280,"byteOffset":86384,"target":34962},{"buffer":0,"byteLength":1128,"byteOffset":88664,"target":34963},{"buffer":0,"byteLength":3600,"byteOffset":89792,"target":34962},{"buffer":0,"byteLength":3600,"byteOffset":93392,"target":34962},{"buffer":0,"byteLength":2400,"byteOffset":96992,"target":34962},{"buffer":0,"byteLength":1128,"byteOffset":99392,"target":34963}],"samplers":[{"magFilter":9729,"minFilter":9987}],"buffers":[{"uri":"C04_buttress.bin","byteLength":100520}]}