{"asset":{"generator":"Khronos glTF Blender I/O v5.2.40","version":"2.0"},"scene":0,"scenes":[{"name":"Scene","nodes":[0,1,2,3,4,5,6,7,8,9,10,11,12,13,14,15,16,17,18,19,20,21,22,23,24,25,26,27,28,29,30,31,32,33,34,35]}],"nodes":[{"mesh":0,"name":"Beam iron band","rotation":[0.7071068286895752,0,0,0.7071068286895752]},{"mesh":1,"name":"Beam iron band.001","rotation":[0.7071068286895752,0,0,0.7071068286895752]},{"mesh":2,"name":"Beam iron band.002","rotation":[0.7071068286895752,0,0,0.7071068286895752]},{"mesh":3,"name":"Beam iron band.003","rotation":[0.7071068286895752,0,0,0.7071068286895752]},{"mesh":4,"name":"Beam iron band.004","rotation":[0.7071068286895752,0,0,0.7071068286895752]},{"mesh":5,"name":"Beam iron band.005","rotation":[0.7071068286895752,0,0,0.7071068286895752]},{"mesh":6,"name":"Bridge oak beam","rotation":[0.7071068286895752,0,0,0.7071068286895752]},{"mesh":7,"name":"Bridge oak beam.001","rotation":[0.7071068286895752,0,0,0.7071068286895752]},{"mesh":8,"name":"Crosswise bridge plank","rotation":[0.7071068286895752,0,0,0.7071068286895752]},{"mesh":9,"name":"Crosswise bridge plank.001","rotation":[0.7071068286895752,0,0,0.7071068286895752]},{"mesh":10,"name":"Crosswise bridge plank.002","rotation":[0.7071068286895752,0,0,0.7071068286895752]},{"mesh":11,"name":"Crosswise bridge plank.003","rotation":[0.7071068286895752,0,0,0.7071068286895752]},{"mesh":12,"name":"Crosswise bridge plank.004","rotation":[0.7071068286895752,0,0,0.7071068286895752]},{"mesh":13,"name":"Crosswise bridge plank.005","rotation":[0.7071068286895752,0,0,0.7071068286895752]},{"mesh":14,"name":"Crosswise bridge plank.006","rotation":[0.7071068286895752,0,0,0.7071068286895752]},{"mesh":15,"name":"Crosswise bridge plank.007","rotation":[0.7071068286895752,0,0,0.7071068286895752]},{"mesh":16,"name":"Crosswise bridge plank.008","rotation":[0.7071068286895752,0,0,0.7071068286895752]},{"mesh":17,"name":"Crosswise bridge plank.009","rotation":[0.7071068286895752,0,0,0.7071068286895752]},{"mesh":18,"name":"Crosswise bridge plank.010","rotation":[0.7071068286895752,0,0,0.7071068286895752]},{"mesh":19,"name":"Crosswise bridge plank.011","rotation":[0.7071068286895752,0,0,0.7071068286895752]},{"mesh":20,"name":"Crosswise bridge plank.012","rotation":[0.7071068286895752,0,0,0.7071068286895752]},{"mesh":21,"name":"Crosswise bridge plank.013","rotation":[0.7071068286895752,0,0,0.7071068286895752]},{"mesh":22,"name":"Crosswise bridge plank.014","rotation":[0.7071068286895752,0,0,0.7071068286895752]},{"mesh":23,"name":"Crosswise bridge plank.015","rotation":[0.7071068286895752,0,0,0.7071068286895752]},{"mesh":24,"name":"Crosswise bridge plank.016","rotation":[0.7071068286895752,0,0,0.7071068286895752]},{"mesh":25,"name":"Crosswise bridge plank.017","rotation":[0.7071068286895752,0,0,0.7071068286895752]},{"mesh":26,"name":"Crosswise bridge plank.018","rotation":[0.7071068286895752,0,0,0.7071068286895752]},{"mesh":27,"name":"Crosswise bridge plank.019","rotation":[0.7071068286895752,0,0,0.7071068286895752]},{"mesh":28,"name":"Rope rail post","rotation":[0.7071068286895752,0,0,0.7071068286895752]},{"mesh":29,"name":"Rope rail post.001","rotation":[0.7071068286895752,0,0,0.7071068286895752]},{"mesh":30,"name":"Rope rail post.002","rotation":[0.7071068286895752,0,0,0.7071068286895752]},{"mesh":31,"name":"Rope rail post.003","rotation":[0.7071068286895752,0,0,0.7071068286895752]},{"mesh":32,"name":"Rope rail post.004","rotation":[0.7071068286895752,0,0,0.7071068286895752]},{"mesh":33,"name":"Rope rail post.005","rotation":[0.7071068286895752,0,0,0.7071068286895752]},{"mesh":34,"name":"Sagging hand rope","rotation":[0.7071068286895752,0,0,0.7071068286895752]},{"mesh":35,"name":"Sagging hand rope.001","rotation":[0.7071068286895752,0,0,0.7071068286895752]}],"materials":[{"doubleSided":true,"name":"Forged iron.002","pbrMetallicRoughness":{"baseColorFactor":[0.04699999839067459,0.054999999701976776,0.04800000041723251,1],"metallicFactor":0.699999988079071,"roughnessFactor":0.6200000047683716}},{"doubleSided":true,"name":"Split oak.002","normalTexture":{"index":0,"scale":0.699999988079071},"pbrMetallicRoughness":{"baseColorTexture":{"index":1},"metallicFactor":0,"metallicRoughnessTexture":{"index":2}}},{"doubleSided":true,"name":"Hammered old bronze.002","pbrMetallicRoughness":{"baseColorFactor":[0.20999999344348907,0.125,0.04600000008940697,1],"metallicFactor":0.7699999809265137,"roughnessFactor":0.550000011920929}}],"meshes":[{"name":"Beam iron band.012","primitives":[{"attributes":{"POSITION":0,"NORMAL":1,"TEXCOORD_0":2},"indices":3,"material":0}]},{"name":"Beam iron band.013","primitives":[{"attributes":{"POSITION":4,"NORMAL":5,"TEXCOORD_0":6},"indices":7,"material":0}]},{"name":"Beam iron band.014","primitives":[{"attributes":{"POSITION":8,"NORMAL":9,"TEXCOORD_0":10},"indices":11,"material":0}]},{"name":"Beam iron band.015","primitives":[{"attributes":{"POSITION":12,"NORMAL":13,"TEXCOORD_0":14},"indices":15,"material":0}]},{"name":"Beam iron band.016","primitives":[{"attributes":{"POSITION":16,"NORMAL":17,"TEXCOORD_0":18},"indices":19,"material":0}]},{"name":"Beam iron band.017","primitives":[{"attributes":{"POSITION":20,"NORMAL":21,"TEXCOORD_0":22},"indices":23,"material":0}]},{"name":"Bridge oak beam.004","primitives":[{"attributes":{"POSITION":24,"NORMAL":25,"TEXCOORD_0":26},"indices":27,"material":1}]},{"name":"Bridge oak beam.005","primitives":[{"attributes":{"POSITION":28,"NORMAL":29,"TEXCOORD_0":30},"indices":31,"material":1}]},{"name":"Crosswise bridge plank.040","primitives":[{"attributes":{"POSITION":32,"NORMAL":33,"TEXCOORD_0":34},"indices":35,"material":1}]},{"name":"Crosswise bridge plank.041","primitives":[{"attributes":{"POSITION":36,"NORMAL":37,"TEXCOORD_0":38},"indices":39,"material":1}]},{"name":"Crosswise bridge plank.042","primitives":[{"attributes":{"POSITION":40,"NORMAL":41,"TEXCOORD_0":42},"indices":43,"material":1}]},{"name":"Crosswise bridge plank.043","primitives":[{"attributes":{"POSITION":44,"NORMAL":45,"TEXCOORD_0":46},"indices":47,"material":1}]},{"name":"Crosswise bridge plank.044","primitives":[{"attributes":{"POSITION":48,"NORMAL":49,"TEXCOORD_0":50},"indices":51,"material":1}]},{"name":"Crosswise bridge plank.045","primitives":[{"attributes":{"POSITION":52,"NORMAL":53,"TEXCOORD_0":54},"indices":55,"material":1}]},{"name":"Crosswise bridge plank.046","primitives":[{"attributes":{"POSITION":56,"NORMAL":57,"TEXCOORD_0":58},"indices":59,"material":1}]},{"name":"Crosswise bridge plank.047","primitives":[{"attributes":{"POSITION":60,"NORMAL":61,"TEXCOORD_0":62},"indices":63,"material":1}]},{"name":"Crosswise bridge plank.048","primitives":[{"attributes":{"POSITION":64,"NORMAL":65,"TEXCOORD_0":66},"indices":67,"material":1}]},{"name":"Crosswise bridge plank.049","primitives":[{"attributes":{"POSITION":68,"NORMAL":69,"TEXCOORD_0":70},"indices":71,"material":1}]},{"name":"Crosswise bridge plank.050","primitives":[{"attributes":{"POSITION":72,"NORMAL":73,"TEXCOORD_0":74},"indices":75,"material":1}]},{"name":"Crosswise bridge plank.051","primitives":[{"attributes":{"POSITION":76,"NORMAL":77,"TEXCOORD_0":78},"indices":79,"material":1}]},{"name":"Crosswise bridge plank.052","primitives":[{"attributes":{"POSITION":80,"NORMAL":81,"TEXCOORD_0":82},"indices":83,"material":1}]},{"name":"Crosswise bridge plank.053","primitives":[{"attributes":{"POSITION":84,"NORMAL":85,"TEXCOORD_0":86},"indices":87,"material":1}]},{"name":"Crosswise bridge plank.054","primitives":[{"attributes":{"POSITION":88,"NORMAL":89,"TEXCOORD_0":90},"indices":91,"material":1}]},{"name":"Crosswise bridge plank.055","primitives":[{"attributes":{"POSITION":92,"NORMAL":93,"TEXCOORD_0":94},"indices":95,"material":1}]},{"name":"Crosswise bridge plank.056","primitives":[{"attributes":{"POSITION":96,"NORMAL":97,"TEXCOORD_0":98},"indices":99,"material":1}]},{"name":"Crosswise bridge plank.057","primitives":[{"attributes":{"POSITION":100,"NORMAL":101,"TEXCOORD_0":102},"indices":103,"material":1}]},{"name":"Crosswise bridge plank.058","primitives":[{"attributes":{"POSITION":104,"NORMAL":105,"TEXCOORD_0":106},"indices":107,"material":1}]},{"name":"Crosswise bridge plank.059","primitives":[{"attributes":{"POSITION":108,"NORMAL":109,"TEXCOORD_0":110},"indices":111,"material":1}]},{"name":"Rope rail post.012","primitives":[{"attributes":{"POSITION":112,"NORMAL":113,"TEXCOORD_0":114},"indices":115,"material":1}]},{"name":"Rope rail post.013","primitives":[{"attributes":{"POSITION":116,"NORMAL":117,"TEXCOORD_0":118},"indices":119,"material":1}]},{"name":"Rope rail post.014","primitives":[{"attributes":{"POSITION":120,"NORMAL":121,"TEXCOORD_0":122},"indices":123,"material":1}]},{"name":"Rope rail post.015","primitives":[{"attributes":{"POSITION":124,"NORMAL":125,"TEXCOORD_0":126},"indices":127,"material":1}]},{"name":"Rope rail post.016","primitives":[{"attributes":{"POSITION":128,"NORMAL":129,"TEXCOORD_0":130},"indices":131,"material":1}]},{"name":"Rope rail post.017","primitives":[{"attributes":{"POSITION":132,"NORMAL":133,"TEXCOORD_0":134},"indices":135,"material":1}]},{"name":"Sagging hand rope.004","primitives":[{"attributes":{"POSITION":136,"NORMAL":137,"TEXCOORD_0":138},"indices":139,"material":2}]},{"name":"Sagging hand rope.005","primitives":[{"attributes":{"POSITION":140,"NORMAL":141,"TEXCOORD_0":142},"indices":139,"material":2}]}],"textures":[{"sampler":0,"source":0},{"sampler":0,"source":1},{"sampler":0,"source":2}],"images":[{"name":"normal","uri":"../textures/646b8954cd0f77aa31f9.png"},{"name":"albedo","uri":"../textures/c0324d2c3cfe6a395089.png"},{"name":"roughness","uri":"../textures/42487829eda8d1ae4111.png"}],"accessors":[{"bufferView":0,"componentType":5126,"count":263,"max":[-1.7599999904632568,-2.5950000286102295,0.6349999904632568],"min":[-2.0399999618530273,-2.705000162124634,0.06499999761581421],"type":"VEC3"},{"bufferView":1,"componentType":5126,"count":263,"type":"VEC3"},{"bufferView":2,"componentType":5126,"count":263,"type":"VEC2"},{"bufferView":3,"componentType":5123,"count":564,"type":"SCALAR"},{"bufferView":4,"componentType":5126,"count":276,"max":[-1.7599999904632568,0.054999999701976776,0.6349999904632568],"min":[-2.0399999618530273,-0.054999999701976776,0.06499999761581421],"type":"VEC3"},{"bufferView":5,"componentType":5126,"count":276,"type":"VEC3"},{"bufferView":6,"componentType":5126,"count":276,"type":"VEC2"},{"bufferView":7,"componentType":5123,"count":564,"type":"SCALAR"},{"bufferView":8,"componentType":5126,"count":269,"max":[-1.7599999904632568,2.705000162124634,0.6349999904632568],"min":[-2.0399999618530273,2.5950000286102295,0.06499999761581421],"type":"VEC3"},{"bufferView":9,"componentType":5126,"count":269,"type":"VEC3"},{"bufferView":10,"componentType":5126,"count":269,"type":"VEC2"},{"bufferView":11,"componentType":5123,"count":564,"type":"SCALAR"},{"bufferView":12,"componentType":5126,"count":268,"max":[2.0399999618530273,-2.5950000286102295,0.6349999904632568],"min":[1.7599999904632568,-2.705000162124634,0.06499999761581421],"type":"VEC3"},{"bufferView":13,"componentType":5126,"count":268,"type":"VEC3"},{"bufferView":14,"componentType":5126,"count":268,"type":"VEC2"},{"bufferView":15,"componentType":5123,"count":564,"type":"SCALAR"},{"bufferView":16,"componentType":5126,"count":276,"max":[2.0399999618530273,0.054999999701976776,0.6349999904632568],"min":[1.7599999904632568,-0.054999999701976776,0.06499999761581421],"type":"VEC3"},{"bufferView":17,"componentType":5126,"count":276,"type":"VEC3"},{"bufferView":18,"componentType":5126,"count":276,"type":"VEC2"},{"bufferView":19,"componentType":5123,"count":564,"type":"SCALAR"},{"bufferView":20,"componentType":5126,"count":265,"max":[2.0399999618530273,2.705000162124634,0.6349999904632568],"min":[1.7599999904632568,2.5950000286102295,0.06499999761581421],"type":"VEC3"},{"bufferView":21,"componentType":5126,"count":265,"type":"VEC3"},{"bufferView":22,"componentType":5126,"count":265,"type":"VEC2"},{"bufferView":23,"componentType":5123,"count":564,"type":"SCALAR"},{"bufferView":24,"componentType":5126,"count":278,"max":[-1.774999976158142,3,0.6399999856948853],"min":[-2.0250000953674316,-3,0.12000000476837158],"type":"VEC3"},{"bufferView":25,"componentType":5126,"count":278,"type":"VEC3"},{"bufferView":26,"componentType":5126,"count":278,"type":"VEC2"},{"bufferView":27,"componentType":5123,"count":564,"type":"SCALAR"},{"bufferView":28,"componentType":5126,"count":278,"max":[2.0250000953674316,3,0.6399999856948853],"min":[1.774999976158142,-3,0.12000000476837158],"type":"VEC3"},{"bufferView":29,"componentType":5126,"count":278,"type":"VEC3"},{"bufferView":30,"componentType":5126,"count":278,"type":"VEC2"},{"bufferView":31,"componentType":5123,"count":564,"type":"SCALAR"},{"bufferView":32,"componentType":5126,"count":276,"max":[2.0999999046325684,-2.7109999656677246,0.07999999821186066],"min":[-2.0999999046325684,-2.988999843597412,-0.07999999821186066],"type":"VEC3"},{"bufferView":33,"componentType":5126,"count":276,"type":"VEC3"},{"bufferView":34,"componentType":5126,"count":276,"type":"VEC2"},{"bufferView":35,"componentType":5123,"count":564,"type":"SCALAR"},{"bufferView":36,"componentType":5126,"count":271,"max":[2.0999999046325684,-2.4110000133514404,0.07999999821186066],"min":[-2.0999999046325684,-2.688999891281128,-0.07999999821186066],"type":"VEC3"},{"bufferView":37,"componentType":5126,"count":271,"type":"VEC3"},{"bufferView":38,"componentType":5126,"count":271,"type":"VEC2"},{"bufferView":39,"componentType":5123,"count":564,"type":"SCALAR"},{"bufferView":40,"componentType":5126,"count":269,"max":[2.0999999046325684,-2.1110000610351562,0.07999999821186066],"min":[-2.0999999046325684,-2.3889999389648438,-0.07999999821186066],"type":"VEC3"},{"bufferView":41,"componentType":5126,"count":269,"type":"VEC3"},{"bufferView":42,"componentType":5126,"count":269,"type":"VEC2"},{"bufferView":43,"componentType":5123,"count":564,"type":"SCALAR"},{"bufferView":44,"componentType":5126,"count":266,"max":[2.0999999046325684,-1.811000108718872,0.07999999821186066],"min":[-2.0999999046325684,-2.0889999866485596,-0.07999999821186066],"type":"VEC3"},{"bufferView":45,"componentType":5126,"count":266,"type":"VEC3"},{"bufferView":46,"componentType":5126,"count":266,"type":"VEC2"},{"bufferView":47,"componentType":5123,"count":564,"type":"SCALAR"},{"bufferView":48,"componentType":5126,"count":275,"max":[2.0999999046325684,-1.5109999179840088,0.07999999821186066],"min":[-2.0999999046325684,-1.7890000343322754,-0.07999999821186066],"type":"VEC3"},{"bufferView":49,"componentType":5126,"count":275,"type":"VEC3"},{"bufferView":50,"componentType":5126,"count":275,"type":"VEC2"},{"bufferView":51,"componentType":5123,"count":564,"type":"SCALAR"},{"bufferView":52,"componentType":5126,"count":275,"max":[2.0999999046325684,-1.2109999656677246,0.07999999821186066],"min":[-2.0999999046325684,-1.4890000820159912,-0.07999999821186066],"type":"VEC3"},{"bufferView":53,"componentType":5126,"count":275,"type":"VEC3"},{"bufferView":54,"componentType":5126,"count":275,"type":"VEC2"},{"bufferView":55,"componentType":5123,"count":564,"type":"SCALAR"},{"bufferView":56,"componentType":5126,"count":275,"max":[2.0999999046325684,-0.9109999537467957,0.07999999821186066],"min":[-2.0999999046325684,-1.188999891281128,-0.07999999821186066],"type":"VEC3"},{"bufferView":57,"componentType":5126,"count":275,"type":"VEC3"},{"bufferView":58,"componentType":5126,"count":275,"type":"VEC2"},{"bufferView":59,"componentType":5123,"count":564,"type":"SCALAR"},{"bufferView":60,"componentType":5126,"count":271,"max":[2.0999999046325684,-0.6110000014305115,0.07999999821186066],"min":[-2.0999999046325684,-0.8889999985694885,-0.07999999821186066],"type":"VEC3"},{"bufferView":61,"componentType":5126,"count":271,"type":"VEC3"},{"bufferView":62,"componentType":5126,"count":271,"type":"VEC2"},{"bufferView":63,"componentType":5123,"count":564,"type":"SCALAR"},{"bufferView":64,"componentType":5126,"count":260,"max":[2.0999999046325684,-0.3109999895095825,0.07999999821186066],"min":[-2.0999999046325684,-0.5889999866485596,-0.07999999821186066],"type":"VEC3"},{"bufferView":65,"componentType":5126,"count":260,"type":"VEC3"},{"bufferView":66,"componentType":5126,"count":260,"type":"VEC2"},{"bufferView":67,"componentType":5123,"count":564,"type":"SCALAR"},{"bufferView":68,"componentType":5126,"count":262,"max":[2.0999999046325684,-0.011000007390975952,0.07999999821186066],"min":[-2.0999999046325684,-0.289000004529953,-0.07999999821186066],"type":"VEC3"},{"bufferView":69,"componentType":5126,"count":262,"type":"VEC3"},{"bufferView":70,"componentType":5126,"count":262,"type":"VEC2"},{"bufferView":71,"componentType":5123,"count":564,"type":"SCALAR"},{"bufferView":72,"componentType":5126,"count":264,"max":[2.0999999046325684,0.289000004529953,0.07999999821186066],"min":[-2.0999999046325684,0.011000007390975952,-0.07999999821186066],"type":"VEC3"},{"bufferView":73,"componentType":5126,"count":264,"type":"VEC3"},{"bufferView":74,"componentType":5126,"count":264,"type":"VEC2"},{"bufferView":75,"componentType":5123,"count":564,"type":"SCALAR"},{"bufferView":76,"componentType":5126,"count":257,"max":[2.0999999046325684,0.5889999866485596,0.07999999821186066],"min":[-2.0999999046325684,0.3109999895095825,-0.07999999821186066],"type":"VEC3"},{"bufferView":77,"componentType":5126,"count":257,"type":"VEC3"},{"bufferView":78,"componentType":5126,"count":257,"type":"VEC2"},{"bufferView":79,"componentType":5123,"count":564,"type":"SCALAR"},{"bufferView":80,"componentType":5126,"count":273,"max":[2.0999999046325684,0.8889999985694885,0.07999999821186066],"min":[-2.0999999046325684,0.6110000014305115,-0.07999999821186066],"type":"VEC3"},{"bufferView":81,"componentType":5126,"count":273,"type":"VEC3"},{"bufferView":82,"componentType":5126,"count":273,"type":"VEC2"},{"bufferView":83,"componentType":5123,"count":564,"type":"SCALAR"},{"bufferView":84,"componentType":5126,"count":274,"max":[2.0999999046325684,1.188999891281128,0.07999999821186066],"min":[-2.0999999046325684,0.9109999537467957,-0.07999999821186066],"type":"VEC3"},{"bufferView":85,"componentType":5126,"count":274,"type":"VEC3"},{"bufferView":86,"componentType":5126,"count":274,"type":"VEC2"},{"bufferView":87,"componentType":5123,"count":564,"type":"SCALAR"},{"bufferView":88,"componentType":5126,"count":277,"max":[2.0999999046325684,1.4890000820159912,0.07999999821186066],"min":[-2.0999999046325684,1.2109999656677246,-0.07999999821186066],"type":"VEC3"},{"bufferView":89,"componentType":5126,"count":277,"type":"VEC3"},{"bufferView":90,"componentType":5126,"count":277,"type":"VEC2"},{"bufferView":91,"componentType":5123,"count":564,"type":"SCALAR"},{"bufferView":92,"componentType":5126,"count":271,"max":[2.0999999046325684,1.7890000343322754,0.07999999821186066],"min":[-2.0999999046325684,1.5109999179840088,-0.07999999821186066],"type":"VEC3"},{"bufferView":93,"componentType":5126,"count":271,"type":"VEC3"},{"bufferView":94,"componentType":5126,"count":271,"type":"VEC2"},{"bufferView":95,"componentType":5123,"count":564,"type":"SCALAR"},{"bufferView":96,"componentType":5126,"count":267,"max":[2.0999999046325684,2.0889999866485596,0.07999999821186066],"min":[-2.0999999046325684,1.811000108718872,-0.07999999821186066],"type":"VEC3"},{"bufferView":97,"componentType":5126,"count":267,"type":"VEC3"},{"bufferView":98,"componentType":5126,"count":267,"type":"VEC2"},{"bufferView":99,"componentType":5123,"count":564,"type":"SCALAR"},{"bufferView":100,"componentType":5126,"count":269,"max":[2.0999999046325684,2.3889999389648438,0.07999999821186066],"min":[-2.0999999046325684,2.1110000610351562,-0.07999999821186066],"type":"VEC3"},{"bufferView":101,"componentType":5126,"count":269,"type":"VEC3"},{"bufferView":102,"componentType":5126,"count":269,"type":"VEC2"},{"bufferView":103,"componentType":5123,"count":564,"type":"SCALAR"},{"bufferView":104,"componentType":5126,"count":269,"max":[2.0999999046325684,2.688999891281128,0.07999999821186066],"min":[-2.0999999046325684,2.4110000133514404,-0.07999999821186066],"type":"VEC3"},{"bufferView":105,"componentType":5126,"count":269,"type":"VEC3"},{"bufferView":106,"componentType":5126,"count":269,"type":"VEC2"},{"bufferView":107,"componentType":5123,"count":564,"type":"SCALAR"},{"bufferView":108,"componentType":5126,"count":274,"max":[2.0999999046325684,2.988999843597412,0.07999999821186066],"min":[-2.0999999046325684,2.7109999656677246,-0.07999999821186066],"type":"VEC3"},{"bufferView":109,"componentType":5126,"count":274,"type":"VEC3"},{"bufferView":110,"componentType":5126,"count":274,"type":"VEC2"},{"bufferView":111,"componentType":5123,"count":564,"type":"SCALAR"},{"bufferView":112,"componentType":5126,"count":287,"max":[-1.9749999046325684,-2.5249998569488525,0.125],"min":[-2.125,-2.674999952316284,-1.125],"type":"VEC3"},{"bufferView":113,"componentType":5126,"count":287,"type":"VEC3"},{"bufferView":114,"componentType":5126,"count":287,"type":"VEC2"},{"bufferView":115,"componentType":5123,"count":564,"type":"SCALAR"},{"bufferView":116,"componentType":5126,"count":281,"max":[-1.9749999046325684,0.07500000298023224,0.125],"min":[-2.125,-0.07500000298023224,-1.125],"type":"VEC3"},{"bufferView":117,"componentType":5126,"count":281,"type":"VEC3"},{"bufferView":118,"componentType":5126,"count":281,"type":"VEC2"},{"bufferView":119,"componentType":5123,"count":564,"type":"SCALAR"},{"bufferView":120,"componentType":5126,"count":286,"max":[-1.9749999046325684,2.674999952316284,0.125],"min":[-2.125,2.5249998569488525,-1.125],"type":"VEC3"},{"bufferView":121,"componentType":5126,"count":286,"type":"VEC3"},{"bufferView":122,"componentType":5126,"count":286,"type":"VEC2"},{"bufferView":123,"componentType":5123,"count":564,"type":"SCALAR"},{"bufferView":124,"componentType":5126,"count":284,"max":[2.125,-2.5249998569488525,0.125],"min":[1.9749999046325684,-2.674999952316284,-1.125],"type":"VEC3"},{"bufferView":125,"componentType":5126,"count":284,"type":"VEC3"},{"bufferView":126,"componentType":5126,"count":284,"type":"VEC2"},{"bufferView":127,"componentType":5123,"count":564,"type":"SCALAR"},{"bufferView":128,"componentType":5126,"count":282,"max":[2.125,0.07500000298023224,0.125],"min":[1.9749999046325684,-0.07500000298023224,-1.125],"type":"VEC3"},{"bufferView":129,"componentType":5126,"count":282,"type":"VEC3"},{"bufferView":130,"componentType":5126,"count":282,"type":"VEC2"},{"bufferView":131,"componentType":5123,"count":564,"type":"SCALAR"},{"bufferView":132,"componentType":5126,"count":293,"max":[2.125,2.674999952316284,0.125],"min":[1.9749999046325684,2.5249998569488525,-1.125],"type":"VEC3"},{"bufferView":133,"componentType":5126,"count":293,"type":"VEC3"},{"bufferView":134,"componentType":5126,"count":293,"type":"VEC2"},{"bufferView":135,"componentType":5123,"count":564,"type":"SCALAR"},{"bufferView":136,"componentType":5126,"count":396,"max":[-2.0260000228881836,2.603977918624878,-0.8159999847412109],"min":[-2.0739998817443848,-2.603977918624878,-1.0040000677108765],"type":"VEC3"},{"bufferView":137,"componentType":5126,"count":396,"type":"VEC3"},{"bufferView":138,"componentType":5126,"count":396,"type":"VEC2"},{"bufferView":139,"componentType":5123,"count":1536,"type":"SCALAR"},{"bufferView":140,"componentType":5126,"count":396,"max":[2.0739998817443848,2.603977918624878,-0.8159999847412109],"min":[2.0260000228881836,-2.603977918624878,-1.0040000677108765],"type":"VEC3"},{"bufferView":141,"componentType":5126,"count":396,"type":"VEC3"},{"bufferView":142,"componentType":5126,"count":396,"type":"VEC2"}],"bufferViews":[{"buffer":0,"byteLength":3156,"byteOffset":0,"target":34962},{"buffer":0,"byteLength":3156,"byteOffset":3156,"target":34962},{"buffer":0,"byteLength":2104,"byteOffset":6312,"target":34962},{"buffer":0,"byteLength":1128,"byteOffset":8416,"target":34963},{"buffer":0,"byteLength":3312,"byteOffset":9544,"target":34962},{"buffer":0,"byteLength":3312,"byteOffset":12856,"target":34962},{"buffer":0,"byteLength":2208,"byteOffset":16168,"target":34962},{"buffer":0,"byteLength":1128,"byteOffset":18376,"target":34963},{"buffer":0,"byteLength":3228,"byteOffset":19504,"target":34962},{"buffer":0,"byteLength":3228,"byteOffset":22732,"target":34962},{"buffer":0,"byteLength":2152,"byteOffset":25960,"target":34962},{"buffer":0,"byteLength":1128,"byteOffset":28112,"target":34963},{"buffer":0,"byteLength":3216,"byteOffset":29240,"target":34962},{"buffer":0,"byteLength":3216,"byteOffset":32456,"target":34962},{"buffer":0,"byteLength":2144,"byteOffset":35672,"target":34962},{"buffer":0,"byteLength":1128,"byteOffset":37816,"target":34963},{"buffer":0,"byteLength":3312,"byteOffset":38944,"target":34962},{"buffer":0,"byteLength":3312,"byteOffset":42256,"target":34962},{"buffer":0,"byteLength":2208,"byteOffset":45568,"target":34962},{"buffer":0,"byteLength":1128,"byteOffset":47776,"target":34963},{"buffer":0,"byteLength":3180,"byteOffset":48904,"target":34962},{"buffer":0,"byteLength":3180,"byteOffset":52084,"target":34962},{"buffer":0,"byteLength":2120,"byteOffset":55264,"target":34962},{"buffer":0,"byteLength":1128,"byteOffset":57384,"target":34963},{"buffer":0,"byteLength":3336,"byteOffset":58512,"target":34962},{"buffer":0,"byteLength":3336,"byteOffset":61848,"target":34962},{"buffer":0,"byteLength":2224,"byteOffset":65184,"target":34962},{"buffer":0,"byteLength":1128,"byteOffset":67408,"target":34963},{"buffer":0,"byteLength":3336,"byteOffset":68536,"target":34962},{"buffer":0,"byteLength":3336,"byteOffset":71872,"target":34962},{"buffer":0,"byteLength":2224,"byteOffset":75208,"target":34962},{"buffer":0,"byteLength":1128,"byteOffset":77432,"target":34963},{"buffer":0,"byteLength":3312,"byteOffset":78560,"target":34962},{"buffer":0,"byteLength":3312,"byteOffset":81872,"target":34962},{"buffer":0,"byteLength":2208,"byteOffset":85184,"target":34962},{"buffer":0,"byteLength":1128,"byteOffset":87392,"target":34963},{"buffer":0,"byteLength":3252,"byteOffset":88520,"target":34962},{"buffer":0,"byteLength":3252,"byteOffset":91772,"target":34962},{"buffer":0,"byteLength":2168,"byteOffset":95024,"target":34962},{"buffer":0,"byteLength":1128,"byteOffset":97192,"target":34963},{"buffer":0,"byteLength":3228,"byteOffset":98320,"target":34962},{"buffer":0,"byteLength":3228,"byteOffset":101548,"target":34962},{"buffer":0,"byteLength":2152,"byteOffset":104776,"target":34962},{"buffer":0,"byteLength":1128,"byteOffset":106928,"target":34963},{"buffer":0,"byteLength":3192,"byteOffset":108056,"target":34962},{"buffer":0,"byteLength":3192,"byteOffset":111248,"target":34962},{"buffer":0,"byteLength":2128,"byteOffset":114440,"target":34962},{"buffer":0,"byteLength":1128,"byteOffset":116568,"target":34963},{"buffer":0,"byteLength":3300,"byteOffset":117696,"target":34962},{"buffer":0,"byteLength":3300,"byteOffset":120996,"target":34962},{"buffer":0,"byteLength":2200,"byteOffset":124296,"target":34962},{"buffer":0,"byteLength":1128,"byteOffset":126496,"target":34963},{"buffer":0,"byteLength":3300,"byteOffset":127624,"target":34962},{"buffer":0,"byteLength":3300,"byteOffset":130924,"target":34962},{"buffer":0,"byteLength":2200,"byteOffset":134224,"target":34962},{"buffer":0,"byteLength":1128,"byteOffset":136424,"target":34963},{"buffer":0,"byteLength":3300,"byteOffset":137552,"target":34962},{"buffer":0,"byteLength":3300,"byteOffset":140852,"target":34962},{"buffer":0,"byteLength":2200,"byteOffset":144152,"target":34962},{"buffer":0,"byteLength":1128,"byteOffset":146352,"target":34963},{"buffer":0,"byteLength":3252,"byteOffset":147480,"target":34962},{"buffer":0,"byteLength":3252,"byteOffset":150732,"target":34962},{"buffer":0,"byteLength":2168,"byteOffset":153984,"target":34962},{"buffer":0,"byteLength":1128,"byteOffset":156152,"target":34963},{"buffer":0,"byteLength":3120,"byteOffset":157280,"target":34962},{"buffer":0,"byteLength":3120,"byteOffset":160400,"target":34962},{"buffer":0,"byteLength":2080,"byteOffset":163520,"target":34962},{"buffer":0,"byteLength":1128,"byteOffset":165600,"target":34963},{"buffer":0,"byteLength":3144,"byteOffset":166728,"target":34962},{"buffer":0,"byteLength":3144,"byteOffset":169872,"target":34962},{"buffer":0,"byteLength":2096,"byteOffset":173016,"target":34962},{"buffer":0,"byteLength":1128,"byteOffset":175112,"target":34963},{"buffer":0,"byteLength":3168,"byteOffset":176240,"target":34962},{"buffer":0,"byteLength":3168,"byteOffset":179408,"target":34962},{"buffer":0,"byteLength":2112,"byteOffset":182576,"target":34962},{"buffer":0,"byteLength":1128,"byteOffset":184688,"target":34963},{"buffer":0,"byteLength":3084,"byteOffset":185816,"target":34962},{"buffer":0,"byteLength":3084,"byteOffset":188900,"target":34962},{"buffer":0,"byteLength":2056,"byteOffset":191984,"target":34962},{"buffer":0,"byteLength":1128,"byteOffset":194040,"target":34963},{"buffer":0,"byteLength":3276,"byteOffset":195168,"target":34962},{"buffer":0,"byteLength":3276,"byteOffset":198444,"target":34962},{"buffer":0,"byteLength":2184,"byteOffset":201720,"target":34962},{"buffer":0,"byteLength":1128,"byteOffset":203904,"target":34963},{"buffer":0,"byteLength":3288,"byteOffset":205032,"target":34962},{"buffer":0,"byteLength":3288,"byteOffset":208320,"target":34962},{"buffer":0,"byteLength":2192,"byteOffset":211608,"target":34962},{"buffer":0,"byteLength":1128,"byteOffset":213800,"target":34963},{"buffer":0,"byteLength":3324,"byteOffset":214928,"target":34962},{"buffer":0,"byteLength":3324,"byteOffset":218252,"target":34962},{"buffer":0,"byteLength":2216,"byteOffset":221576,"target":34962},{"buffer":0,"byteLength":1128,"byteOffset":223792,"target":34963},{"buffer":0,"byteLength":3252,"byteOffset":224920,"target":34962},{"buffer":0,"byteLength":3252,"byteOffset":228172,"target":34962},{"buffer":0,"byteLength":2168,"byteOffset":231424,"target":34962},{"buffer":0,"byteLength":1128,"byteOffset":233592,"target":34963},{"buffer":0,"byteLength":3204,"byteOffset":234720,"target":34962},{"buffer":0,"byteLength":3204,"byteOffset":237924,"target":34962},{"buffer":0,"byteLength":2136,"byteOffset":241128,"target":34962},{"buffer":0,"byteLength":1128,"byteOffset":243264,"target":34963},{"buffer":0,"byteLength":3228,"byteOffset":244392,"target":34962},{"buffer":0,"byteLength":3228,"byteOffset":247620,"target":34962},{"buffer":0,"byteLength":2152,"byteOffset":250848,"target":34962},{"buffer":0,"byteLength":1128,"byteOffset":253000,"target":34963},{"buffer":0,"byteLength":3228,"byteOffset":254128,"target":34962},{"buffer":0,"byteLength":3228,"byteOffset":257356,"target":34962},{"buffer":0,"byteLength":2152,"byteOffset":260584,"target":34962},{"buffer":0,"byteLength":1128,"byteOffset":262736,"target":34963},{"buffer":0,"byteLength":3288,"byteOffset":263864,"target":34962},{"buffer":0,"byteLength":3288,"byteOffset":267152,"target":34962},{"buffer":0,"byteLength":2192,"byteOffset":270440,"target":34962},{"buffer":0,"byteLength":1128,"byteOffset":272632,"target":34963},{"buffer":0,"byteLength":3444,"byteOffset":273760,"target":34962},{"buffer":0,"byteLength":3444,"byteOffset":277204,"target":34962},{"buffer":0,"byteLength":2296,"byteOffset":280648,"target":34962},{"buffer":0,"byteLength":1128,"byteOffset":282944,"target":34963},{"buffer":0,"byteLength":3372,"byteOffset":284072,"target":34962},{"buffer":0,"byteLength":3372,"byteOffset":287444,"target":34962},{"buffer":0,"byteLength":2248,"byteOffset":290816,"target":34962},{"buffer":0,"byteLength":1128,"byteOffset":293064,"target":34963},{"buffer":0,"byteLength":3432,"byteOffset":294192,"target":34962},{"buffer":0,"byteLength":3432,"byteOffset":297624,"target":34962},{"buffer":0,"byteLength":2288,"byteOffset":301056,"target":34962},{"buffer":0,"byteLength":1128,"byteOffset":303344,"target":34963},{"buffer":0,"byteLength":3408,"byteOffset":304472,"target":34962},{"buffer":0,"byteLength":3408,"byteOffset":307880,"target":34962},{"buffer":0,"byteLength":2272,"byteOffset":311288,"target":34962},{"buffer":0,"byteLength":1128,"byteOffset":313560,"target":34963},{"buffer":0,"byteLength":3384,"byteOffset":314688,"target":34962},{"buffer":0,"byteLength":3384,"byteOffset":318072,"target":34962},{"buffer":0,"byteLength":2256,"byteOffset":321456,"target":34962},{"buffer":0,"byteLength":1128,"byteOffset":323712,"target":34963},{"buffer":0,"byteLength":3516,"byteOffset":324840,"target":34962},{"buffer":0,"byteLength":3516,"byteOffset":328356,"target":34962},{"buffer":0,"byteLength":2344,"byteOffset":331872,"target":34962},{"buffer":0,"byteLength":1128,"byteOffset":334216,"target":34963},{"buffer":0,"byteLength":4752,"byteOffset":335344,"target":34962},{"buffer":0,"byteLength":4752,"byteOffset":340096,"target":34962},{"buffer":0,"byteLength":3168,"byteOffset":344848,"target":34962},{"buffer":0,"byteLength":3072,"byteOffset":348016,"target":34963},{"buffer":0,"byteLength":4752,"byteOffset":351088,"target":34962},{"buffer":0,"byteLength":4752,"byteOffset":355840,"target":34962},{"buffer":0,"byteLength":3168,"byteOffset":360592,"target":34962}],"samplers":[{"magFilter":9729,"minFilter":9987}],"buffers":[{"uri":"C05_rope_bridge.bin","byteLength":363760}]}