{"asset":{"generator":"Khronos glTF Blender I/O v5.2.40","version":"2.0"},"scene":0,"scenes":[{"name":"Scene","nodes":[0,1,2,3,4]}],"nodes":[{"mesh":0,"name":"Banner suspension rod","rotation":[0.7071068286895752,0,0,0.7071068286895752]},{"mesh":1,"name":"Covenant embroidery","rotation":[0.7071068286895752,0,0,0.7071068286895752]},{"mesh":2,"name":"Embroidered selvage","rotation":[0.7071068286895752,0,0,0.7071068286895752]},{"mesh":3,"name":"Embroidered selvage.001","rotation":[0.7071068286895752,0,0,0.7071068286895752]},{"mesh":4,"name":"Woven hanging standard","rotation":[0.7071068286895752,0,0,0.7071068286895752]}],"materials":[{"doubleSided":true,"name":"Forged iron.002","pbrMetallicRoughness":{"baseColorFactor":[0.04699999839067459,0.054999999701976776,0.04800000041723251,1],"metallicFactor":0.699999988079071,"roughnessFactor":0.6200000047683716}},{"doubleSided":true,"name":"Hammered old bronze.002","pbrMetallicRoughness":{"baseColorFactor":[0.20999999344348907,0.125,0.04600000008940697,1],"metallicFactor":0.7699999809265137,"roughnessFactor":0.550000011920929}},{"doubleSided":true,"name":"Oxblood standard.002","pbrMetallicRoughness":{"baseColorFactor":[0.11999999731779099,0.010999999940395355,0.02199999988079071,1],"metallicFactor":0,"roughnessFactor":0.8999999761581421}}],"meshes":[{"name":"Banner suspension rod.002","primitives":[{"attributes":{"POSITION":0,"NORMAL":1,"TEXCOORD_0":2},"indices":3,"material":0}]},{"name":"Covenant embroidery.002","primitives":[{"attributes":{"POSITION":4,"NORMAL":5,"TEXCOORD_0":6},"indices":7,"material":1}]},{"name":"Embroidered selvage.004","primitives":[{"attributes":{"POSITION":8,"NORMAL":9,"TEXCOORD_0":10},"indices":11,"material":1}]},{"name":"Embroidered selvage.005","primitives":[{"attributes":{"POSITION":12,"NORMAL":13,"TEXCOORD_0":14},"indices":15,"material":1}]},{"name":"Woven hanging standard.002","primitives":[{"attributes":{"POSITION":16,"NORMAL":17,"TEXCOORD_0":18},"indices":19,"material":2}]}],"accessors":[{"bufferView":0,"componentType":5126,"count":32,"max":[0.800000011920929,0.03200000151991844,0.007000001147389412],"min":[-0.800000011920929,-0.03200000151991844,-0.05700000375509262],"type":"VEC3"},{"bufferView":1,"componentType":5126,"count":32,"type":"VEC3"},{"bufferView":2,"componentType":5126,"count":32,"type":"VEC2"},{"bufferView":3,"componentType":5123,"count":72,"type":"SCALAR"},{"bufferView":4,"componentType":5126,"count":62,"max":[0.26600000262260437,0.08100000023841858,1.565999984741211],"min":[-0.26600000262260437,0.04899999871850014,0.5413653254508972],"type":"VEC3"},{"bufferView":5,"componentType":5126,"count":62,"type":"VEC3"},{"bufferView":6,"componentType":5126,"count":62,"type":"VEC2"},{"bufferView":7,"componentType":5123,"count":192,"type":"SCALAR"},{"bufferView":8,"componentType":5126,"count":336,"max":[-0.5609999895095825,0.05819057673215866,2.8001294136047363],"min":[-0.5789999961853027,-0.09027102589607239,-0.00011949849431402981],"type":"VEC3"},{"bufferView":9,"componentType":5126,"count":336,"type":"VEC3"},{"bufferView":10,"componentType":5126,"count":336,"type":"VEC2"},{"bufferView":11,"componentType":5123,"count":1152,"type":"SCALAR"},{"bufferView":12,"componentType":5126,"count":336,"max":[0.5789999961853027,0.039895959198474884,2.800156593322754],"min":[0.5609999895095825,-0.14632058143615723,-0.00010878472676267847],"type":"VEC3"},{"bufferView":13,"componentType":5126,"count":336,"type":"VEC3"},{"bufferView":14,"componentType":5126,"count":336,"type":"VEC2"},{"bufferView":15,"componentType":5123,"count":1152,"type":"SCALAR"},{"bufferView":16,"componentType":5126,"count":1122,"max":[0.626276969909668,0.05909000709652901,2.8001277446746826],"min":[-0.6253985166549683,-0.1353825032711029,-9.986935037886724e-05],"type":"VEC3"},{"bufferView":17,"componentType":5126,"count":1122,"type":"VEC3"},{"bufferView":18,"componentType":5126,"count":1122,"type":"VEC2"},{"bufferView":19,"componentType":5123,"count":6720,"type":"SCALAR"}],"bufferViews":[{"buffer":0,"byteLength":384,"byteOffset":0,"target":34962},{"buffer":0,"byteLength":384,"byteOffset":384,"target":34962},{"buffer":0,"byteLength":256,"byteOffset":768,"target":34962},{"buffer":0,"byteLength":144,"byteOffset":1024,"target":34963},{"buffer":0,"byteLength":744,"byteOffset":1168,"target":34962},{"buffer":0,"byteLength":744,"byteOffset":1912,"target":34962},{"buffer":0,"byteLength":496,"byteOffset":2656,"target":34962},{"buffer":0,"byteLength":384,"byteOffset":3152,"target":34963},{"buffer":0,"byteLength":4032,"byteOffset":3536,"target":34962},{"buffer":0,"byteLength":4032,"byteOffset":7568,"target":34962},{"buffer":0,"byteLength":2688,"byteOffset":11600,"target":34962},{"buffer":0,"byteLength":2304,"byteOffset":14288,"target":34963},{"buffer":0,"byteLength":4032,"byteOffset":16592,"target":34962},{"buffer":0,"byteLength":4032,"byteOffset":20624,"target":34962},{"buffer":0,"byteLength":2688,"byteOffset":24656,"target":34962},{"buffer":0,"byteLength":2304,"byteOffset":27344,"target":34963},{"buffer":0,"byteLength":13464,"byteOffset":29648,"target":34962},{"buffer":0,"byteLength":13464,"byteOffset":43112,"target":34962},{"buffer":0,"byteLength":8976,"byteOffset":56576,"target":34962},{"buffer":0,"byteLength":13440,"byteOffset":65552,"target":34963}],"buffers":[{"uri":"C06_embroidered_banner.bin","byteLength":78992}]}