{"asset":{"generator":"Khronos glTF Blender I/O v5.2.40","version":"2.0"},"extensionsUsed":["KHR_materials_emissive_strength"],"scene":0,"scenes":[{"name":"Scene","nodes":[0,1,2,3,4,5,6,7,8]}],"nodes":[{"mesh":0,"name":"Candle","rotation":[0.7071068286895752,0,0,0.7071068286895752]},{"mesh":1,"name":"Lantern cage","rotation":[0.7071068286895752,0,0,0.7071068286895752]},{"mesh":2,"name":"Lantern cage.001","rotation":[0.7071068286895752,0,0,0.7071068286895752]},{"mesh":3,"name":"Lantern cage.002","rotation":[0.7071068286895752,0,0,0.7071068286895752]},{"mesh":4,"name":"Lantern cage.003","rotation":[0.7071068286895752,0,0,0.7071068286895752]},{"mesh":5,"name":"Lantern cage.004","rotation":[0.7071068286895752,0,0,0.7071068286895752]},{"mesh":6,"name":"Lantern cage.005","rotation":[0.7071068286895752,0,0,0.7071068286895752]},{"mesh":7,"name":"Lantern foot","rotation":[0.7071068286895752,0,0,0.7071068286895752]},{"mesh":8,"name":"Lantern lid","rotation":[0.7071068286895752,0,0,0.7071068286895752]}],"materials":[{"doubleSided":true,"emissiveFactor":[1,0.3100000023841858,0.05999999865889549],"extensions":{"KHR_materials_emissive_strength":{"emissiveStrength":4}},"name":"Candle wax and fire.002","pbrMetallicRoughness":{"baseColorFactor":[0.8999999761581421,0.5099999904632568,0.17000000178813934,1],"metallicFactor":0,"roughnessFactor":0.5}},{"doubleSided":true,"name":"Forged iron.002","pbrMetallicRoughness":{"baseColorFactor":[0.04699999839067459,0.054999999701976776,0.04800000041723251,1],"metallicFactor":0.699999988079071,"roughnessFactor":0.6200000047683716}},{"doubleSided":true,"name":"Hammered old bronze.002","pbrMetallicRoughness":{"baseColorFactor":[0.20999999344348907,0.125,0.04600000008940697,1],"metallicFactor":0.7699999809265137,"roughnessFactor":0.550000011920929}}],"meshes":[{"name":"Candle.002","primitives":[{"attributes":{"POSITION":0,"NORMAL":1,"TEXCOORD_0":2},"indices":3,"material":0}]},{"name":"Lantern cage.012","primitives":[{"attributes":{"POSITION":4,"NORMAL":5,"TEXCOORD_0":6},"indices":7,"material":1}]},{"name":"Lantern cage.013","primitives":[{"attributes":{"POSITION":8,"NORMAL":9,"TEXCOORD_0":10},"indices":11,"material":1}]},{"name":"Lantern cage.014","primitives":[{"attributes":{"POSITION":12,"NORMAL":13,"TEXCOORD_0":14},"indices":15,"material":1}]},{"name":"Lantern cage.015","primitives":[{"attributes":{"POSITION":16,"NORMAL":17,"TEXCOORD_0":18},"indices":19,"material":1}]},{"name":"Lantern cage.016","primitives":[{"attributes":{"POSITION":20,"NORMAL":21,"TEXCOORD_0":22},"indices":23,"material":1}]},{"name":"Lantern cage.017","primitives":[{"attributes":{"POSITION":24,"NORMAL":25,"TEXCOORD_0":26},"indices":27,"material":1}]},{"name":"Lantern foot.002","primitives":[{"attributes":{"POSITION":28,"NORMAL":29,"TEXCOORD_0":30},"indices":31,"material":1}]},{"name":"Lantern lid.002","primitives":[{"attributes":{"POSITION":32,"NORMAL":33,"TEXCOORD_0":34},"indices":35,"material":2}]}],"accessors":[{"bufferView":0,"componentType":5126,"count":184,"max":[0.069944828748703,0.069944828748703,-0.2800000011920929],"min":[-0.069944828748703,-0.069944828748703,-0.5699999928474426],"type":"VEC3"},{"bufferView":1,"componentType":5126,"count":184,"type":"VEC3"},{"bufferView":2,"componentType":5126,"count":184,"type":"VEC2"},{"bufferView":3,"componentType":5123,"count":756,"type":"SCALAR"},{"bufferView":4,"componentType":5126,"count":42,"max":[0.23800000548362732,0.017999999225139618,-0.25],"min":[0.0534406378865242,-0.017999999225139618,-1.0128942728042603],"type":"VEC3"},{"bufferView":5,"componentType":5126,"count":42,"type":"VEC3"},{"bufferView":6,"componentType":5126,"count":42,"type":"VEC2"},{"bufferView":7,"componentType":5123,"count":96,"type":"SCALAR"},{"bufferView":8,"componentType":5126,"count":42,"max":[0.12799999117851257,0.20852559804916382,-0.25],"min":[0.01741154119372368,0.04310271143913269,-1.0128942728042603],"type":"VEC3"},{"bufferView":9,"componentType":5126,"count":42,"type":"VEC3"},{"bufferView":10,"componentType":5126,"count":42,"type":"VEC2"},{"bufferView":11,"componentType":5123,"count":96,"type":"SCALAR"},{"bufferView":12,"componentType":5126,"count":46,"max":[-0.01741154119372368,0.20852559804916382,-0.25],"min":[-0.12799999117851257,0.04310271143913269,-1.0128942728042603],"type":"VEC3"},{"bufferView":13,"componentType":5126,"count":46,"type":"VEC3"},{"bufferView":14,"componentType":5126,"count":46,"type":"VEC2"},{"bufferView":15,"componentType":5123,"count":96,"type":"SCALAR"},{"bufferView":16,"componentType":5126,"count":34,"max":[-0.0534406378865242,0.017999999225139618,-0.25],"min":[-0.23800000548362732,-0.017999999225139618,-1.0128942728042603],"type":"VEC3"},{"bufferView":17,"componentType":5126,"count":34,"type":"VEC3"},{"bufferView":18,"componentType":5126,"count":34,"type":"VEC2"},{"bufferView":19,"componentType":5123,"count":96,"type":"SCALAR"},{"bufferView":20,"componentType":5126,"count":46,"max":[-0.01741154119372368,-0.04310271143913269,-0.25],"min":[-0.12799999117851257,-0.20852559804916382,-1.0128942728042603],"type":"VEC3"},{"bufferView":21,"componentType":5126,"count":46,"type":"VEC3"},{"bufferView":22,"componentType":5126,"count":46,"type":"VEC2"},{"bufferView":23,"componentType":5123,"count":96,"type":"SCALAR"},{"bufferView":24,"componentType":5126,"count":42,"max":[0.12799999117851257,-0.04310271143913269,-0.25],"min":[0.01741154119372368,-0.20852559804916382,-1.0128942728042603],"type":"VEC3"},{"bufferView":25,"componentType":5126,"count":42,"type":"VEC3"},{"bufferView":26,"componentType":5126,"count":42,"type":"VEC2"},{"bufferView":27,"componentType":5123,"count":96,"type":"SCALAR"},{"bufferView":28,"componentType":5126,"count":284,"max":[0.24800725281238556,0.24800725281238556,0],"min":[-0.24800725281238556,-0.24800725281238556,-0.30000001192092896],"type":"VEC3"},{"bufferView":29,"componentType":5126,"count":284,"type":"VEC3"},{"bufferView":30,"componentType":5126,"count":284,"type":"VEC2"},{"bufferView":31,"componentType":5123,"count":1140,"type":"SCALAR"},{"bufferView":32,"componentType":5126,"count":192,"max":[0.26810789108276367,0.26810789108276367,-0.8299999833106995],"min":[-0.26810789108276367,-0.26810789108276367,-1.0499999523162842],"type":"VEC3"},{"bufferView":33,"componentType":5126,"count":192,"type":"VEC3"},{"bufferView":34,"componentType":5126,"count":192,"type":"VEC2"},{"bufferView":35,"componentType":5123,"count":852,"type":"SCALAR"}],"bufferViews":[{"buffer":0,"byteLength":2208,"byteOffset":0,"target":34962},{"buffer":0,"byteLength":2208,"byteOffset":2208,"target":34962},{"buffer":0,"byteLength":1472,"byteOffset":4416,"target":34962},{"buffer":0,"byteLength":1512,"byteOffset":5888,"target":34963},{"buffer":0,"byteLength":504,"byteOffset":7400,"target":34962},{"buffer":0,"byteLength":504,"byteOffset":7904,"target":34962},{"buffer":0,"byteLength":336,"byteOffset":8408,"target":34962},{"buffer":0,"byteLength":192,"byteOffset":8744,"target":34963},{"buffer":0,"byteLength":504,"byteOffset":8936,"target":34962},{"buffer":0,"byteLength":504,"byteOffset":9440,"target":34962},{"buffer":0,"byteLength":336,"byteOffset":9944,"target":34962},{"buffer":0,"byteLength":192,"byteOffset":10280,"target":34963},{"buffer":0,"byteLength":552,"byteOffset":10472,"target":34962},{"buffer":0,"byteLength":552,"byteOffset":11024,"target":34962},{"buffer":0,"byteLength":368,"byteOffset":11576,"target":34962},{"buffer":0,"byteLength":192,"byteOffset":11944,"target":34963},{"buffer":0,"byteLength":408,"byteOffset":12136,"target":34962},{"buffer":0,"byteLength":408,"byteOffset":12544,"target":34962},{"buffer":0,"byteLength":272,"byteOffset":12952,"target":34962},{"buffer":0,"byteLength":192,"byteOffset":13224,"target":34963},{"buffer":0,"byteLength":552,"byteOffset":13416,"target":34962},{"buffer":0,"byteLength":552,"byteOffset":13968,"target":34962},{"buffer":0,"byteLength":368,"byteOffset":14520,"target":34962},{"buffer":0,"byteLength":192,"byteOffset":14888,"target":34963},{"buffer":0,"byteLength":504,"byteOffset":15080,"target":34962},{"buffer":0,"byteLength":504,"byteOffset":15584,"target":34962},{"buffer":0,"byteLength":336,"byteOffset":16088,"target":34962},{"buffer":0,"byteLength":192,"byteOffset":16424,"target":34963},{"buffer":0,"byteLength":3408,"byteOffset":16616,"target":34962},{"buffer":0,"byteLength":3408,"byteOffset":20024,"target":34962},{"buffer":0,"byteLength":2272,"byteOffset":23432,"target":34962},{"buffer":0,"byteLength":2280,"byteOffset":25704,"target":34963},{"buffer":0,"byteLength":2304,"byteOffset":27984,"target":34962},{"buffer":0,"byteLength":2304,"byteOffset":30288,"target":34962},{"buffer":0,"byteLength":1536,"byteOffset":32592,"target":34962},{"buffer":0,"byteLength":1704,"byteOffset":34128,"target":34963}],"buffers":[{"uri":"C07_lantern.bin","byteLength":35832}]}