{"asset":{"generator":"Khronos glTF Blender I/O v5.2.40","version":"2.0"},"extensionsUsed":["KHR_materials_emissive_strength","KHR_materials_specular"],"scene":0,"scenes":[{"name":"Scene","nodes":[0,1,2,3,4,5,6,7,8,9,10,11,12,13,14,15,16,17,18,19,20,21,22,23]}],"nodes":[{"mesh":0,"name":"Altar inscription ring","rotation":[0.7071068286895752,0,0,0.7071068286895752]},{"mesh":1,"name":"Altar inscription ring.001","rotation":[0.7071068286895752,0,0,0.7071068286895752]},{"mesh":2,"name":"Altar inscription ring.002","rotation":[0.7071068286895752,0,0,0.7071068286895752]},{"mesh":3,"name":"Altar plinth","rotation":[0.7071068286895752,0,0,0.7071068286895752]},{"mesh":4,"name":"Etched radial","rotation":[0.7071068286895752,0,0,0.7071068286895752]},{"mesh":5,"name":"Etched radial.001","rotation":[0.7071068286895752,0,0,0.7071068286895752]},{"mesh":6,"name":"Etched radial.002","rotation":[0.7071068286895752,0,0,0.7071068286895752]},{"mesh":7,"name":"Etched radial.003","rotation":[0.7071068286895752,0,0,0.7071068286895752]},{"mesh":8,"name":"Etched radial.004","rotation":[0.7071068286895752,0,0,0.7071068286895752]},{"mesh":9,"name":"Etched radial.005","rotation":[0.7071068286895752,0,0,0.7071068286895752]},{"mesh":10,"name":"Etched radial.006","rotation":[0.7071068286895752,0,0,0.7071068286895752]},{"mesh":11,"name":"Etched radial.007","rotation":[0.7071068286895752,0,0,0.7071068286895752]},{"mesh":12,"name":"Etched radial.008","rotation":[0.7071068286895752,0,0,0.7071068286895752]},{"mesh":13,"name":"Etched radial.009","rotation":[0.7071068286895752,0,0,0.7071068286895752]},{"mesh":14,"name":"Etched radial.010","rotation":[0.7071068286895752,0,0,0.7071068286895752]},{"mesh":15,"name":"Etched radial.011","rotation":[0.7071068286895752,0,0,0.7071068286895752]},{"mesh":16,"name":"Pedestal fluting","rotation":[0.7071068286895752,0,0,0.7071068286895752]},{"mesh":17,"name":"Pedestal fluting.001","rotation":[0.7071068286895752,0,0,0.7071068286895752]},{"mesh":18,"name":"Pedestal fluting.002","rotation":[0.7071068286895752,0,0,0.7071068286895752]},{"mesh":19,"name":"Pedestal fluting.003","rotation":[0.7071068286895752,0,0,0.7071068286895752]},{"mesh":20,"name":"Pedestal fluting.004","rotation":[0.7071068286895752,0,0,0.7071068286895752]},{"mesh":21,"name":"Pedestal fluting.005","rotation":[0.7071068286895752,0,0,0.7071068286895752]},{"mesh":22,"name":"Pedestal fluting.006","rotation":[0.7071068286895752,0,0,0.7071068286895752]},{"mesh":23,"name":"Pedestal fluting.007","rotation":[0.7071068286895752,0,0,0.7071068286895752]}],"materials":[{"doubleSided":true,"name":"Hammered old bronze.002","pbrMetallicRoughness":{"baseColorFactor":[0.20999999344348907,0.125,0.04600000008940697,1],"metallicFactor":0.7699999809265137,"roughnessFactor":0.550000011920929}},{"doubleSided":true,"extensions":{"KHR_materials_specular":{"specularFactor":0.5}},"name":"Weathered limestone.002_soot","normalTexture":{"index":0,"scale":0.2800000011920929},"pbrMetallicRoughness":{"baseColorTexture":{"index":1},"metallicFactor":0,"roughnessFactor":0.9700000286102295}},{"doubleSided":true,"emissiveFactor":[1,0.3100000023841858,0.05999999865889549],"extensions":{"KHR_materials_emissive_strength":{"emissiveStrength":4}},"name":"Candle wax and fire.002","pbrMetallicRoughness":{"baseColorFactor":[0.8999999761581421,0.5099999904632568,0.17000000178813934,1],"metallicFactor":0,"roughnessFactor":0.5}}],"meshes":[{"name":"Altar inscription ring.006","primitives":[{"attributes":{"POSITION":0,"NORMAL":1,"TEXCOORD_0":2},"indices":3,"material":0}]},{"name":"Altar inscription ring.007","primitives":[{"attributes":{"POSITION":4,"NORMAL":5,"TEXCOORD_0":6},"indices":3,"material":0}]},{"name":"Altar inscription ring.008","primitives":[{"attributes":{"POSITION":7,"NORMAL":8,"TEXCOORD_0":9},"indices":3,"material":0}]},{"name":"Altar plinth.002","primitives":[{"attributes":{"POSITION":10,"NORMAL":11,"TEXCOORD_0":12},"indices":13,"material":1}]},{"name":"Etched radial.024","primitives":[{"attributes":{"POSITION":14,"NORMAL":15,"TEXCOORD_0":16},"indices":17,"material":2}]},{"name":"Etched radial.025","primitives":[{"attributes":{"POSITION":18,"NORMAL":19,"TEXCOORD_0":20},"indices":17,"material":2}]},{"name":"Etched radial.026","primitives":[{"attributes":{"POSITION":21,"NORMAL":22,"TEXCOORD_0":23},"indices":24,"material":2}]},{"name":"Etched radial.027","primitives":[{"attributes":{"POSITION":25,"NORMAL":26,"TEXCOORD_0":27},"indices":28,"material":2}]},{"name":"Etched radial.028","primitives":[{"attributes":{"POSITION":29,"NORMAL":30,"TEXCOORD_0":31},"indices":17,"material":2}]},{"name":"Etched radial.029","primitives":[{"attributes":{"POSITION":32,"NORMAL":33,"TEXCOORD_0":34},"indices":17,"material":2}]},{"name":"Etched radial.030","primitives":[{"attributes":{"POSITION":35,"NORMAL":36,"TEXCOORD_0":37},"indices":17,"material":2}]},{"name":"Etched radial.031","primitives":[{"attributes":{"POSITION":38,"NORMAL":39,"TEXCOORD_0":40},"indices":17,"material":2}]},{"name":"Etched radial.032","primitives":[{"attributes":{"POSITION":41,"NORMAL":42,"TEXCOORD_0":43},"indices":17,"material":2}]},{"name":"Etched radial.033","primitives":[{"attributes":{"POSITION":44,"NORMAL":45,"TEXCOORD_0":46},"indices":47,"material":2}]},{"name":"Etched radial.034","primitives":[{"attributes":{"POSITION":48,"NORMAL":49,"TEXCOORD_0":50},"indices":24,"material":2}]},{"name":"Etched radial.035","primitives":[{"attributes":{"POSITION":51,"NORMAL":52,"TEXCOORD_0":53},"indices":17,"material":2}]},{"name":"Pedestal fluting.016","primitives":[{"attributes":{"POSITION":54,"NORMAL":55,"TEXCOORD_0":56},"indices":57,"material":0}]},{"name":"Pedestal fluting.017","primitives":[{"attributes":{"POSITION":58,"NORMAL":59,"TEXCOORD_0":60},"indices":61,"material":0}]},{"name":"Pedestal fluting.018","primitives":[{"attributes":{"POSITION":62,"NORMAL":63,"TEXCOORD_0":64},"indices":65,"material":0}]},{"name":"Pedestal fluting.019","primitives":[{"attributes":{"POSITION":66,"NORMAL":67,"TEXCOORD_0":68},"indices":69,"material":0}]},{"name":"Pedestal fluting.020","primitives":[{"attributes":{"POSITION":70,"NORMAL":71,"TEXCOORD_0":72},"indices":69,"material":0}]},{"name":"Pedestal fluting.021","primitives":[{"attributes":{"POSITION":73,"NORMAL":74,"TEXCOORD_0":75},"indices":69,"material":0}]},{"name":"Pedestal fluting.022","primitives":[{"attributes":{"POSITION":76,"NORMAL":77,"TEXCOORD_0":78},"indices":65,"material":0}]},{"name":"Pedestal fluting.023","primitives":[{"attributes":{"POSITION":79,"NORMAL":80,"TEXCOORD_0":81},"indices":61,"material":0}]}],"textures":[{"sampler":0,"source":0},{"sampler":0,"source":1}],"images":[{"name":"normal","uri":"../textures/111ec8bb85fd34402ad7.png"},{"name":"wall-charcoal","uri":"../textures/ebd4ceb7053513a9ca36.png"}],"accessors":[{"bufferView":0,"componentType":5126,"count":804,"max":[0.34699156880378723,0.34700000286102295,-1.1579999923706055],"min":[-0.34700000286102295,-0.34700000286102295,-1.1719999313354492],"type":"VEC3"},{"bufferView":1,"componentType":5126,"count":804,"type":"VEC3"},{"bufferView":2,"componentType":5126,"count":804,"type":"VEC2"},{"bufferView":3,"componentType":5123,"count":3072,"type":"SCALAR"},{"bufferView":4,"componentType":5126,"count":804,"max":[0.5469915866851807,0.5470000505447388,-1.1579999923706055],"min":[-0.5470000505447388,-0.5470000505447388,-1.1719999313354492],"type":"VEC3"},{"bufferView":5,"componentType":5126,"count":804,"type":"VEC3"},{"bufferView":6,"componentType":5126,"count":804,"type":"VEC2"},{"bufferView":7,"componentType":5126,"count":804,"max":[0.6769915819168091,0.6770000457763672,-1.1579999923706055],"min":[-0.6770000457763672,-0.6770000457763672,-1.1719999313354492],"type":"VEC3"},{"bufferView":8,"componentType":5126,"count":804,"type":"VEC3"},{"bufferView":9,"componentType":5126,"count":804,"type":"VEC2"},{"bufferView":10,"componentType":5126,"count":1335,"max":[0.8979842066764832,0.8979842066764832,0],"min":[-0.8979842066764832,-0.8979842066764832,-1.159999966621399],"type":"VEC3"},{"bufferView":11,"componentType":5126,"count":1335,"type":"VEC3"},{"bufferView":12,"componentType":5126,"count":1335,"type":"VEC2"},{"bufferView":13,"componentType":5123,"count":4596,"type":"SCALAR"},{"bufferView":14,"componentType":5126,"count":20,"max":[0.4699999988079071,0.008999999612569809,-1.165205717086792],"min":[0.3700000047683716,-0.008999999612569809,-1.1807942390441895],"type":"VEC3"},{"bufferView":15,"componentType":5126,"count":20,"type":"VEC3"},{"bufferView":16,"componentType":5126,"count":20,"type":"VEC2"},{"bufferView":17,"componentType":5123,"count":36,"type":"SCALAR"},{"bufferView":18,"componentType":5126,"count":20,"max":[0.4115319550037384,0.2427942305803299,-1.165205717086792],"min":[0.3159293830394745,0.17720577120780945,-1.1807942390441895],"type":"VEC3"},{"bufferView":19,"componentType":5126,"count":20,"type":"VEC3"},{"bufferView":20,"componentType":5126,"count":20,"type":"VEC2"},{"bufferView":21,"componentType":5126,"count":20,"max":[0.2427942305803299,0.4115319550037384,-1.165205717086792],"min":[0.17720577120780945,0.3159293830394745,-1.1807942390441895],"type":"VEC3"},{"bufferView":22,"componentType":5126,"count":20,"type":"VEC3"},{"bufferView":23,"componentType":5126,"count":20,"type":"VEC2"},{"bufferView":24,"componentType":5123,"count":36,"type":"SCALAR"},{"bufferView":25,"componentType":5126,"count":20,"max":[0.008999999612569809,0.4699999988079071,-1.165205717086792],"min":[-0.008999999612569809,0.3700000047683716,-1.1807942390441895],"type":"VEC3"},{"bufferView":26,"componentType":5126,"count":20,"type":"VEC3"},{"bufferView":27,"componentType":5126,"count":20,"type":"VEC2"},{"bufferView":28,"componentType":5123,"count":36,"type":"SCALAR"},{"bufferView":29,"componentType":5126,"count":20,"max":[-0.17720577120780945,0.4115319550037384,-1.165205717086792],"min":[-0.2427942305803299,0.3159293830394745,-1.1807942390441895],"type":"VEC3"},{"bufferView":30,"componentType":5126,"count":20,"type":"VEC3"},{"bufferView":31,"componentType":5126,"count":20,"type":"VEC2"},{"bufferView":32,"componentType":5126,"count":20,"max":[-0.3159293830394745,0.2427942305803299,-1.165205717086792],"min":[-0.4115319550037384,0.17720577120780945,-1.1807942390441895],"type":"VEC3"},{"bufferView":33,"componentType":5126,"count":20,"type":"VEC3"},{"bufferView":34,"componentType":5126,"count":20,"type":"VEC2"},{"bufferView":35,"componentType":5126,"count":20,"max":[-0.3700000047683716,0.008999999612569809,-1.165205717086792],"min":[-0.4699999988079071,-0.008999999612569809,-1.1807942390441895],"type":"VEC3"},{"bufferView":36,"componentType":5126,"count":20,"type":"VEC3"},{"bufferView":37,"componentType":5126,"count":20,"type":"VEC2"},{"bufferView":38,"componentType":5126,"count":20,"max":[-0.3159293830394745,-0.17720577120780945,-1.165205717086792],"min":[-0.4115319550037384,-0.2427942305803299,-1.1807942390441895],"type":"VEC3"},{"bufferView":39,"componentType":5126,"count":20,"type":"VEC3"},{"bufferView":40,"componentType":5126,"count":20,"type":"VEC2"},{"bufferView":41,"componentType":5126,"count":20,"max":[-0.17720577120780945,-0.3159293830394745,-1.165205717086792],"min":[-0.2427942305803299,-0.4115319550037384,-1.1807942390441895],"type":"VEC3"},{"bufferView":42,"componentType":5126,"count":20,"type":"VEC3"},{"bufferView":43,"componentType":5126,"count":20,"type":"VEC2"},{"bufferView":44,"componentType":5126,"count":20,"max":[0.008999999612569809,-0.3700000047683716,-1.165205717086792],"min":[-0.008999999612569809,-0.4699999988079071,-1.1807942390441895],"type":"VEC3"},{"bufferView":45,"componentType":5126,"count":20,"type":"VEC3"},{"bufferView":46,"componentType":5126,"count":20,"type":"VEC2"},{"bufferView":47,"componentType":5123,"count":36,"type":"SCALAR"},{"bufferView":48,"componentType":5126,"count":20,"max":[0.2427942305803299,-0.3159293830394745,-1.165205717086792],"min":[0.17720577120780945,-0.4115319550037384,-1.1807942390441895],"type":"VEC3"},{"bufferView":49,"componentType":5126,"count":20,"type":"VEC3"},{"bufferView":50,"componentType":5126,"count":20,"type":"VEC2"},{"bufferView":51,"componentType":5126,"count":20,"max":[0.4115319550037384,-0.17720577120780945,-1.165205717086792],"min":[0.3159293830394745,-0.2427942305803299,-1.1807942390441895],"type":"VEC3"},{"bufferView":52,"componentType":5126,"count":20,"type":"VEC3"},{"bufferView":53,"componentType":5126,"count":20,"type":"VEC2"},{"bufferView":54,"componentType":5126,"count":24,"max":[0.5019999742507935,0.02199999988079071,-0.41999998688697815],"min":[0.4580000042915344,-0.02199999988079071,-0.9200000166893005],"type":"VEC3"},{"bufferView":55,"componentType":5126,"count":24,"type":"VEC3"},{"bufferView":56,"componentType":5126,"count":24,"type":"VEC2"},{"bufferView":57,"componentType":5123,"count":48,"type":"SCALAR"},{"bufferView":58,"componentType":5126,"count":24,"max":[0.36141127347946167,0.36141127347946167,-0.41999998688697815],"min":[0.31741124391555786,0.31741124391555786,-0.9200000166893005],"type":"VEC3"},{"bufferView":59,"componentType":5126,"count":24,"type":"VEC3"},{"bufferView":60,"componentType":5126,"count":24,"type":"VEC2"},{"bufferView":61,"componentType":5123,"count":48,"type":"SCALAR"},{"bufferView":62,"componentType":5126,"count":24,"max":[0.02199999988079071,0.5019999742507935,-0.41999998688697815],"min":[-0.02199999988079071,0.4580000042915344,-0.9200000166893005],"type":"VEC3"},{"bufferView":63,"componentType":5126,"count":24,"type":"VEC3"},{"bufferView":64,"componentType":5126,"count":24,"type":"VEC2"},{"bufferView":65,"componentType":5123,"count":48,"type":"SCALAR"},{"bufferView":66,"componentType":5126,"count":24,"max":[-0.31741124391555786,0.36141127347946167,-0.41999998688697815],"min":[-0.36141127347946167,0.31741124391555786,-0.9200000166893005],"type":"VEC3"},{"bufferView":67,"componentType":5126,"count":24,"type":"VEC3"},{"bufferView":68,"componentType":5126,"count":24,"type":"VEC2"},{"bufferView":69,"componentType":5123,"count":48,"type":"SCALAR"},{"bufferView":70,"componentType":5126,"count":24,"max":[-0.4580000042915344,0.02199999988079071,-0.41999998688697815],"min":[-0.5019999742507935,-0.02199999988079071,-0.9200000166893005],"type":"VEC3"},{"bufferView":71,"componentType":5126,"count":24,"type":"VEC3"},{"bufferView":72,"componentType":5126,"count":24,"type":"VEC2"},{"bufferView":73,"componentType":5126,"count":24,"max":[-0.31741124391555786,-0.31741124391555786,-0.41999998688697815],"min":[-0.36141127347946167,-0.36141127347946167,-0.9200000166893005],"type":"VEC3"},{"bufferView":74,"componentType":5126,"count":24,"type":"VEC3"},{"bufferView":75,"componentType":5126,"count":24,"type":"VEC2"},{"bufferView":76,"componentType":5126,"count":24,"max":[0.02199999988079071,-0.4580000042915344,-0.41999998688697815],"min":[-0.02199999988079071,-0.5019999742507935,-0.9200000166893005],"type":"VEC3"},{"bufferView":77,"componentType":5126,"count":24,"type":"VEC3"},{"bufferView":78,"componentType":5126,"count":24,"type":"VEC2"},{"bufferView":79,"componentType":5126,"count":24,"max":[0.36141127347946167,-0.31741124391555786,-0.41999998688697815],"min":[0.31741124391555786,-0.36141127347946167,-0.9200000166893005],"type":"VEC3"},{"bufferView":80,"componentType":5126,"count":24,"type":"VEC3"},{"bufferView":81,"componentType":5126,"count":24,"type":"VEC2"}],"bufferViews":[{"buffer":0,"byteLength":9648,"byteOffset":0,"target":34962},{"buffer":0,"byteLength":9648,"byteOffset":9648,"target":34962},{"buffer":0,"byteLength":6432,"byteOffset":19296,"target":34962},{"buffer":0,"byteLength":6144,"byteOffset":25728,"target":34963},{"buffer":0,"byteLength":9648,"byteOffset":31872,"target":34962},{"buffer":0,"byteLength":9648,"byteOffset":41520,"target":34962},{"buffer":0,"byteLength":6432,"byteOffset":51168,"target":34962},{"buffer":0,"byteLength":9648,"byteOffset":57600,"target":34962},{"buffer":0,"byteLength":9648,"byteOffset":67248,"target":34962},{"buffer":0,"byteLength":6432,"byteOffset":76896,"target":34962},{"buffer":0,"byteLength":16020,"byteOffset":83328,"target":34962},{"buffer":0,"byteLength":16020,"byteOffset":99348,"target":34962},{"buffer":0,"byteLength":10680,"byteOffset":115368,"target":34962},{"buffer":0,"byteLength":9192,"byteOffset":126048,"target":34963},{"buffer":0,"byteLength":240,"byteOffset":135240,"target":34962},{"buffer":0,"byteLength":240,"byteOffset":135480,"target":34962},{"buffer":0,"byteLength":160,"byteOffset":135720,"target":34962},{"buffer":0,"byteLength":72,"byteOffset":135880,"target":34963},{"buffer":0,"byteLength":240,"byteOffset":135952,"target":34962},{"buffer":0,"byteLength":240,"byteOffset":136192,"target":34962},{"buffer":0,"byteLength":160,"byteOffset":136432,"target":34962},{"buffer":0,"byteLength":240,"byteOffset":136592,"target":34962},{"buffer":0,"byteLength":240,"byteOffset":136832,"target":34962},{"buffer":0,"byteLength":160,"byteOffset":137072,"target":34962},{"buffer":0,"byteLength":72,"byteOffset":137232,"target":34963},{"buffer":0,"byteLength":240,"byteOffset":137304,"target":34962},{"buffer":0,"byteLength":240,"byteOffset":137544,"target":34962},{"buffer":0,"byteLength":160,"byteOffset":137784,"target":34962},{"buffer":0,"byteLength":72,"byteOffset":137944,"target":34963},{"buffer":0,"byteLength":240,"byteOffset":138016,"target":34962},{"buffer":0,"byteLength":240,"byteOffset":138256,"target":34962},{"buffer":0,"byteLength":160,"byteOffset":138496,"target":34962},{"buffer":0,"byteLength":240,"byteOffset":138656,"target":34962},{"buffer":0,"byteLength":240,"byteOffset":138896,"target":34962},{"buffer":0,"byteLength":160,"byteOffset":139136,"target":34962},{"buffer":0,"byteLength":240,"byteOffset":139296,"target":34962},{"buffer":0,"byteLength":240,"byteOffset":139536,"target":34962},{"buffer":0,"byteLength":160,"byteOffset":139776,"target":34962},{"buffer":0,"byteLength":240,"byteOffset":139936,"target":34962},{"buffer":0,"byteLength":240,"byteOffset":140176,"target":34962},{"buffer":0,"byteLength":160,"byteOffset":140416,"target":34962},{"buffer":0,"byteLength":240,"byteOffset":140576,"target":34962},{"buffer":0,"byteLength":240,"byteOffset":140816,"target":34962},{"buffer":0,"byteLength":160,"byteOffset":141056,"target":34962},{"buffer":0,"byteLength":240,"byteOffset":141216,"target":34962},{"buffer":0,"byteLength":240,"byteOffset":141456,"target":34962},{"buffer":0,"byteLength":160,"byteOffset":141696,"target":34962},{"buffer":0,"byteLength":72,"byteOffset":141856,"target":34963},{"buffer":0,"byteLength":240,"byteOffset":141928,"target":34962},{"buffer":0,"byteLength":240,"byteOffset":142168,"target":34962},{"buffer":0,"byteLength":160,"byteOffset":142408,"target":34962},{"buffer":0,"byteLength":240,"byteOffset":142568,"target":34962},{"buffer":0,"byteLength":240,"byteOffset":142808,"target":34962},{"buffer":0,"byteLength":160,"byteOffset":143048,"target":34962},{"buffer":0,"byteLength":288,"byteOffset":143208,"target":34962},{"buffer":0,"byteLength":288,"byteOffset":143496,"target":34962},{"buffer":0,"byteLength":192,"byteOffset":143784,"target":34962},{"buffer":0,"byteLength":96,"byteOffset":143976,"target":34963},{"buffer":0,"byteLength":288,"byteOffset":144072,"target":34962},{"buffer":0,"byteLength":288,"byteOffset":144360,"target":34962},{"buffer":0,"byteLength":192,"byteOffset":144648,"target":34962},{"buffer":0,"byteLength":96,"byteOffset":144840,"target":34963},{"buffer":0,"byteLength":288,"byteOffset":144936,"target":34962},{"buffer":0,"byteLength":288,"byteOffset":145224,"target":34962},{"buffer":0,"byteLength":192,"byteOffset":145512,"target":34962},{"buffer":0,"byteLength":96,"byteOffset":145704,"target":34963},{"buffer":0,"byteLength":288,"byteOffset":145800,"target":34962},{"buffer":0,"byteLength":288,"byteOffset":146088,"target":34962},{"buffer":0,"byteLength":192,"byteOffset":146376,"target":34962},{"buffer":0,"byteLength":96,"byteOffset":146568,"target":34963},{"buffer":0,"byteLength":288,"byteOffset":146664,"target":34962},{"buffer":0,"byteLength":288,"byteOffset":146952,"target":34962},{"buffer":0,"byteLength":192,"byteOffset":147240,"target":34962},{"buffer":0,"byteLength":288,"byteOffset":147432,"target":34962},{"buffer":0,"byteLength":288,"byteOffset":147720,"target":34962},{"buffer":0,"byteLength":192,"byteOffset":148008,"target":34962},{"buffer":0,"byteLength":288,"byteOffset":148200,"target":34962},{"buffer":0,"byteLength":288,"byteOffset":148488,"target":34962},{"buffer":0,"byteLength":192,"byteOffset":148776,"target":34962},{"buffer":0,"byteLength":288,"byteOffset":148968,"target":34962},{"buffer":0,"byteLength":288,"byteOffset":149256,"target":34962},{"buffer":0,"byteLength":192,"byteOffset":149544,"target":34962}],"samplers":[{"magFilter":9729,"minFilter":9987}],"buffers":[{"uri":"C08_covenant_altar.bin","byteLength":149736}]}