{"asset":{"generator":"Khronos glTF Blender I/O v5.2.40","version":"2.0"},"scene":0,"scenes":[{"name":"Scene","nodes":[0,1,2,3,4,5,6]}],"nodes":[{"mesh":0,"name":"Bell chased ring","rotation":[0.7071068286895752,0,0,0.7071068286895752]},{"mesh":1,"name":"Bell chased ring.001","rotation":[0.7071068286895752,0,0,0.7071068286895752]},{"mesh":2,"name":"Bell chased ring.002","rotation":[0.7071068286895752,0,0,0.7071068286895752]},{"mesh":3,"name":"Bell clapper","rotation":[0.7071068286895752,0,0,0.7071068286895752]},{"mesh":4,"name":"Bell hanging staple","rotation":[0.7071068286895752,0,0,0.7071068286895752]},{"mesh":5,"name":"Bell inner mouth","rotation":[0.7071068286895752,0,0,0.7071068286895752]},{"mesh":6,"name":"Bronze bell","rotation":[0.7071068286895752,0,0,0.7071068286895752]}],"materials":[{"doubleSided":true,"name":"Forged iron.002","pbrMetallicRoughness":{"baseColorFactor":[0.04699999839067459,0.054999999701976776,0.04800000041723251,1],"metallicFactor":0.699999988079071,"roughnessFactor":0.6200000047683716}},{"doubleSided":true,"name":"Stone joints.002","pbrMetallicRoughness":{"baseColorFactor":[0.012000000104308128,0.014000000432133675,0.012000000104308128,1],"metallicFactor":0,"roughnessFactor":0.9599999785423279}},{"doubleSided":true,"name":"Hammered old bronze.002","pbrMetallicRoughness":{"baseColorFactor":[0.20999999344348907,0.125,0.04600000008940697,1],"metallicFactor":0.7699999809265137,"roughnessFactor":0.550000011920929}}],"meshes":[{"name":"Bell chased ring.006","primitives":[{"attributes":{"POSITION":0,"NORMAL":1,"TEXCOORD_0":2},"indices":3,"material":0}]},{"name":"Bell chased ring.007","primitives":[{"attributes":{"POSITION":4,"NORMAL":5,"TEXCOORD_0":6},"indices":3,"material":0}]},{"name":"Bell chased ring.008","primitives":[{"attributes":{"POSITION":7,"NORMAL":8,"TEXCOORD_0":9},"indices":10,"material":0}]},{"name":"Bell clapper.002","primitives":[{"attributes":{"POSITION":11,"NORMAL":12,"TEXCOORD_0":13},"indices":14,"material":0}]},{"name":"Bell hanging staple.002","primitives":[{"attributes":{"POSITION":15,"NORMAL":16,"TEXCOORD_0":17},"indices":18,"material":0}]},{"name":"Bell inner mouth.002","primitives":[{"attributes":{"POSITION":19,"NORMAL":20,"TEXCOORD_0":21},"indices":22,"material":1}]},{"name":"Bronze bell.002","primitives":[{"attributes":{"POSITION":23,"NORMAL":24,"TEXCOORD_0":25},"indices":26,"material":2}]}],"accessors":[{"bufferView":0,"componentType":5126,"count":804,"max":[0.9779843091964722,0.9779999852180481,-0.49699997901916504],"min":[-0.9779999852180481,-0.9779999852180481,-0.5230000019073486],"type":"VEC3"},{"bufferView":1,"componentType":5126,"count":804,"type":"VEC3"},{"bufferView":2,"componentType":5126,"count":804,"type":"VEC2"},{"bufferView":3,"componentType":5123,"count":3072,"type":"SCALAR"},{"bufferView":4,"componentType":5126,"count":804,"max":[0.9429843425750732,0.9430000185966492,-0.5669999718666077],"min":[-0.9430000185966492,-0.9430000185966492,-0.5929999947547913],"type":"VEC3"},{"bufferView":5,"componentType":5126,"count":804,"type":"VEC3"},{"bufferView":6,"componentType":5126,"count":804,"type":"VEC2"},{"bufferView":7,"componentType":5126,"count":804,"max":[0.5129843354225159,0.5130000114440918,-1.6169999837875366],"min":[-0.5130000114440918,-0.5130000114440918,-1.6430000066757202],"type":"VEC3"},{"bufferView":8,"componentType":5126,"count":804,"type":"VEC3"},{"bufferView":9,"componentType":5126,"count":804,"type":"VEC2"},{"bufferView":10,"componentType":5123,"count":3072,"type":"SCALAR"},{"bufferView":11,"componentType":5126,"count":32,"max":[0.0820000022649765,0.0820000022649765,-0.25],"min":[-0.0820000022649765,-0.0820000022649765,-0.699999988079071],"type":"VEC3"},{"bufferView":12,"componentType":5126,"count":32,"type":"VEC3"},{"bufferView":13,"componentType":5126,"count":32,"type":"VEC2"},{"bufferView":14,"componentType":5123,"count":72,"type":"SCALAR"},{"bufferView":15,"componentType":5126,"count":84,"max":[0.21199999749660492,0.052000001072883606,-1.8799999952316284],"min":[-0.21199999749660492,-0.052000001072883606,-2.236769676208496],"type":"VEC3"},{"bufferView":16,"componentType":5126,"count":84,"type":"VEC3"},{"bufferView":17,"componentType":5126,"count":84,"type":"VEC2"},{"bufferView":18,"componentType":5123,"count":216,"type":"SCALAR"},{"bufferView":19,"componentType":5126,"count":664,"max":[0.9582644104957581,0.9582644104957581,-0.30000001192092896],"min":[-0.9582644104957581,-0.9582644104957581,-0.38999998569488525],"type":"VEC3"},{"bufferView":20,"componentType":5126,"count":664,"type":"VEC3"},{"bufferView":21,"componentType":5126,"count":664,"type":"VEC2"},{"bufferView":22,"componentType":5123,"count":3060,"type":"SCALAR"},{"bufferView":23,"componentType":5126,"count":1328,"max":[1.0878974199295044,1.0878974199295044,-0.3499999940395355],"min":[-1.0878974199295044,-1.0878974199295044,-1.899999976158142],"type":"VEC3"},{"bufferView":24,"componentType":5126,"count":1328,"type":"VEC3"},{"bufferView":25,"componentType":5126,"count":1328,"type":"VEC2"},{"bufferView":26,"componentType":5123,"count":6132,"type":"SCALAR"}],"bufferViews":[{"buffer":0,"byteLength":9648,"byteOffset":0,"target":34962},{"buffer":0,"byteLength":9648,"byteOffset":9648,"target":34962},{"buffer":0,"byteLength":6432,"byteOffset":19296,"target":34962},{"buffer":0,"byteLength":6144,"byteOffset":25728,"target":34963},{"buffer":0,"byteLength":9648,"byteOffset":31872,"target":34962},{"buffer":0,"byteLength":9648,"byteOffset":41520,"target":34962},{"buffer":0,"byteLength":6432,"byteOffset":51168,"target":34962},{"buffer":0,"byteLength":9648,"byteOffset":57600,"target":34962},{"buffer":0,"byteLength":9648,"byteOffset":67248,"target":34962},{"buffer":0,"byteLength":6432,"byteOffset":76896,"target":34962},{"buffer":0,"byteLength":6144,"byteOffset":83328,"target":34963},{"buffer":0,"byteLength":384,"byteOffset":89472,"target":34962},{"buffer":0,"byteLength":384,"byteOffset":89856,"target":34962},{"buffer":0,"byteLength":256,"byteOffset":90240,"target":34962},{"buffer":0,"byteLength":144,"byteOffset":90496,"target":34963},{"buffer":0,"byteLength":1008,"byteOffset":90640,"target":34962},{"buffer":0,"byteLength":1008,"byteOffset":91648,"target":34962},{"buffer":0,"byteLength":672,"byteOffset":92656,"target":34962},{"buffer":0,"byteLength":432,"byteOffset":93328,"target":34963},{"buffer":0,"byteLength":7968,"byteOffset":93760,"target":34962},{"buffer":0,"byteLength":7968,"byteOffset":101728,"target":34962},{"buffer":0,"byteLength":5312,"byteOffset":109696,"target":34962},{"buffer":0,"byteLength":6120,"byteOffset":115008,"target":34963},{"buffer":0,"byteLength":15936,"byteOffset":121128,"target":34962},{"buffer":0,"byteLength":15936,"byteOffset":137064,"target":34962},{"buffer":0,"byteLength":10624,"byteOffset":153000,"target":34962},{"buffer":0,"byteLength":12264,"byteOffset":163624,"target":34963}],"buffers":[{"uri":"C09_bronze_bell.bin","byteLength":175888}]}