{"asset":{"generator":"Khronos glTF Blender I/O v5.2.40","version":"2.0"},"extensionsUsed":["KHR_materials_specular"],"scene":0,"scenes":[{"name":"Scene","nodes":[0,1,2,3,4,5,6,7,8,9,10,11,12,13,14,15,16,17,18,19,20,21,22,23,24,25,26,27,28,29,30,31,32,33,34,35,36,37]}],"nodes":[{"mesh":0,"name":"Arch pier block.012","rotation":[0.7071068286895752,0,0,0.7071068286895752]},{"mesh":1,"name":"Arch pier block.013","rotation":[0.7071068286895752,0,0,0.7071068286895752]},{"mesh":2,"name":"Arch pier block.014","rotation":[0.7071068286895752,0,0,0.7071068286895752]},{"mesh":3,"name":"Arch pier block.015","rotation":[0.7071068286895752,0,0,0.7071068286895752]},{"mesh":4,"name":"Arch pier block.016","rotation":[0.7071068286895752,0,0,0.7071068286895752]},{"mesh":5,"name":"Arch pier block.017","rotation":[0.7071068286895752,0,0,0.7071068286895752]},{"mesh":6,"name":"Arch pier block.018","rotation":[0.7071068286895752,0,0,0.7071068286895752]},{"mesh":7,"name":"Arch pier block.019","rotation":[0.7071068286895752,0,0,0.7071068286895752]},{"mesh":8,"name":"Arch pier block.020","rotation":[0.7071068286895752,0,0,0.7071068286895752]},{"mesh":9,"name":"Arch pier block.021","rotation":[0.7071068286895752,0,0,0.7071068286895752]},{"mesh":10,"name":"Arch pier block.022","rotation":[0.7071068286895752,0,0,0.7071068286895752]},{"mesh":11,"name":"Arch pier block.023","rotation":[0.7071068286895752,0,0,0.7071068286895752]},{"mesh":12,"name":"Cut voussoir.022","rotation":[0.7071068286895752,0,0,0.7071068286895752]},{"mesh":13,"name":"Cut voussoir.023","rotation":[0.7071068286895752,0,0,0.7071068286895752]},{"mesh":14,"name":"Cut voussoir.024","rotation":[0.7071068286895752,0,0,0.7071068286895752]},{"mesh":15,"name":"Cut voussoir.025","rotation":[0.7071068286895752,0,0,0.7071068286895752]},{"mesh":16,"name":"Cut voussoir.026","rotation":[0.7071068286895752,0,0,0.7071068286895752]},{"mesh":17,"name":"Cut voussoir.027","rotation":[0.7071068286895752,0,0,0.7071068286895752]},{"mesh":18,"name":"Cut voussoir.028","rotation":[0.7071068286895752,0,0,0.7071068286895752]},{"mesh":19,"name":"Cut voussoir.029","rotation":[0.7071068286895752,0,0,0.7071068286895752]},{"mesh":20,"name":"Cut voussoir.030","rotation":[0.7071068286895752,0,0,0.7071068286895752]},{"mesh":21,"name":"Cut voussoir.031","rotation":[0.7071068286895752,0,0,0.7071068286895752]},{"mesh":22,"name":"Cut voussoir.032","rotation":[0.7071068286895752,0,0,0.7071068286895752]},{"mesh":23,"name":"Cut voussoir.033","rotation":[0.7071068286895752,0,0,0.7071068286895752]},{"mesh":24,"name":"Cut voussoir.034","rotation":[0.7071068286895752,0,0,0.7071068286895752]},{"mesh":25,"name":"Cut voussoir.035","rotation":[0.7071068286895752,0,0,0.7071068286895752]},{"mesh":26,"name":"Cut voussoir.036","rotation":[0.7071068286895752,0,0,0.7071068286895752]},{"mesh":27,"name":"Cut voussoir.037","rotation":[0.7071068286895752,0,0,0.7071068286895752]},{"mesh":28,"name":"Cut voussoir.038","rotation":[0.7071068286895752,0,0,0.7071068286895752]},{"mesh":29,"name":"Cut voussoir.039","rotation":[0.7071068286895752,0,0,0.7071068286895752]},{"mesh":30,"name":"Cut voussoir.040","rotation":[0.7071068286895752,0,0,0.7071068286895752]},{"mesh":31,"name":"Cut voussoir.041","rotation":[0.7071068286895752,0,0,0.7071068286895752]},{"mesh":32,"name":"Cut voussoir.042","rotation":[0.7071068286895752,0,0,0.7071068286895752]},{"mesh":33,"name":"Cut voussoir.043","rotation":[0.7071068286895752,0,0,0.7071068286895752]},{"mesh":34,"name":"Impost.002","rotation":[0.7071068286895752,0,0,0.7071068286895752]},{"mesh":35,"name":"Impost.003","rotation":[0.7071068286895752,0,0,0.7071068286895752]},{"mesh":36,"name":"Pier plinth.002","rotation":[0.7071068286895752,0,0,0.7071068286895752]},{"mesh":37,"name":"Pier plinth.003","rotation":[0.7071068286895752,0,0,0.7071068286895752]}],"materials":[{"doubleSided":true,"extensions":{"KHR_materials_specular":{"specularFactor":0.5}},"name":"Weathered limestone.002","normalTexture":{"index":0,"scale":0.2800000011920929},"pbrMetallicRoughness":{"baseColorTexture":{"index":1},"metallicFactor":0,"metallicRoughnessTexture":{"index":2}}},{"doubleSided":true,"extensions":{"KHR_materials_specular":{"specularFactor":0.5}},"name":"Weathered limestone.002_soot","normalTexture":{"index":3,"scale":0.2800000011920929},"pbrMetallicRoughness":{"baseColorTexture":{"index":4},"metallicFactor":0,"roughnessFactor":0.9700000286102295}},{"doubleSided":true,"extensions":{"KHR_materials_specular":{"specularFactor":0.5}},"name":"Cut limestone trim.002","normalTexture":{"index":5,"scale":0.11999999731779099},"pbrMetallicRoughness":{"baseColorTexture":{"index":6},"metallicFactor":0,"metallicRoughnessTexture":{"index":7}}},{"doubleSided":true,"extensions":{"KHR_materials_specular":{"specularFactor":0.5}},"name":"Cut limestone trim.002_soot","normalTexture":{"index":8,"scale":0.11999999731779099},"pbrMetallicRoughness":{"baseColorTexture":{"index":9},"metallicFactor":0,"roughnessFactor":0.9700000286102295}}],"meshes":[{"name":"Arch pier block.060","primitives":[{"attributes":{"POSITION":0,"NORMAL":1,"TEXCOORD_0":2},"indices":3,"material":0}]},{"name":"Arch pier block.061","primitives":[{"attributes":{"POSITION":4,"NORMAL":5,"TEXCOORD_0":6},"indices":7,"material":0}]},{"name":"Arch pier block.062","primitives":[{"attributes":{"POSITION":8,"NORMAL":9,"TEXCOORD_0":10},"indices":11,"material":1}]},{"name":"Arch pier block.063","primitives":[{"attributes":{"POSITION":12,"NORMAL":13,"TEXCOORD_0":14},"indices":15,"material":0}]},{"name":"Arch pier block.064","primitives":[{"attributes":{"POSITION":16,"NORMAL":17,"TEXCOORD_0":18},"indices":19,"material":1}]},{"name":"Arch pier block.065","primitives":[{"attributes":{"POSITION":20,"NORMAL":21,"TEXCOORD_0":22},"indices":23,"material":0}]},{"name":"Arch pier block.066","primitives":[{"attributes":{"POSITION":24,"NORMAL":25,"TEXCOORD_0":26},"indices":27,"material":0}]},{"name":"Arch pier block.067","primitives":[{"attributes":{"POSITION":28,"NORMAL":29,"TEXCOORD_0":30},"indices":31,"material":0}]},{"name":"Arch pier block.068","primitives":[{"attributes":{"POSITION":32,"NORMAL":33,"TEXCOORD_0":34},"indices":35,"material":1}]},{"name":"Arch pier block.069","primitives":[{"attributes":{"POSITION":36,"NORMAL":37,"TEXCOORD_0":38},"indices":39,"material":0}]},{"name":"Arch pier block.070","primitives":[{"attributes":{"POSITION":40,"NORMAL":41,"TEXCOORD_0":42},"indices":43,"material":0}]},{"name":"Arch pier block.071","primitives":[{"attributes":{"POSITION":44,"NORMAL":45,"TEXCOORD_0":46},"indices":47,"material":0}]},{"name":"Cut voussoir.110","primitives":[{"attributes":{"POSITION":48,"NORMAL":49,"TEXCOORD_0":50},"indices":51,"material":2}]},{"name":"Cut voussoir.111","primitives":[{"attributes":{"POSITION":52,"NORMAL":53,"TEXCOORD_0":54},"indices":55,"material":2}]},{"name":"Cut voussoir.112","primitives":[{"attributes":{"POSITION":56,"NORMAL":57,"TEXCOORD_0":58},"indices":59,"material":2}]},{"name":"Cut voussoir.113","primitives":[{"attributes":{"POSITION":60,"NORMAL":61,"TEXCOORD_0":62},"indices":63,"material":2}]},{"name":"Cut voussoir.114","primitives":[{"attributes":{"POSITION":64,"NORMAL":65,"TEXCOORD_0":66},"indices":67,"material":2}]},{"name":"Cut voussoir.115","primitives":[{"attributes":{"POSITION":68,"NORMAL":69,"TEXCOORD_0":70},"indices":71,"material":2}]},{"name":"Cut voussoir.116","primitives":[{"attributes":{"POSITION":72,"NORMAL":73,"TEXCOORD_0":74},"indices":75,"material":2}]},{"name":"Cut voussoir.117","primitives":[{"attributes":{"POSITION":76,"NORMAL":77,"TEXCOORD_0":78},"indices":79,"material":2}]},{"name":"Cut voussoir.118","primitives":[{"attributes":{"POSITION":80,"NORMAL":81,"TEXCOORD_0":82},"indices":83,"material":2}]},{"name":"Cut voussoir.119","primitives":[{"attributes":{"POSITION":84,"NORMAL":85,"TEXCOORD_0":86},"indices":87,"material":3}]},{"name":"Cut voussoir.120","primitives":[{"attributes":{"POSITION":88,"NORMAL":89,"TEXCOORD_0":90},"indices":91,"material":2}]},{"name":"Cut voussoir.121","primitives":[{"attributes":{"POSITION":92,"NORMAL":93,"TEXCOORD_0":94},"indices":95,"material":2}]},{"name":"Cut voussoir.122","primitives":[{"attributes":{"POSITION":96,"NORMAL":97,"TEXCOORD_0":98},"indices":99,"material":3}]},{"name":"Cut voussoir.123","primitives":[{"attributes":{"POSITION":100,"NORMAL":101,"TEXCOORD_0":102},"indices":103,"material":2}]},{"name":"Cut voussoir.124","primitives":[{"attributes":{"POSITION":104,"NORMAL":105,"TEXCOORD_0":106},"indices":107,"material":2}]},{"name":"Cut voussoir.125","primitives":[{"attributes":{"POSITION":108,"NORMAL":109,"TEXCOORD_0":110},"indices":111,"material":2}]},{"name":"Cut voussoir.126","primitives":[{"attributes":{"POSITION":112,"NORMAL":113,"TEXCOORD_0":114},"indices":115,"material":2}]},{"name":"Cut voussoir.127","primitives":[{"attributes":{"POSITION":116,"NORMAL":117,"TEXCOORD_0":118},"indices":119,"material":2}]},{"name":"Cut voussoir.128","primitives":[{"attributes":{"POSITION":120,"NORMAL":121,"TEXCOORD_0":122},"indices":123,"material":2}]},{"name":"Cut voussoir.129","primitives":[{"attributes":{"POSITION":124,"NORMAL":125,"TEXCOORD_0":126},"indices":127,"material":2}]},{"name":"Cut voussoir.130","primitives":[{"attributes":{"POSITION":128,"NORMAL":129,"TEXCOORD_0":130},"indices":131,"material":2}]},{"name":"Cut voussoir.131","primitives":[{"attributes":{"POSITION":132,"NORMAL":133,"TEXCOORD_0":134},"indices":135,"material":2}]},{"name":"Impost.010","primitives":[{"attributes":{"POSITION":136,"NORMAL":137,"TEXCOORD_0":138},"indices":139,"material":3}]},{"name":"Impost.011","primitives":[{"attributes":{"POSITION":140,"NORMAL":141,"TEXCOORD_0":142},"indices":143,"material":2}]},{"name":"Pier plinth.010","primitives":[{"attributes":{"POSITION":144,"NORMAL":145,"TEXCOORD_0":146},"indices":147,"material":2}]},{"name":"Pier plinth.011","primitives":[{"attributes":{"POSITION":148,"NORMAL":149,"TEXCOORD_0":150},"indices":151,"material":2}]}],"textures":[{"sampler":0,"source":0},{"sampler":0,"source":1},{"sampler":0,"source":2},{"sampler":0,"source":0},{"sampler":0,"source":1},{"sampler":0,"source":0},{"sampler":0,"source":3},{"sampler":0,"source":2},{"sampler":0,"source":0},{"sampler":0,"source":3}],"images":[{"name":"normal","uri":"../textures/111ec8bb85fd34402ad7.png"},{"name":"wall-charcoal","uri":"../textures/ebd4ceb7053513a9ca36.png"},{"name":"roughness","uri":"../textures/c9d4f48b4bf1f93fb137.png"},{"name":"trim-charcoal","uri":"../textures/6d303909ef65238e168a.png"}],"accessors":[{"bufferView":0,"componentType":5126,"count":270,"max":[-1.5950000286102295,0.32499998807907104,-0.009000003337860107],"min":[-2.0450000762939453,-0.32499998807907104,-0.1576666682958603],"type":"VEC3"},{"bufferView":1,"componentType":5126,"count":270,"type":"VEC3"},{"bufferView":2,"componentType":5126,"count":270,"type":"VEC2"},{"bufferView":3,"componentType":5123,"count":564,"type":"SCALAR"},{"bufferView":4,"componentType":5126,"count":266,"max":[-1.5950000286102295,0.32499998807907104,-0.1756666600704193],"min":[-2.0450000762939453,-0.32499998807907104,-0.3243333399295807],"type":"VEC3"},{"bufferView":5,"componentType":5126,"count":266,"type":"VEC3"},{"bufferView":6,"componentType":5126,"count":266,"type":"VEC2"},{"bufferView":7,"componentType":5123,"count":564,"type":"SCALAR"},{"bufferView":8,"componentType":5126,"count":269,"max":[-1.5950000286102295,0.32499998807907104,-0.3423333168029785],"min":[-2.0450000762939453,-0.32499998807907104,-0.4909999966621399],"type":"VEC3"},{"bufferView":9,"componentType":5126,"count":269,"type":"VEC3"},{"bufferView":10,"componentType":5126,"count":269,"type":"VEC2"},{"bufferView":11,"componentType":5123,"count":564,"type":"SCALAR"},{"bufferView":12,"componentType":5126,"count":283,"max":[-1.5950000286102295,0.32499998807907104,-0.5090000033378601],"min":[-2.0450000762939453,-0.32499998807907104,-0.6576666235923767],"type":"VEC3"},{"bufferView":13,"componentType":5126,"count":283,"type":"VEC3"},{"bufferView":14,"componentType":5126,"count":283,"type":"VEC2"},{"bufferView":15,"componentType":5123,"count":564,"type":"SCALAR"},{"bufferView":16,"componentType":5126,"count":276,"max":[-1.5950000286102295,0.32499998807907104,-0.6756666898727417],"min":[-2.0450000762939453,-0.32499998807907104,-0.8243333101272583],"type":"VEC3"},{"bufferView":17,"componentType":5126,"count":276,"type":"VEC3"},{"bufferView":18,"componentType":5126,"count":276,"type":"VEC2"},{"bufferView":19,"componentType":5123,"count":564,"type":"SCALAR"},{"bufferView":20,"componentType":5126,"count":283,"max":[-1.5950000286102295,0.32499998807907104,-0.8423333764076233],"min":[-2.0450000762939453,-0.32499998807907104,-0.9909999966621399],"type":"VEC3"},{"bufferView":21,"componentType":5126,"count":283,"type":"VEC3"},{"bufferView":22,"componentType":5126,"count":283,"type":"VEC2"},{"bufferView":23,"componentType":5123,"count":564,"type":"SCALAR"},{"bufferView":24,"componentType":5126,"count":270,"max":[2.0450000762939453,0.32499998807907104,-0.009000003337860107],"min":[1.5950000286102295,-0.32499998807907104,-0.1576666682958603],"type":"VEC3"},{"bufferView":25,"componentType":5126,"count":270,"type":"VEC3"},{"bufferView":26,"componentType":5126,"count":270,"type":"VEC2"},{"bufferView":27,"componentType":5123,"count":564,"type":"SCALAR"},{"bufferView":28,"componentType":5126,"count":266,"max":[2.0450000762939453,0.32499998807907104,-0.1756666600704193],"min":[1.5950000286102295,-0.32499998807907104,-0.3243333399295807],"type":"VEC3"},{"bufferView":29,"componentType":5126,"count":266,"type":"VEC3"},{"bufferView":30,"componentType":5126,"count":266,"type":"VEC2"},{"bufferView":31,"componentType":5123,"count":564,"type":"SCALAR"},{"bufferView":32,"componentType":5126,"count":270,"max":[2.0450000762939453,0.32499998807907104,-0.3423333168029785],"min":[1.5950000286102295,-0.32499998807907104,-0.4909999966621399],"type":"VEC3"},{"bufferView":33,"componentType":5126,"count":270,"type":"VEC3"},{"bufferView":34,"componentType":5126,"count":270,"type":"VEC2"},{"bufferView":35,"componentType":5123,"count":564,"type":"SCALAR"},{"bufferView":36,"componentType":5126,"count":285,"max":[2.0450000762939453,0.32499998807907104,-0.5090000033378601],"min":[1.5950000286102295,-0.32499998807907104,-0.6576666235923767],"type":"VEC3"},{"bufferView":37,"componentType":5126,"count":285,"type":"VEC3"},{"bufferView":38,"componentType":5126,"count":285,"type":"VEC2"},{"bufferView":39,"componentType":5123,"count":564,"type":"SCALAR"},{"bufferView":40,"componentType":5126,"count":276,"max":[2.0450000762939453,0.32499998807907104,-0.6756666898727417],"min":[1.5950000286102295,-0.32499998807907104,-0.8243333101272583],"type":"VEC3"},{"bufferView":41,"componentType":5126,"count":276,"type":"VEC3"},{"bufferView":42,"componentType":5126,"count":276,"type":"VEC2"},{"bufferView":43,"componentType":5123,"count":564,"type":"SCALAR"},{"bufferView":44,"componentType":5126,"count":283,"max":[2.0450000762939453,0.32499998807907104,-0.8423333764076233],"min":[1.5950000286102295,-0.32499998807907104,-0.9909999966621399],"type":"VEC3"},{"bufferView":45,"componentType":5126,"count":283,"type":"VEC3"},{"bufferView":46,"componentType":5126,"count":283,"type":"VEC2"},{"bufferView":47,"componentType":5123,"count":564,"type":"SCALAR"},{"bufferView":48,"componentType":5126,"count":162,"max":[-1.5837143659591675,0.32499998807907104,-1.0048778057098389],"min":[-1.600000023841858,-0.32499998807907104,-1.522826075553894],"type":"VEC3"},{"bufferView":49,"componentType":5126,"count":162,"type":"VEC3"},{"bufferView":50,"componentType":5126,"count":162,"type":"VEC2"},{"bufferView":51,"componentType":5123,"count":372,"type":"SCALAR"},{"bufferView":52,"componentType":5126,"count":166,"max":[-1.5351887941360474,0.32499998807907104,-1.2350594997406006],"min":[-1.5837143659591675,-0.32499998807907104,-1.7434163093566895],"type":"VEC3"},{"bufferView":53,"componentType":5126,"count":166,"type":"VEC3"},{"bufferView":54,"componentType":5126,"count":166,"type":"VEC2"},{"bufferView":55,"componentType":5123,"count":372,"type":"SCALAR"},{"bufferView":56,"componentType":5126,"count":168,"max":[-1.4554111957550049,0.32499998807907104,-1.4580695629119873],"min":[-1.5351887941360474,-0.32499998807907104,-1.9573664665222168],"type":"VEC3"},{"bufferView":57,"componentType":5126,"count":168,"type":"VEC3"},{"bufferView":58,"componentType":5126,"count":168,"type":"VEC2"},{"bufferView":59,"componentType":5123,"count":372,"type":"SCALAR"},{"bufferView":60,"componentType":5126,"count":164,"max":[-1.3460056781768799,0.32499998807907104,-1.671707034111023],"min":[-1.4554111957550049,-0.32499998807907104,-2.1579818725585938],"type":"VEC3"},{"bufferView":61,"componentType":5126,"count":164,"type":"VEC3"},{"bufferView":62,"componentType":5126,"count":164,"type":"VEC2"},{"bufferView":63,"componentType":5123,"count":372,"type":"SCALAR"},{"bufferView":64,"componentType":5126,"count":258,"max":[-1.20919930934906,0.32499998807907104,-1.8716572523117065],"min":[-1.3460056781768799,-0.32499998807907104,-2.3411450386047363],"type":"VEC3"},{"bufferView":65,"componentType":5126,"count":258,"type":"VEC3"},{"bufferView":66,"componentType":5126,"count":258,"type":"VEC2"},{"bufferView":67,"componentType":5123,"count":564,"type":"SCALAR"},{"bufferView":68,"componentType":5126,"count":264,"max":[-1.0477771759033203,0.32499998807907104,-2.053870677947998],"min":[-1.20919930934906,-0.32499998807907104,-2.503105878829956],"type":"VEC3"},{"bufferView":69,"componentType":5126,"count":264,"type":"VEC3"},{"bufferView":70,"componentType":5126,"count":264,"type":"VEC2"},{"bufferView":71,"componentType":5123,"count":564,"type":"SCALAR"},{"bufferView":72,"componentType":5126,"count":260,"max":[-0.8650252819061279,0.32499998807907104,-2.2135283946990967],"min":[-1.0477771759033203,-0.32499998807907104,-2.641676664352417],"type":"VEC3"},{"bufferView":73,"componentType":5126,"count":260,"type":"VEC3"},{"bufferView":74,"componentType":5126,"count":260,"type":"VEC2"},{"bufferView":75,"componentType":5123,"count":564,"type":"SCALAR"},{"bufferView":76,"componentType":5126,"count":263,"max":[-0.6646640300750732,0.32499998807907104,-2.3500354290008545],"min":[-0.8650252819061279,-0.32499998807907104,-2.7513811588287354],"type":"VEC3"},{"bufferView":77,"componentType":5126,"count":263,"type":"VEC3"},{"bufferView":78,"componentType":5126,"count":263,"type":"VEC2"},{"bufferView":79,"componentType":5123,"count":564,"type":"SCALAR"},{"bufferView":80,"componentType":5126,"count":268,"max":[-0.45077207684516907,0.32499998807907104,-2.4589147567749023],"min":[-0.6646640300750732,-0.32499998807907104,-2.8316855430603027],"type":"VEC3"},{"bufferView":81,"componentType":5126,"count":268,"type":"VEC3"},{"bufferView":82,"componentType":5126,"count":268,"type":"VEC2"},{"bufferView":83,"componentType":5123,"count":564,"type":"SCALAR"},{"bufferView":84,"componentType":5126,"count":253,"max":[-0.2277037352323532,0.32499998807907104,-2.5377395153045654],"min":[-0.45077207684516907,-0.32499998807907104,-2.8811633586883545],"type":"VEC3"},{"bufferView":85,"componentType":5126,"count":253,"type":"VEC3"},{"bufferView":86,"componentType":5126,"count":253,"type":"VEC2"},{"bufferView":87,"componentType":5123,"count":564,"type":"SCALAR"},{"bufferView":88,"componentType":5126,"count":259,"max":[-9.797174158936853e-17,0.32499998807907104,-2.5845704078674316],"min":[-0.2277037352323532,-0.32499998807907104,-2.899143934249878],"type":"VEC3"},{"bufferView":89,"componentType":5126,"count":259,"type":"VEC3"},{"bufferView":90,"componentType":5126,"count":259,"type":"VEC2"},{"bufferView":91,"componentType":5123,"count":564,"type":"SCALAR"},{"bufferView":92,"componentType":5126,"count":261,"max":[0.2277037352323532,0.32499998807907104,-2.5845704078674316],"min":[-9.797174158936853e-17,-0.32499998807907104,-2.899143934249878],"type":"VEC3"},{"bufferView":93,"componentType":5126,"count":261,"type":"VEC3"},{"bufferView":94,"componentType":5126,"count":261,"type":"VEC2"},{"bufferView":95,"componentType":5123,"count":564,"type":"SCALAR"},{"bufferView":96,"componentType":5126,"count":252,"max":[0.45077207684516907,0.32499998807907104,-2.5377395153045654],"min":[0.2277037352323532,-0.32499998807907104,-2.8811633586883545],"type":"VEC3"},{"bufferView":97,"componentType":5126,"count":252,"type":"VEC3"},{"bufferView":98,"componentType":5126,"count":252,"type":"VEC2"},{"bufferView":99,"componentType":5123,"count":564,"type":"SCALAR"},{"bufferView":100,"componentType":5126,"count":265,"max":[0.6646640300750732,0.32499998807907104,-2.4589147567749023],"min":[0.45077207684516907,-0.32499998807907104,-2.8316855430603027],"type":"VEC3"},{"bufferView":101,"componentType":5126,"count":265,"type":"VEC3"},{"bufferView":102,"componentType":5126,"count":265,"type":"VEC2"},{"bufferView":103,"componentType":5123,"count":564,"type":"SCALAR"},{"bufferView":104,"componentType":5126,"count":262,"max":[0.8650252819061279,0.32499998807907104,-2.3500354290008545],"min":[0.6646640300750732,-0.32499998807907104,-2.7513811588287354],"type":"VEC3"},{"bufferView":105,"componentType":5126,"count":262,"type":"VEC3"},{"bufferView":106,"componentType":5126,"count":262,"type":"VEC2"},{"bufferView":107,"componentType":5123,"count":564,"type":"SCALAR"},{"bufferView":108,"componentType":5126,"count":256,"max":[1.0477771759033203,0.32499998807907104,-2.2135283946990967],"min":[0.8650252819061279,-0.32499998807907104,-2.641676664352417],"type":"VEC3"},{"bufferView":109,"componentType":5126,"count":256,"type":"VEC3"},{"bufferView":110,"componentType":5126,"count":256,"type":"VEC2"},{"bufferView":111,"componentType":5123,"count":564,"type":"SCALAR"},{"bufferView":112,"componentType":5126,"count":263,"max":[1.20919930934906,0.32499998807907104,-2.053870677947998],"min":[1.0477771759033203,-0.32499998807907104,-2.503105878829956],"type":"VEC3"},{"bufferView":113,"componentType":5126,"count":263,"type":"VEC3"},{"bufferView":114,"componentType":5126,"count":263,"type":"VEC2"},{"bufferView":115,"componentType":5123,"count":564,"type":"SCALAR"},{"bufferView":116,"componentType":5126,"count":260,"max":[1.3460056781768799,0.32499998807907104,-1.8716572523117065],"min":[1.20919930934906,-0.32499998807907104,-2.3411450386047363],"type":"VEC3"},{"bufferView":117,"componentType":5126,"count":260,"type":"VEC3"},{"bufferView":118,"componentType":5126,"count":260,"type":"VEC2"},{"bufferView":119,"componentType":5123,"count":564,"type":"SCALAR"},{"bufferView":120,"componentType":5126,"count":168,"max":[1.4554111957550049,0.32499998807907104,-1.671707034111023],"min":[1.3460056781768799,-0.32499998807907104,-2.1579818725585938],"type":"VEC3"},{"bufferView":121,"componentType":5126,"count":168,"type":"VEC3"},{"bufferView":122,"componentType":5126,"count":168,"type":"VEC2"},{"bufferView":123,"componentType":5123,"count":372,"type":"SCALAR"},{"bufferView":124,"componentType":5126,"count":170,"max":[1.5351887941360474,0.32499998807907104,-1.4580695629119873],"min":[1.4554111957550049,-0.32499998807907104,-1.9573664665222168],"type":"VEC3"},{"bufferView":125,"componentType":5126,"count":170,"type":"VEC3"},{"bufferView":126,"componentType":5126,"count":170,"type":"VEC2"},{"bufferView":127,"componentType":5123,"count":372,"type":"SCALAR"},{"bufferView":128,"componentType":5126,"count":167,"max":[1.5837143659591675,0.32499998807907104,-1.2350594997406006],"min":[1.5351887941360474,-0.32499998807907104,-1.7434163093566895],"type":"VEC3"},{"bufferView":129,"componentType":5126,"count":167,"type":"VEC3"},{"bufferView":130,"componentType":5126,"count":167,"type":"VEC2"},{"bufferView":131,"componentType":5123,"count":372,"type":"SCALAR"},{"bufferView":132,"componentType":5126,"count":167,"max":[1.600000023841858,0.32499998807907104,-1.0048778057098389],"min":[1.5837143659591675,-0.32499998807907104,-1.522826075553894],"type":"VEC3"},{"bufferView":133,"componentType":5126,"count":167,"type":"VEC3"},{"bufferView":134,"componentType":5126,"count":167,"type":"VEC2"},{"bufferView":135,"componentType":5123,"count":372,"type":"SCALAR"},{"bufferView":136,"componentType":5126,"count":295,"max":[-1.53000009059906,0.4000000059604645,-0.9099999666213989],"min":[-2.1100001335144043,-0.4000000059604645,-1.090000033378601],"type":"VEC3"},{"bufferView":137,"componentType":5126,"count":295,"type":"VEC3"},{"bufferView":138,"componentType":5126,"count":295,"type":"VEC2"},{"bufferView":139,"componentType":5123,"count":564,"type":"SCALAR"},{"bufferView":140,"componentType":5126,"count":294,"max":[2.1100001335144043,0.4000000059604645,-0.9099999666213989],"min":[1.53000009059906,-0.4000000059604645,-1.090000033378601],"type":"VEC3"},{"bufferView":141,"componentType":5126,"count":294,"type":"VEC3"},{"bufferView":142,"componentType":5126,"count":294,"type":"VEC2"},{"bufferView":143,"componentType":5123,"count":564,"type":"SCALAR"},{"bufferView":144,"componentType":5126,"count":507,"max":[-1.4214779138565063,0.39798420667648315,0],"min":[-2.217984199523926,-0.39798420667648315,-0.2800000011920929],"type":"VEC3"},{"bufferView":145,"componentType":5126,"count":507,"type":"VEC3"},{"bufferView":146,"componentType":5126,"count":507,"type":"VEC2"},{"bufferView":147,"componentType":5123,"count":1908,"type":"SCALAR"},{"bufferView":148,"componentType":5126,"count":507,"max":[2.217984199523926,0.39798420667648315,0],"min":[1.4214779138565063,-0.39798420667648315,-0.2800000011920929],"type":"VEC3"},{"bufferView":149,"componentType":5126,"count":507,"type":"VEC3"},{"bufferView":150,"componentType":5126,"count":507,"type":"VEC2"},{"bufferView":151,"componentType":5123,"count":1908,"type":"SCALAR"}],"bufferViews":[{"buffer":0,"byteLength":3240,"byteOffset":0,"target":34962},{"buffer":0,"byteLength":3240,"byteOffset":3240,"target":34962},{"buffer":0,"byteLength":2160,"byteOffset":6480,"target":34962},{"buffer":0,"byteLength":1128,"byteOffset":8640,"target":34963},{"buffer":0,"byteLength":3192,"byteOffset":9768,"target":34962},{"buffer":0,"byteLength":3192,"byteOffset":12960,"target":34962},{"buffer":0,"byteLength":2128,"byteOffset":16152,"target":34962},{"buffer":0,"byteLength":1128,"byteOffset":18280,"target":34963},{"buffer":0,"byteLength":3228,"byteOffset":19408,"target":34962},{"buffer":0,"byteLength":3228,"byteOffset":22636,"target":34962},{"buffer":0,"byteLength":2152,"byteOffset":25864,"target":34962},{"buffer":0,"byteLength":1128,"byteOffset":28016,"target":34963},{"buffer":0,"byteLength":3396,"byteOffset":29144,"target":34962},{"buffer":0,"byteLength":3396,"byteOffset":32540,"target":34962},{"buffer":0,"byteLength":2264,"byteOffset":35936,"target":34962},{"buffer":0,"byteLength":1128,"byteOffset":38200,"target":34963},{"buffer":0,"byteLength":3312,"byteOffset":39328,"target":34962},{"buffer":0,"byteLength":3312,"byteOffset":42640,"target":34962},{"buffer":0,"byteLength":2208,"byteOffset":45952,"target":34962},{"buffer":0,"byteLength":1128,"byteOffset":48160,"target":34963},{"buffer":0,"byteLength":3396,"byteOffset":49288,"target":34962},{"buffer":0,"byteLength":3396,"byteOffset":52684,"target":34962},{"buffer":0,"byteLength":2264,"byteOffset":56080,"target":34962},{"buffer":0,"byteLength":1128,"byteOffset":58344,"target":34963},{"buffer":0,"byteLength":3240,"byteOffset":59472,"target":34962},{"buffer":0,"byteLength":3240,"byteOffset":62712,"target":34962},{"buffer":0,"byteLength":2160,"byteOffset":65952,"target":34962},{"buffer":0,"byteLength":1128,"byteOffset":68112,"target":34963},{"buffer":0,"byteLength":3192,"byteOffset":69240,"target":34962},{"buffer":0,"byteLength":3192,"byteOffset":72432,"target":34962},{"buffer":0,"byteLength":2128,"byteOffset":75624,"target":34962},{"buffer":0,"byteLength":1128,"byteOffset":77752,"target":34963},{"buffer":0,"byteLength":3240,"byteOffset":78880,"target":34962},{"buffer":0,"byteLength":3240,"byteOffset":82120,"target":34962},{"buffer":0,"byteLength":2160,"byteOffset":85360,"target":34962},{"buffer":0,"byteLength":1128,"byteOffset":87520,"target":34963},{"buffer":0,"byteLength":3420,"byteOffset":88648,"target":34962},{"buffer":0,"byteLength":3420,"byteOffset":92068,"target":34962},{"buffer":0,"byteLength":2280,"byteOffset":95488,"target":34962},{"buffer":0,"byteLength":1128,"byteOffset":97768,"target":34963},{"buffer":0,"byteLength":3312,"byteOffset":98896,"target":34962},{"buffer":0,"byteLength":3312,"byteOffset":102208,"target":34962},{"buffer":0,"byteLength":2208,"byteOffset":105520,"target":34962},{"buffer":0,"byteLength":1128,"byteOffset":107728,"target":34963},{"buffer":0,"byteLength":3396,"byteOffset":108856,"target":34962},{"buffer":0,"byteLength":3396,"byteOffset":112252,"target":34962},{"buffer":0,"byteLength":2264,"byteOffset":115648,"target":34962},{"buffer":0,"byteLength":1128,"byteOffset":117912,"target":34963},{"buffer":0,"byteLength":1944,"byteOffset":119040,"target":34962},{"buffer":0,"byteLength":1944,"byteOffset":120984,"target":34962},{"buffer":0,"byteLength":1296,"byteOffset":122928,"target":34962},{"buffer":0,"byteLength":744,"byteOffset":124224,"target":34963},{"buffer":0,"byteLength":1992,"byteOffset":124968,"target":34962},{"buffer":0,"byteLength":1992,"byteOffset":126960,"target":34962},{"buffer":0,"byteLength":1328,"byteOffset":128952,"target":34962},{"buffer":0,"byteLength":744,"byteOffset":130280,"target":34963},{"buffer":0,"byteLength":2016,"byteOffset":131024,"target":34962},{"buffer":0,"byteLength":2016,"byteOffset":133040,"target":34962},{"buffer":0,"byteLength":1344,"byteOffset":135056,"target":34962},{"buffer":0,"byteLength":744,"byteOffset":136400,"target":34963},{"buffer":0,"byteLength":1968,"byteOffset":137144,"target":34962},{"buffer":0,"byteLength":1968,"byteOffset":139112,"target":34962},{"buffer":0,"byteLength":1312,"byteOffset":141080,"target":34962},{"buffer":0,"byteLength":744,"byteOffset":142392,"target":34963},{"buffer":0,"byteLength":3096,"byteOffset":143136,"target":34962},{"buffer":0,"byteLength":3096,"byteOffset":146232,"target":34962},{"buffer":0,"byteLength":2064,"byteOffset":149328,"target":34962},{"buffer":0,"byteLength":1128,"byteOffset":151392,"target":34963},{"buffer":0,"byteLength":3168,"byteOffset":152520,"target":34962},{"buffer":0,"byteLength":3168,"byteOffset":155688,"target":34962},{"buffer":0,"byteLength":2112,"byteOffset":158856,"target":34962},{"buffer":0,"byteLength":1128,"byteOffset":160968,"target":34963},{"buffer":0,"byteLength":3120,"byteOffset":162096,"target":34962},{"buffer":0,"byteLength":3120,"byteOffset":165216,"target":34962},{"buffer":0,"byteLength":2080,"byteOffset":168336,"target":34962},{"buffer":0,"byteLength":1128,"byteOffset":170416,"target":34963},{"buffer":0,"byteLength":3156,"byteOffset":171544,"target":34962},{"buffer":0,"byteLength":3156,"byteOffset":174700,"target":34962},{"buffer":0,"byteLength":2104,"byteOffset":177856,"target":34962},{"buffer":0,"byteLength":1128,"byteOffset":179960,"target":34963},{"buffer":0,"byteLength":3216,"byteOffset":181088,"target":34962},{"buffer":0,"byteLength":3216,"byteOffset":184304,"target":34962},{"buffer":0,"byteLength":2144,"byteOffset":187520,"target":34962},{"buffer":0,"byteLength":1128,"byteOffset":189664,"target":34963},{"buffer":0,"byteLength":3036,"byteOffset":190792,"target":34962},{"buffer":0,"byteLength":3036,"byteOffset":193828,"target":34962},{"buffer":0,"byteLength":2024,"byteOffset":196864,"target":34962},{"buffer":0,"byteLength":1128,"byteOffset":198888,"target":34963},{"buffer":0,"byteLength":3108,"byteOffset":200016,"target":34962},{"buffer":0,"byteLength":3108,"byteOffset":203124,"target":34962},{"buffer":0,"byteLength":2072,"byteOffset":206232,"target":34962},{"buffer":0,"byteLength":1128,"byteOffset":208304,"target":34963},{"buffer":0,"byteLength":3132,"byteOffset":209432,"target":34962},{"buffer":0,"byteLength":3132,"byteOffset":212564,"target":34962},{"buffer":0,"byteLength":2088,"byteOffset":215696,"target":34962},{"buffer":0,"byteLength":1128,"byteOffset":217784,"target":34963},{"buffer":0,"byteLength":3024,"byteOffset":218912,"target":34962},{"buffer":0,"byteLength":3024,"byteOffset":221936,"target":34962},{"buffer":0,"byteLength":2016,"byteOffset":224960,"target":34962},{"buffer":0,"byteLength":1128,"byteOffset":226976,"target":34963},{"buffer":0,"byteLength":3180,"byteOffset":228104,"target":34962},{"buffer":0,"byteLength":3180,"byteOffset":231284,"target":34962},{"buffer":0,"byteLength":2120,"byteOffset":234464,"target":34962},{"buffer":0,"byteLength":1128,"byteOffset":236584,"target":34963},{"buffer":0,"byteLength":3144,"byteOffset":237712,"target":34962},{"buffer":0,"byteLength":3144,"byteOffset":240856,"target":34962},{"buffer":0,"byteLength":2096,"byteOffset":244000,"target":34962},{"buffer":0,"byteLength":1128,"byteOffset":246096,"target":34963},{"buffer":0,"byteLength":3072,"byteOffset":247224,"target":34962},{"buffer":0,"byteLength":3072,"byteOffset":250296,"target":34962},{"buffer":0,"byteLength":2048,"byteOffset":253368,"target":34962},{"buffer":0,"byteLength":1128,"byteOffset":255416,"target":34963},{"buffer":0,"byteLength":3156,"byteOffset":256544,"target":34962},{"buffer":0,"byteLength":3156,"byteOffset":259700,"target":34962},{"buffer":0,"byteLength":2104,"byteOffset":262856,"target":34962},{"buffer":0,"byteLength":1128,"byteOffset":264960,"target":34963},{"buffer":0,"byteLength":3120,"byteOffset":266088,"target":34962},{"buffer":0,"byteLength":3120,"byteOffset":269208,"target":34962},{"buffer":0,"byteLength":2080,"byteOffset":272328,"target":34962},{"buffer":0,"byteLength":1128,"byteOffset":274408,"target":34963},{"buffer":0,"byteLength":2016,"byteOffset":275536,"target":34962},{"buffer":0,"byteLength":2016,"byteOffset":277552,"target":34962},{"buffer":0,"byteLength":1344,"byteOffset":279568,"target":34962},{"buffer":0,"byteLength":744,"byteOffset":280912,"target":34963},{"buffer":0,"byteLength":2040,"byteOffset":281656,"target":34962},{"buffer":0,"byteLength":2040,"byteOffset":283696,"target":34962},{"buffer":0,"byteLength":1360,"byteOffset":285736,"target":34962},{"buffer":0,"byteLength":744,"byteOffset":287096,"target":34963},{"buffer":0,"byteLength":2004,"byteOffset":287840,"target":34962},{"buffer":0,"byteLength":2004,"byteOffset":289844,"target":34962},{"buffer":0,"byteLength":1336,"byteOffset":291848,"target":34962},{"buffer":0,"byteLength":744,"byteOffset":293184,"target":34963},{"buffer":0,"byteLength":2004,"byteOffset":293928,"target":34962},{"buffer":0,"byteLength":2004,"byteOffset":295932,"target":34962},{"buffer":0,"byteLength":1336,"byteOffset":297936,"target":34962},{"buffer":0,"byteLength":744,"byteOffset":299272,"target":34963},{"buffer":0,"byteLength":3540,"byteOffset":300016,"target":34962},{"buffer":0,"byteLength":3540,"byteOffset":303556,"target":34962},{"buffer":0,"byteLength":2360,"byteOffset":307096,"target":34962},{"buffer":0,"byteLength":1128,"byteOffset":309456,"target":34963},{"buffer":0,"byteLength":3528,"byteOffset":310584,"target":34962},{"buffer":0,"byteLength":3528,"byteOffset":314112,"target":34962},{"buffer":0,"byteLength":2352,"byteOffset":317640,"target":34962},{"buffer":0,"byteLength":1128,"byteOffset":319992,"target":34963},{"buffer":0,"byteLength":6084,"byteOffset":321120,"target":34962},{"buffer":0,"byteLength":6084,"byteOffset":327204,"target":34962},{"buffer":0,"byteLength":4056,"byteOffset":333288,"target":34962},{"buffer":0,"byteLength":3816,"byteOffset":337344,"target":34963},{"buffer":0,"byteLength":6084,"byteOffset":341160,"target":34962},{"buffer":0,"byteLength":6084,"byteOffset":347244,"target":34962},{"buffer":0,"byteLength":4056,"byteOffset":353328,"target":34962},{"buffer":0,"byteLength":3816,"byteOffset":357384,"target":34963}],"samplers":[{"magFilter":9729,"minFilter":9987}],"buffers":[{"uri":"C10_low_arch.bin","byteLength":361200}]}