{"asset":{"generator":"Khronos glTF Blender I/O v5.2.40","version":"2.0"},"scene":0,"scenes":[{"name":"Scene","nodes":[0,1,2,3,4,5,6,7,8,9,10]}],"nodes":[{"mesh":0,"name":"Gate bar","rotation":[0.7071068286895752,0,0,0.7071068286895752]},{"mesh":1,"name":"Gate bar.001","rotation":[0.7071068286895752,0,0,0.7071068286895752]},{"mesh":2,"name":"Gate bar.002","rotation":[0.7071068286895752,0,0,0.7071068286895752]},{"mesh":3,"name":"Gate bar.003","rotation":[0.7071068286895752,0,0,0.7071068286895752]},{"mesh":4,"name":"Gate bar.004","rotation":[0.7071068286895752,0,0,0.7071068286895752]},{"mesh":5,"name":"Gate bar.005","rotation":[0.7071068286895752,0,0,0.7071068286895752]},{"mesh":6,"name":"Gate bar.006","rotation":[0.7071068286895752,0,0,0.7071068286895752]},{"mesh":7,"name":"Gate bar.007","rotation":[0.7071068286895752,0,0,0.7071068286895752]},{"mesh":8,"name":"Gate bar.008","rotation":[0.7071068286895752,0,0,0.7071068286895752]},{"mesh":9,"name":"Gate bar.009","rotation":[0.7071068286895752,0,0,0.7071068286895752]},{"mesh":10,"name":"Gate bar.010","rotation":[0.7071068286895752,0,0,0.7071068286895752]}],"materials":[{"doubleSided":true,"name":"Forged iron.002","pbrMetallicRoughness":{"baseColorFactor":[0.04699999839067459,0.054999999701976776,0.04800000041723251,1],"metallicFactor":0.699999988079071,"roughnessFactor":0.6200000047683716}}],"meshes":[{"name":"Gate bar.022","primitives":[{"attributes":{"POSITION":0,"NORMAL":1,"TEXCOORD_0":2},"indices":3,"material":0}]},{"name":"Gate bar.023","primitives":[{"attributes":{"POSITION":4,"NORMAL":5,"TEXCOORD_0":6},"indices":7,"material":0}]},{"name":"Gate bar.024","primitives":[{"attributes":{"POSITION":8,"NORMAL":9,"TEXCOORD_0":10},"indices":11,"material":0}]},{"name":"Gate bar.025","primitives":[{"attributes":{"POSITION":12,"NORMAL":13,"TEXCOORD_0":14},"indices":15,"material":0}]},{"name":"Gate bar.026","primitives":[{"attributes":{"POSITION":16,"NORMAL":17,"TEXCOORD_0":18},"indices":19,"material":0}]},{"name":"Gate bar.027","primitives":[{"attributes":{"POSITION":20,"NORMAL":21,"TEXCOORD_0":22},"indices":23,"material":0}]},{"name":"Gate bar.028","primitives":[{"attributes":{"POSITION":24,"NORMAL":25,"TEXCOORD_0":26},"indices":27,"material":0}]},{"name":"Gate bar.029","primitives":[{"attributes":{"POSITION":28,"NORMAL":29,"TEXCOORD_0":30},"indices":31,"material":0}]},{"name":"Gate bar.030","primitives":[{"attributes":{"POSITION":32,"NORMAL":33,"TEXCOORD_0":34},"indices":35,"material":0}]},{"name":"Gate bar.031","primitives":[{"attributes":{"POSITION":36,"NORMAL":37,"TEXCOORD_0":38},"indices":39,"material":0}]},{"name":"Gate bar.032","primitives":[{"attributes":{"POSITION":40,"NORMAL":41,"TEXCOORD_0":42},"indices":43,"material":0}]}],"accessors":[{"bufferView":0,"componentType":5126,"count":304,"max":[-1.5700000524520874,0.029999999329447746,0],"min":[-1.6299999952316284,-0.029999999329447746,-3],"type":"VEC3"},{"bufferView":1,"componentType":5126,"count":304,"type":"VEC3"},{"bufferView":2,"componentType":5126,"count":304,"type":"VEC2"},{"bufferView":3,"componentType":5123,"count":564,"type":"SCALAR"},{"bufferView":4,"componentType":5126,"count":317,"max":[-1.25,0.029999999329447746,0],"min":[-1.309999942779541,-0.029999999329447746,-3],"type":"VEC3"},{"bufferView":5,"componentType":5126,"count":317,"type":"VEC3"},{"bufferView":6,"componentType":5126,"count":317,"type":"VEC2"},{"bufferView":7,"componentType":5123,"count":564,"type":"SCALAR"},{"bufferView":8,"componentType":5126,"count":309,"max":[-0.9300000071525574,0.029999999329447746,0],"min":[-0.9899999499320984,-0.029999999329447746,-3],"type":"VEC3"},{"bufferView":9,"componentType":5126,"count":309,"type":"VEC3"},{"bufferView":10,"componentType":5126,"count":309,"type":"VEC2"},{"bufferView":11,"componentType":5123,"count":564,"type":"SCALAR"},{"bufferView":12,"componentType":5126,"count":316,"max":[-0.6100000143051147,0.029999999329447746,0],"min":[-0.6699999570846558,-0.029999999329447746,-3],"type":"VEC3"},{"bufferView":13,"componentType":5126,"count":316,"type":"VEC3"},{"bufferView":14,"componentType":5126,"count":316,"type":"VEC2"},{"bufferView":15,"componentType":5123,"count":564,"type":"SCALAR"},{"bufferView":16,"componentType":5126,"count":320,"max":[-0.28999999165534973,0.029999999329447746,0],"min":[-0.3499999940395355,-0.029999999329447746,-3],"type":"VEC3"},{"bufferView":17,"componentType":5126,"count":320,"type":"VEC3"},{"bufferView":18,"componentType":5126,"count":320,"type":"VEC2"},{"bufferView":19,"componentType":5123,"count":564,"type":"SCALAR"},{"bufferView":20,"componentType":5126,"count":320,"max":[0.029999999329447746,0.029999999329447746,0],"min":[-0.029999999329447746,-0.029999999329447746,-3],"type":"VEC3"},{"bufferView":21,"componentType":5126,"count":320,"type":"VEC3"},{"bufferView":22,"componentType":5126,"count":320,"type":"VEC2"},{"bufferView":23,"componentType":5123,"count":564,"type":"SCALAR"},{"bufferView":24,"componentType":5126,"count":322,"max":[0.3499999940395355,0.029999999329447746,0],"min":[0.28999999165534973,-0.029999999329447746,-3],"type":"VEC3"},{"bufferView":25,"componentType":5126,"count":322,"type":"VEC3"},{"bufferView":26,"componentType":5126,"count":322,"type":"VEC2"},{"bufferView":27,"componentType":5123,"count":564,"type":"SCALAR"},{"bufferView":28,"componentType":5126,"count":318,"max":[0.6699999570846558,0.029999999329447746,0],"min":[0.6100000143051147,-0.029999999329447746,-3],"type":"VEC3"},{"bufferView":29,"componentType":5126,"count":318,"type":"VEC3"},{"bufferView":30,"componentType":5126,"count":318,"type":"VEC2"},{"bufferView":31,"componentType":5123,"count":564,"type":"SCALAR"},{"bufferView":32,"componentType":5126,"count":310,"max":[0.9899999499320984,0.029999999329447746,0],"min":[0.9300000071525574,-0.029999999329447746,-3],"type":"VEC3"},{"bufferView":33,"componentType":5126,"count":310,"type":"VEC3"},{"bufferView":34,"componentType":5126,"count":310,"type":"VEC2"},{"bufferView":35,"componentType":5123,"count":564,"type":"SCALAR"},{"bufferView":36,"componentType":5126,"count":316,"max":[1.309999942779541,0.029999999329447746,0],"min":[1.25,-0.029999999329447746,-3],"type":"VEC3"},{"bufferView":37,"componentType":5126,"count":316,"type":"VEC3"},{"bufferView":38,"componentType":5126,"count":316,"type":"VEC2"},{"bufferView":39,"componentType":5123,"count":564,"type":"SCALAR"},{"bufferView":40,"componentType":5126,"count":308,"max":[1.6299999952316284,0.029999999329447746,0],"min":[1.5700000524520874,-0.029999999329447746,-3],"type":"VEC3"},{"bufferView":41,"componentType":5126,"count":308,"type":"VEC3"},{"bufferView":42,"componentType":5126,"count":308,"type":"VEC2"},{"bufferView":43,"componentType":5123,"count":564,"type":"SCALAR"}],"bufferViews":[{"buffer":0,"byteLength":3648,"byteOffset":0,"target":34962},{"buffer":0,"byteLength":3648,"byteOffset":3648,"target":34962},{"buffer":0,"byteLength":2432,"byteOffset":7296,"target":34962},{"buffer":0,"byteLength":1128,"byteOffset":9728,"target":34963},{"buffer":0,"byteLength":3804,"byteOffset":10856,"target":34962},{"buffer":0,"byteLength":3804,"byteOffset":14660,"target":34962},{"buffer":0,"byteLength":2536,"byteOffset":18464,"target":34962},{"buffer":0,"byteLength":1128,"byteOffset":21000,"target":34963},{"buffer":0,"byteLength":3708,"byteOffset":22128,"target":34962},{"buffer":0,"byteLength":3708,"byteOffset":25836,"target":34962},{"buffer":0,"byteLength":2472,"byteOffset":29544,"target":34962},{"buffer":0,"byteLength":1128,"byteOffset":32016,"target":34963},{"buffer":0,"byteLength":3792,"byteOffset":33144,"target":34962},{"buffer":0,"byteLength":3792,"byteOffset":36936,"target":34962},{"buffer":0,"byteLength":2528,"byteOffset":40728,"target":34962},{"buffer":0,"byteLength":1128,"byteOffset":43256,"target":34963},{"buffer":0,"byteLength":3840,"byteOffset":44384,"target":34962},{"buffer":0,"byteLength":3840,"byteOffset":48224,"target":34962},{"buffer":0,"byteLength":2560,"byteOffset":52064,"target":34962},{"buffer":0,"byteLength":1128,"byteOffset":54624,"target":34963},{"buffer":0,"byteLength":3840,"byteOffset":55752,"target":34962},{"buffer":0,"byteLength":3840,"byteOffset":59592,"target":34962},{"buffer":0,"byteLength":2560,"byteOffset":63432,"target":34962},{"buffer":0,"byteLength":1128,"byteOffset":65992,"target":34963},{"buffer":0,"byteLength":3864,"byteOffset":67120,"target":34962},{"buffer":0,"byteLength":3864,"byteOffset":70984,"target":34962},{"buffer":0,"byteLength":2576,"byteOffset":74848,"target":34962},{"buffer":0,"byteLength":1128,"byteOffset":77424,"target":34963},{"buffer":0,"byteLength":3816,"byteOffset":78552,"target":34962},{"buffer":0,"byteLength":3816,"byteOffset":82368,"target":34962},{"buffer":0,"byteLength":2544,"byteOffset":86184,"target":34962},{"buffer":0,"byteLength":1128,"byteOffset":88728,"target":34963},{"buffer":0,"byteLength":3720,"byteOffset":89856,"target":34962},{"buffer":0,"byteLength":3720,"byteOffset":93576,"target":34962},{"buffer":0,"byteLength":2480,"byteOffset":97296,"target":34962},{"buffer":0,"byteLength":1128,"byteOffset":99776,"target":34963},{"buffer":0,"byteLength":3792,"byteOffset":100904,"target":34962},{"buffer":0,"byteLength":3792,"byteOffset":104696,"target":34962},{"buffer":0,"byteLength":2528,"byteOffset":108488,"target":34962},{"buffer":0,"byteLength":1128,"byteOffset":111016,"target":34963},{"buffer":0,"byteLength":3696,"byteOffset":112144,"target":34962},{"buffer":0,"byteLength":3696,"byteOffset":115840,"target":34962},{"buffer":0,"byteLength":2464,"byteOffset":119536,"target":34962},{"buffer":0,"byteLength":1128,"byteOffset":122000,"target":34963}],"buffers":[{"uri":"C12_iron_gate.bin","byteLength":123128}]}