{"asset":{"generator":"Khronos glTF Blender I/O v5.2.40","version":"2.0"},"scene":0,"scenes":[{"name":"Scene","nodes":[0,1,2,3,4,5,6,7,8]}],"nodes":[{"mesh":0,"name":"Bell bearing band","rotation":[0.7071068286895752,0,0,0.7071068286895752]},{"mesh":1,"name":"Bell bearing band.001","rotation":[0.7071068286895752,0,0,0.7071068286895752]},{"mesh":2,"name":"Bell bearing crossbeam","rotation":[0.7071068286895752,0,0,0.7071068286895752]},{"mesh":3,"name":"Bell tower oak upright","rotation":[0.7071068286895752,0,0,0.7071068286895752]},{"mesh":4,"name":"Bell tower oak upright.001","rotation":[0.7071068286895752,0,0,0.7071068286895752]},{"mesh":5,"name":"Diagonal iron brace","rotation":[0.7071068286895752,0,0,0.7071068286895752]},{"mesh":6,"name":"Diagonal iron brace.001","rotation":[0.7071068286895752,0,0,0.7071068286895752]},{"mesh":7,"name":"Oak end plate","rotation":[0.7071068286895752,0,0,0.7071068286895752]},{"mesh":8,"name":"Oak end plate.001","rotation":[0.7071068286895752,0,0,0.7071068286895752]}],"materials":[{"doubleSided":true,"name":"Forged iron.002","pbrMetallicRoughness":{"baseColorFactor":[0.04699999839067459,0.054999999701976776,0.04800000041723251,1],"metallicFactor":0.699999988079071,"roughnessFactor":0.6200000047683716}},{"doubleSided":true,"name":"Split oak.002","normalTexture":{"index":0,"scale":0.699999988079071},"pbrMetallicRoughness":{"baseColorTexture":{"index":1},"metallicFactor":0,"metallicRoughnessTexture":{"index":2}}}],"meshes":[{"name":"Bell bearing band.002","primitives":[{"attributes":{"POSITION":0,"NORMAL":1,"TEXCOORD_0":2},"indices":3,"material":0}]},{"name":"Bell bearing band.003","primitives":[{"attributes":{"POSITION":4,"NORMAL":5,"TEXCOORD_0":6},"indices":7,"material":0}]},{"name":"Bell bearing crossbeam.001","primitives":[{"attributes":{"POSITION":8,"NORMAL":9,"TEXCOORD_0":10},"indices":11,"material":1}]},{"name":"Bell tower oak upright.002","primitives":[{"attributes":{"POSITION":12,"NORMAL":13,"TEXCOORD_0":14},"indices":15,"material":1}]},{"name":"Bell tower oak upright.003","primitives":[{"attributes":{"POSITION":16,"NORMAL":17,"TEXCOORD_0":18},"indices":19,"material":1}]},{"name":"Diagonal iron brace.002","primitives":[{"attributes":{"POSITION":20,"NORMAL":21,"TEXCOORD_0":22},"indices":23,"material":0}]},{"name":"Diagonal iron brace.003","primitives":[{"attributes":{"POSITION":24,"NORMAL":25,"TEXCOORD_0":26},"indices":27,"material":0}]},{"name":"Oak end plate.002","primitives":[{"attributes":{"POSITION":28,"NORMAL":29,"TEXCOORD_0":30},"indices":31,"material":0}]},{"name":"Oak end plate.003","primitives":[{"attributes":{"POSITION":32,"NORMAL":33,"TEXCOORD_0":34},"indices":35,"material":0}]}],"textures":[{"sampler":0,"source":0},{"sampler":0,"source":1},{"sampler":0,"source":2}],"images":[{"name":"normal","uri":"../textures/646b8954cd0f77aa31f9.png"},{"name":"albedo","uri":"../textures/c0324d2c3cfe6a395089.png"},{"name":"roughness","uri":"../textures/42487829eda8d1ae4111.png"}],"accessors":[{"bufferView":0,"componentType":5126,"count":260,"max":[-0.2549999952316284,0.25,-3.005000114440918],"min":[-0.3450000286102295,-0.25,-3.3949999809265137],"type":"VEC3"},{"bufferView":1,"componentType":5126,"count":260,"type":"VEC3"},{"bufferView":2,"componentType":5126,"count":260,"type":"VEC2"},{"bufferView":3,"componentType":5123,"count":564,"type":"SCALAR"},{"bufferView":4,"componentType":5126,"count":261,"max":[0.3450000286102295,0.25,-3.005000114440918],"min":[0.2549999952316284,-0.25,-3.3949999809265137],"type":"VEC3"},{"bufferView":5,"componentType":5126,"count":261,"type":"VEC3"},{"bufferView":6,"componentType":5126,"count":261,"type":"VEC2"},{"bufferView":7,"componentType":5123,"count":564,"type":"SCALAR"},{"bufferView":8,"componentType":5126,"count":335,"max":[1.625,0.22499999403953552,-3.0299999713897705],"min":[-1.625,-0.22499999403953552,-3.370000123977661],"type":"VEC3"},{"bufferView":9,"componentType":5126,"count":335,"type":"VEC3"},{"bufferView":10,"componentType":5126,"count":335,"type":"VEC2"},{"bufferView":11,"componentType":5123,"count":564,"type":"SCALAR"},{"bufferView":12,"componentType":5126,"count":278,"max":[-1.2000000476837158,0.17000000178813934,0],"min":[-1.5,-0.17000000178813934,-3.299999952316284],"type":"VEC3"},{"bufferView":13,"componentType":5126,"count":278,"type":"VEC3"},{"bufferView":14,"componentType":5126,"count":278,"type":"VEC2"},{"bufferView":15,"componentType":5123,"count":564,"type":"SCALAR"},{"bufferView":16,"componentType":5126,"count":279,"max":[1.5,0.17000000178813934,0],"min":[1.2000000476837158,-0.17000000178813934,-3.299999952316284],"type":"VEC3"},{"bufferView":17,"componentType":5126,"count":279,"type":"VEC3"},{"bufferView":18,"componentType":5126,"count":279,"type":"VEC2"},{"bufferView":19,"componentType":5123,"count":564,"type":"SCALAR"},{"bufferView":20,"componentType":5126,"count":32,"max":[-0.3811091184616089,0.05499999597668648,-2.211109161376953],"min":[-1.3888908624649048,-0.05499999597668648,-3.218890905380249],"type":"VEC3"},{"bufferView":21,"componentType":5126,"count":32,"type":"VEC3"},{"bufferView":22,"componentType":5126,"count":32,"type":"VEC2"},{"bufferView":23,"componentType":5123,"count":72,"type":"SCALAR"},{"bufferView":24,"componentType":5126,"count":32,"max":[1.3888908624649048,0.05499999597668648,-2.211109161376953],"min":[0.3811091184616089,-0.05499999597668648,-3.218890905380249],"type":"VEC3"},{"bufferView":25,"componentType":5126,"count":32,"type":"VEC3"},{"bufferView":26,"componentType":5126,"count":32,"type":"VEC2"},{"bufferView":27,"componentType":5123,"count":72,"type":"SCALAR"},{"bufferView":28,"componentType":5126,"count":282,"max":[-1.0750000476837158,0.28999999165534973,-0.019999995827674866],"min":[-1.625,-0.28999999165534973,-0.30000001192092896],"type":"VEC3"},{"bufferView":29,"componentType":5126,"count":282,"type":"VEC3"},{"bufferView":30,"componentType":5126,"count":282,"type":"VEC2"},{"bufferView":31,"componentType":5123,"count":564,"type":"SCALAR"},{"bufferView":32,"componentType":5126,"count":283,"max":[1.625,0.28999999165534973,-0.019999995827674866],"min":[1.0750000476837158,-0.28999999165534973,-0.30000001192092896],"type":"VEC3"},{"bufferView":33,"componentType":5126,"count":283,"type":"VEC3"},{"bufferView":34,"componentType":5126,"count":283,"type":"VEC2"},{"bufferView":35,"componentType":5123,"count":564,"type":"SCALAR"}],"bufferViews":[{"buffer":0,"byteLength":3120,"byteOffset":0,"target":34962},{"buffer":0,"byteLength":3120,"byteOffset":3120,"target":34962},{"buffer":0,"byteLength":2080,"byteOffset":6240,"target":34962},{"buffer":0,"byteLength":1128,"byteOffset":8320,"target":34963},{"buffer":0,"byteLength":3132,"byteOffset":9448,"target":34962},{"buffer":0,"byteLength":3132,"byteOffset":12580,"target":34962},{"buffer":0,"byteLength":2088,"byteOffset":15712,"target":34962},{"buffer":0,"byteLength":1128,"byteOffset":17800,"target":34963},{"buffer":0,"byteLength":4020,"byteOffset":18928,"target":34962},{"buffer":0,"byteLength":4020,"byteOffset":22948,"target":34962},{"buffer":0,"byteLength":2680,"byteOffset":26968,"target":34962},{"buffer":0,"byteLength":1128,"byteOffset":29648,"target":34963},{"buffer":0,"byteLength":3336,"byteOffset":30776,"target":34962},{"buffer":0,"byteLength":3336,"byteOffset":34112,"target":34962},{"buffer":0,"byteLength":2224,"byteOffset":37448,"target":34962},{"buffer":0,"byteLength":1128,"byteOffset":39672,"target":34963},{"buffer":0,"byteLength":3348,"byteOffset":40800,"target":34962},{"buffer":0,"byteLength":3348,"byteOffset":44148,"target":34962},{"buffer":0,"byteLength":2232,"byteOffset":47496,"target":34962},{"buffer":0,"byteLength":1128,"byteOffset":49728,"target":34963},{"buffer":0,"byteLength":384,"byteOffset":50856,"target":34962},{"buffer":0,"byteLength":384,"byteOffset":51240,"target":34962},{"buffer":0,"byteLength":256,"byteOffset":51624,"target":34962},{"buffer":0,"byteLength":144,"byteOffset":51880,"target":34963},{"buffer":0,"byteLength":384,"byteOffset":52024,"target":34962},{"buffer":0,"byteLength":384,"byteOffset":52408,"target":34962},{"buffer":0,"byteLength":256,"byteOffset":52792,"target":34962},{"buffer":0,"byteLength":144,"byteOffset":53048,"target":34963},{"buffer":0,"byteLength":3384,"byteOffset":53192,"target":34962},{"buffer":0,"byteLength":3384,"byteOffset":56576,"target":34962},{"buffer":0,"byteLength":2256,"byteOffset":59960,"target":34962},{"buffer":0,"byteLength":1128,"byteOffset":62216,"target":34963},{"buffer":0,"byteLength":3396,"byteOffset":63344,"target":34962},{"buffer":0,"byteLength":3396,"byteOffset":66740,"target":34962},{"buffer":0,"byteLength":2264,"byteOffset":70136,"target":34962},{"buffer":0,"byteLength":1128,"byteOffset":72400,"target":34963}],"samplers":[{"magFilter":9729,"minFilter":9987}],"buffers":[{"uri":"C13_bell_frame.bin","byteLength":73528}]}