{"asset":{"generator":"Khronos glTF Blender I/O v5.2.40","version":"2.0"},"extensionsUsed":["KHR_materials_specular"],"scene":0,"scenes":[{"name":"Scene","nodes":[0,1,2,3,4,5,6,7,8,9,10,11,12,13,14,15,16,17,18,19,20,21,22,23,24,25,26,27,28,29]}],"nodes":[{"mesh":0,"name":"Iron crossbar","rotation":[0.7071068286895752,0,0,0.7071068286895752]},{"mesh":1,"name":"Iron window mullion","rotation":[0.7071068286895752,0,0,0.7071068286895752]},{"mesh":2,"name":"Iron window mullion.001","rotation":[0.7071068286895752,0,0,0.7071068286895752]},{"mesh":3,"name":"Iron window mullion.002","rotation":[0.7071068286895752,0,0,0.7071068286895752]},{"mesh":4,"name":"Window jamb","rotation":[0.7071068286895752,0,0,0.7071068286895752]},{"mesh":5,"name":"Window jamb.001","rotation":[0.7071068286895752,0,0,0.7071068286895752]},{"mesh":6,"name":"Window lintel","rotation":[0.7071068286895752,0,0,0.7071068286895752]},{"mesh":7,"name":"Window lower masonry","rotation":[0.7071068286895752,0,0,0.7071068286895752]},{"mesh":8,"name":"Window lower masonry.001","rotation":[0.7071068286895752,0,0,0.7071068286895752]},{"mesh":9,"name":"Window side masonry","rotation":[0.7071068286895752,0,0,0.7071068286895752]},{"mesh":10,"name":"Window side masonry.001","rotation":[0.7071068286895752,0,0,0.7071068286895752]},{"mesh":11,"name":"Window side masonry.002","rotation":[0.7071068286895752,0,0,0.7071068286895752]},{"mesh":12,"name":"Window side masonry.003","rotation":[0.7071068286895752,0,0,0.7071068286895752]},{"mesh":13,"name":"Window side masonry.004","rotation":[0.7071068286895752,0,0,0.7071068286895752]},{"mesh":14,"name":"Window side masonry.005","rotation":[0.7071068286895752,0,0,0.7071068286895752]},{"mesh":15,"name":"Window side masonry.006","rotation":[0.7071068286895752,0,0,0.7071068286895752]},{"mesh":16,"name":"Window side masonry.007","rotation":[0.7071068286895752,0,0,0.7071068286895752]},{"mesh":17,"name":"Window side masonry.008","rotation":[0.7071068286895752,0,0,0.7071068286895752]},{"mesh":18,"name":"Window side masonry.009","rotation":[0.7071068286895752,0,0,0.7071068286895752]},{"mesh":19,"name":"Window side masonry.010","rotation":[0.7071068286895752,0,0,0.7071068286895752]},{"mesh":20,"name":"Window side masonry.011","rotation":[0.7071068286895752,0,0,0.7071068286895752]},{"mesh":21,"name":"Window side masonry.012","rotation":[0.7071068286895752,0,0,0.7071068286895752]},{"mesh":22,"name":"Window side masonry.013","rotation":[0.7071068286895752,0,0,0.7071068286895752]},{"mesh":23,"name":"Window side masonry.014","rotation":[0.7071068286895752,0,0,0.7071068286895752]},{"mesh":24,"name":"Window side masonry.015","rotation":[0.7071068286895752,0,0,0.7071068286895752]},{"mesh":25,"name":"Window side masonry.016","rotation":[0.7071068286895752,0,0,0.7071068286895752]},{"mesh":26,"name":"Window side masonry.017","rotation":[0.7071068286895752,0,0,0.7071068286895752]},{"mesh":27,"name":"Window side masonry.018","rotation":[0.7071068286895752,0,0,0.7071068286895752]},{"mesh":28,"name":"Window side masonry.019","rotation":[0.7071068286895752,0,0,0.7071068286895752]},{"mesh":29,"name":"Window sill","rotation":[0.7071068286895752,0,0,0.7071068286895752]}],"materials":[{"doubleSided":true,"name":"Forged iron.002","pbrMetallicRoughness":{"baseColorFactor":[0.04699999839067459,0.054999999701976776,0.04800000041723251,1],"metallicFactor":0.699999988079071,"roughnessFactor":0.6200000047683716}},{"doubleSided":true,"extensions":{"KHR_materials_specular":{"specularFactor":0.5}},"name":"Cut limestone trim.002","normalTexture":{"index":0,"scale":0.11999999731779099},"pbrMetallicRoughness":{"baseColorTexture":{"index":1},"metallicFactor":0,"metallicRoughnessTexture":{"index":2}}},{"doubleSided":true,"extensions":{"KHR_materials_specular":{"specularFactor":0.5}},"name":"Cut limestone trim.002_soot","normalTexture":{"index":3,"scale":0.11999999731779099},"pbrMetallicRoughness":{"baseColorTexture":{"index":4},"metallicFactor":0,"roughnessFactor":0.9700000286102295}},{"doubleSided":true,"extensions":{"KHR_materials_specular":{"specularFactor":0.5}},"name":"Weathered limestone.002","normalTexture":{"index":5,"scale":0.2800000011920929},"pbrMetallicRoughness":{"baseColorTexture":{"index":6},"metallicFactor":0,"metallicRoughnessTexture":{"index":7}}},{"doubleSided":true,"extensions":{"KHR_materials_specular":{"specularFactor":0.5}},"name":"Weathered limestone.002_soot","normalTexture":{"index":8,"scale":0.2800000011920929},"pbrMetallicRoughness":{"baseColorTexture":{"index":9},"metallicFactor":0,"roughnessFactor":0.9700000286102295}}],"meshes":[{"name":"Iron crossbar.001","primitives":[{"attributes":{"POSITION":0,"NORMAL":1,"TEXCOORD_0":2},"indices":3,"material":0}]},{"name":"Iron window mullion.003","primitives":[{"attributes":{"POSITION":4,"NORMAL":5,"TEXCOORD_0":6},"indices":7,"material":0}]},{"name":"Iron window mullion.004","primitives":[{"attributes":{"POSITION":8,"NORMAL":9,"TEXCOORD_0":10},"indices":11,"material":0}]},{"name":"Iron window mullion.005","primitives":[{"attributes":{"POSITION":12,"NORMAL":13,"TEXCOORD_0":14},"indices":15,"material":0}]},{"name":"Window jamb.002","primitives":[{"attributes":{"POSITION":16,"NORMAL":17,"TEXCOORD_0":18},"indices":19,"material":1}]},{"name":"Window jamb.003","primitives":[{"attributes":{"POSITION":20,"NORMAL":21,"TEXCOORD_0":22},"indices":23,"material":2}]},{"name":"Window lintel.001","primitives":[{"attributes":{"POSITION":24,"NORMAL":25,"TEXCOORD_0":26},"indices":27,"material":1}]},{"name":"Window lower masonry.002","primitives":[{"attributes":{"POSITION":28,"NORMAL":29,"TEXCOORD_0":30},"indices":31,"material":3}]},{"name":"Window lower masonry.003","primitives":[{"attributes":{"POSITION":32,"NORMAL":33,"TEXCOORD_0":34},"indices":35,"material":3}]},{"name":"Window side masonry.020","primitives":[{"attributes":{"POSITION":36,"NORMAL":37,"TEXCOORD_0":38},"indices":39,"material":3}]},{"name":"Window side masonry.021","primitives":[{"attributes":{"POSITION":40,"NORMAL":41,"TEXCOORD_0":42},"indices":43,"material":4}]},{"name":"Window side masonry.022","primitives":[{"attributes":{"POSITION":44,"NORMAL":45,"TEXCOORD_0":46},"indices":47,"material":3}]},{"name":"Window side masonry.023","primitives":[{"attributes":{"POSITION":48,"NORMAL":49,"TEXCOORD_0":50},"indices":51,"material":3}]},{"name":"Window side masonry.024","primitives":[{"attributes":{"POSITION":52,"NORMAL":53,"TEXCOORD_0":54},"indices":55,"material":3}]},{"name":"Window side masonry.025","primitives":[{"attributes":{"POSITION":56,"NORMAL":57,"TEXCOORD_0":58},"indices":59,"material":3}]},{"name":"Window side masonry.026","primitives":[{"attributes":{"POSITION":60,"NORMAL":61,"TEXCOORD_0":62},"indices":63,"material":3}]},{"name":"Window side masonry.027","primitives":[{"attributes":{"POSITION":64,"NORMAL":65,"TEXCOORD_0":66},"indices":67,"material":3}]},{"name":"Window side masonry.028","primitives":[{"attributes":{"POSITION":68,"NORMAL":69,"TEXCOORD_0":70},"indices":71,"material":3}]},{"name":"Window side masonry.029","primitives":[{"attributes":{"POSITION":72,"NORMAL":73,"TEXCOORD_0":74},"indices":75,"material":3}]},{"name":"Window side masonry.030","primitives":[{"attributes":{"POSITION":76,"NORMAL":77,"TEXCOORD_0":78},"indices":79,"material":3}]},{"name":"Window side masonry.031","primitives":[{"attributes":{"POSITION":80,"NORMAL":81,"TEXCOORD_0":82},"indices":83,"material":4}]},{"name":"Window side masonry.032","primitives":[{"attributes":{"POSITION":84,"NORMAL":85,"TEXCOORD_0":86},"indices":87,"material":3}]},{"name":"Window side masonry.033","primitives":[{"attributes":{"POSITION":88,"NORMAL":89,"TEXCOORD_0":90},"indices":91,"material":3}]},{"name":"Window side masonry.034","primitives":[{"attributes":{"POSITION":92,"NORMAL":93,"TEXCOORD_0":94},"indices":95,"material":3}]},{"name":"Window side masonry.035","primitives":[{"attributes":{"POSITION":96,"NORMAL":97,"TEXCOORD_0":98},"indices":99,"material":4}]},{"name":"Window side masonry.036","primitives":[{"attributes":{"POSITION":100,"NORMAL":101,"TEXCOORD_0":102},"indices":103,"material":4}]},{"name":"Window side masonry.037","primitives":[{"attributes":{"POSITION":104,"NORMAL":105,"TEXCOORD_0":106},"indices":107,"material":3}]},{"name":"Window side masonry.038","primitives":[{"attributes":{"POSITION":108,"NORMAL":109,"TEXCOORD_0":110},"indices":111,"material":4}]},{"name":"Window side masonry.039","primitives":[{"attributes":{"POSITION":112,"NORMAL":113,"TEXCOORD_0":114},"indices":115,"material":3}]},{"name":"Window sill.001","primitives":[{"attributes":{"POSITION":116,"NORMAL":117,"TEXCOORD_0":118},"indices":119,"material":1}]}],"textures":[{"sampler":0,"source":0},{"sampler":0,"source":1},{"sampler":0,"source":2},{"sampler":0,"source":0},{"sampler":0,"source":1},{"sampler":0,"source":0},{"sampler":0,"source":3},{"sampler":0,"source":2},{"sampler":0,"source":0},{"sampler":0,"source":3}],"images":[{"name":"normal","uri":"../textures/111ec8bb85fd34402ad7.png"},{"name":"trim-charcoal","uri":"../textures/6d303909ef65238e168a.png"},{"name":"roughness","uri":"../textures/c9d4f48b4bf1f93fb137.png"},{"name":"wall-charcoal","uri":"../textures/ebd4ceb7053513a9ca36.png"}],"accessors":[{"bufferView":0,"componentType":5126,"count":323,"max":[0.8899999856948853,0.11499999463558197,-2.5834999084472656],"min":[-0.8899999856948853,0.044999998062849045,-2.616499900817871],"type":"VEC3"},{"bufferView":1,"componentType":5126,"count":323,"type":"VEC3"},{"bufferView":2,"componentType":5126,"count":323,"type":"VEC2"},{"bufferView":3,"componentType":5123,"count":564,"type":"SCALAR"},{"bufferView":4,"componentType":5126,"count":316,"max":[-0.42249998450279236,0.11499999463558197,-1.0250000953674316],"min":[-0.45750001072883606,0.044999998062849045,-3.375],"type":"VEC3"},{"bufferView":5,"componentType":5126,"count":316,"type":"VEC3"},{"bufferView":6,"componentType":5126,"count":316,"type":"VEC2"},{"bufferView":7,"componentType":5123,"count":564,"type":"SCALAR"},{"bufferView":8,"componentType":5126,"count":306,"max":[0.017500000074505806,0.11499999463558197,-1.0250000953674316],"min":[-0.017500000074505806,0.044999998062849045,-3.375],"type":"VEC3"},{"bufferView":9,"componentType":5126,"count":306,"type":"VEC3"},{"bufferView":10,"componentType":5126,"count":306,"type":"VEC2"},{"bufferView":11,"componentType":5123,"count":564,"type":"SCALAR"},{"bufferView":12,"componentType":5126,"count":314,"max":[0.45750001072883606,0.11499999463558197,-1.0250000953674316],"min":[0.42249998450279236,0.044999998062849045,-3.375],"type":"VEC3"},{"bufferView":13,"componentType":5126,"count":314,"type":"VEC3"},{"bufferView":14,"componentType":5126,"count":314,"type":"VEC2"},{"bufferView":15,"componentType":5123,"count":564,"type":"SCALAR"},{"bufferView":16,"componentType":5126,"count":240,"max":[-0.7999999523162842,0.32499998807907104,-0.9750000238418579],"min":[-0.9800000190734863,-0.32499998807907104,-3.4250001907348633],"type":"VEC3"},{"bufferView":17,"componentType":5126,"count":240,"type":"VEC3"},{"bufferView":18,"componentType":5126,"count":240,"type":"VEC2"},{"bufferView":19,"componentType":5123,"count":564,"type":"SCALAR"},{"bufferView":20,"componentType":5126,"count":241,"max":[0.9800000190734863,0.32499998807907104,-0.9750000238418579],"min":[0.7999999523162842,-0.32499998807907104,-3.4250001907348633],"type":"VEC3"},{"bufferView":21,"componentType":5126,"count":241,"type":"VEC3"},{"bufferView":22,"componentType":5126,"count":241,"type":"VEC2"},{"bufferView":23,"componentType":5123,"count":564,"type":"SCALAR"},{"bufferView":24,"componentType":5126,"count":250,"max":[1.0199999809265137,0.3199999928474426,-3.444999933242798],"min":[-1.0199999809265137,-0.3199999928474426,-3.7149999141693115],"type":"VEC3"},{"bufferView":25,"componentType":5126,"count":250,"type":"VEC3"},{"bufferView":26,"componentType":5126,"count":250,"type":"VEC2"},{"bufferView":27,"componentType":5123,"count":564,"type":"SCALAR"},{"bufferView":28,"componentType":5126,"count":284,"max":[-0.014999985694885254,0.25,-0.014999985694885254],"min":[-1.1449999809265137,-0.25,-0.8849999904632568],"type":"VEC3"},{"bufferView":29,"componentType":5126,"count":284,"type":"VEC3"},{"bufferView":30,"componentType":5126,"count":284,"type":"VEC2"},{"bufferView":31,"componentType":5123,"count":564,"type":"SCALAR"},{"bufferView":32,"componentType":5126,"count":290,"max":[1.1449999809265137,0.25,-0.014999985694885254],"min":[0.014999985694885254,-0.25,-0.8849999904632568],"type":"VEC3"},{"bufferView":33,"componentType":5126,"count":290,"type":"VEC3"},{"bufferView":34,"componentType":5126,"count":290,"type":"VEC2"},{"bufferView":35,"componentType":5123,"count":564,"type":"SCALAR"},{"bufferView":36,"componentType":5126,"count":224,"max":[-0.9450000524520874,0.25,-0.01000000536441803],"min":[-1.975000023841858,-0.25,-0.38999998569488525],"type":"VEC3"},{"bufferView":37,"componentType":5126,"count":224,"type":"VEC3"},{"bufferView":38,"componentType":5126,"count":224,"type":"VEC2"},{"bufferView":39,"componentType":5123,"count":564,"type":"SCALAR"},{"bufferView":40,"componentType":5126,"count":223,"max":[-0.9450000524520874,0.25,-0.4100000262260437],"min":[-1.975000023841858,-0.25,-0.7900000214576721],"type":"VEC3"},{"bufferView":41,"componentType":5126,"count":223,"type":"VEC3"},{"bufferView":42,"componentType":5126,"count":223,"type":"VEC2"},{"bufferView":43,"componentType":5123,"count":564,"type":"SCALAR"},{"bufferView":44,"componentType":5126,"count":225,"max":[-0.9450000524520874,0.25,-0.8100000023841858],"min":[-1.975000023841858,-0.25,-1.190000057220459],"type":"VEC3"},{"bufferView":45,"componentType":5126,"count":225,"type":"VEC3"},{"bufferView":46,"componentType":5126,"count":225,"type":"VEC2"},{"bufferView":47,"componentType":5123,"count":564,"type":"SCALAR"},{"bufferView":48,"componentType":5126,"count":231,"max":[-0.9450000524520874,0.25,-1.2100000381469727],"min":[-1.975000023841858,-0.25,-1.5899999141693115],"type":"VEC3"},{"bufferView":49,"componentType":5126,"count":231,"type":"VEC3"},{"bufferView":50,"componentType":5126,"count":231,"type":"VEC2"},{"bufferView":51,"componentType":5123,"count":564,"type":"SCALAR"},{"bufferView":52,"componentType":5126,"count":231,"max":[-0.9450000524520874,0.25,-1.6099998950958252],"min":[-1.975000023841858,-0.25,-1.9900000095367432],"type":"VEC3"},{"bufferView":53,"componentType":5126,"count":231,"type":"VEC3"},{"bufferView":54,"componentType":5126,"count":231,"type":"VEC2"},{"bufferView":55,"componentType":5123,"count":564,"type":"SCALAR"},{"bufferView":56,"componentType":5126,"count":228,"max":[-0.9450000524520874,0.25,-2.009999990463257],"min":[-1.975000023841858,-0.25,-2.390000104904175],"type":"VEC3"},{"bufferView":57,"componentType":5126,"count":228,"type":"VEC3"},{"bufferView":58,"componentType":5126,"count":228,"type":"VEC2"},{"bufferView":59,"componentType":5123,"count":564,"type":"SCALAR"},{"bufferView":60,"componentType":5126,"count":226,"max":[-0.9450000524520874,0.25,-2.4099998474121094],"min":[-1.975000023841858,-0.25,-2.7899999618530273],"type":"VEC3"},{"bufferView":61,"componentType":5126,"count":226,"type":"VEC3"},{"bufferView":62,"componentType":5126,"count":226,"type":"VEC2"},{"bufferView":63,"componentType":5123,"count":564,"type":"SCALAR"},{"bufferView":64,"componentType":5126,"count":229,"max":[-0.9450000524520874,0.25,-2.809999942779541],"min":[-1.975000023841858,-0.25,-3.190000057220459],"type":"VEC3"},{"bufferView":65,"componentType":5126,"count":229,"type":"VEC3"},{"bufferView":66,"componentType":5126,"count":229,"type":"VEC2"},{"bufferView":67,"componentType":5123,"count":564,"type":"SCALAR"},{"bufferView":68,"componentType":5126,"count":249,"max":[-0.9450000524520874,0.25,-3.2100000381469727],"min":[-1.975000023841858,-0.25,-3.5900001525878906],"type":"VEC3"},{"bufferView":69,"componentType":5126,"count":249,"type":"VEC3"},{"bufferView":70,"componentType":5126,"count":249,"type":"VEC2"},{"bufferView":71,"componentType":5123,"count":564,"type":"SCALAR"},{"bufferView":72,"componentType":5126,"count":255,"max":[-0.9450000524520874,0.25,-3.609999895095825],"min":[-1.975000023841858,-0.25,-3.990000009536743],"type":"VEC3"},{"bufferView":73,"componentType":5126,"count":255,"type":"VEC3"},{"bufferView":74,"componentType":5126,"count":255,"type":"VEC2"},{"bufferView":75,"componentType":5123,"count":564,"type":"SCALAR"},{"bufferView":76,"componentType":5126,"count":225,"max":[1.975000023841858,0.25,-0.01000000536441803],"min":[0.9450000524520874,-0.25,-0.38999998569488525],"type":"VEC3"},{"bufferView":77,"componentType":5126,"count":225,"type":"VEC3"},{"bufferView":78,"componentType":5126,"count":225,"type":"VEC2"},{"bufferView":79,"componentType":5123,"count":564,"type":"SCALAR"},{"bufferView":80,"componentType":5126,"count":226,"max":[1.975000023841858,0.25,-0.4100000262260437],"min":[0.9450000524520874,-0.25,-0.7900000214576721],"type":"VEC3"},{"bufferView":81,"componentType":5126,"count":226,"type":"VEC3"},{"bufferView":82,"componentType":5126,"count":226,"type":"VEC2"},{"bufferView":83,"componentType":5123,"count":564,"type":"SCALAR"},{"bufferView":84,"componentType":5126,"count":227,"max":[1.975000023841858,0.25,-0.8100000023841858],"min":[0.9450000524520874,-0.25,-1.190000057220459],"type":"VEC3"},{"bufferView":85,"componentType":5126,"count":227,"type":"VEC3"},{"bufferView":86,"componentType":5126,"count":227,"type":"VEC2"},{"bufferView":87,"componentType":5123,"count":564,"type":"SCALAR"},{"bufferView":88,"componentType":5126,"count":235,"max":[1.975000023841858,0.25,-1.2100000381469727],"min":[0.9450000524520874,-0.25,-1.5899999141693115],"type":"VEC3"},{"bufferView":89,"componentType":5126,"count":235,"type":"VEC3"},{"bufferView":90,"componentType":5126,"count":235,"type":"VEC2"},{"bufferView":91,"componentType":5123,"count":564,"type":"SCALAR"},{"bufferView":92,"componentType":5126,"count":234,"max":[1.975000023841858,0.25,-1.6099998950958252],"min":[0.9450000524520874,-0.25,-1.9900000095367432],"type":"VEC3"},{"bufferView":93,"componentType":5126,"count":234,"type":"VEC3"},{"bufferView":94,"componentType":5126,"count":234,"type":"VEC2"},{"bufferView":95,"componentType":5123,"count":564,"type":"SCALAR"},{"bufferView":96,"componentType":5126,"count":229,"max":[1.975000023841858,0.25,-2.009999990463257],"min":[0.9450000524520874,-0.25,-2.390000104904175],"type":"VEC3"},{"bufferView":97,"componentType":5126,"count":229,"type":"VEC3"},{"bufferView":98,"componentType":5126,"count":229,"type":"VEC2"},{"bufferView":99,"componentType":5123,"count":564,"type":"SCALAR"},{"bufferView":100,"componentType":5126,"count":224,"max":[1.975000023841858,0.25,-2.4099998474121094],"min":[0.9450000524520874,-0.25,-2.7899999618530273],"type":"VEC3"},{"bufferView":101,"componentType":5126,"count":224,"type":"VEC3"},{"bufferView":102,"componentType":5126,"count":224,"type":"VEC2"},{"bufferView":103,"componentType":5123,"count":564,"type":"SCALAR"},{"bufferView":104,"componentType":5126,"count":230,"max":[1.975000023841858,0.25,-2.809999942779541],"min":[0.9450000524520874,-0.25,-3.190000057220459],"type":"VEC3"},{"bufferView":105,"componentType":5126,"count":230,"type":"VEC3"},{"bufferView":106,"componentType":5126,"count":230,"type":"VEC2"},{"bufferView":107,"componentType":5123,"count":564,"type":"SCALAR"},{"bufferView":108,"componentType":5126,"count":248,"max":[1.975000023841858,0.25,-3.2100000381469727],"min":[0.9450000524520874,-0.25,-3.5900001525878906],"type":"VEC3"},{"bufferView":109,"componentType":5126,"count":248,"type":"VEC3"},{"bufferView":110,"componentType":5126,"count":248,"type":"VEC2"},{"bufferView":111,"componentType":5123,"count":564,"type":"SCALAR"},{"bufferView":112,"componentType":5126,"count":255,"max":[1.975000023841858,0.25,-3.609999895095825],"min":[0.9450000524520874,-0.25,-3.990000009536743],"type":"VEC3"},{"bufferView":113,"componentType":5126,"count":255,"type":"VEC3"},{"bufferView":114,"componentType":5126,"count":255,"type":"VEC2"},{"bufferView":115,"componentType":5123,"count":564,"type":"SCALAR"},{"bufferView":116,"componentType":5126,"count":267,"max":[0.9800000190734863,0.36500000953674316,-0.8600000143051147],"min":[-0.9800000190734863,-0.36500000953674316,-1.0199999809265137],"type":"VEC3"},{"bufferView":117,"componentType":5126,"count":267,"type":"VEC3"},{"bufferView":118,"componentType":5126,"count":267,"type":"VEC2"},{"bufferView":119,"componentType":5123,"count":564,"type":"SCALAR"}],"bufferViews":[{"buffer":0,"byteLength":3876,"byteOffset":0,"target":34962},{"buffer":0,"byteLength":3876,"byteOffset":3876,"target":34962},{"buffer":0,"byteLength":2584,"byteOffset":7752,"target":34962},{"buffer":0,"byteLength":1128,"byteOffset":10336,"target":34963},{"buffer":0,"byteLength":3792,"byteOffset":11464,"target":34962},{"buffer":0,"byteLength":3792,"byteOffset":15256,"target":34962},{"buffer":0,"byteLength":2528,"byteOffset":19048,"target":34962},{"buffer":0,"byteLength":1128,"byteOffset":21576,"target":34963},{"buffer":0,"byteLength":3672,"byteOffset":22704,"target":34962},{"buffer":0,"byteLength":3672,"byteOffset":26376,"target":34962},{"buffer":0,"byteLength":2448,"byteOffset":30048,"target":34962},{"buffer":0,"byteLength":1128,"byteOffset":32496,"target":34963},{"buffer":0,"byteLength":3768,"byteOffset":33624,"target":34962},{"buffer":0,"byteLength":3768,"byteOffset":37392,"target":34962},{"buffer":0,"byteLength":2512,"byteOffset":41160,"target":34962},{"buffer":0,"byteLength":1128,"byteOffset":43672,"target":34963},{"buffer":0,"byteLength":2880,"byteOffset":44800,"target":34962},{"buffer":0,"byteLength":2880,"byteOffset":47680,"target":34962},{"buffer":0,"byteLength":1920,"byteOffset":50560,"target":34962},{"buffer":0,"byteLength":1128,"byteOffset":52480,"target":34963},{"buffer":0,"byteLength":2892,"byteOffset":53608,"target":34962},{"buffer":0,"byteLength":2892,"byteOffset":56500,"target":34962},{"buffer":0,"byteLength":1928,"byteOffset":59392,"target":34962},{"buffer":0,"byteLength":1128,"byteOffset":61320,"target":34963},{"buffer":0,"byteLength":3000,"byteOffset":62448,"target":34962},{"buffer":0,"byteLength":3000,"byteOffset":65448,"target":34962},{"buffer":0,"byteLength":2000,"byteOffset":68448,"target":34962},{"buffer":0,"byteLength":1128,"byteOffset":70448,"target":34963},{"buffer":0,"byteLength":3408,"byteOffset":71576,"target":34962},{"buffer":0,"byteLength":3408,"byteOffset":74984,"target":34962},{"buffer":0,"byteLength":2272,"byteOffset":78392,"target":34962},{"buffer":0,"byteLength":1128,"byteOffset":80664,"target":34963},{"buffer":0,"byteLength":3480,"byteOffset":81792,"target":34962},{"buffer":0,"byteLength":3480,"byteOffset":85272,"target":34962},{"buffer":0,"byteLength":2320,"byteOffset":88752,"target":34962},{"buffer":0,"byteLength":1128,"byteOffset":91072,"target":34963},{"buffer":0,"byteLength":2688,"byteOffset":92200,"target":34962},{"buffer":0,"byteLength":2688,"byteOffset":94888,"target":34962},{"buffer":0,"byteLength":1792,"byteOffset":97576,"target":34962},{"buffer":0,"byteLength":1128,"byteOffset":99368,"target":34963},{"buffer":0,"byteLength":2676,"byteOffset":100496,"target":34962},{"buffer":0,"byteLength":2676,"byteOffset":103172,"target":34962},{"buffer":0,"byteLength":1784,"byteOffset":105848,"target":34962},{"buffer":0,"byteLength":1128,"byteOffset":107632,"target":34963},{"buffer":0,"byteLength":2700,"byteOffset":108760,"target":34962},{"buffer":0,"byteLength":2700,"byteOffset":111460,"target":34962},{"buffer":0,"byteLength":1800,"byteOffset":114160,"target":34962},{"buffer":0,"byteLength":1128,"byteOffset":115960,"target":34963},{"buffer":0,"byteLength":2772,"byteOffset":117088,"target":34962},{"buffer":0,"byteLength":2772,"byteOffset":119860,"target":34962},{"buffer":0,"byteLength":1848,"byteOffset":122632,"target":34962},{"buffer":0,"byteLength":1128,"byteOffset":124480,"target":34963},{"buffer":0,"byteLength":2772,"byteOffset":125608,"target":34962},{"buffer":0,"byteLength":2772,"byteOffset":128380,"target":34962},{"buffer":0,"byteLength":1848,"byteOffset":131152,"target":34962},{"buffer":0,"byteLength":1128,"byteOffset":133000,"target":34963},{"buffer":0,"byteLength":2736,"byteOffset":134128,"target":34962},{"buffer":0,"byteLength":2736,"byteOffset":136864,"target":34962},{"buffer":0,"byteLength":1824,"byteOffset":139600,"target":34962},{"buffer":0,"byteLength":1128,"byteOffset":141424,"target":34963},{"buffer":0,"byteLength":2712,"byteOffset":142552,"target":34962},{"buffer":0,"byteLength":2712,"byteOffset":145264,"target":34962},{"buffer":0,"byteLength":1808,"byteOffset":147976,"target":34962},{"buffer":0,"byteLength":1128,"byteOffset":149784,"target":34963},{"buffer":0,"byteLength":2748,"byteOffset":150912,"target":34962},{"buffer":0,"byteLength":2748,"byteOffset":153660,"target":34962},{"buffer":0,"byteLength":1832,"byteOffset":156408,"target":34962},{"buffer":0,"byteLength":1128,"byteOffset":158240,"target":34963},{"buffer":0,"byteLength":2988,"byteOffset":159368,"target":34962},{"buffer":0,"byteLength":2988,"byteOffset":162356,"target":34962},{"buffer":0,"byteLength":1992,"byteOffset":165344,"target":34962},{"buffer":0,"byteLength":1128,"byteOffset":167336,"target":34963},{"buffer":0,"byteLength":3060,"byteOffset":168464,"target":34962},{"buffer":0,"byteLength":3060,"byteOffset":171524,"target":34962},{"buffer":0,"byteLength":2040,"byteOffset":174584,"target":34962},{"buffer":0,"byteLength":1128,"byteOffset":176624,"target":34963},{"buffer":0,"byteLength":2700,"byteOffset":177752,"target":34962},{"buffer":0,"byteLength":2700,"byteOffset":180452,"target":34962},{"buffer":0,"byteLength":1800,"byteOffset":183152,"target":34962},{"buffer":0,"byteLength":1128,"byteOffset":184952,"target":34963},{"buffer":0,"byteLength":2712,"byteOffset":186080,"target":34962},{"buffer":0,"byteLength":2712,"byteOffset":188792,"target":34962},{"buffer":0,"byteLength":1808,"byteOffset":191504,"target":34962},{"buffer":0,"byteLength":1128,"byteOffset":193312,"target":34963},{"buffer":0,"byteLength":2724,"byteOffset":194440,"target":34962},{"buffer":0,"byteLength":2724,"byteOffset":197164,"target":34962},{"buffer":0,"byteLength":1816,"byteOffset":199888,"target":34962},{"buffer":0,"byteLength":1128,"byteOffset":201704,"target":34963},{"buffer":0,"byteLength":2820,"byteOffset":202832,"target":34962},{"buffer":0,"byteLength":2820,"byteOffset":205652,"target":34962},{"buffer":0,"byteLength":1880,"byteOffset":208472,"target":34962},{"buffer":0,"byteLength":1128,"byteOffset":210352,"target":34963},{"buffer":0,"byteLength":2808,"byteOffset":211480,"target":34962},{"buffer":0,"byteLength":2808,"byteOffset":214288,"target":34962},{"buffer":0,"byteLength":1872,"byteOffset":217096,"target":34962},{"buffer":0,"byteLength":1128,"byteOffset":218968,"target":34963},{"buffer":0,"byteLength":2748,"byteOffset":220096,"target":34962},{"buffer":0,"byteLength":2748,"byteOffset":222844,"target":34962},{"buffer":0,"byteLength":1832,"byteOffset":225592,"target":34962},{"buffer":0,"byteLength":1128,"byteOffset":227424,"target":34963},{"buffer":0,"byteLength":2688,"byteOffset":228552,"target":34962},{"buffer":0,"byteLength":2688,"byteOffset":231240,"target":34962},{"buffer":0,"byteLength":1792,"byteOffset":233928,"target":34962},{"buffer":0,"byteLength":1128,"byteOffset":235720,"target":34963},{"buffer":0,"byteLength":2760,"byteOffset":236848,"target":34962},{"buffer":0,"byteLength":2760,"byteOffset":239608,"target":34962},{"buffer":0,"byteLength":1840,"byteOffset":242368,"target":34962},{"buffer":0,"byteLength":1128,"byteOffset":244208,"target":34963},{"buffer":0,"byteLength":2976,"byteOffset":245336,"target":34962},{"buffer":0,"byteLength":2976,"byteOffset":248312,"target":34962},{"buffer":0,"byteLength":1984,"byteOffset":251288,"target":34962},{"buffer":0,"byteLength":1128,"byteOffset":253272,"target":34963},{"buffer":0,"byteLength":3060,"byteOffset":254400,"target":34962},{"buffer":0,"byteLength":3060,"byteOffset":257460,"target":34962},{"buffer":0,"byteLength":2040,"byteOffset":260520,"target":34962},{"buffer":0,"byteLength":1128,"byteOffset":262560,"target":34963},{"buffer":0,"byteLength":3204,"byteOffset":263688,"target":34962},{"buffer":0,"byteLength":3204,"byteOffset":266892,"target":34962},{"buffer":0,"byteLength":2136,"byteOffset":270096,"target":34962},{"buffer":0,"byteLength":1128,"byteOffset":272232,"target":34963}],"samplers":[{"magFilter":9729,"minFilter":9987}],"buffers":[{"uri":"C14_window_bay.bin","byteLength":273360}]}