{"asset":{"generator":"Khronos glTF Blender I/O v5.2.40","version":"2.0"},"extensionsUsed":["KHR_materials_specular"],"scene":0,"scenes":[{"name":"Scene","nodes":[0,1,2,3,4,5,6,7,8,9,10,11,12,13,14,15,16,17,18,19,20,21]}],"nodes":[{"mesh":0,"name":"Broken timber spine","rotation":[0.7071068286895752,0,0,0.7071068286895752]},{"mesh":1,"name":"Broken timber spine.001","rotation":[0.7071068286895752,0,0,0.7071068286895752]},{"mesh":2,"name":"Fractured bridge stone","rotation":[0.7071068286895752,0,0,0.7071068286895752]},{"mesh":3,"name":"Fractured bridge stone.001","rotation":[0.7071068286895752,0,0,0.7071068286895752]},{"mesh":4,"name":"Fractured bridge stone.002","rotation":[0.7071068286895752,0,0,0.7071068286895752]},{"mesh":5,"name":"Fractured bridge stone.003","rotation":[0.7071068286895752,0,0,0.7071068286895752]},{"mesh":6,"name":"Fractured bridge stone.004","rotation":[0.7071068286895752,0,0,0.7071068286895752]},{"mesh":7,"name":"Fractured bridge stone.005","rotation":[0.7071068286895752,0,0,0.7071068286895752]},{"mesh":8,"name":"Fractured bridge stone.006","rotation":[0.7071068286895752,0,0,0.7071068286895752]},{"mesh":9,"name":"Fractured bridge stone.007","rotation":[0.7071068286895752,0,0,0.7071068286895752]},{"mesh":10,"name":"Fractured bridge stone.008","rotation":[0.7071068286895752,0,0,0.7071068286895752]},{"mesh":11,"name":"Fractured bridge stone.009","rotation":[0.7071068286895752,0,0,0.7071068286895752]},{"mesh":12,"name":"Fractured bridge stone.010","rotation":[0.7071068286895752,0,0,0.7071068286895752]},{"mesh":13,"name":"Fractured bridge stone.011","rotation":[0.7071068286895752,0,0,0.7071068286895752]},{"mesh":14,"name":"Fractured bridge stone.012","rotation":[0.7071068286895752,0,0,0.7071068286895752]},{"mesh":15,"name":"Fractured bridge stone.013","rotation":[0.7071068286895752,0,0,0.7071068286895752]},{"mesh":16,"name":"Fractured bridge stone.014","rotation":[0.7071068286895752,0,0,0.7071068286895752]},{"mesh":17,"name":"Fractured bridge stone.015","rotation":[0.7071068286895752,0,0,0.7071068286895752]},{"mesh":18,"name":"Fractured bridge stone.016","rotation":[0.7071068286895752,0,0,0.7071068286895752]},{"mesh":19,"name":"Fractured bridge stone.017","rotation":[0.7071068286895752,0,0,0.7071068286895752]},{"mesh":20,"name":"Fractured bridge stone.018","rotation":[0.7071068286895752,0,0,0.7071068286895752]},{"mesh":21,"name":"Fractured bridge stone.019","rotation":[0.7071068286895752,0,0,0.7071068286895752]}],"materials":[{"doubleSided":true,"name":"Split oak.002","normalTexture":{"index":0,"scale":0.699999988079071},"pbrMetallicRoughness":{"baseColorTexture":{"index":1},"metallicFactor":0,"metallicRoughnessTexture":{"index":2}}},{"doubleSided":true,"extensions":{"KHR_materials_specular":{"specularFactor":0.5}},"name":"Weathered limestone.002_soot","normalTexture":{"index":3,"scale":0.2800000011920929},"pbrMetallicRoughness":{"baseColorTexture":{"index":4},"metallicFactor":0,"roughnessFactor":0.9700000286102295}},{"doubleSided":true,"extensions":{"KHR_materials_specular":{"specularFactor":0.5}},"name":"Weathered limestone.002","normalTexture":{"index":5,"scale":0.2800000011920929},"pbrMetallicRoughness":{"baseColorTexture":{"index":6},"metallicFactor":0,"metallicRoughnessTexture":{"index":7}}}],"meshes":[{"name":"Broken timber spine.002","primitives":[{"attributes":{"POSITION":0,"NORMAL":1,"TEXCOORD_0":2},"indices":3,"material":0}]},{"name":"Broken timber spine.003","primitives":[{"attributes":{"POSITION":4,"NORMAL":5,"TEXCOORD_0":6},"indices":7,"material":0}]},{"name":"Fractured bridge stone.020","primitives":[{"attributes":{"POSITION":8,"NORMAL":9,"TEXCOORD_0":10},"indices":11,"material":1}]},{"name":"Fractured bridge stone.021","primitives":[{"attributes":{"POSITION":12,"NORMAL":13,"TEXCOORD_0":14},"indices":15,"material":2}]},{"name":"Fractured bridge stone.022","primitives":[{"attributes":{"POSITION":16,"NORMAL":17,"TEXCOORD_0":18},"indices":19,"material":2}]},{"name":"Fractured bridge stone.023","primitives":[{"attributes":{"POSITION":20,"NORMAL":21,"TEXCOORD_0":22},"indices":23,"material":2}]},{"name":"Fractured bridge stone.024","primitives":[{"attributes":{"POSITION":24,"NORMAL":25,"TEXCOORD_0":26},"indices":27,"material":2}]},{"name":"Fractured bridge stone.025","primitives":[{"attributes":{"POSITION":28,"NORMAL":29,"TEXCOORD_0":30},"indices":31,"material":2}]},{"name":"Fractured bridge stone.026","primitives":[{"attributes":{"POSITION":32,"NORMAL":33,"TEXCOORD_0":34},"indices":35,"material":1}]},{"name":"Fractured bridge stone.027","primitives":[{"attributes":{"POSITION":36,"NORMAL":37,"TEXCOORD_0":38},"indices":39,"material":1}]},{"name":"Fractured bridge stone.028","primitives":[{"attributes":{"POSITION":40,"NORMAL":41,"TEXCOORD_0":42},"indices":43,"material":1}]},{"name":"Fractured bridge stone.029","primitives":[{"attributes":{"POSITION":44,"NORMAL":45,"TEXCOORD_0":46},"indices":47,"material":1}]},{"name":"Fractured bridge stone.030","primitives":[{"attributes":{"POSITION":48,"NORMAL":49,"TEXCOORD_0":50},"indices":51,"material":2}]},{"name":"Fractured bridge stone.031","primitives":[{"attributes":{"POSITION":52,"NORMAL":53,"TEXCOORD_0":54},"indices":55,"material":2}]},{"name":"Fractured bridge stone.032","primitives":[{"attributes":{"POSITION":56,"NORMAL":57,"TEXCOORD_0":58},"indices":59,"material":2}]},{"name":"Fractured bridge stone.033","primitives":[{"attributes":{"POSITION":60,"NORMAL":61,"TEXCOORD_0":62},"indices":63,"material":2}]},{"name":"Fractured bridge stone.034","primitives":[{"attributes":{"POSITION":64,"NORMAL":65,"TEXCOORD_0":66},"indices":67,"material":2}]},{"name":"Fractured bridge stone.035","primitives":[{"attributes":{"POSITION":68,"NORMAL":69,"TEXCOORD_0":70},"indices":71,"material":2}]},{"name":"Fractured bridge stone.036","primitives":[{"attributes":{"POSITION":72,"NORMAL":73,"TEXCOORD_0":74},"indices":75,"material":1}]},{"name":"Fractured bridge stone.037","primitives":[{"attributes":{"POSITION":76,"NORMAL":77,"TEXCOORD_0":78},"indices":79,"material":2}]},{"name":"Fractured bridge stone.038","primitives":[{"attributes":{"POSITION":80,"NORMAL":81,"TEXCOORD_0":82},"indices":83,"material":2}]},{"name":"Fractured bridge stone.039","primitives":[{"attributes":{"POSITION":84,"NORMAL":85,"TEXCOORD_0":86},"indices":87,"material":2}]}],"textures":[{"sampler":0,"source":0},{"sampler":0,"source":1},{"sampler":0,"source":2},{"sampler":0,"source":3},{"sampler":0,"source":4},{"sampler":0,"source":3},{"sampler":0,"source":4},{"sampler":0,"source":5}],"images":[{"name":"normal","uri":"../textures/646b8954cd0f77aa31f9.png"},{"name":"albedo","uri":"../textures/c0324d2c3cfe6a395089.png"},{"name":"roughness","uri":"../textures/42487829eda8d1ae4111.png"},{"name":"normal","uri":"../textures/111ec8bb85fd34402ad7.png"},{"name":"wall-charcoal","uri":"../textures/ebd4ceb7053513a9ca36.png"},{"name":"roughness","uri":"../textures/c9d4f48b4bf1f93fb137.png"}],"accessors":[{"bufferView":0,"componentType":5126,"count":22,"max":[-1.2799999713897705,0.005499390885233879,0.6168620586395264],"min":[-1.5081162452697754,-1.7054994106292725,0.30313795804977417],"type":"VEC3"},{"bufferView":1,"componentType":5126,"count":22,"type":"VEC3"},{"bufferView":2,"componentType":5126,"count":22,"type":"VEC2"},{"bufferView":3,"componentType":5123,"count":42,"type":"SCALAR"},{"bufferView":4,"componentType":5126,"count":22,"max":[1.5199999809265137,0.005499390885233879,0.6168620586395264],"min":[1.2918837070465088,-1.7054994106292725,0.30313795804977417],"type":"VEC3"},{"bufferView":5,"componentType":5126,"count":22,"type":"VEC3"},{"bufferView":6,"componentType":5126,"count":22,"type":"VEC2"},{"bufferView":7,"componentType":5123,"count":42,"type":"SCALAR"},{"bufferView":8,"componentType":5126,"count":240,"max":[-1.1150000095367432,0.75,0.1899999976158142],"min":[-1.8849999904632568,-0.75,-0.1899999976158142],"type":"VEC3"},{"bufferView":9,"componentType":5126,"count":240,"type":"VEC3"},{"bufferView":10,"componentType":5126,"count":240,"type":"VEC2"},{"bufferView":11,"componentType":5123,"count":564,"type":"SCALAR"},{"bufferView":12,"componentType":5126,"count":226,"max":[-0.3149999976158142,0.75,0.1899999976158142],"min":[-1.0850000381469727,-0.75,-0.1899999976158142],"type":"VEC3"},{"bufferView":13,"componentType":5126,"count":226,"type":"VEC3"},{"bufferView":14,"componentType":5126,"count":226,"type":"VEC2"},{"bufferView":15,"componentType":5123,"count":564,"type":"SCALAR"},{"bufferView":16,"componentType":5126,"count":240,"max":[0.48499998450279236,0.75,0.1899999976158142],"min":[-0.2849999964237213,-0.75,-0.1899999976158142],"type":"VEC3"},{"bufferView":17,"componentType":5126,"count":240,"type":"VEC3"},{"bufferView":18,"componentType":5126,"count":240,"type":"VEC2"},{"bufferView":19,"componentType":5123,"count":564,"type":"SCALAR"},{"bufferView":20,"componentType":5126,"count":232,"max":[1.284999966621399,0.75,0.1899999976158142],"min":[0.5149999856948853,-0.75,-0.1899999976158142],"type":"VEC3"},{"bufferView":21,"componentType":5126,"count":232,"type":"VEC3"},{"bufferView":22,"componentType":5126,"count":232,"type":"VEC2"},{"bufferView":23,"componentType":5123,"count":564,"type":"SCALAR"},{"bufferView":24,"componentType":5126,"count":240,"max":[-1.1150000095367432,0.75,0.5900000333786011],"min":[-1.8849999904632568,-0.75,0.21000000834465027],"type":"VEC3"},{"bufferView":25,"componentType":5126,"count":240,"type":"VEC3"},{"bufferView":26,"componentType":5126,"count":240,"type":"VEC2"},{"bufferView":27,"componentType":5123,"count":564,"type":"SCALAR"},{"bufferView":28,"componentType":5126,"count":226,"max":[-0.3149999976158142,0.75,0.5900000333786011],"min":[-1.0850000381469727,-0.75,0.21000000834465027],"type":"VEC3"},{"bufferView":29,"componentType":5126,"count":226,"type":"VEC3"},{"bufferView":30,"componentType":5126,"count":226,"type":"VEC2"},{"bufferView":31,"componentType":5123,"count":564,"type":"SCALAR"},{"bufferView":32,"componentType":5126,"count":238,"max":[0.48499998450279236,0.75,0.5900000333786011],"min":[-0.2849999964237213,-0.75,0.21000000834465027],"type":"VEC3"},{"bufferView":33,"componentType":5126,"count":238,"type":"VEC3"},{"bufferView":34,"componentType":5126,"count":238,"type":"VEC2"},{"bufferView":35,"componentType":5123,"count":564,"type":"SCALAR"},{"bufferView":36,"componentType":5126,"count":238,"max":[1.284999966621399,0.75,0.5900000333786011],"min":[0.5149999856948853,-0.75,0.21000000834465027],"type":"VEC3"},{"bufferView":37,"componentType":5126,"count":238,"type":"VEC3"},{"bufferView":38,"componentType":5126,"count":238,"type":"VEC2"},{"bufferView":39,"componentType":5123,"count":564,"type":"SCALAR"},{"bufferView":40,"componentType":5126,"count":236,"max":[-1.1150000095367432,0.75,0.9900000095367432],"min":[-1.8849999904632568,-0.75,0.6100000143051147],"type":"VEC3"},{"bufferView":41,"componentType":5126,"count":236,"type":"VEC3"},{"bufferView":42,"componentType":5126,"count":236,"type":"VEC2"},{"bufferView":43,"componentType":5123,"count":564,"type":"SCALAR"},{"bufferView":44,"componentType":5126,"count":227,"max":[-0.3149999976158142,0.75,0.9900000095367432],"min":[-1.0850000381469727,-0.75,0.6100000143051147],"type":"VEC3"},{"bufferView":45,"componentType":5126,"count":227,"type":"VEC3"},{"bufferView":46,"componentType":5126,"count":227,"type":"VEC2"},{"bufferView":47,"componentType":5123,"count":564,"type":"SCALAR"},{"bufferView":48,"componentType":5126,"count":244,"max":[0.48499998450279236,0.75,0.9900000095367432],"min":[-0.2849999964237213,-0.75,0.6100000143051147],"type":"VEC3"},{"bufferView":49,"componentType":5126,"count":244,"type":"VEC3"},{"bufferView":50,"componentType":5126,"count":244,"type":"VEC2"},{"bufferView":51,"componentType":5123,"count":564,"type":"SCALAR"},{"bufferView":52,"componentType":5126,"count":239,"max":[-1.1150000095367432,0.75,1.3900001049041748],"min":[-1.8849999904632568,-0.75,1.0099999904632568],"type":"VEC3"},{"bufferView":53,"componentType":5126,"count":239,"type":"VEC3"},{"bufferView":54,"componentType":5126,"count":239,"type":"VEC2"},{"bufferView":55,"componentType":5123,"count":564,"type":"SCALAR"},{"bufferView":56,"componentType":5126,"count":236,"max":[-0.3149999976158142,0.75,1.3900001049041748],"min":[-1.0850000381469727,-0.75,1.0099999904632568],"type":"VEC3"},{"bufferView":57,"componentType":5126,"count":236,"type":"VEC3"},{"bufferView":58,"componentType":5126,"count":236,"type":"VEC2"},{"bufferView":59,"componentType":5123,"count":564,"type":"SCALAR"},{"bufferView":60,"componentType":5126,"count":241,"max":[0.48499998450279236,0.75,1.3900001049041748],"min":[-0.2849999964237213,-0.75,1.0099999904632568],"type":"VEC3"},{"bufferView":61,"componentType":5126,"count":241,"type":"VEC3"},{"bufferView":62,"componentType":5126,"count":241,"type":"VEC2"},{"bufferView":63,"componentType":5123,"count":564,"type":"SCALAR"},{"bufferView":64,"componentType":5126,"count":251,"max":[-1.1150000095367432,0.75,1.7899999618530273],"min":[-1.8849999904632568,-0.75,1.4100000858306885],"type":"VEC3"},{"bufferView":65,"componentType":5126,"count":251,"type":"VEC3"},{"bufferView":66,"componentType":5126,"count":251,"type":"VEC2"},{"bufferView":67,"componentType":5123,"count":564,"type":"SCALAR"},{"bufferView":68,"componentType":5126,"count":240,"max":[-0.3149999976158142,0.75,1.7899999618530273],"min":[-1.0850000381469727,-0.75,1.4100000858306885],"type":"VEC3"},{"bufferView":69,"componentType":5126,"count":240,"type":"VEC3"},{"bufferView":70,"componentType":5126,"count":240,"type":"VEC2"},{"bufferView":71,"componentType":5123,"count":564,"type":"SCALAR"},{"bufferView":72,"componentType":5126,"count":243,"max":[-1.1150000095367432,0.75,2.190000057220459],"min":[-1.8849999904632568,-0.75,1.809999942779541],"type":"VEC3"},{"bufferView":73,"componentType":5126,"count":243,"type":"VEC3"},{"bufferView":74,"componentType":5126,"count":243,"type":"VEC2"},{"bufferView":75,"componentType":5123,"count":564,"type":"SCALAR"},{"bufferView":76,"componentType":5126,"count":235,"max":[-0.3149999976158142,0.75,2.190000057220459],"min":[-1.0850000381469727,-0.75,1.809999942779541],"type":"VEC3"},{"bufferView":77,"componentType":5126,"count":235,"type":"VEC3"},{"bufferView":78,"componentType":5126,"count":235,"type":"VEC2"},{"bufferView":79,"componentType":5123,"count":564,"type":"SCALAR"},{"bufferView":80,"componentType":5126,"count":239,"max":[-1.1150000095367432,0.75,2.5900001525878906],"min":[-1.8849999904632568,-0.75,2.2100000381469727],"type":"VEC3"},{"bufferView":81,"componentType":5126,"count":239,"type":"VEC3"},{"bufferView":82,"componentType":5126,"count":239,"type":"VEC2"},{"bufferView":83,"componentType":5123,"count":564,"type":"SCALAR"},{"bufferView":84,"componentType":5126,"count":233,"max":[-1.1150000095367432,0.75,2.990000009536743],"min":[-1.8849999904632568,-0.75,2.609999895095825],"type":"VEC3"},{"bufferView":85,"componentType":5126,"count":233,"type":"VEC3"},{"bufferView":86,"componentType":5126,"count":233,"type":"VEC2"},{"bufferView":87,"componentType":5123,"count":564,"type":"SCALAR"}],"bufferViews":[{"buffer":0,"byteLength":264,"byteOffset":0,"target":34962},{"buffer":0,"byteLength":264,"byteOffset":264,"target":34962},{"buffer":0,"byteLength":176,"byteOffset":528,"target":34962},{"buffer":0,"byteLength":84,"byteOffset":704,"target":34963},{"buffer":0,"byteLength":264,"byteOffset":788,"target":34962},{"buffer":0,"byteLength":264,"byteOffset":1052,"target":34962},{"buffer":0,"byteLength":176,"byteOffset":1316,"target":34962},{"buffer":0,"byteLength":84,"byteOffset":1492,"target":34963},{"buffer":0,"byteLength":2880,"byteOffset":1576,"target":34962},{"buffer":0,"byteLength":2880,"byteOffset":4456,"target":34962},{"buffer":0,"byteLength":1920,"byteOffset":7336,"target":34962},{"buffer":0,"byteLength":1128,"byteOffset":9256,"target":34963},{"buffer":0,"byteLength":2712,"byteOffset":10384,"target":34962},{"buffer":0,"byteLength":2712,"byteOffset":13096,"target":34962},{"buffer":0,"byteLength":1808,"byteOffset":15808,"target":34962},{"buffer":0,"byteLength":1128,"byteOffset":17616,"target":34963},{"buffer":0,"byteLength":2880,"byteOffset":18744,"target":34962},{"buffer":0,"byteLength":2880,"byteOffset":21624,"target":34962},{"buffer":0,"byteLength":1920,"byteOffset":24504,"target":34962},{"buffer":0,"byteLength":1128,"byteOffset":26424,"target":34963},{"buffer":0,"byteLength":2784,"byteOffset":27552,"target":34962},{"buffer":0,"byteLength":2784,"byteOffset":30336,"target":34962},{"buffer":0,"byteLength":1856,"byteOffset":33120,"target":34962},{"buffer":0,"byteLength":1128,"byteOffset":34976,"target":34963},{"buffer":0,"byteLength":2880,"byteOffset":36104,"target":34962},{"buffer":0,"byteLength":2880,"byteOffset":38984,"target":34962},{"buffer":0,"byteLength":1920,"byteOffset":41864,"target":34962},{"buffer":0,"byteLength":1128,"byteOffset":43784,"target":34963},{"buffer":0,"byteLength":2712,"byteOffset":44912,"target":34962},{"buffer":0,"byteLength":2712,"byteOffset":47624,"target":34962},{"buffer":0,"byteLength":1808,"byteOffset":50336,"target":34962},{"buffer":0,"byteLength":1128,"byteOffset":52144,"target":34963},{"buffer":0,"byteLength":2856,"byteOffset":53272,"target":34962},{"buffer":0,"byteLength":2856,"byteOffset":56128,"target":34962},{"buffer":0,"byteLength":1904,"byteOffset":58984,"target":34962},{"buffer":0,"byteLength":1128,"byteOffset":60888,"target":34963},{"buffer":0,"byteLength":2856,"byteOffset":62016,"target":34962},{"buffer":0,"byteLength":2856,"byteOffset":64872,"target":34962},{"buffer":0,"byteLength":1904,"byteOffset":67728,"target":34962},{"buffer":0,"byteLength":1128,"byteOffset":69632,"target":34963},{"buffer":0,"byteLength":2832,"byteOffset":70760,"target":34962},{"buffer":0,"byteLength":2832,"byteOffset":73592,"target":34962},{"buffer":0,"byteLength":1888,"byteOffset":76424,"target":34962},{"buffer":0,"byteLength":1128,"byteOffset":78312,"target":34963},{"buffer":0,"byteLength":2724,"byteOffset":79440,"target":34962},{"buffer":0,"byteLength":2724,"byteOffset":82164,"target":34962},{"buffer":0,"byteLength":1816,"byteOffset":84888,"target":34962},{"buffer":0,"byteLength":1128,"byteOffset":86704,"target":34963},{"buffer":0,"byteLength":2928,"byteOffset":87832,"target":34962},{"buffer":0,"byteLength":2928,"byteOffset":90760,"target":34962},{"buffer":0,"byteLength":1952,"byteOffset":93688,"target":34962},{"buffer":0,"byteLength":1128,"byteOffset":95640,"target":34963},{"buffer":0,"byteLength":2868,"byteOffset":96768,"target":34962},{"buffer":0,"byteLength":2868,"byteOffset":99636,"target":34962},{"buffer":0,"byteLength":1912,"byteOffset":102504,"target":34962},{"buffer":0,"byteLength":1128,"byteOffset":104416,"target":34963},{"buffer":0,"byteLength":2832,"byteOffset":105544,"target":34962},{"buffer":0,"byteLength":2832,"byteOffset":108376,"target":34962},{"buffer":0,"byteLength":1888,"byteOffset":111208,"target":34962},{"buffer":0,"byteLength":1128,"byteOffset":113096,"target":34963},{"buffer":0,"byteLength":2892,"byteOffset":114224,"target":34962},{"buffer":0,"byteLength":2892,"byteOffset":117116,"target":34962},{"buffer":0,"byteLength":1928,"byteOffset":120008,"target":34962},{"buffer":0,"byteLength":1128,"byteOffset":121936,"target":34963},{"buffer":0,"byteLength":3012,"byteOffset":123064,"target":34962},{"buffer":0,"byteLength":3012,"byteOffset":126076,"target":34962},{"buffer":0,"byteLength":2008,"byteOffset":129088,"target":34962},{"buffer":0,"byteLength":1128,"byteOffset":131096,"target":34963},{"buffer":0,"byteLength":2880,"byteOffset":132224,"target":34962},{"buffer":0,"byteLength":2880,"byteOffset":135104,"target":34962},{"buffer":0,"byteLength":1920,"byteOffset":137984,"target":34962},{"buffer":0,"byteLength":1128,"byteOffset":139904,"target":34963},{"buffer":0,"byteLength":2916,"byteOffset":141032,"target":34962},{"buffer":0,"byteLength":2916,"byteOffset":143948,"target":34962},{"buffer":0,"byteLength":1944,"byteOffset":146864,"target":34962},{"buffer":0,"byteLength":1128,"byteOffset":148808,"target":34963},{"buffer":0,"byteLength":2820,"byteOffset":149936,"target":34962},{"buffer":0,"byteLength":2820,"byteOffset":152756,"target":34962},{"buffer":0,"byteLength":1880,"byteOffset":155576,"target":34962},{"buffer":0,"byteLength":1128,"byteOffset":157456,"target":34963},{"buffer":0,"byteLength":2868,"byteOffset":158584,"target":34962},{"buffer":0,"byteLength":2868,"byteOffset":161452,"target":34962},{"buffer":0,"byteLength":1912,"byteOffset":164320,"target":34962},{"buffer":0,"byteLength":1128,"byteOffset":166232,"target":34963},{"buffer":0,"byteLength":2796,"byteOffset":167360,"target":34962},{"buffer":0,"byteLength":2796,"byteOffset":170156,"target":34962},{"buffer":0,"byteLength":1864,"byteOffset":172952,"target":34962},{"buffer":0,"byteLength":1128,"byteOffset":174816,"target":34963}],"samplers":[{"magFilter":9729,"minFilter":9987}],"buffers":[{"uri":"C15_broken_bridge_end.bin","byteLength":175944}]}