{"asset":{"generator":"Khronos glTF Blender I/O v5.2.40","version":"2.0"},"scene":0,"scenes":[{"name":"Scene","nodes":[0,1,2,3,4,5,6,7,8,9,10,11,12,13,14,15,16,17,18,19,20,21,22,23,24,25,26,27,28,29,30,31,32,33,34,35,36,37,38,39,40,41,42,43,44,45,46,47,48,49,50,51,52,53,54,55,56,57,58,59,60,61,62]}],"nodes":[{"mesh":0,"name":"Lift chain link","rotation":[0.7071068286895752,0,0,0.7071068286895752]},{"mesh":1,"name":"Lift chain link.001","rotation":[0.7071068286895752,0,0,0.7071068286895752]},{"mesh":2,"name":"Lift chain link.002","rotation":[0.7071068286895752,0,0,0.7071068286895752]},{"mesh":3,"name":"Lift chain link.003","rotation":[0.7071068286895752,0,0,0.7071068286895752]},{"mesh":4,"name":"Lift chain link.004","rotation":[0.7071068286895752,0,0,0.7071068286895752]},{"mesh":5,"name":"Lift chain link.005","rotation":[0.7071068286895752,0,0,0.7071068286895752]},{"mesh":6,"name":"Lift chain link.006","rotation":[0.7071068286895752,0,0,0.7071068286895752]},{"mesh":7,"name":"Lift chain link.007","rotation":[0.7071068286895752,0,0,0.7071068286895752]},{"mesh":8,"name":"Lift chain link.008","rotation":[0.7071068286895752,0,0,0.7071068286895752]},{"mesh":9,"name":"Lift chain link.009","rotation":[0.7071068286895752,0,0,0.7071068286895752]},{"mesh":10,"name":"Lift chain link.010","rotation":[0.7071068286895752,0,0,0.7071068286895752]},{"mesh":11,"name":"Lift chain link.011","rotation":[0.7071068286895752,0,0,0.7071068286895752]},{"mesh":12,"name":"Lift chain link.012","rotation":[0.7071068286895752,0,0,0.7071068286895752]},{"mesh":13,"name":"Lift chain link.013","rotation":[0.7071068286895752,0,0,0.7071068286895752]},{"mesh":14,"name":"Lift chain link.014","rotation":[0.7071068286895752,0,0,0.7071068286895752]},{"mesh":15,"name":"Lift chain link.015","rotation":[0.7071068286895752,0,0,0.7071068286895752]},{"mesh":16,"name":"Lift chain link.016","rotation":[0.7071068286895752,0,0,0.7071068286895752]},{"mesh":17,"name":"Lift chain link.017","rotation":[0.7071068286895752,0,0,0.7071068286895752]},{"mesh":18,"name":"Lift chain link.018","rotation":[0.7071068286895752,0,0,0.7071068286895752]},{"mesh":19,"name":"Lift chain link.019","rotation":[0.7071068286895752,0,0,0.7071068286895752]},{"mesh":20,"name":"Lift chain link.020","rotation":[0.7071068286895752,0,0,0.7071068286895752]},{"mesh":21,"name":"Lift chain link.021","rotation":[0.7071068286895752,0,0,0.7071068286895752]},{"mesh":22,"name":"Lift chain link.022","rotation":[0.7071068286895752,0,0,0.7071068286895752]},{"mesh":23,"name":"Lift chain link.023","rotation":[0.7071068286895752,0,0,0.7071068286895752]},{"mesh":24,"name":"Lift chain link.024","rotation":[0.7071068286895752,0,0,0.7071068286895752]},{"mesh":25,"name":"Lift chain link.025","rotation":[0.7071068286895752,0,0,0.7071068286895752]},{"mesh":26,"name":"Lift chain link.026","rotation":[0.7071068286895752,0,0,0.7071068286895752]},{"mesh":27,"name":"Lift chain link.027","rotation":[0.7071068286895752,0,0,0.7071068286895752]},{"mesh":28,"name":"Lift chain link.028","rotation":[0.7071068286895752,0,0,0.7071068286895752]},{"mesh":29,"name":"Lift chain link.029","rotation":[0.7071068286895752,0,0,0.7071068286895752]},{"mesh":30,"name":"Lift chain link.030","rotation":[0.7071068286895752,0,0,0.7071068286895752]},{"mesh":31,"name":"Lift chain link.031","rotation":[0.7071068286895752,0,0,0.7071068286895752]},{"mesh":32,"name":"Lift chain link.032","rotation":[0.7071068286895752,0,0,0.7071068286895752]},{"mesh":33,"name":"Lift chain link.033","rotation":[0.7071068286895752,0,0,0.7071068286895752]},{"mesh":34,"name":"Lift chain link.034","rotation":[0.7071068286895752,0,0,0.7071068286895752]},{"mesh":35,"name":"Lift chain link.035","rotation":[0.7071068286895752,0,0,0.7071068286895752]},{"mesh":36,"name":"Lift chain link.036","rotation":[0.7071068286895752,0,0,0.7071068286895752]},{"mesh":37,"name":"Lift chain link.037","rotation":[0.7071068286895752,0,0,0.7071068286895752]},{"mesh":38,"name":"Lift chain link.038","rotation":[0.7071068286895752,0,0,0.7071068286895752]},{"mesh":39,"name":"Lift chain link.039","rotation":[0.7071068286895752,0,0,0.7071068286895752]},{"mesh":40,"name":"Lift chain link.040","rotation":[0.7071068286895752,0,0,0.7071068286895752]},{"mesh":41,"name":"Lift chain link.041","rotation":[0.7071068286895752,0,0,0.7071068286895752]},{"mesh":42,"name":"Lift chain link.042","rotation":[0.7071068286895752,0,0,0.7071068286895752]},{"mesh":43,"name":"Lift chain link.043","rotation":[0.7071068286895752,0,0,0.7071068286895752]},{"mesh":44,"name":"Lift chain link.044","rotation":[0.7071068286895752,0,0,0.7071068286895752]},{"mesh":45,"name":"Lift chain link.045","rotation":[0.7071068286895752,0,0,0.7071068286895752]},{"mesh":46,"name":"Lift chain link.046","rotation":[0.7071068286895752,0,0,0.7071068286895752]},{"mesh":47,"name":"Lift chain link.047","rotation":[0.7071068286895752,0,0,0.7071068286895752]},{"mesh":48,"name":"Lift chain link.048","rotation":[0.7071068286895752,0,0,0.7071068286895752]},{"mesh":49,"name":"Lift chain link.049","rotation":[0.7071068286895752,0,0,0.7071068286895752]},{"mesh":50,"name":"Lift chain link.050","rotation":[0.7071068286895752,0,0,0.7071068286895752]},{"mesh":51,"name":"Lift chain link.051","rotation":[0.7071068286895752,0,0,0.7071068286895752]},{"mesh":52,"name":"Lift floorboard","rotation":[0.7071068286895752,0,0,0.7071068286895752]},{"mesh":53,"name":"Lift floorboard.001","rotation":[0.7071068286895752,0,0,0.7071068286895752]},{"mesh":54,"name":"Lift floorboard.002","rotation":[0.7071068286895752,0,0,0.7071068286895752]},{"mesh":55,"name":"Lift floorboard.003","rotation":[0.7071068286895752,0,0,0.7071068286895752]},{"mesh":56,"name":"Lift floorboard.004","rotation":[0.7071068286895752,0,0,0.7071068286895752]},{"mesh":57,"name":"Lift floorboard.005","rotation":[0.7071068286895752,0,0,0.7071068286895752]},{"mesh":58,"name":"Lift floorboard.006","rotation":[0.7071068286895752,0,0,0.7071068286895752]},{"mesh":59,"name":"Lift floorboard.007","rotation":[0.7071068286895752,0,0,0.7071068286895752]},{"mesh":60,"name":"Lift floorboard.008","rotation":[0.7071068286895752,0,0,0.7071068286895752]},{"mesh":61,"name":"Lift steel brace","rotation":[0.7071068286895752,0,0,0.7071068286895752]},{"mesh":62,"name":"Lift steel brace.001","rotation":[0.7071068286895752,0,0,0.7071068286895752]}],"materials":[{"doubleSided":true,"name":"Forged iron","pbrMetallicRoughness":{"baseColorFactor":[0.04699999839067459,0.054999999701976776,0.04800000041723251,1],"metallicFactor":0.699999988079071,"roughnessFactor":0.6200000047683716}},{"doubleSided":true,"name":"Split oak","normalTexture":{"index":0,"scale":0.699999988079071},"pbrMetallicRoughness":{"baseColorTexture":{"index":1},"metallicFactor":0,"metallicRoughnessTexture":{"index":2}}}],"meshes":[{"name":"Lift chain link","primitives":[{"attributes":{"POSITION":0,"NORMAL":1,"TEXCOORD_0":2},"indices":3,"material":0}]},{"name":"Lift chain link.001","primitives":[{"attributes":{"POSITION":4,"NORMAL":5,"TEXCOORD_0":6},"indices":7,"material":0}]},{"name":"Lift chain link.002","primitives":[{"attributes":{"POSITION":8,"NORMAL":9,"TEXCOORD_0":10},"indices":3,"material":0}]},{"name":"Lift chain link.003","primitives":[{"attributes":{"POSITION":11,"NORMAL":12,"TEXCOORD_0":13},"indices":7,"material":0}]},{"name":"Lift chain link.004","primitives":[{"attributes":{"POSITION":14,"NORMAL":15,"TEXCOORD_0":16},"indices":3,"material":0}]},{"name":"Lift chain link.005","primitives":[{"attributes":{"POSITION":17,"NORMAL":18,"TEXCOORD_0":19},"indices":20,"material":0}]},{"name":"Lift chain link.006","primitives":[{"attributes":{"POSITION":21,"NORMAL":22,"TEXCOORD_0":23},"indices":24,"material":0}]},{"name":"Lift chain link.007","primitives":[{"attributes":{"POSITION":25,"NORMAL":26,"TEXCOORD_0":27},"indices":28,"material":0}]},{"name":"Lift chain link.008","primitives":[{"attributes":{"POSITION":29,"NORMAL":30,"TEXCOORD_0":31},"indices":32,"material":0}]},{"name":"Lift chain link.009","primitives":[{"attributes":{"POSITION":33,"NORMAL":34,"TEXCOORD_0":35},"indices":36,"material":0}]},{"name":"Lift chain link.010","primitives":[{"attributes":{"POSITION":37,"NORMAL":38,"TEXCOORD_0":39},"indices":32,"material":0}]},{"name":"Lift chain link.011","primitives":[{"attributes":{"POSITION":40,"NORMAL":41,"TEXCOORD_0":42},"indices":43,"material":0}]},{"name":"Lift chain link.012","primitives":[{"attributes":{"POSITION":44,"NORMAL":45,"TEXCOORD_0":46},"indices":32,"material":0}]},{"name":"Lift chain link.013","primitives":[{"attributes":{"POSITION":47,"NORMAL":48,"TEXCOORD_0":49},"indices":32,"material":0}]},{"name":"Lift chain link.014","primitives":[{"attributes":{"POSITION":50,"NORMAL":51,"TEXCOORD_0":52},"indices":53,"material":0}]},{"name":"Lift chain link.015","primitives":[{"attributes":{"POSITION":54,"NORMAL":55,"TEXCOORD_0":56},"indices":32,"material":0}]},{"name":"Lift chain link.016","primitives":[{"attributes":{"POSITION":57,"NORMAL":58,"TEXCOORD_0":59},"indices":60,"material":0}]},{"name":"Lift chain link.017","primitives":[{"attributes":{"POSITION":61,"NORMAL":62,"TEXCOORD_0":63},"indices":32,"material":0}]},{"name":"Lift chain link.018","primitives":[{"attributes":{"POSITION":64,"NORMAL":65,"TEXCOORD_0":66},"indices":53,"material":0}]},{"name":"Lift chain link.019","primitives":[{"attributes":{"POSITION":67,"NORMAL":68,"TEXCOORD_0":69},"indices":32,"material":0}]},{"name":"Lift chain link.020","primitives":[{"attributes":{"POSITION":70,"NORMAL":71,"TEXCOORD_0":72},"indices":73,"material":0}]},{"name":"Lift chain link.021","primitives":[{"attributes":{"POSITION":74,"NORMAL":75,"TEXCOORD_0":76},"indices":32,"material":0}]},{"name":"Lift chain link.022","primitives":[{"attributes":{"POSITION":77,"NORMAL":78,"TEXCOORD_0":79},"indices":36,"material":0}]},{"name":"Lift chain link.023","primitives":[{"attributes":{"POSITION":80,"NORMAL":81,"TEXCOORD_0":82},"indices":32,"material":0}]},{"name":"Lift chain link.024","primitives":[{"attributes":{"POSITION":83,"NORMAL":84,"TEXCOORD_0":85},"indices":43,"material":0}]},{"name":"Lift chain link.025","primitives":[{"attributes":{"POSITION":86,"NORMAL":87,"TEXCOORD_0":88},"indices":32,"material":0}]},{"name":"Lift chain link.026","primitives":[{"attributes":{"POSITION":89,"NORMAL":90,"TEXCOORD_0":91},"indices":3,"material":0}]},{"name":"Lift chain link.027","primitives":[{"attributes":{"POSITION":92,"NORMAL":93,"TEXCOORD_0":94},"indices":7,"material":0}]},{"name":"Lift chain link.028","primitives":[{"attributes":{"POSITION":95,"NORMAL":96,"TEXCOORD_0":97},"indices":3,"material":0}]},{"name":"Lift chain link.029","primitives":[{"attributes":{"POSITION":98,"NORMAL":99,"TEXCOORD_0":100},"indices":7,"material":0}]},{"name":"Lift chain link.030","primitives":[{"attributes":{"POSITION":101,"NORMAL":102,"TEXCOORD_0":103},"indices":3,"material":0}]},{"name":"Lift chain link.031","primitives":[{"attributes":{"POSITION":104,"NORMAL":105,"TEXCOORD_0":106},"indices":20,"material":0}]},{"name":"Lift chain link.032","primitives":[{"attributes":{"POSITION":107,"NORMAL":108,"TEXCOORD_0":109},"indices":110,"material":0}]},{"name":"Lift chain link.033","primitives":[{"attributes":{"POSITION":111,"NORMAL":112,"TEXCOORD_0":113},"indices":114,"material":0}]},{"name":"Lift chain link.034","primitives":[{"attributes":{"POSITION":115,"NORMAL":116,"TEXCOORD_0":117},"indices":118,"material":0}]},{"name":"Lift chain link.035","primitives":[{"attributes":{"POSITION":119,"NORMAL":120,"TEXCOORD_0":121},"indices":122,"material":0}]},{"name":"Lift chain link.036","primitives":[{"attributes":{"POSITION":123,"NORMAL":124,"TEXCOORD_0":125},"indices":118,"material":0}]},{"name":"Lift chain link.037","primitives":[{"attributes":{"POSITION":126,"NORMAL":127,"TEXCOORD_0":128},"indices":129,"material":0}]},{"name":"Lift chain link.038","primitives":[{"attributes":{"POSITION":130,"NORMAL":131,"TEXCOORD_0":132},"indices":118,"material":0}]},{"name":"Lift chain link.039","primitives":[{"attributes":{"POSITION":133,"NORMAL":134,"TEXCOORD_0":135},"indices":32,"material":0}]},{"name":"Lift chain link.040","primitives":[{"attributes":{"POSITION":136,"NORMAL":137,"TEXCOORD_0":138},"indices":53,"material":0}]},{"name":"Lift chain link.041","primitives":[{"attributes":{"POSITION":139,"NORMAL":140,"TEXCOORD_0":141},"indices":32,"material":0}]},{"name":"Lift chain link.042","primitives":[{"attributes":{"POSITION":142,"NORMAL":143,"TEXCOORD_0":144},"indices":60,"material":0}]},{"name":"Lift chain link.043","primitives":[{"attributes":{"POSITION":145,"NORMAL":146,"TEXCOORD_0":147},"indices":32,"material":0}]},{"name":"Lift chain link.044","primitives":[{"attributes":{"POSITION":148,"NORMAL":149,"TEXCOORD_0":150},"indices":53,"material":0}]},{"name":"Lift chain link.045","primitives":[{"attributes":{"POSITION":151,"NORMAL":152,"TEXCOORD_0":153},"indices":154,"material":0}]},{"name":"Lift chain link.046","primitives":[{"attributes":{"POSITION":155,"NORMAL":156,"TEXCOORD_0":157},"indices":158,"material":0}]},{"name":"Lift chain link.047","primitives":[{"attributes":{"POSITION":159,"NORMAL":160,"TEXCOORD_0":161},"indices":118,"material":0}]},{"name":"Lift chain link.048","primitives":[{"attributes":{"POSITION":162,"NORMAL":163,"TEXCOORD_0":164},"indices":122,"material":0}]},{"name":"Lift chain link.049","primitives":[{"attributes":{"POSITION":165,"NORMAL":166,"TEXCOORD_0":167},"indices":118,"material":0}]},{"name":"Lift chain link.050","primitives":[{"attributes":{"POSITION":168,"NORMAL":169,"TEXCOORD_0":170},"indices":129,"material":0}]},{"name":"Lift chain link.051","primitives":[{"attributes":{"POSITION":171,"NORMAL":172,"TEXCOORD_0":173},"indices":118,"material":0}]},{"name":"Lift floorboard","primitives":[{"attributes":{"POSITION":174,"NORMAL":175,"TEXCOORD_0":176},"indices":177,"material":1}]},{"name":"Lift floorboard.001","primitives":[{"attributes":{"POSITION":178,"NORMAL":179,"TEXCOORD_0":180},"indices":181,"material":1}]},{"name":"Lift floorboard.002","primitives":[{"attributes":{"POSITION":182,"NORMAL":183,"TEXCOORD_0":184},"indices":185,"material":1}]},{"name":"Lift floorboard.003","primitives":[{"attributes":{"POSITION":186,"NORMAL":187,"TEXCOORD_0":188},"indices":189,"material":1}]},{"name":"Lift floorboard.004","primitives":[{"attributes":{"POSITION":190,"NORMAL":191,"TEXCOORD_0":192},"indices":193,"material":1}]},{"name":"Lift floorboard.005","primitives":[{"attributes":{"POSITION":194,"NORMAL":195,"TEXCOORD_0":196},"indices":197,"material":1}]},{"name":"Lift floorboard.006","primitives":[{"attributes":{"POSITION":198,"NORMAL":199,"TEXCOORD_0":200},"indices":201,"material":1}]},{"name":"Lift floorboard.007","primitives":[{"attributes":{"POSITION":202,"NORMAL":203,"TEXCOORD_0":204},"indices":205,"material":1}]},{"name":"Lift floorboard.008","primitives":[{"attributes":{"POSITION":206,"NORMAL":207,"TEXCOORD_0":208},"indices":209,"material":1}]},{"name":"Lift steel brace","primitives":[{"attributes":{"POSITION":210,"NORMAL":211,"TEXCOORD_0":212},"indices":213,"material":0}]},{"name":"Lift steel brace.001","primitives":[{"attributes":{"POSITION":214,"NORMAL":215,"TEXCOORD_0":216},"indices":217,"material":0}]}],"textures":[{"sampler":0,"source":0},{"sampler":0,"source":1},{"sampler":0,"source":2}],"images":[{"name":"normal","uri":"../textures/646b8954cd0f77aa31f9.png"},{"name":"albedo","uri":"../textures/c0324d2c3cfe6a395089.png"},{"name":"roughness","uri":"../textures/42487829eda8d1ae4111.png"}],"accessors":[{"bufferView":0,"componentType":5126,"count":190,"max":[-1.3886381387710571,-1.3809999227523804,-0.11354551464319229],"min":[-1.571454405784607,-1.4190000295639038,-0.42645448446273804],"type":"VEC3"},{"bufferView":1,"componentType":5126,"count":190,"type":"VEC3"},{"bufferView":2,"componentType":5126,"count":190,"type":"VEC2"},{"bufferView":3,"componentType":5123,"count":576,"type":"SCALAR"},{"bufferView":4,"componentType":5126,"count":192,"max":[-1.4609999656677246,-1.3086382150650024,-0.29354551434516907],"min":[-1.499000072479248,-1.4940000772476196,-0.6064544320106506],"type":"VEC3"},{"bufferView":5,"componentType":5126,"count":192,"type":"VEC3"},{"bufferView":6,"componentType":5126,"count":192,"type":"VEC2"},{"bufferView":7,"componentType":5123,"count":576,"type":"SCALAR"},{"bufferView":8,"componentType":5126,"count":190,"max":[-1.3886381387710571,-1.3809999227523804,-0.47354552149772644],"min":[-1.571454405784607,-1.4190000295639038,-0.786454439163208],"type":"VEC3"},{"bufferView":9,"componentType":5126,"count":190,"type":"VEC3"},{"bufferView":10,"componentType":5126,"count":190,"type":"VEC2"},{"bufferView":11,"componentType":5126,"count":192,"max":[-1.4609999656677246,-1.3086382150650024,-0.6535455584526062],"min":[-1.499000072479248,-1.4940000772476196,-0.9664544463157654],"type":"VEC3"},{"bufferView":12,"componentType":5126,"count":192,"type":"VEC3"},{"bufferView":13,"componentType":5126,"count":192,"type":"VEC2"},{"bufferView":14,"componentType":5126,"count":190,"max":[-1.3886381387710571,-1.3809999227523804,-0.8335455656051636],"min":[-1.571454405784607,-1.4190000295639038,-1.1464544534683228],"type":"VEC3"},{"bufferView":15,"componentType":5126,"count":190,"type":"VEC3"},{"bufferView":16,"componentType":5126,"count":190,"type":"VEC2"},{"bufferView":17,"componentType":5126,"count":192,"max":[-1.4609999656677246,-1.3086382150650024,-1.0135455131530762],"min":[-1.499000072479248,-1.4940000772476196,-1.3264544010162354],"type":"VEC3"},{"bufferView":18,"componentType":5126,"count":192,"type":"VEC3"},{"bufferView":19,"componentType":5126,"count":192,"type":"VEC2"},{"bufferView":20,"componentType":5123,"count":576,"type":"SCALAR"},{"bufferView":21,"componentType":5126,"count":190,"max":[-1.3886381387710571,-1.3809999227523804,-1.1935455799102783],"min":[-1.571454405784607,-1.4190000295639038,-1.5064544677734375],"type":"VEC3"},{"bufferView":22,"componentType":5126,"count":190,"type":"VEC3"},{"bufferView":23,"componentType":5126,"count":190,"type":"VEC2"},{"bufferView":24,"componentType":5123,"count":576,"type":"SCALAR"},{"bufferView":25,"componentType":5126,"count":192,"max":[-1.4609999656677246,-1.3086382150650024,-1.373545527458191],"min":[-1.499000072479248,-1.4940000772476196,-1.68645441532135],"type":"VEC3"},{"bufferView":26,"componentType":5126,"count":192,"type":"VEC3"},{"bufferView":27,"componentType":5126,"count":192,"type":"VEC2"},{"bufferView":28,"componentType":5123,"count":576,"type":"SCALAR"},{"bufferView":29,"componentType":5126,"count":190,"max":[-1.3886381387710571,-1.3809999227523804,-1.553545594215393],"min":[-1.571454405784607,-1.4190000295639038,-1.8664544820785522],"type":"VEC3"},{"bufferView":30,"componentType":5126,"count":190,"type":"VEC3"},{"bufferView":31,"componentType":5126,"count":190,"type":"VEC2"},{"bufferView":32,"componentType":5123,"count":576,"type":"SCALAR"},{"bufferView":33,"componentType":5126,"count":192,"max":[-1.4609999656677246,-1.3086382150650024,-1.7335455417633057],"min":[-1.499000072479248,-1.4940000772476196,-2.046454429626465],"type":"VEC3"},{"bufferView":34,"componentType":5126,"count":192,"type":"VEC3"},{"bufferView":35,"componentType":5126,"count":192,"type":"VEC2"},{"bufferView":36,"componentType":5123,"count":576,"type":"SCALAR"},{"bufferView":37,"componentType":5126,"count":190,"max":[-1.3886381387710571,-1.3809999227523804,-1.9135454893112183],"min":[-1.571454405784607,-1.4190000295639038,-2.226454496383667],"type":"VEC3"},{"bufferView":38,"componentType":5126,"count":190,"type":"VEC3"},{"bufferView":39,"componentType":5126,"count":190,"type":"VEC2"},{"bufferView":40,"componentType":5126,"count":192,"max":[-1.4609999656677246,-1.3086382150650024,-2.093545436859131],"min":[-1.499000072479248,-1.4940000772476196,-2.406454563140869],"type":"VEC3"},{"bufferView":41,"componentType":5126,"count":192,"type":"VEC3"},{"bufferView":42,"componentType":5126,"count":192,"type":"VEC2"},{"bufferView":43,"componentType":5123,"count":576,"type":"SCALAR"},{"bufferView":44,"componentType":5126,"count":190,"max":[-1.3886381387710571,-1.3809999227523804,-2.273545503616333],"min":[-1.571454405784607,-1.4190000295639038,-2.586454391479492],"type":"VEC3"},{"bufferView":45,"componentType":5126,"count":190,"type":"VEC3"},{"bufferView":46,"componentType":5126,"count":190,"type":"VEC2"},{"bufferView":47,"componentType":5126,"count":190,"max":[-1.3886381387710571,1.4190000295639038,-0.11354551464319229],"min":[-1.571454405784607,1.3809999227523804,-0.42645448446273804],"type":"VEC3"},{"bufferView":48,"componentType":5126,"count":190,"type":"VEC3"},{"bufferView":49,"componentType":5126,"count":190,"type":"VEC2"},{"bufferView":50,"componentType":5126,"count":192,"max":[-1.4609999656677246,1.4913618564605713,-0.29354551434516907],"min":[-1.499000072479248,1.305999994277954,-0.6064544320106506],"type":"VEC3"},{"bufferView":51,"componentType":5126,"count":192,"type":"VEC3"},{"bufferView":52,"componentType":5126,"count":192,"type":"VEC2"},{"bufferView":53,"componentType":5123,"count":576,"type":"SCALAR"},{"bufferView":54,"componentType":5126,"count":190,"max":[-1.3886381387710571,1.4190000295639038,-0.47354552149772644],"min":[-1.571454405784607,1.3809999227523804,-0.786454439163208],"type":"VEC3"},{"bufferView":55,"componentType":5126,"count":190,"type":"VEC3"},{"bufferView":56,"componentType":5126,"count":190,"type":"VEC2"},{"bufferView":57,"componentType":5126,"count":192,"max":[-1.4609999656677246,1.4913618564605713,-0.6535455584526062],"min":[-1.499000072479248,1.305999994277954,-0.9664544463157654],"type":"VEC3"},{"bufferView":58,"componentType":5126,"count":192,"type":"VEC3"},{"bufferView":59,"componentType":5126,"count":192,"type":"VEC2"},{"bufferView":60,"componentType":5123,"count":576,"type":"SCALAR"},{"bufferView":61,"componentType":5126,"count":190,"max":[-1.3886381387710571,1.4190000295639038,-0.8335455656051636],"min":[-1.571454405784607,1.3809999227523804,-1.1464544534683228],"type":"VEC3"},{"bufferView":62,"componentType":5126,"count":190,"type":"VEC3"},{"bufferView":63,"componentType":5126,"count":190,"type":"VEC2"},{"bufferView":64,"componentType":5126,"count":192,"max":[-1.4609999656677246,1.4913618564605713,-1.0135455131530762],"min":[-1.499000072479248,1.305999994277954,-1.3264544010162354],"type":"VEC3"},{"bufferView":65,"componentType":5126,"count":192,"type":"VEC3"},{"bufferView":66,"componentType":5126,"count":192,"type":"VEC2"},{"bufferView":67,"componentType":5126,"count":190,"max":[-1.3886381387710571,1.4190000295639038,-1.1935455799102783],"min":[-1.571454405784607,1.3809999227523804,-1.5064544677734375],"type":"VEC3"},{"bufferView":68,"componentType":5126,"count":190,"type":"VEC3"},{"bufferView":69,"componentType":5126,"count":190,"type":"VEC2"},{"bufferView":70,"componentType":5126,"count":192,"max":[-1.4609999656677246,1.4913618564605713,-1.373545527458191],"min":[-1.499000072479248,1.305999994277954,-1.68645441532135],"type":"VEC3"},{"bufferView":71,"componentType":5126,"count":192,"type":"VEC3"},{"bufferView":72,"componentType":5126,"count":192,"type":"VEC2"},{"bufferView":73,"componentType":5123,"count":576,"type":"SCALAR"},{"bufferView":74,"componentType":5126,"count":190,"max":[-1.3886381387710571,1.4190000295639038,-1.553545594215393],"min":[-1.571454405784607,1.3809999227523804,-1.8664544820785522],"type":"VEC3"},{"bufferView":75,"componentType":5126,"count":190,"type":"VEC3"},{"bufferView":76,"componentType":5126,"count":190,"type":"VEC2"},{"bufferView":77,"componentType":5126,"count":192,"max":[-1.4609999656677246,1.4913618564605713,-1.7335455417633057],"min":[-1.499000072479248,1.305999994277954,-2.046454429626465],"type":"VEC3"},{"bufferView":78,"componentType":5126,"count":192,"type":"VEC3"},{"bufferView":79,"componentType":5126,"count":192,"type":"VEC2"},{"bufferView":80,"componentType":5126,"count":190,"max":[-1.3886381387710571,1.4190000295639038,-1.9135454893112183],"min":[-1.571454405784607,1.3809999227523804,-2.226454496383667],"type":"VEC3"},{"bufferView":81,"componentType":5126,"count":190,"type":"VEC3"},{"bufferView":82,"componentType":5126,"count":190,"type":"VEC2"},{"bufferView":83,"componentType":5126,"count":192,"max":[-1.4609999656677246,1.4913618564605713,-2.093545436859131],"min":[-1.499000072479248,1.305999994277954,-2.406454563140869],"type":"VEC3"},{"bufferView":84,"componentType":5126,"count":192,"type":"VEC3"},{"bufferView":85,"componentType":5126,"count":192,"type":"VEC2"},{"bufferView":86,"componentType":5126,"count":190,"max":[-1.3886381387710571,1.4190000295639038,-2.273545503616333],"min":[-1.571454405784607,1.3809999227523804,-2.586454391479492],"type":"VEC3"},{"bufferView":87,"componentType":5126,"count":190,"type":"VEC3"},{"bufferView":88,"componentType":5126,"count":190,"type":"VEC2"},{"bufferView":89,"componentType":5126,"count":190,"max":[1.571361780166626,-1.3809999227523804,-0.11354551464319229],"min":[1.3885455131530762,-1.4190000295639038,-0.42645448446273804],"type":"VEC3"},{"bufferView":90,"componentType":5126,"count":190,"type":"VEC3"},{"bufferView":91,"componentType":5126,"count":190,"type":"VEC2"},{"bufferView":92,"componentType":5126,"count":192,"max":[1.499000072479248,-1.3086382150650024,-0.29354551434516907],"min":[1.4609999656677246,-1.4940000772476196,-0.6064544320106506],"type":"VEC3"},{"bufferView":93,"componentType":5126,"count":192,"type":"VEC3"},{"bufferView":94,"componentType":5126,"count":192,"type":"VEC2"},{"bufferView":95,"componentType":5126,"count":190,"max":[1.571361780166626,-1.3809999227523804,-0.47354552149772644],"min":[1.3885455131530762,-1.4190000295639038,-0.786454439163208],"type":"VEC3"},{"bufferView":96,"componentType":5126,"count":190,"type":"VEC3"},{"bufferView":97,"componentType":5126,"count":190,"type":"VEC2"},{"bufferView":98,"componentType":5126,"count":192,"max":[1.499000072479248,-1.3086382150650024,-0.6535455584526062],"min":[1.4609999656677246,-1.4940000772476196,-0.9664544463157654],"type":"VEC3"},{"bufferView":99,"componentType":5126,"count":192,"type":"VEC3"},{"bufferView":100,"componentType":5126,"count":192,"type":"VEC2"},{"bufferView":101,"componentType":5126,"count":190,"max":[1.571361780166626,-1.3809999227523804,-0.8335455656051636],"min":[1.3885455131530762,-1.4190000295639038,-1.1464544534683228],"type":"VEC3"},{"bufferView":102,"componentType":5126,"count":190,"type":"VEC3"},{"bufferView":103,"componentType":5126,"count":190,"type":"VEC2"},{"bufferView":104,"componentType":5126,"count":192,"max":[1.499000072479248,-1.3086382150650024,-1.0135455131530762],"min":[1.4609999656677246,-1.4940000772476196,-1.3264544010162354],"type":"VEC3"},{"bufferView":105,"componentType":5126,"count":192,"type":"VEC3"},{"bufferView":106,"componentType":5126,"count":192,"type":"VEC2"},{"bufferView":107,"componentType":5126,"count":190,"max":[1.571361780166626,-1.3809999227523804,-1.1935455799102783],"min":[1.3885455131530762,-1.4190000295639038,-1.5064544677734375],"type":"VEC3"},{"bufferView":108,"componentType":5126,"count":190,"type":"VEC3"},{"bufferView":109,"componentType":5126,"count":190,"type":"VEC2"},{"bufferView":110,"componentType":5123,"count":576,"type":"SCALAR"},{"bufferView":111,"componentType":5126,"count":192,"max":[1.499000072479248,-1.3086382150650024,-1.373545527458191],"min":[1.4609999656677246,-1.4940000772476196,-1.68645441532135],"type":"VEC3"},{"bufferView":112,"componentType":5126,"count":192,"type":"VEC3"},{"bufferView":113,"componentType":5126,"count":192,"type":"VEC2"},{"bufferView":114,"componentType":5123,"count":576,"type":"SCALAR"},{"bufferView":115,"componentType":5126,"count":190,"max":[1.571361780166626,-1.3809999227523804,-1.553545594215393],"min":[1.3885455131530762,-1.4190000295639038,-1.8664544820785522],"type":"VEC3"},{"bufferView":116,"componentType":5126,"count":190,"type":"VEC3"},{"bufferView":117,"componentType":5126,"count":190,"type":"VEC2"},{"bufferView":118,"componentType":5123,"count":576,"type":"SCALAR"},{"bufferView":119,"componentType":5126,"count":192,"max":[1.499000072479248,-1.3086382150650024,-1.7335455417633057],"min":[1.4609999656677246,-1.4940000772476196,-2.046454429626465],"type":"VEC3"},{"bufferView":120,"componentType":5126,"count":192,"type":"VEC3"},{"bufferView":121,"componentType":5126,"count":192,"type":"VEC2"},{"bufferView":122,"componentType":5123,"count":576,"type":"SCALAR"},{"bufferView":123,"componentType":5126,"count":190,"max":[1.571361780166626,-1.3809999227523804,-1.9135454893112183],"min":[1.3885455131530762,-1.4190000295639038,-2.226454496383667],"type":"VEC3"},{"bufferView":124,"componentType":5126,"count":190,"type":"VEC3"},{"bufferView":125,"componentType":5126,"count":190,"type":"VEC2"},{"bufferView":126,"componentType":5126,"count":192,"max":[1.499000072479248,-1.3086382150650024,-2.093545436859131],"min":[1.4609999656677246,-1.4940000772476196,-2.406454563140869],"type":"VEC3"},{"bufferView":127,"componentType":5126,"count":192,"type":"VEC3"},{"bufferView":128,"componentType":5126,"count":192,"type":"VEC2"},{"bufferView":129,"componentType":5123,"count":576,"type":"SCALAR"},{"bufferView":130,"componentType":5126,"count":190,"max":[1.571361780166626,-1.3809999227523804,-2.273545503616333],"min":[1.3885455131530762,-1.4190000295639038,-2.586454391479492],"type":"VEC3"},{"bufferView":131,"componentType":5126,"count":190,"type":"VEC3"},{"bufferView":132,"componentType":5126,"count":190,"type":"VEC2"},{"bufferView":133,"componentType":5126,"count":190,"max":[1.571361780166626,1.4190000295639038,-0.11354551464319229],"min":[1.3885455131530762,1.3809999227523804,-0.42645448446273804],"type":"VEC3"},{"bufferView":134,"componentType":5126,"count":190,"type":"VEC3"},{"bufferView":135,"componentType":5126,"count":190,"type":"VEC2"},{"bufferView":136,"componentType":5126,"count":192,"max":[1.499000072479248,1.4913618564605713,-0.29354551434516907],"min":[1.4609999656677246,1.305999994277954,-0.6064544320106506],"type":"VEC3"},{"bufferView":137,"componentType":5126,"count":192,"type":"VEC3"},{"bufferView":138,"componentType":5126,"count":192,"type":"VEC2"},{"bufferView":139,"componentType":5126,"count":190,"max":[1.571361780166626,1.4190000295639038,-0.47354552149772644],"min":[1.3885455131530762,1.3809999227523804,-0.786454439163208],"type":"VEC3"},{"bufferView":140,"componentType":5126,"count":190,"type":"VEC3"},{"bufferView":141,"componentType":5126,"count":190,"type":"VEC2"},{"bufferView":142,"componentType":5126,"count":192,"max":[1.499000072479248,1.4913618564605713,-0.6535455584526062],"min":[1.4609999656677246,1.305999994277954,-0.9664544463157654],"type":"VEC3"},{"bufferView":143,"componentType":5126,"count":192,"type":"VEC3"},{"bufferView":144,"componentType":5126,"count":192,"type":"VEC2"},{"bufferView":145,"componentType":5126,"count":190,"max":[1.571361780166626,1.4190000295639038,-0.8335455656051636],"min":[1.3885455131530762,1.3809999227523804,-1.1464544534683228],"type":"VEC3"},{"bufferView":146,"componentType":5126,"count":190,"type":"VEC3"},{"bufferView":147,"componentType":5126,"count":190,"type":"VEC2"},{"bufferView":148,"componentType":5126,"count":192,"max":[1.499000072479248,1.4913618564605713,-1.0135455131530762],"min":[1.4609999656677246,1.305999994277954,-1.3264544010162354],"type":"VEC3"},{"bufferView":149,"componentType":5126,"count":192,"type":"VEC3"},{"bufferView":150,"componentType":5126,"count":192,"type":"VEC2"},{"bufferView":151,"componentType":5126,"count":190,"max":[1.571361780166626,1.4190000295639038,-1.1935455799102783],"min":[1.3885455131530762,1.3809999227523804,-1.5064544677734375],"type":"VEC3"},{"bufferView":152,"componentType":5126,"count":190,"type":"VEC3"},{"bufferView":153,"componentType":5126,"count":190,"type":"VEC2"},{"bufferView":154,"componentType":5123,"count":576,"type":"SCALAR"},{"bufferView":155,"componentType":5126,"count":192,"max":[1.499000072479248,1.4913618564605713,-1.373545527458191],"min":[1.4609999656677246,1.305999994277954,-1.68645441532135],"type":"VEC3"},{"bufferView":156,"componentType":5126,"count":192,"type":"VEC3"},{"bufferView":157,"componentType":5126,"count":192,"type":"VEC2"},{"bufferView":158,"componentType":5123,"count":576,"type":"SCALAR"},{"bufferView":159,"componentType":5126,"count":190,"max":[1.571361780166626,1.4190000295639038,-1.553545594215393],"min":[1.3885455131530762,1.3809999227523804,-1.8664544820785522],"type":"VEC3"},{"bufferView":160,"componentType":5126,"count":190,"type":"VEC3"},{"bufferView":161,"componentType":5126,"count":190,"type":"VEC2"},{"bufferView":162,"componentType":5126,"count":192,"max":[1.499000072479248,1.4913618564605713,-1.7335455417633057],"min":[1.4609999656677246,1.305999994277954,-2.046454429626465],"type":"VEC3"},{"bufferView":163,"componentType":5126,"count":192,"type":"VEC3"},{"bufferView":164,"componentType":5126,"count":192,"type":"VEC2"},{"bufferView":165,"componentType":5126,"count":190,"max":[1.571361780166626,1.4190000295639038,-1.9135454893112183],"min":[1.3885455131530762,1.3809999227523804,-2.226454496383667],"type":"VEC3"},{"bufferView":166,"componentType":5126,"count":190,"type":"VEC3"},{"bufferView":167,"componentType":5126,"count":190,"type":"VEC2"},{"bufferView":168,"componentType":5126,"count":192,"max":[1.499000072479248,1.4913618564605713,-2.093545436859131],"min":[1.4609999656677246,1.305999994277954,-2.406454563140869],"type":"VEC3"},{"bufferView":169,"componentType":5126,"count":192,"type":"VEC3"},{"bufferView":170,"componentType":5126,"count":192,"type":"VEC2"},{"bufferView":171,"componentType":5126,"count":190,"max":[1.571361780166626,1.4190000295639038,-2.273545503616333],"min":[1.3885455131530762,1.3809999227523804,-2.586454391479492],"type":"VEC3"},{"bufferView":172,"componentType":5126,"count":190,"type":"VEC3"},{"bufferView":173,"componentType":5126,"count":190,"type":"VEC2"},{"bufferView":174,"componentType":5126,"count":283,"max":[-1.1299999952316284,1.5,0],"min":[-1.4299999475479126,-1.5,-0.20000000298023224],"type":"VEC3"},{"bufferView":175,"componentType":5126,"count":283,"type":"VEC3"},{"bufferView":176,"componentType":5126,"count":283,"type":"VEC2"},{"bufferView":177,"componentType":5123,"count":564,"type":"SCALAR"},{"bufferView":178,"componentType":5126,"count":285,"max":[-0.809999942779541,1.5,0],"min":[-1.1100000143051147,-1.5,-0.20000000298023224],"type":"VEC3"},{"bufferView":179,"componentType":5126,"count":285,"type":"VEC3"},{"bufferView":180,"componentType":5126,"count":285,"type":"VEC2"},{"bufferView":181,"componentType":5123,"count":564,"type":"SCALAR"},{"bufferView":182,"componentType":5126,"count":282,"max":[-0.4899999797344208,1.5,0],"min":[-0.7899999618530273,-1.5,-0.20000000298023224],"type":"VEC3"},{"bufferView":183,"componentType":5126,"count":282,"type":"VEC3"},{"bufferView":184,"componentType":5126,"count":282,"type":"VEC2"},{"bufferView":185,"componentType":5123,"count":564,"type":"SCALAR"},{"bufferView":186,"componentType":5126,"count":276,"max":[-0.16999998688697815,1.5,0],"min":[-0.4699999988079071,-1.5,-0.20000000298023224],"type":"VEC3"},{"bufferView":187,"componentType":5126,"count":276,"type":"VEC3"},{"bufferView":188,"componentType":5126,"count":276,"type":"VEC2"},{"bufferView":189,"componentType":5123,"count":564,"type":"SCALAR"},{"bufferView":190,"componentType":5126,"count":282,"max":[0.15000000596046448,1.5,0],"min":[-0.15000000596046448,-1.5,-0.20000000298023224],"type":"VEC3"},{"bufferView":191,"componentType":5126,"count":282,"type":"VEC3"},{"bufferView":192,"componentType":5126,"count":282,"type":"VEC2"},{"bufferView":193,"componentType":5123,"count":564,"type":"SCALAR"},{"bufferView":194,"componentType":5126,"count":276,"max":[0.4699999988079071,1.5,0],"min":[0.16999998688697815,-1.5,-0.20000000298023224],"type":"VEC3"},{"bufferView":195,"componentType":5126,"count":276,"type":"VEC3"},{"bufferView":196,"componentType":5126,"count":276,"type":"VEC2"},{"bufferView":197,"componentType":5123,"count":564,"type":"SCALAR"},{"bufferView":198,"componentType":5126,"count":284,"max":[0.7899999618530273,1.5,0],"min":[0.4899999797344208,-1.5,-0.20000000298023224],"type":"VEC3"},{"bufferView":199,"componentType":5126,"count":284,"type":"VEC3"},{"bufferView":200,"componentType":5126,"count":284,"type":"VEC2"},{"bufferView":201,"componentType":5123,"count":564,"type":"SCALAR"},{"bufferView":202,"componentType":5126,"count":284,"max":[1.1100000143051147,1.5,0],"min":[0.809999942779541,-1.5,-0.20000000298023224],"type":"VEC3"},{"bufferView":203,"componentType":5126,"count":284,"type":"VEC3"},{"bufferView":204,"componentType":5126,"count":284,"type":"VEC2"},{"bufferView":205,"componentType":5123,"count":564,"type":"SCALAR"},{"bufferView":206,"componentType":5126,"count":285,"max":[1.4299999475479126,1.5,0],"min":[1.1299999952316284,-1.5,-0.20000000298023224],"type":"VEC3"},{"bufferView":207,"componentType":5126,"count":285,"type":"VEC3"},{"bufferView":208,"componentType":5126,"count":285,"type":"VEC2"},{"bufferView":209,"componentType":5123,"count":564,"type":"SCALAR"},{"bufferView":210,"componentType":5126,"count":321,"max":[-1.4049999713897705,1.5750000476837158,0.22500000894069672],"min":[-1.5550000667572021,-1.5750000476837158,-0.04500000178813934],"type":"VEC3"},{"bufferView":211,"componentType":5126,"count":321,"type":"VEC3"},{"bufferView":212,"componentType":5126,"count":321,"type":"VEC2"},{"bufferView":213,"componentType":5123,"count":564,"type":"SCALAR"},{"bufferView":214,"componentType":5126,"count":321,"max":[1.5550000667572021,1.5750000476837158,0.22500000894069672],"min":[1.4049999713897705,-1.5750000476837158,-0.04500000178813934],"type":"VEC3"},{"bufferView":215,"componentType":5126,"count":321,"type":"VEC3"},{"bufferView":216,"componentType":5126,"count":321,"type":"VEC2"},{"bufferView":217,"componentType":5123,"count":564,"type":"SCALAR"}],"bufferViews":[{"buffer":0,"byteLength":2280,"byteOffset":0,"target":34962},{"buffer":0,"byteLength":2280,"byteOffset":2280,"target":34962},{"buffer":0,"byteLength":1520,"byteOffset":4560,"target":34962},{"buffer":0,"byteLength":1152,"byteOffset":6080,"target":34963},{"buffer":0,"byteLength":2304,"byteOffset":7232,"target":34962},{"buffer":0,"byteLength":2304,"byteOffset":9536,"target":34962},{"buffer":0,"byteLength":1536,"byteOffset":11840,"target":34962},{"buffer":0,"byteLength":1152,"byteOffset":13376,"target":34963},{"buffer":0,"byteLength":2280,"byteOffset":14528,"target":34962},{"buffer":0,"byteLength":2280,"byteOffset":16808,"target":34962},{"buffer":0,"byteLength":1520,"byteOffset":19088,"target":34962},{"buffer":0,"byteLength":2304,"byteOffset":20608,"target":34962},{"buffer":0,"byteLength":2304,"byteOffset":22912,"target":34962},{"buffer":0,"byteLength":1536,"byteOffset":25216,"target":34962},{"buffer":0,"byteLength":2280,"byteOffset":26752,"target":34962},{"buffer":0,"byteLength":2280,"byteOffset":29032,"target":34962},{"buffer":0,"byteLength":1520,"byteOffset":31312,"target":34962},{"buffer":0,"byteLength":2304,"byteOffset":32832,"target":34962},{"buffer":0,"byteLength":2304,"byteOffset":35136,"target":34962},{"buffer":0,"byteLength":1536,"byteOffset":37440,"target":34962},{"buffer":0,"byteLength":1152,"byteOffset":38976,"target":34963},{"buffer":0,"byteLength":2280,"byteOffset":40128,"target":34962},{"buffer":0,"byteLength":2280,"byteOffset":42408,"target":34962},{"buffer":0,"byteLength":1520,"byteOffset":44688,"target":34962},{"buffer":0,"byteLength":1152,"byteOffset":46208,"target":34963},{"buffer":0,"byteLength":2304,"byteOffset":47360,"target":34962},{"buffer":0,"byteLength":2304,"byteOffset":49664,"target":34962},{"buffer":0,"byteLength":1536,"byteOffset":51968,"target":34962},{"buffer":0,"byteLength":1152,"byteOffset":53504,"target":34963},{"buffer":0,"byteLength":2280,"byteOffset":54656,"target":34962},{"buffer":0,"byteLength":2280,"byteOffset":56936,"target":34962},{"buffer":0,"byteLength":1520,"byteOffset":59216,"target":34962},{"buffer":0,"byteLength":1152,"byteOffset":60736,"target":34963},{"buffer":0,"byteLength":2304,"byteOffset":61888,"target":34962},{"buffer":0,"byteLength":2304,"byteOffset":64192,"target":34962},{"buffer":0,"byteLength":1536,"byteOffset":66496,"target":34962},{"buffer":0,"byteLength":1152,"byteOffset":68032,"target":34963},{"buffer":0,"byteLength":2280,"byteOffset":69184,"target":34962},{"buffer":0,"byteLength":2280,"byteOffset":71464,"target":34962},{"buffer":0,"byteLength":1520,"byteOffset":73744,"target":34962},{"buffer":0,"byteLength":2304,"byteOffset":75264,"target":34962},{"buffer":0,"byteLength":2304,"byteOffset":77568,"target":34962},{"buffer":0,"byteLength":1536,"byteOffset":79872,"target":34962},{"buffer":0,"byteLength":1152,"byteOffset":81408,"target":34963},{"buffer":0,"byteLength":2280,"byteOffset":82560,"target":34962},{"buffer":0,"byteLength":2280,"byteOffset":84840,"target":34962},{"buffer":0,"byteLength":1520,"byteOffset":87120,"target":34962},{"buffer":0,"byteLength":2280,"byteOffset":88640,"target":34962},{"buffer":0,"byteLength":2280,"byteOffset":90920,"target":34962},{"buffer":0,"byteLength":1520,"byteOffset":93200,"target":34962},{"buffer":0,"byteLength":2304,"byteOffset":94720,"target":34962},{"buffer":0,"byteLength":2304,"byteOffset":97024,"target":34962},{"buffer":0,"byteLength":1536,"byteOffset":99328,"target":34962},{"buffer":0,"byteLength":1152,"byteOffset":100864,"target":34963},{"buffer":0,"byteLength":2280,"byteOffset":102016,"target":34962},{"buffer":0,"byteLength":2280,"byteOffset":104296,"target":34962},{"buffer":0,"byteLength":1520,"byteOffset":106576,"target":34962},{"buffer":0,"byteLength":2304,"byteOffset":108096,"target":34962},{"buffer":0,"byteLength":2304,"byteOffset":110400,"target":34962},{"buffer":0,"byteLength":1536,"byteOffset":112704,"target":34962},{"buffer":0,"byteLength":1152,"byteOffset":114240,"target":34963},{"buffer":0,"byteLength":2280,"byteOffset":115392,"target":34962},{"buffer":0,"byteLength":2280,"byteOffset":117672,"target":34962},{"buffer":0,"byteLength":1520,"byteOffset":119952,"target":34962},{"buffer":0,"byteLength":2304,"byteOffset":121472,"target":34962},{"buffer":0,"byteLength":2304,"byteOffset":123776,"target":34962},{"buffer":0,"byteLength":1536,"byteOffset":126080,"target":34962},{"buffer":0,"byteLength":2280,"byteOffset":127616,"target":34962},{"buffer":0,"byteLength":2280,"byteOffset":129896,"target":34962},{"buffer":0,"byteLength":1520,"byteOffset":132176,"target":34962},{"buffer":0,"byteLength":2304,"byteOffset":133696,"target":34962},{"buffer":0,"byteLength":2304,"byteOffset":136000,"target":34962},{"buffer":0,"byteLength":1536,"byteOffset":138304,"target":34962},{"buffer":0,"byteLength":1152,"byteOffset":139840,"target":34963},{"buffer":0,"byteLength":2280,"byteOffset":140992,"target":34962},{"buffer":0,"byteLength":2280,"byteOffset":143272,"target":34962},{"buffer":0,"byteLength":1520,"byteOffset":145552,"target":34962},{"buffer":0,"byteLength":2304,"byteOffset":147072,"target":34962},{"buffer":0,"byteLength":2304,"byteOffset":149376,"target":34962},{"buffer":0,"byteLength":1536,"byteOffset":151680,"target":34962},{"buffer":0,"byteLength":2280,"byteOffset":153216,"target":34962},{"buffer":0,"byteLength":2280,"byteOffset":155496,"target":34962},{"buffer":0,"byteLength":1520,"byteOffset":157776,"target":34962},{"buffer":0,"byteLength":2304,"byteOffset":159296,"target":34962},{"buffer":0,"byteLength":2304,"byteOffset":161600,"target":34962},{"buffer":0,"byteLength":1536,"byteOffset":163904,"target":34962},{"buffer":0,"byteLength":2280,"byteOffset":165440,"target":34962},{"buffer":0,"byteLength":2280,"byteOffset":167720,"target":34962},{"buffer":0,"byteLength":1520,"byteOffset":170000,"target":34962},{"buffer":0,"byteLength":2280,"byteOffset":171520,"target":34962},{"buffer":0,"byteLength":2280,"byteOffset":173800,"target":34962},{"buffer":0,"byteLength":1520,"byteOffset":176080,"target":34962},{"buffer":0,"byteLength":2304,"byteOffset":177600,"target":34962},{"buffer":0,"byteLength":2304,"byteOffset":179904,"target":34962},{"buffer":0,"byteLength":1536,"byteOffset":182208,"target":34962},{"buffer":0,"byteLength":2280,"byteOffset":183744,"target":34962},{"buffer":0,"byteLength":2280,"byteOffset":186024,"target":34962},{"buffer":0,"byteLength":1520,"byteOffset":188304,"target":34962},{"buffer":0,"byteLength":2304,"byteOffset":189824,"target":34962},{"buffer":0,"byteLength":2304,"byteOffset":192128,"target":34962},{"buffer":0,"byteLength":1536,"byteOffset":194432,"target":34962},{"buffer":0,"byteLength":2280,"byteOffset":195968,"target":34962},{"buffer":0,"byteLength":2280,"byteOffset":198248,"target":34962},{"buffer":0,"byteLength":1520,"byteOffset":200528,"target":34962},{"buffer":0,"byteLength":2304,"byteOffset":202048,"target":34962},{"buffer":0,"byteLength":2304,"byteOffset":204352,"target":34962},{"buffer":0,"byteLength":1536,"byteOffset":206656,"target":34962},{"buffer":0,"byteLength":2280,"byteOffset":208192,"target":34962},{"buffer":0,"byteLength":2280,"byteOffset":210472,"target":34962},{"buffer":0,"byteLength":1520,"byteOffset":212752,"target":34962},{"buffer":0,"byteLength":1152,"byteOffset":214272,"target":34963},{"buffer":0,"byteLength":2304,"byteOffset":215424,"target":34962},{"buffer":0,"byteLength":2304,"byteOffset":217728,"target":34962},{"buffer":0,"byteLength":1536,"byteOffset":220032,"target":34962},{"buffer":0,"byteLength":1152,"byteOffset":221568,"target":34963},{"buffer":0,"byteLength":2280,"byteOffset":222720,"target":34962},{"buffer":0,"byteLength":2280,"byteOffset":225000,"target":34962},{"buffer":0,"byteLength":1520,"byteOffset":227280,"target":34962},{"buffer":0,"byteLength":1152,"byteOffset":228800,"target":34963},{"buffer":0,"byteLength":2304,"byteOffset":229952,"target":34962},{"buffer":0,"byteLength":2304,"byteOffset":232256,"target":34962},{"buffer":0,"byteLength":1536,"byteOffset":234560,"target":34962},{"buffer":0,"byteLength":1152,"byteOffset":236096,"target":34963},{"buffer":0,"byteLength":2280,"byteOffset":237248,"target":34962},{"buffer":0,"byteLength":2280,"byteOffset":239528,"target":34962},{"buffer":0,"byteLength":1520,"byteOffset":241808,"target":34962},{"buffer":0,"byteLength":2304,"byteOffset":243328,"target":34962},{"buffer":0,"byteLength":2304,"byteOffset":245632,"target":34962},{"buffer":0,"byteLength":1536,"byteOffset":247936,"target":34962},{"buffer":0,"byteLength":1152,"byteOffset":249472,"target":34963},{"buffer":0,"byteLength":2280,"byteOffset":250624,"target":34962},{"buffer":0,"byteLength":2280,"byteOffset":252904,"target":34962},{"buffer":0,"byteLength":1520,"byteOffset":255184,"target":34962},{"buffer":0,"byteLength":2280,"byteOffset":256704,"target":34962},{"buffer":0,"byteLength":2280,"byteOffset":258984,"target":34962},{"buffer":0,"byteLength":1520,"byteOffset":261264,"target":34962},{"buffer":0,"byteLength":2304,"byteOffset":262784,"target":34962},{"buffer":0,"byteLength":2304,"byteOffset":265088,"target":34962},{"buffer":0,"byteLength":1536,"byteOffset":267392,"target":34962},{"buffer":0,"byteLength":2280,"byteOffset":268928,"target":34962},{"buffer":0,"byteLength":2280,"byteOffset":271208,"target":34962},{"buffer":0,"byteLength":1520,"byteOffset":273488,"target":34962},{"buffer":0,"byteLength":2304,"byteOffset":275008,"target":34962},{"buffer":0,"byteLength":2304,"byteOffset":277312,"target":34962},{"buffer":0,"byteLength":1536,"byteOffset":279616,"target":34962},{"buffer":0,"byteLength":2280,"byteOffset":281152,"target":34962},{"buffer":0,"byteLength":2280,"byteOffset":283432,"target":34962},{"buffer":0,"byteLength":1520,"byteOffset":285712,"target":34962},{"buffer":0,"byteLength":2304,"byteOffset":287232,"target":34962},{"buffer":0,"byteLength":2304,"byteOffset":289536,"target":34962},{"buffer":0,"byteLength":1536,"byteOffset":291840,"target":34962},{"buffer":0,"byteLength":2280,"byteOffset":293376,"target":34962},{"buffer":0,"byteLength":2280,"byteOffset":295656,"target":34962},{"buffer":0,"byteLength":1520,"byteOffset":297936,"target":34962},{"buffer":0,"byteLength":1152,"byteOffset":299456,"target":34963},{"buffer":0,"byteLength":2304,"byteOffset":300608,"target":34962},{"buffer":0,"byteLength":2304,"byteOffset":302912,"target":34962},{"buffer":0,"byteLength":1536,"byteOffset":305216,"target":34962},{"buffer":0,"byteLength":1152,"byteOffset":306752,"target":34963},{"buffer":0,"byteLength":2280,"byteOffset":307904,"target":34962},{"buffer":0,"byteLength":2280,"byteOffset":310184,"target":34962},{"buffer":0,"byteLength":1520,"byteOffset":312464,"target":34962},{"buffer":0,"byteLength":2304,"byteOffset":313984,"target":34962},{"buffer":0,"byteLength":2304,"byteOffset":316288,"target":34962},{"buffer":0,"byteLength":1536,"byteOffset":318592,"target":34962},{"buffer":0,"byteLength":2280,"byteOffset":320128,"target":34962},{"buffer":0,"byteLength":2280,"byteOffset":322408,"target":34962},{"buffer":0,"byteLength":1520,"byteOffset":324688,"target":34962},{"buffer":0,"byteLength":2304,"byteOffset":326208,"target":34962},{"buffer":0,"byteLength":2304,"byteOffset":328512,"target":34962},{"buffer":0,"byteLength":1536,"byteOffset":330816,"target":34962},{"buffer":0,"byteLength":2280,"byteOffset":332352,"target":34962},{"buffer":0,"byteLength":2280,"byteOffset":334632,"target":34962},{"buffer":0,"byteLength":1520,"byteOffset":336912,"target":34962},{"buffer":0,"byteLength":3396,"byteOffset":338432,"target":34962},{"buffer":0,"byteLength":3396,"byteOffset":341828,"target":34962},{"buffer":0,"byteLength":2264,"byteOffset":345224,"target":34962},{"buffer":0,"byteLength":1128,"byteOffset":347488,"target":34963},{"buffer":0,"byteLength":3420,"byteOffset":348616,"target":34962},{"buffer":0,"byteLength":3420,"byteOffset":352036,"target":34962},{"buffer":0,"byteLength":2280,"byteOffset":355456,"target":34962},{"buffer":0,"byteLength":1128,"byteOffset":357736,"target":34963},{"buffer":0,"byteLength":3384,"byteOffset":358864,"target":34962},{"buffer":0,"byteLength":3384,"byteOffset":362248,"target":34962},{"buffer":0,"byteLength":2256,"byteOffset":365632,"target":34962},{"buffer":0,"byteLength":1128,"byteOffset":367888,"target":34963},{"buffer":0,"byteLength":3312,"byteOffset":369016,"target":34962},{"buffer":0,"byteLength":3312,"byteOffset":372328,"target":34962},{"buffer":0,"byteLength":2208,"byteOffset":375640,"target":34962},{"buffer":0,"byteLength":1128,"byteOffset":377848,"target":34963},{"buffer":0,"byteLength":3384,"byteOffset":378976,"target":34962},{"buffer":0,"byteLength":3384,"byteOffset":382360,"target":34962},{"buffer":0,"byteLength":2256,"byteOffset":385744,"target":34962},{"buffer":0,"byteLength":1128,"byteOffset":388000,"target":34963},{"buffer":0,"byteLength":3312,"byteOffset":389128,"target":34962},{"buffer":0,"byteLength":3312,"byteOffset":392440,"target":34962},{"buffer":0,"byteLength":2208,"byteOffset":395752,"target":34962},{"buffer":0,"byteLength":1128,"byteOffset":397960,"target":34963},{"buffer":0,"byteLength":3408,"byteOffset":399088,"target":34962},{"buffer":0,"byteLength":3408,"byteOffset":402496,"target":34962},{"buffer":0,"byteLength":2272,"byteOffset":405904,"target":34962},{"buffer":0,"byteLength":1128,"byteOffset":408176,"target":34963},{"buffer":0,"byteLength":3408,"byteOffset":409304,"target":34962},{"buffer":0,"byteLength":3408,"byteOffset":412712,"target":34962},{"buffer":0,"byteLength":2272,"byteOffset":416120,"target":34962},{"buffer":0,"byteLength":1128,"byteOffset":418392,"target":34963},{"buffer":0,"byteLength":3420,"byteOffset":419520,"target":34962},{"buffer":0,"byteLength":3420,"byteOffset":422940,"target":34962},{"buffer":0,"byteLength":2280,"byteOffset":426360,"target":34962},{"buffer":0,"byteLength":1128,"byteOffset":428640,"target":34963},{"buffer":0,"byteLength":3852,"byteOffset":429768,"target":34962},{"buffer":0,"byteLength":3852,"byteOffset":433620,"target":34962},{"buffer":0,"byteLength":2568,"byteOffset":437472,"target":34962},{"buffer":0,"byteLength":1128,"byteOffset":440040,"target":34963},{"buffer":0,"byteLength":3852,"byteOffset":441168,"target":34962},{"buffer":0,"byteLength":3852,"byteOffset":445020,"target":34962},{"buffer":0,"byteLength":2568,"byteOffset":448872,"target":34962},{"buffer":0,"byteLength":1128,"byteOffset":451440,"target":34963}],"samplers":[{"magFilter":9729,"minFilter":9987}],"buffers":[{"uri":"C16_chain_lift.bin","byteLength":452568}]}