{"asset":{"generator":"Khronos glTF Blender I/O v5.2.40","version":"2.0"},"scene":0,"scenes":[{"name":"Scene","nodes":[0,1,2,3,4,5,6,7,8,9,10,11,12,13,14,15,16,17,18,19,20,21,22,23,24,25,26,27]}],"nodes":[{"mesh":0,"name":"Crank handle","rotation":[0.7071068286895752,0,0,0.7071068286895752]},{"mesh":1,"name":"Drum end ring","rotation":[0.7071068286895752,0,0,0.7071068286895752]},{"mesh":2,"name":"Drum end ring.001","rotation":[0.7071068286895752,0,0,0.7071068286895752]},{"mesh":3,"name":"Iron axle","rotation":[0.7071068286895752,0,0,0.7071068286895752]},{"mesh":4,"name":"Winch base","rotation":[0.7071068286895752,0,0,0.7071068286895752]},{"mesh":5,"name":"Winch base.001","rotation":[0.7071068286895752,0,0,0.7071068286895752]},{"mesh":6,"name":"Winch frame","rotation":[0.7071068286895752,0,0,0.7071068286895752]},{"mesh":7,"name":"Winch frame.001","rotation":[0.7071068286895752,0,0,0.7071068286895752]},{"mesh":8,"name":"Wound hemp","rotation":[0.7071068286895752,0,0,0.7071068286895752]},{"mesh":9,"name":"Wound hemp.001","rotation":[0.7071068286895752,0,0,0.7071068286895752]},{"mesh":10,"name":"Wound hemp.002","rotation":[0.7071068286895752,0,0,0.7071068286895752]},{"mesh":11,"name":"Wound hemp.003","rotation":[0.7071068286895752,0,0,0.7071068286895752]},{"mesh":12,"name":"Wound hemp.004","rotation":[0.7071068286895752,0,0,0.7071068286895752]},{"mesh":13,"name":"Wound hemp.005","rotation":[0.7071068286895752,0,0,0.7071068286895752]},{"mesh":14,"name":"Wound hemp.006","rotation":[0.7071068286895752,0,0,0.7071068286895752]},{"mesh":15,"name":"Wound hemp.007","rotation":[0.7071068286895752,0,0,0.7071068286895752]},{"mesh":16,"name":"Wound hemp.008","rotation":[0.7071068286895752,0,0,0.7071068286895752]},{"mesh":17,"name":"Wound hemp.009","rotation":[0.7071068286895752,0,0,0.7071068286895752]},{"mesh":18,"name":"Wound hemp.010","rotation":[0.7071068286895752,0,0,0.7071068286895752]},{"mesh":19,"name":"Wound hemp.011","rotation":[0.7071068286895752,0,0,0.7071068286895752]},{"mesh":20,"name":"Wound hemp.012","rotation":[0.7071068286895752,0,0,0.7071068286895752]},{"mesh":21,"name":"Wound hemp.013","rotation":[0.7071068286895752,0,0,0.7071068286895752]},{"mesh":22,"name":"Wound hemp.014","rotation":[0.7071068286895752,0,0,0.7071068286895752]},{"mesh":23,"name":"Wound hemp.015","rotation":[0.7071068286895752,0,0,0.7071068286895752]},{"mesh":24,"name":"Wound hemp.016","rotation":[0.7071068286895752,0,0,0.7071068286895752]},{"mesh":25,"name":"Wound hemp.017","rotation":[0.7071068286895752,0,0,0.7071068286895752]},{"mesh":26,"name":"Wound hemp.018","rotation":[0.7071068286895752,0,0,0.7071068286895752]},{"mesh":27,"name":"Wound hemp.019","rotation":[0.7071068286895752,0,0,0.7071068286895752]}],"materials":[{"doubleSided":true,"name":"Forged iron","pbrMetallicRoughness":{"baseColorFactor":[0.04699999839067459,0.054999999701976776,0.04800000041723251,1],"metallicFactor":0.699999988079071,"roughnessFactor":0.6200000047683716}},{"doubleSided":true,"name":"Split oak","normalTexture":{"index":0,"scale":0.699999988079071},"pbrMetallicRoughness":{"baseColorTexture":{"index":1},"metallicFactor":0,"metallicRoughnessTexture":{"index":2}}}],"meshes":[{"name":"Crank handle","primitives":[{"attributes":{"POSITION":0,"NORMAL":1,"TEXCOORD_0":2},"indices":3,"material":0}]},{"name":"Drum end ring","primitives":[{"attributes":{"POSITION":4,"NORMAL":5,"TEXCOORD_0":6},"indices":7,"material":0}]},{"name":"Drum end ring.001","primitives":[{"attributes":{"POSITION":8,"NORMAL":9,"TEXCOORD_0":10},"indices":11,"material":0}]},{"name":"Iron axle","primitives":[{"attributes":{"POSITION":12,"NORMAL":13,"TEXCOORD_0":14},"indices":15,"material":0}]},{"name":"Winch base","primitives":[{"attributes":{"POSITION":16,"NORMAL":17,"TEXCOORD_0":18},"indices":19,"material":0}]},{"name":"Winch base.001","primitives":[{"attributes":{"POSITION":20,"NORMAL":21,"TEXCOORD_0":22},"indices":23,"material":0}]},{"name":"Winch frame","primitives":[{"attributes":{"POSITION":24,"NORMAL":25,"TEXCOORD_0":26},"indices":27,"material":1}]},{"name":"Winch frame.001","primitives":[{"attributes":{"POSITION":28,"NORMAL":29,"TEXCOORD_0":30},"indices":31,"material":1}]},{"name":"Wound hemp","primitives":[{"attributes":{"POSITION":32,"NORMAL":33,"TEXCOORD_0":34},"indices":35,"material":1}]},{"name":"Wound hemp.001","primitives":[{"attributes":{"POSITION":36,"NORMAL":37,"TEXCOORD_0":38},"indices":35,"material":1}]},{"name":"Wound hemp.002","primitives":[{"attributes":{"POSITION":39,"NORMAL":40,"TEXCOORD_0":41},"indices":35,"material":1}]},{"name":"Wound hemp.003","primitives":[{"attributes":{"POSITION":42,"NORMAL":43,"TEXCOORD_0":44},"indices":35,"material":1}]},{"name":"Wound hemp.004","primitives":[{"attributes":{"POSITION":45,"NORMAL":46,"TEXCOORD_0":47},"indices":35,"material":1}]},{"name":"Wound hemp.005","primitives":[{"attributes":{"POSITION":48,"NORMAL":49,"TEXCOORD_0":50},"indices":35,"material":1}]},{"name":"Wound hemp.006","primitives":[{"attributes":{"POSITION":51,"NORMAL":52,"TEXCOORD_0":53},"indices":35,"material":1}]},{"name":"Wound hemp.007","primitives":[{"attributes":{"POSITION":54,"NORMAL":55,"TEXCOORD_0":56},"indices":35,"material":1}]},{"name":"Wound hemp.008","primitives":[{"attributes":{"POSITION":57,"NORMAL":58,"TEXCOORD_0":59},"indices":35,"material":1}]},{"name":"Wound hemp.009","primitives":[{"attributes":{"POSITION":60,"NORMAL":61,"TEXCOORD_0":62},"indices":35,"material":1}]},{"name":"Wound hemp.010","primitives":[{"attributes":{"POSITION":63,"NORMAL":64,"TEXCOORD_0":65},"indices":66,"material":1}]},{"name":"Wound hemp.011","primitives":[{"attributes":{"POSITION":67,"NORMAL":68,"TEXCOORD_0":69},"indices":70,"material":1}]},{"name":"Wound hemp.012","primitives":[{"attributes":{"POSITION":71,"NORMAL":72,"TEXCOORD_0":73},"indices":70,"material":1}]},{"name":"Wound hemp.013","primitives":[{"attributes":{"POSITION":74,"NORMAL":75,"TEXCOORD_0":76},"indices":70,"material":1}]},{"name":"Wound hemp.014","primitives":[{"attributes":{"POSITION":77,"NORMAL":78,"TEXCOORD_0":79},"indices":70,"material":1}]},{"name":"Wound hemp.015","primitives":[{"attributes":{"POSITION":80,"NORMAL":81,"TEXCOORD_0":82},"indices":70,"material":1}]},{"name":"Wound hemp.016","primitives":[{"attributes":{"POSITION":83,"NORMAL":84,"TEXCOORD_0":85},"indices":70,"material":1}]},{"name":"Wound hemp.017","primitives":[{"attributes":{"POSITION":86,"NORMAL":87,"TEXCOORD_0":88},"indices":70,"material":1}]},{"name":"Wound hemp.018","primitives":[{"attributes":{"POSITION":89,"NORMAL":90,"TEXCOORD_0":91},"indices":70,"material":1}]},{"name":"Wound hemp.019","primitives":[{"attributes":{"POSITION":92,"NORMAL":93,"TEXCOORD_0":94},"indices":70,"material":1}]}],"textures":[{"sampler":0,"source":0},{"sampler":0,"source":1},{"sampler":0,"source":2}],"images":[{"name":"normal","uri":"../textures/646b8954cd0f77aa31f9.png"},{"name":"albedo","uri":"../textures/c0324d2c3cfe6a395089.png"},{"name":"roughness","uri":"../textures/42487829eda8d1ae4111.png"}],"accessors":[{"bufferView":0,"componentType":5126,"count":58,"max":[1.25,0.04699999839067459,-0.8500000238418579],"min":[0.953000009059906,-0.04699999839067459,-1.3670001029968262],"type":"VEC3"},{"bufferView":1,"componentType":5126,"count":58,"type":"VEC3"},{"bufferView":2,"componentType":5126,"count":58,"type":"VEC2"},{"bufferView":3,"componentType":5123,"count":144,"type":"SCALAR"},{"bufferView":4,"componentType":5126,"count":528,"max":[-0.44999998807907104,0.4300000071525574,-0.4234260618686676],"min":[-0.5899999737739563,-0.4300000071525574,-1.2762534618377686],"type":"VEC3"},{"bufferView":5,"componentType":5126,"count":528,"type":"VEC3"},{"bufferView":6,"componentType":5126,"count":528,"type":"VEC2"},{"bufferView":7,"componentType":5123,"count":1920,"type":"SCALAR"},{"bufferView":8,"componentType":5126,"count":528,"max":[0.5899999737739563,0.4300000071525574,-0.4234260618686676],"min":[0.44999998807907104,-0.4300000071525574,-1.2762534618377686],"type":"VEC3"},{"bufferView":9,"componentType":5126,"count":528,"type":"VEC3"},{"bufferView":10,"componentType":5126,"count":528,"type":"VEC2"},{"bufferView":11,"componentType":5123,"count":1920,"type":"SCALAR"},{"bufferView":12,"componentType":5126,"count":40,"max":[1,0.11999999731779099,-0.7300000190734863],"min":[-1,-0.11999999731779099,-0.9700000286102295],"type":"VEC3"},{"bufferView":13,"componentType":5126,"count":40,"type":"VEC3"},{"bufferView":14,"componentType":5126,"count":40,"type":"VEC2"},{"bufferView":15,"componentType":5123,"count":96,"type":"SCALAR"},{"bufferView":16,"componentType":5126,"count":306,"max":[-0.5400000214576721,0.550000011920929,0],"min":[-0.9000000357627869,-0.550000011920929,-0.14000000059604645],"type":"VEC3"},{"bufferView":17,"componentType":5126,"count":306,"type":"VEC3"},{"bufferView":18,"componentType":5126,"count":306,"type":"VEC2"},{"bufferView":19,"componentType":5123,"count":564,"type":"SCALAR"},{"bufferView":20,"componentType":5126,"count":307,"max":[0.9000000357627869,0.550000011920929,0],"min":[0.5400000214576721,-0.550000011920929,-0.14000000059604645],"type":"VEC3"},{"bufferView":21,"componentType":5126,"count":307,"type":"VEC3"},{"bufferView":22,"componentType":5126,"count":307,"type":"VEC2"},{"bufferView":23,"componentType":5123,"count":564,"type":"SCALAR"},{"bufferView":24,"componentType":5126,"count":300,"max":[-0.625,0.25,0],"min":[-0.815000057220459,-0.25,-1.2999999523162842],"type":"VEC3"},{"bufferView":25,"componentType":5126,"count":300,"type":"VEC3"},{"bufferView":26,"componentType":5126,"count":300,"type":"VEC2"},{"bufferView":27,"componentType":5123,"count":564,"type":"SCALAR"},{"bufferView":28,"componentType":5126,"count":299,"max":[0.815000057220459,0.25,0],"min":[0.625,-0.25,-1.2999999523162842],"type":"VEC3"},{"bufferView":29,"componentType":5126,"count":299,"type":"VEC3"},{"bufferView":30,"componentType":5126,"count":299,"type":"VEC2"},{"bufferView":31,"componentType":5123,"count":564,"type":"SCALAR"},{"bufferView":32,"componentType":5126,"count":444,"max":[-0.45399999618530273,0.2759999930858612,-0.5740000009536743],"min":[-0.5059999823570251,-0.2759999930858612,-1.1258748769760132],"type":"VEC3"},{"bufferView":33,"componentType":5126,"count":444,"type":"VEC3"},{"bufferView":34,"componentType":5126,"count":444,"type":"VEC2"},{"bufferView":35,"componentType":5123,"count":1536,"type":"SCALAR"},{"bufferView":36,"componentType":5126,"count":444,"max":[-0.40400001406669617,0.2759999930858612,-0.5740000009536743],"min":[-0.4560000002384186,-0.2759999930858612,-1.1258748769760132],"type":"VEC3"},{"bufferView":37,"componentType":5126,"count":444,"type":"VEC3"},{"bufferView":38,"componentType":5126,"count":444,"type":"VEC2"},{"bufferView":39,"componentType":5126,"count":444,"max":[-0.3540000021457672,0.2759999930858612,-0.5740000009536743],"min":[-0.4059999883174896,-0.2759999930858612,-1.1258748769760132],"type":"VEC3"},{"bufferView":40,"componentType":5126,"count":444,"type":"VEC3"},{"bufferView":41,"componentType":5126,"count":444,"type":"VEC2"},{"bufferView":42,"componentType":5126,"count":444,"max":[-0.30400002002716064,0.2759999930858612,-0.5740000009536743],"min":[-0.35600000619888306,-0.2759999930858612,-1.1258748769760132],"type":"VEC3"},{"bufferView":43,"componentType":5126,"count":444,"type":"VEC3"},{"bufferView":44,"componentType":5126,"count":444,"type":"VEC2"},{"bufferView":45,"componentType":5126,"count":444,"max":[-0.2540000081062317,0.2759999930858612,-0.5740000009536743],"min":[-0.3059999942779541,-0.2759999930858612,-1.1258748769760132],"type":"VEC3"},{"bufferView":46,"componentType":5126,"count":444,"type":"VEC3"},{"bufferView":47,"componentType":5126,"count":444,"type":"VEC2"},{"bufferView":48,"componentType":5126,"count":444,"max":[-0.20399999618530273,0.2759999930858612,-0.5740000009536743],"min":[-0.25600001215934753,-0.2759999930858612,-1.1258748769760132],"type":"VEC3"},{"bufferView":49,"componentType":5126,"count":444,"type":"VEC3"},{"bufferView":50,"componentType":5126,"count":444,"type":"VEC2"},{"bufferView":51,"componentType":5126,"count":444,"max":[-0.15400001406669617,0.2759999930858612,-0.5740000009536743],"min":[-0.20600000023841858,-0.2759999930858612,-1.1258748769760132],"type":"VEC3"},{"bufferView":52,"componentType":5126,"count":444,"type":"VEC3"},{"bufferView":53,"componentType":5126,"count":444,"type":"VEC2"},{"bufferView":54,"componentType":5126,"count":444,"max":[-0.10399999469518661,0.2759999930858612,-0.5740000009536743],"min":[-0.15599998831748962,-0.2759999930858612,-1.1258748769760132],"type":"VEC3"},{"bufferView":55,"componentType":5126,"count":444,"type":"VEC3"},{"bufferView":56,"componentType":5126,"count":444,"type":"VEC2"},{"bufferView":57,"componentType":5126,"count":444,"max":[-0.053999997675418854,0.2759999930858612,-0.5740000009536743],"min":[-0.10599999874830246,-0.2759999930858612,-1.1258748769760132],"type":"VEC3"},{"bufferView":58,"componentType":5126,"count":444,"type":"VEC3"},{"bufferView":59,"componentType":5126,"count":444,"type":"VEC2"},{"bufferView":60,"componentType":5126,"count":444,"max":[-0.003999998793005943,0.2759999930858612,-0.5740000009536743],"min":[-0.0560000017285347,-0.2759999930858612,-1.1258748769760132],"type":"VEC3"},{"bufferView":61,"componentType":5126,"count":444,"type":"VEC3"},{"bufferView":62,"componentType":5126,"count":444,"type":"VEC2"},{"bufferView":63,"componentType":5126,"count":444,"max":[0.04600000008940697,0.2759999930858612,-0.5740000009536743],"min":[-0.006000000983476639,-0.2759999930858612,-1.1258748769760132],"type":"VEC3"},{"bufferView":64,"componentType":5126,"count":444,"type":"VEC3"},{"bufferView":65,"componentType":5126,"count":444,"type":"VEC2"},{"bufferView":66,"componentType":5123,"count":1536,"type":"SCALAR"},{"bufferView":67,"componentType":5126,"count":444,"max":[0.09600000083446503,0.2759999930858612,-0.5740000009536743],"min":[0.04399999976158142,-0.2759999930858612,-1.1258748769760132],"type":"VEC3"},{"bufferView":68,"componentType":5126,"count":444,"type":"VEC3"},{"bufferView":69,"componentType":5126,"count":444,"type":"VEC2"},{"bufferView":70,"componentType":5123,"count":1536,"type":"SCALAR"},{"bufferView":71,"componentType":5126,"count":444,"max":[0.1459999978542328,0.2759999930858612,-0.5740000009536743],"min":[0.09399999678134918,-0.2759999930858612,-1.1258748769760132],"type":"VEC3"},{"bufferView":72,"componentType":5126,"count":444,"type":"VEC3"},{"bufferView":73,"componentType":5126,"count":444,"type":"VEC2"},{"bufferView":74,"componentType":5126,"count":444,"max":[0.19600000977516174,0.2759999930858612,-0.5740000009536743],"min":[0.14399999380111694,-0.2759999930858612,-1.1258748769760132],"type":"VEC3"},{"bufferView":75,"componentType":5126,"count":444,"type":"VEC3"},{"bufferView":76,"componentType":5126,"count":444,"type":"VEC2"},{"bufferView":77,"componentType":5126,"count":444,"max":[0.2459999918937683,0.2759999930858612,-0.5740000009536743],"min":[0.1940000057220459,-0.2759999930858612,-1.1258748769760132],"type":"VEC3"},{"bufferView":78,"componentType":5126,"count":444,"type":"VEC3"},{"bufferView":79,"componentType":5126,"count":444,"type":"VEC2"},{"bufferView":80,"componentType":5126,"count":444,"max":[0.29600000381469727,0.2759999930858612,-0.5740000009536743],"min":[0.24400001764297485,-0.2759999930858612,-1.1258748769760132],"type":"VEC3"},{"bufferView":81,"componentType":5126,"count":444,"type":"VEC3"},{"bufferView":82,"componentType":5126,"count":444,"type":"VEC2"},{"bufferView":83,"componentType":5126,"count":444,"max":[0.34599998593330383,0.2759999930858612,-0.5740000009536743],"min":[0.2939999997615814,-0.2759999930858612,-1.1258748769760132],"type":"VEC3"},{"bufferView":84,"componentType":5126,"count":444,"type":"VEC3"},{"bufferView":85,"componentType":5126,"count":444,"type":"VEC2"},{"bufferView":86,"componentType":5126,"count":444,"max":[0.3959999978542328,0.2759999930858612,-0.5740000009536743],"min":[0.3440000116825104,-0.2759999930858612,-1.1258748769760132],"type":"VEC3"},{"bufferView":87,"componentType":5126,"count":444,"type":"VEC3"},{"bufferView":88,"componentType":5126,"count":444,"type":"VEC2"},{"bufferView":89,"componentType":5126,"count":444,"max":[0.44599997997283936,0.2759999930858612,-0.5740000009536743],"min":[0.39399999380111694,-0.2759999930858612,-1.1258748769760132],"type":"VEC3"},{"bufferView":90,"componentType":5126,"count":444,"type":"VEC3"},{"bufferView":91,"componentType":5126,"count":444,"type":"VEC2"},{"bufferView":92,"componentType":5126,"count":444,"max":[0.4959999918937683,0.2759999930858612,-0.5740000009536743],"min":[0.4440000057220459,-0.2759999930858612,-1.1258748769760132],"type":"VEC3"},{"bufferView":93,"componentType":5126,"count":444,"type":"VEC3"},{"bufferView":94,"componentType":5126,"count":444,"type":"VEC2"}],"bufferViews":[{"buffer":0,"byteLength":696,"byteOffset":0,"target":34962},{"buffer":0,"byteLength":696,"byteOffset":696,"target":34962},{"buffer":0,"byteLength":464,"byteOffset":1392,"target":34962},{"buffer":0,"byteLength":288,"byteOffset":1856,"target":34963},{"buffer":0,"byteLength":6336,"byteOffset":2144,"target":34962},{"buffer":0,"byteLength":6336,"byteOffset":8480,"target":34962},{"buffer":0,"byteLength":4224,"byteOffset":14816,"target":34962},{"buffer":0,"byteLength":3840,"byteOffset":19040,"target":34963},{"buffer":0,"byteLength":6336,"byteOffset":22880,"target":34962},{"buffer":0,"byteLength":6336,"byteOffset":29216,"target":34962},{"buffer":0,"byteLength":4224,"byteOffset":35552,"target":34962},{"buffer":0,"byteLength":3840,"byteOffset":39776,"target":34963},{"buffer":0,"byteLength":480,"byteOffset":43616,"target":34962},{"buffer":0,"byteLength":480,"byteOffset":44096,"target":34962},{"buffer":0,"byteLength":320,"byteOffset":44576,"target":34962},{"buffer":0,"byteLength":192,"byteOffset":44896,"target":34963},{"buffer":0,"byteLength":3672,"byteOffset":45088,"target":34962},{"buffer":0,"byteLength":3672,"byteOffset":48760,"target":34962},{"buffer":0,"byteLength":2448,"byteOffset":52432,"target":34962},{"buffer":0,"byteLength":1128,"byteOffset":54880,"target":34963},{"buffer":0,"byteLength":3684,"byteOffset":56008,"target":34962},{"buffer":0,"byteLength":3684,"byteOffset":59692,"target":34962},{"buffer":0,"byteLength":2456,"byteOffset":63376,"target":34962},{"buffer":0,"byteLength":1128,"byteOffset":65832,"target":34963},{"buffer":0,"byteLength":3600,"byteOffset":66960,"target":34962},{"buffer":0,"byteLength":3600,"byteOffset":70560,"target":34962},{"buffer":0,"byteLength":2400,"byteOffset":74160,"target":34962},{"buffer":0,"byteLength":1128,"byteOffset":76560,"target":34963},{"buffer":0,"byteLength":3588,"byteOffset":77688,"target":34962},{"buffer":0,"byteLength":3588,"byteOffset":81276,"target":34962},{"buffer":0,"byteLength":2392,"byteOffset":84864,"target":34962},{"buffer":0,"byteLength":1128,"byteOffset":87256,"target":34963},{"buffer":0,"byteLength":5328,"byteOffset":88384,"target":34962},{"buffer":0,"byteLength":5328,"byteOffset":93712,"target":34962},{"buffer":0,"byteLength":3552,"byteOffset":99040,"target":34962},{"buffer":0,"byteLength":3072,"byteOffset":102592,"target":34963},{"buffer":0,"byteLength":5328,"byteOffset":105664,"target":34962},{"buffer":0,"byteLength":5328,"byteOffset":110992,"target":34962},{"buffer":0,"byteLength":3552,"byteOffset":116320,"target":34962},{"buffer":0,"byteLength":5328,"byteOffset":119872,"target":34962},{"buffer":0,"byteLength":5328,"byteOffset":125200,"target":34962},{"buffer":0,"byteLength":3552,"byteOffset":130528,"target":34962},{"buffer":0,"byteLength":5328,"byteOffset":134080,"target":34962},{"buffer":0,"byteLength":5328,"byteOffset":139408,"target":34962},{"buffer":0,"byteLength":3552,"byteOffset":144736,"target":34962},{"buffer":0,"byteLength":5328,"byteOffset":148288,"target":34962},{"buffer":0,"byteLength":5328,"byteOffset":153616,"target":34962},{"buffer":0,"byteLength":3552,"byteOffset":158944,"target":34962},{"buffer":0,"byteLength":5328,"byteOffset":162496,"target":34962},{"buffer":0,"byteLength":5328,"byteOffset":167824,"target":34962},{"buffer":0,"byteLength":3552,"byteOffset":173152,"target":34962},{"buffer":0,"byteLength":5328,"byteOffset":176704,"target":34962},{"buffer":0,"byteLength":5328,"byteOffset":182032,"target":34962},{"buffer":0,"byteLength":3552,"byteOffset":187360,"target":34962},{"buffer":0,"byteLength":5328,"byteOffset":190912,"target":34962},{"buffer":0,"byteLength":5328,"byteOffset":196240,"target":34962},{"buffer":0,"byteLength":3552,"byteOffset":201568,"target":34962},{"buffer":0,"byteLength":5328,"byteOffset":205120,"target":34962},{"buffer":0,"byteLength":5328,"byteOffset":210448,"target":34962},{"buffer":0,"byteLength":3552,"byteOffset":215776,"target":34962},{"buffer":0,"byteLength":5328,"byteOffset":219328,"target":34962},{"buffer":0,"byteLength":5328,"byteOffset":224656,"target":34962},{"buffer":0,"byteLength":3552,"byteOffset":229984,"target":34962},{"buffer":0,"byteLength":5328,"byteOffset":233536,"target":34962},{"buffer":0,"byteLength":5328,"byteOffset":238864,"target":34962},{"buffer":0,"byteLength":3552,"byteOffset":244192,"target":34962},{"buffer":0,"byteLength":3072,"byteOffset":247744,"target":34963},{"buffer":0,"byteLength":5328,"byteOffset":250816,"target":34962},{"buffer":0,"byteLength":5328,"byteOffset":256144,"target":34962},{"buffer":0,"byteLength":3552,"byteOffset":261472,"target":34962},{"buffer":0,"byteLength":3072,"byteOffset":265024,"target":34963},{"buffer":0,"byteLength":5328,"byteOffset":268096,"target":34962},{"buffer":0,"byteLength":5328,"byteOffset":273424,"target":34962},{"buffer":0,"byteLength":3552,"byteOffset":278752,"target":34962},{"buffer":0,"byteLength":5328,"byteOffset":282304,"target":34962},{"buffer":0,"byteLength":5328,"byteOffset":287632,"target":34962},{"buffer":0,"byteLength":3552,"byteOffset":292960,"target":34962},{"buffer":0,"byteLength":5328,"byteOffset":296512,"target":34962},{"buffer":0,"byteLength":5328,"byteOffset":301840,"target":34962},{"buffer":0,"byteLength":3552,"byteOffset":307168,"target":34962},{"buffer":0,"byteLength":5328,"byteOffset":310720,"target":34962},{"buffer":0,"byteLength":5328,"byteOffset":316048,"target":34962},{"buffer":0,"byteLength":3552,"byteOffset":321376,"target":34962},{"buffer":0,"byteLength":5328,"byteOffset":324928,"target":34962},{"buffer":0,"byteLength":5328,"byteOffset":330256,"target":34962},{"buffer":0,"byteLength":3552,"byteOffset":335584,"target":34962},{"buffer":0,"byteLength":5328,"byteOffset":339136,"target":34962},{"buffer":0,"byteLength":5328,"byteOffset":344464,"target":34962},{"buffer":0,"byteLength":3552,"byteOffset":349792,"target":34962},{"buffer":0,"byteLength":5328,"byteOffset":353344,"target":34962},{"buffer":0,"byteLength":5328,"byteOffset":358672,"target":34962},{"buffer":0,"byteLength":3552,"byteOffset":364000,"target":34962},{"buffer":0,"byteLength":5328,"byteOffset":367552,"target":34962},{"buffer":0,"byteLength":5328,"byteOffset":372880,"target":34962},{"buffer":0,"byteLength":3552,"byteOffset":378208,"target":34962}],"samplers":[{"magFilter":9729,"minFilter":9987}],"buffers":[{"uri":"C17_hand_winch.bin","byteLength":381760}]}