{"asset":{"generator":"Khronos glTF Blender I/O v5.2.40","version":"2.0"},"scene":0,"scenes":[{"name":"Scene","nodes":[0,1,2,3,4,5,6,7,8,9,10,11,12,13,14,15,16]}],"nodes":[{"mesh":0,"name":"Barricade cross brace","rotation":[0.7071068286895752,0,0,0.7071068286895752]},{"mesh":1,"name":"Barricade cross brace.001","rotation":[0.7071068286895752,0,0,0.7071068286895752]},{"mesh":2,"name":"Breakable cloth marker","rotation":[0.7071068286895752,0,0,0.7071068286895752]},{"mesh":3,"name":"Splinterable oak plank","rotation":[0.7071068286895752,0,0,0.7071068286895752]},{"mesh":4,"name":"Splinterable oak plank.001","rotation":[0.7071068286895752,0,0,0.7071068286895752]},{"mesh":5,"name":"Splinterable oak plank.002","rotation":[0.7071068286895752,0,0,0.7071068286895752]},{"mesh":6,"name":"Splinterable oak plank.003","rotation":[0.7071068286895752,0,0,0.7071068286895752]},{"mesh":7,"name":"Splinterable oak plank.004","rotation":[0.7071068286895752,0,0,0.7071068286895752]},{"mesh":8,"name":"Splinterable oak plank.005","rotation":[0.7071068286895752,0,0,0.7071068286895752]},{"mesh":9,"name":"Splinterable oak plank.006","rotation":[0.7071068286895752,0,0,0.7071068286895752]},{"mesh":10,"name":"Splinterable oak plank.007","rotation":[0.7071068286895752,0,0,0.7071068286895752]},{"mesh":11,"name":"Square nail","rotation":[0.7071068286895752,0,0,0.7071068286895752]},{"mesh":12,"name":"Square nail.001","rotation":[0.7071068286895752,0,0,0.7071068286895752]},{"mesh":13,"name":"Square nail.002","rotation":[0.7071068286895752,0,0,0.7071068286895752]},{"mesh":14,"name":"Square nail.003","rotation":[0.7071068286895752,0,0,0.7071068286895752]},{"mesh":15,"name":"Square nail.004","rotation":[0.7071068286895752,0,0,0.7071068286895752]},{"mesh":16,"name":"Square nail.005","rotation":[0.7071068286895752,0,0,0.7071068286895752]}],"materials":[{"doubleSided":true,"name":"Split oak","normalTexture":{"index":0,"scale":0.699999988079071},"pbrMetallicRoughness":{"baseColorTexture":{"index":1},"metallicFactor":0,"metallicRoughnessTexture":{"index":2}}},{"doubleSided":true,"name":"Oxblood standard","pbrMetallicRoughness":{"baseColorFactor":[0.11999999731779099,0.010999999940395355,0.02199999988079071,1],"metallicFactor":0,"roughnessFactor":0.8999999761581421}},{"doubleSided":true,"name":"Forged iron","pbrMetallicRoughness":{"baseColorFactor":[0.04699999839067459,0.054999999701976776,0.04800000041723251,1],"metallicFactor":0.699999988079071,"roughnessFactor":0.6200000047683716}}],"meshes":[{"name":"Barricade cross brace","primitives":[{"attributes":{"POSITION":0,"NORMAL":1,"TEXCOORD_0":2},"indices":3,"material":0}]},{"name":"Barricade cross brace.001","primitives":[{"attributes":{"POSITION":4,"NORMAL":5,"TEXCOORD_0":6},"indices":7,"material":0}]},{"name":"Breakable cloth marker","primitives":[{"attributes":{"POSITION":8,"NORMAL":9,"TEXCOORD_0":10},"indices":11,"material":1}]},{"name":"Splinterable oak plank","primitives":[{"attributes":{"POSITION":12,"NORMAL":13,"TEXCOORD_0":14},"indices":15,"material":0}]},{"name":"Splinterable oak plank.001","primitives":[{"attributes":{"POSITION":16,"NORMAL":17,"TEXCOORD_0":18},"indices":19,"material":0}]},{"name":"Splinterable oak plank.002","primitives":[{"attributes":{"POSITION":20,"NORMAL":21,"TEXCOORD_0":22},"indices":23,"material":0}]},{"name":"Splinterable oak plank.003","primitives":[{"attributes":{"POSITION":24,"NORMAL":25,"TEXCOORD_0":26},"indices":27,"material":0}]},{"name":"Splinterable oak plank.004","primitives":[{"attributes":{"POSITION":28,"NORMAL":29,"TEXCOORD_0":30},"indices":31,"material":0}]},{"name":"Splinterable oak plank.005","primitives":[{"attributes":{"POSITION":32,"NORMAL":33,"TEXCOORD_0":34},"indices":35,"material":0}]},{"name":"Splinterable oak plank.006","primitives":[{"attributes":{"POSITION":36,"NORMAL":37,"TEXCOORD_0":38},"indices":39,"material":0}]},{"name":"Splinterable oak plank.007","primitives":[{"attributes":{"POSITION":40,"NORMAL":41,"TEXCOORD_0":42},"indices":43,"material":0}]},{"name":"Square nail","primitives":[{"attributes":{"POSITION":44,"NORMAL":45,"TEXCOORD_0":46},"indices":47,"material":2}]},{"name":"Square nail.001","primitives":[{"attributes":{"POSITION":48,"NORMAL":49,"TEXCOORD_0":50},"indices":47,"material":2}]},{"name":"Square nail.002","primitives":[{"attributes":{"POSITION":51,"NORMAL":52,"TEXCOORD_0":53},"indices":47,"material":2}]},{"name":"Square nail.003","primitives":[{"attributes":{"POSITION":54,"NORMAL":55,"TEXCOORD_0":56},"indices":47,"material":2}]},{"name":"Square nail.004","primitives":[{"attributes":{"POSITION":57,"NORMAL":58,"TEXCOORD_0":59},"indices":47,"material":2}]},{"name":"Square nail.005","primitives":[{"attributes":{"POSITION":60,"NORMAL":61,"TEXCOORD_0":62},"indices":47,"material":2}]}],"textures":[{"sampler":0,"source":0},{"sampler":0,"source":1},{"sampler":0,"source":2}],"images":[{"name":"normal","uri":"../textures/646b8954cd0f77aa31f9.png"},{"name":"albedo","uri":"../textures/c0324d2c3cfe6a395089.png"},{"name":"roughness","uri":"../textures/42487829eda8d1ae4111.png"}],"accessors":[{"bufferView":0,"componentType":5126,"count":291,"max":[1.2999999523162842,0.16499999165534973,-0.32999998331069946],"min":[-1.2999999523162842,0.054999999701976776,-0.5099999904632568],"type":"VEC3"},{"bufferView":1,"componentType":5126,"count":291,"type":"VEC3"},{"bufferView":2,"componentType":5126,"count":291,"type":"VEC2"},{"bufferView":3,"componentType":5123,"count":564,"type":"SCALAR"},{"bufferView":4,"componentType":5126,"count":309,"max":[1.2999999523162842,0.16499999165534973,-1.6899999380111694],"min":[-1.2999999523162842,0.054999999701976776,-1.8700000047683716],"type":"VEC3"},{"bufferView":5,"componentType":5126,"count":309,"type":"VEC3"},{"bufferView":6,"componentType":5126,"count":309,"type":"VEC2"},{"bufferView":7,"componentType":5123,"count":564,"type":"SCALAR"},{"bufferView":8,"componentType":5126,"count":277,"max":[0.10999999940395355,0.14800000190734863,-0.2799999713897705],"min":[-0.10999999940395355,0.13199999928474426,-2.0799999237060547],"type":"VEC3"},{"bufferView":9,"componentType":5126,"count":277,"type":"VEC3"},{"bufferView":10,"componentType":5126,"count":277,"type":"VEC2"},{"bufferView":11,"componentType":5123,"count":564,"type":"SCALAR"},{"bufferView":12,"componentType":5126,"count":271,"max":[-0.9550000429153442,0.06499999761581421,0],"min":[-1.2450000047683716,-0.06499999761581421,-2.4000000953674316],"type":"VEC3"},{"bufferView":13,"componentType":5126,"count":271,"type":"VEC3"},{"bufferView":14,"componentType":5126,"count":271,"type":"VEC2"},{"bufferView":15,"componentType":5123,"count":564,"type":"SCALAR"},{"bufferView":16,"componentType":5126,"count":269,"max":[-0.6450000405311584,0.06499999761581421,0],"min":[-0.9350000023841858,-0.06499999761581421,-2.4000000953674316],"type":"VEC3"},{"bufferView":17,"componentType":5126,"count":269,"type":"VEC3"},{"bufferView":18,"componentType":5126,"count":269,"type":"VEC2"},{"bufferView":19,"componentType":5123,"count":564,"type":"SCALAR"},{"bufferView":20,"componentType":5126,"count":271,"max":[-0.3349999785423279,0.06499999761581421,0],"min":[-0.625,-0.06499999761581421,-2.4000000953674316],"type":"VEC3"},{"bufferView":21,"componentType":5126,"count":271,"type":"VEC3"},{"bufferView":22,"componentType":5126,"count":271,"type":"VEC2"},{"bufferView":23,"componentType":5123,"count":564,"type":"SCALAR"},{"bufferView":24,"componentType":5126,"count":266,"max":[-0.025000005960464478,0.06499999761581421,0],"min":[-0.3149999976158142,-0.06499999761581421,-2.4000000953674316],"type":"VEC3"},{"bufferView":25,"componentType":5126,"count":266,"type":"VEC3"},{"bufferView":26,"componentType":5126,"count":266,"type":"VEC2"},{"bufferView":27,"componentType":5123,"count":564,"type":"SCALAR"},{"bufferView":28,"componentType":5126,"count":266,"max":[0.2849999964237213,0.06499999761581421,0],"min":[-0.004999995231628418,-0.06499999761581421,-2.4000000953674316],"type":"VEC3"},{"bufferView":29,"componentType":5126,"count":266,"type":"VEC3"},{"bufferView":30,"componentType":5126,"count":266,"type":"VEC2"},{"bufferView":31,"componentType":5123,"count":564,"type":"SCALAR"},{"bufferView":32,"componentType":5126,"count":268,"max":[0.5949999690055847,0.06499999761581421,0],"min":[0.3050000071525574,-0.06499999761581421,-2.4000000953674316],"type":"VEC3"},{"bufferView":33,"componentType":5126,"count":268,"type":"VEC3"},{"bufferView":34,"componentType":5126,"count":268,"type":"VEC2"},{"bufferView":35,"componentType":5123,"count":564,"type":"SCALAR"},{"bufferView":36,"componentType":5126,"count":270,"max":[0.9049999713897705,0.06499999761581421,0],"min":[0.6150000095367432,-0.06499999761581421,-2.4000000953674316],"type":"VEC3"},{"bufferView":37,"componentType":5126,"count":270,"type":"VEC3"},{"bufferView":38,"componentType":5126,"count":270,"type":"VEC2"},{"bufferView":39,"componentType":5123,"count":564,"type":"SCALAR"},{"bufferView":40,"componentType":5126,"count":265,"max":[1.215000033378601,0.06499999761581421,0],"min":[0.9250000715255737,-0.06499999761581421,-2.4000000953674316],"type":"VEC3"},{"bufferView":41,"componentType":5126,"count":265,"type":"VEC3"},{"bufferView":42,"componentType":5126,"count":265,"type":"VEC2"},{"bufferView":43,"componentType":5123,"count":564,"type":"SCALAR"},{"bufferView":44,"componentType":5126,"count":8,"max":[-0.8270000219345093,0.1899999976158142,-0.3969999849796295],"min":[-0.8730000257492065,0.10000000149011612,-0.4429999887943268],"type":"VEC3"},{"bufferView":45,"componentType":5126,"count":8,"type":"VEC3"},{"bufferView":46,"componentType":5126,"count":8,"type":"VEC2"},{"bufferView":47,"componentType":5123,"count":24,"type":"SCALAR"},{"bufferView":48,"componentType":5126,"count":8,"max":[-0.8270000219345093,0.1899999976158142,-1.7569999694824219],"min":[-0.8730000257492065,0.10000000149011612,-1.8029999732971191],"type":"VEC3"},{"bufferView":49,"componentType":5126,"count":8,"type":"VEC3"},{"bufferView":50,"componentType":5126,"count":8,"type":"VEC2"},{"bufferView":51,"componentType":5126,"count":8,"max":[0.023000000044703484,0.1899999976158142,-0.3969999849796295],"min":[-0.023000000044703484,0.10000000149011612,-0.4429999887943268],"type":"VEC3"},{"bufferView":52,"componentType":5126,"count":8,"type":"VEC3"},{"bufferView":53,"componentType":5126,"count":8,"type":"VEC2"},{"bufferView":54,"componentType":5126,"count":8,"max":[0.023000000044703484,0.1899999976158142,-1.7569999694824219],"min":[-0.023000000044703484,0.10000000149011612,-1.8029999732971191],"type":"VEC3"},{"bufferView":55,"componentType":5126,"count":8,"type":"VEC3"},{"bufferView":56,"componentType":5126,"count":8,"type":"VEC2"},{"bufferView":57,"componentType":5126,"count":8,"max":[0.8730000257492065,0.1899999976158142,-0.3969999849796295],"min":[0.8270000219345093,0.10000000149011612,-0.4429999887943268],"type":"VEC3"},{"bufferView":58,"componentType":5126,"count":8,"type":"VEC3"},{"bufferView":59,"componentType":5126,"count":8,"type":"VEC2"},{"bufferView":60,"componentType":5126,"count":8,"max":[0.8730000257492065,0.1899999976158142,-1.7569999694824219],"min":[0.8270000219345093,0.10000000149011612,-1.8029999732971191],"type":"VEC3"},{"bufferView":61,"componentType":5126,"count":8,"type":"VEC3"},{"bufferView":62,"componentType":5126,"count":8,"type":"VEC2"}],"bufferViews":[{"buffer":0,"byteLength":3492,"byteOffset":0,"target":34962},{"buffer":0,"byteLength":3492,"byteOffset":3492,"target":34962},{"buffer":0,"byteLength":2328,"byteOffset":6984,"target":34962},{"buffer":0,"byteLength":1128,"byteOffset":9312,"target":34963},{"buffer":0,"byteLength":3708,"byteOffset":10440,"target":34962},{"buffer":0,"byteLength":3708,"byteOffset":14148,"target":34962},{"buffer":0,"byteLength":2472,"byteOffset":17856,"target":34962},{"buffer":0,"byteLength":1128,"byteOffset":20328,"target":34963},{"buffer":0,"byteLength":3324,"byteOffset":21456,"target":34962},{"buffer":0,"byteLength":3324,"byteOffset":24780,"target":34962},{"buffer":0,"byteLength":2216,"byteOffset":28104,"target":34962},{"buffer":0,"byteLength":1128,"byteOffset":30320,"target":34963},{"buffer":0,"byteLength":3252,"byteOffset":31448,"target":34962},{"buffer":0,"byteLength":3252,"byteOffset":34700,"target":34962},{"buffer":0,"byteLength":2168,"byteOffset":37952,"target":34962},{"buffer":0,"byteLength":1128,"byteOffset":40120,"target":34963},{"buffer":0,"byteLength":3228,"byteOffset":41248,"target":34962},{"buffer":0,"byteLength":3228,"byteOffset":44476,"target":34962},{"buffer":0,"byteLength":2152,"byteOffset":47704,"target":34962},{"buffer":0,"byteLength":1128,"byteOffset":49856,"target":34963},{"buffer":0,"byteLength":3252,"byteOffset":50984,"target":34962},{"buffer":0,"byteLength":3252,"byteOffset":54236,"target":34962},{"buffer":0,"byteLength":2168,"byteOffset":57488,"target":34962},{"buffer":0,"byteLength":1128,"byteOffset":59656,"target":34963},{"buffer":0,"byteLength":3192,"byteOffset":60784,"target":34962},{"buffer":0,"byteLength":3192,"byteOffset":63976,"target":34962},{"buffer":0,"byteLength":2128,"byteOffset":67168,"target":34962},{"buffer":0,"byteLength":1128,"byteOffset":69296,"target":34963},{"buffer":0,"byteLength":3192,"byteOffset":70424,"target":34962},{"buffer":0,"byteLength":3192,"byteOffset":73616,"target":34962},{"buffer":0,"byteLength":2128,"byteOffset":76808,"target":34962},{"buffer":0,"byteLength":1128,"byteOffset":78936,"target":34963},{"buffer":0,"byteLength":3216,"byteOffset":80064,"target":34962},{"buffer":0,"byteLength":3216,"byteOffset":83280,"target":34962},{"buffer":0,"byteLength":2144,"byteOffset":86496,"target":34962},{"buffer":0,"byteLength":1128,"byteOffset":88640,"target":34963},{"buffer":0,"byteLength":3240,"byteOffset":89768,"target":34962},{"buffer":0,"byteLength":3240,"byteOffset":93008,"target":34962},{"buffer":0,"byteLength":2160,"byteOffset":96248,"target":34962},{"buffer":0,"byteLength":1128,"byteOffset":98408,"target":34963},{"buffer":0,"byteLength":3180,"byteOffset":99536,"target":34962},{"buffer":0,"byteLength":3180,"byteOffset":102716,"target":34962},{"buffer":0,"byteLength":2120,"byteOffset":105896,"target":34962},{"buffer":0,"byteLength":1128,"byteOffset":108016,"target":34963},{"buffer":0,"byteLength":96,"byteOffset":109144,"target":34962},{"buffer":0,"byteLength":96,"byteOffset":109240,"target":34962},{"buffer":0,"byteLength":64,"byteOffset":109336,"target":34962},{"buffer":0,"byteLength":48,"byteOffset":109400,"target":34963},{"buffer":0,"byteLength":96,"byteOffset":109448,"target":34962},{"buffer":0,"byteLength":96,"byteOffset":109544,"target":34962},{"buffer":0,"byteLength":64,"byteOffset":109640,"target":34962},{"buffer":0,"byteLength":96,"byteOffset":109704,"target":34962},{"buffer":0,"byteLength":96,"byteOffset":109800,"target":34962},{"buffer":0,"byteLength":64,"byteOffset":109896,"target":34962},{"buffer":0,"byteLength":96,"byteOffset":109960,"target":34962},{"buffer":0,"byteLength":96,"byteOffset":110056,"target":34962},{"buffer":0,"byteLength":64,"byteOffset":110152,"target":34962},{"buffer":0,"byteLength":96,"byteOffset":110216,"target":34962},{"buffer":0,"byteLength":96,"byteOffset":110312,"target":34962},{"buffer":0,"byteLength":64,"byteOffset":110408,"target":34962},{"buffer":0,"byteLength":96,"byteOffset":110472,"target":34962},{"buffer":0,"byteLength":96,"byteOffset":110568,"target":34962},{"buffer":0,"byteLength":64,"byteOffset":110664,"target":34962}],"samplers":[{"magFilter":9729,"minFilter":9987}],"buffers":[{"uri":"C18_breakable_oak.bin","byteLength":110728}]}