{"asset":{"generator":"Khronos glTF Blender I/O v5.2.40","version":"2.0"},"extensionsUsed":["KHR_materials_specular"],"scene":0,"scenes":[{"name":"Scene","nodes":[0,1,2,3,4,5,6,7]}],"nodes":[{"mesh":0,"name":"Anchor forged hoop","rotation":[0.7071068286895752,0,0,0.7071068286895752]},{"mesh":1,"name":"Anchor socket","rotation":[0.7071068286895752,0,0,0.7071068286895752]},{"mesh":2,"name":"Ritual anchor claw","rotation":[0.7071068286895752,0,0,0.7071068286895752]},{"mesh":3,"name":"Ritual anchor claw.001","rotation":[0.7071068286895752,0,0,0.7071068286895752]},{"mesh":4,"name":"Suspended rune lozenge","rotation":[0.7071068286895752,0,0,0.7071068286895752]},{"mesh":5,"name":"Suspended rune lozenge.001","rotation":[0.7071068286895752,0,0,0.7071068286895752]},{"mesh":6,"name":"Suspended rune lozenge.002","rotation":[0.7071068286895752,0,0,0.7071068286895752]},{"mesh":7,"name":"Suspended rune lozenge.003","rotation":[0.7071068286895752,0,0,0.7071068286895752]}],"materials":[{"doubleSided":true,"name":"Hammered old bronze","pbrMetallicRoughness":{"baseColorFactor":[0.20999999344348907,0.125,0.04600000008940697,1],"metallicFactor":0.7699999809265137,"roughnessFactor":0.550000011920929}},{"doubleSided":true,"extensions":{"KHR_materials_specular":{"specularFactor":0.5}},"name":"Weathered limestone_soot","normalTexture":{"index":0,"scale":0.2800000011920929},"pbrMetallicRoughness":{"baseColorTexture":{"index":1},"metallicFactor":0,"roughnessFactor":0.9700000286102295}},{"doubleSided":true,"name":"Forged iron","pbrMetallicRoughness":{"baseColorFactor":[0.04699999839067459,0.054999999701976776,0.04800000041723251,1],"metallicFactor":0.699999988079071,"roughnessFactor":0.6200000047683716}}],"meshes":[{"name":"Anchor forged hoop","primitives":[{"attributes":{"POSITION":0,"NORMAL":1,"TEXCOORD_0":2},"indices":3,"material":0}]},{"name":"Anchor socket","primitives":[{"attributes":{"POSITION":4,"NORMAL":5,"TEXCOORD_0":6},"indices":7,"material":1}]},{"name":"Ritual anchor claw","primitives":[{"attributes":{"POSITION":8,"NORMAL":9,"TEXCOORD_0":10},"indices":11,"material":2}]},{"name":"Ritual anchor claw.001","primitives":[{"attributes":{"POSITION":12,"NORMAL":13,"TEXCOORD_0":14},"indices":15,"material":2}]},{"name":"Suspended rune lozenge","primitives":[{"attributes":{"POSITION":16,"NORMAL":17,"TEXCOORD_0":18},"indices":19,"material":0}]},{"name":"Suspended rune lozenge.001","primitives":[{"attributes":{"POSITION":20,"NORMAL":21,"TEXCOORD_0":22},"indices":19,"material":0}]},{"name":"Suspended rune lozenge.002","primitives":[{"attributes":{"POSITION":23,"NORMAL":24,"TEXCOORD_0":25},"indices":19,"material":0}]},{"name":"Suspended rune lozenge.003","primitives":[{"attributes":{"POSITION":26,"NORMAL":27,"TEXCOORD_0":28},"indices":19,"material":0}]}],"textures":[{"sampler":0,"source":0},{"sampler":0,"source":1}],"images":[{"name":"normal","uri":"../textures/111ec8bb85fd34402ad7.png"},{"name":"wall-charcoal","uri":"../textures/ebd4ceb7053513a9ca36.png"}],"accessors":[{"bufferView":0,"componentType":5126,"count":730,"max":[0.4917568862438202,0.04399999976158142,-0.4681535065174103],"min":[-0.4918464720249176,-0.04399999976158142,-1.4518464803695679],"type":"VEC3"},{"bufferView":1,"componentType":5126,"count":730,"type":"VEC3"},{"bufferView":2,"componentType":5126,"count":730,"type":"VEC2"},{"bufferView":3,"componentType":5123,"count":2880,"type":"SCALAR"},{"bufferView":4,"componentType":5126,"count":360,"max":[0.4672193229198456,0.4672192931175232,0],"min":[-0.4672192931175232,-0.4672192931175232,-0.6000000238418579],"type":"VEC3"},{"bufferView":5,"componentType":5126,"count":360,"type":"VEC3"},{"bufferView":6,"componentType":5126,"count":360,"type":"VEC2"},{"bufferView":7,"componentType":5123,"count":924,"type":"SCALAR"},{"bufferView":8,"componentType":5126,"count":37,"max":[-0.1856870800256729,0.04500000178813934,-0.3208860158920288],"min":[-0.543617844581604,-0.04500000178813934,-1.0338518619537354],"type":"VEC3"},{"bufferView":9,"componentType":5126,"count":37,"type":"VEC3"},{"bufferView":10,"componentType":5126,"count":37,"type":"VEC2"},{"bufferView":11,"componentType":5123,"count":96,"type":"SCALAR"},{"bufferView":12,"componentType":5126,"count":37,"max":[0.543617844581604,0.04500000178813934,-0.3208860158920288],"min":[0.1856870800256729,-0.04500000178813934,-1.0338518619537354],"type":"VEC3"},{"bufferView":13,"componentType":5126,"count":37,"type":"VEC3"},{"bufferView":14,"componentType":5126,"count":37,"type":"VEC2"},{"bufferView":15,"componentType":5123,"count":96,"type":"SCALAR"},{"bufferView":16,"componentType":5126,"count":62,"max":[0.12733371555805206,0.07539400458335876,-0.6084146499633789],"min":[-0.12733374536037445,-1.1641532182693481e-08,-1.0432250499725342],"type":"VEC3"},{"bufferView":17,"componentType":5126,"count":62,"type":"VEC3"},{"bufferView":18,"componentType":5126,"count":62,"type":"VEC2"},{"bufferView":19,"componentType":5123,"count":138,"type":"SCALAR"},{"bufferView":20,"componentType":5126,"count":62,"max":[0.12733371555805206,0.07539400458335876,-0.6084146499633789],"min":[-0.12733374536037445,-1.1641532182693481e-08,-1.0432250499725342],"type":"VEC3"},{"bufferView":21,"componentType":5126,"count":62,"type":"VEC3"},{"bufferView":22,"componentType":5126,"count":62,"type":"VEC2"},{"bufferView":23,"componentType":5126,"count":62,"max":[0.12733371555805206,0.07539400458335876,-0.6084146499633789],"min":[-0.12733374536037445,-1.1641532182693481e-08,-1.0432250499725342],"type":"VEC3"},{"bufferView":24,"componentType":5126,"count":62,"type":"VEC3"},{"bufferView":25,"componentType":5126,"count":62,"type":"VEC2"},{"bufferView":26,"componentType":5126,"count":62,"max":[0.12733371555805206,0.07539400458335876,-0.6084146499633789],"min":[-0.12733374536037445,-1.1641532182693481e-08,-1.0432250499725342],"type":"VEC3"},{"bufferView":27,"componentType":5126,"count":62,"type":"VEC3"},{"bufferView":28,"componentType":5126,"count":62,"type":"VEC2"}],"bufferViews":[{"buffer":0,"byteLength":8760,"byteOffset":0,"target":34962},{"buffer":0,"byteLength":8760,"byteOffset":8760,"target":34962},{"buffer":0,"byteLength":5840,"byteOffset":17520,"target":34962},{"buffer":0,"byteLength":5760,"byteOffset":23360,"target":34963},{"buffer":0,"byteLength":4320,"byteOffset":29120,"target":34962},{"buffer":0,"byteLength":4320,"byteOffset":33440,"target":34962},{"buffer":0,"byteLength":2880,"byteOffset":37760,"target":34962},{"buffer":0,"byteLength":1848,"byteOffset":40640,"target":34963},{"buffer":0,"byteLength":444,"byteOffset":42488,"target":34962},{"buffer":0,"byteLength":444,"byteOffset":42932,"target":34962},{"buffer":0,"byteLength":296,"byteOffset":43376,"target":34962},{"buffer":0,"byteLength":192,"byteOffset":43672,"target":34963},{"buffer":0,"byteLength":444,"byteOffset":43864,"target":34962},{"buffer":0,"byteLength":444,"byteOffset":44308,"target":34962},{"buffer":0,"byteLength":296,"byteOffset":44752,"target":34962},{"buffer":0,"byteLength":192,"byteOffset":45048,"target":34963},{"buffer":0,"byteLength":744,"byteOffset":45240,"target":34962},{"buffer":0,"byteLength":744,"byteOffset":45984,"target":34962},{"buffer":0,"byteLength":496,"byteOffset":46728,"target":34962},{"buffer":0,"byteLength":276,"byteOffset":47224,"target":34963},{"buffer":0,"byteLength":744,"byteOffset":47500,"target":34962},{"buffer":0,"byteLength":744,"byteOffset":48244,"target":34962},{"buffer":0,"byteLength":496,"byteOffset":48988,"target":34962},{"buffer":0,"byteLength":744,"byteOffset":49484,"target":34962},{"buffer":0,"byteLength":744,"byteOffset":50228,"target":34962},{"buffer":0,"byteLength":496,"byteOffset":50972,"target":34962},{"buffer":0,"byteLength":744,"byteOffset":51468,"target":34962},{"buffer":0,"byteLength":744,"byteOffset":52212,"target":34962},{"buffer":0,"byteLength":496,"byteOffset":52956,"target":34962}],"samplers":[{"magFilter":9729,"minFilter":9987}],"buffers":[{"uri":"C19_ritual_anchor.bin","byteLength":53452}]}